G04 #@! TF.GenerationSoftware,KiCad,Pcbnew,(5.0.2)-1*
G04 #@! TF.CreationDate,2019-02-24T19:10:18-05:00*
G04 #@! TF.ProjectId,light_monitor,6c696768-745f-46d6-9f6e-69746f722e6b,R001*
G04 #@! TF.SameCoordinates,Original*
G04 #@! TF.FileFunction,Copper,L2,Bot*
G04 #@! TF.FilePolarity,Positive*
%FSLAX46Y46*%
G04 Gerber Fmt 4.6, Leading zero omitted, Abs format (unit mm)*
G04 Created by KiCad (PCBNEW (5.0.2)-1) date 2/24/2019 7:10:18 PM*
%MOMM*%
%LPD*%
G01*
G04 APERTURE LIST*
G04 #@! TA.AperFunction,Conductor*
%ADD10C,0.100000*%
G04 #@! TD*
G04 #@! TA.AperFunction,ComponentPad*
%ADD11C,1.700000*%
G04 #@! TD*
G04 #@! TA.AperFunction,ComponentPad*
%ADD12O,1.700000X1.950000*%
G04 #@! TD*
G04 #@! TA.AperFunction,WasherPad*
%ADD13C,1.400000*%
G04 #@! TD*
G04 #@! TA.AperFunction,SMDPad,CuDef*
%ADD14R,2.600000X3.600000*%
G04 #@! TD*
G04 #@! TA.AperFunction,ViaPad*
%ADD15C,0.508000*%
G04 #@! TD*
G04 #@! TA.AperFunction,Conductor*
%ADD16C,0.152400*%
G04 #@! TD*
G04 #@! TA.AperFunction,Conductor*
%ADD17C,0.254000*%
G04 #@! TD*
G04 APERTURE END LIST*
D10*
G04 #@! TO.N,GND*
G04 #@! TO.C,J1*
G36*
X110352504Y-92315324D02*
X110376773Y-92318924D01*
X110400571Y-92324885D01*
X110423671Y-92333150D01*
X110445849Y-92343640D01*
X110466893Y-92356253D01*
X110486598Y-92370867D01*
X110504777Y-92387343D01*
X110521253Y-92405522D01*
X110535867Y-92425227D01*
X110548480Y-92446271D01*
X110558970Y-92468449D01*
X110567235Y-92491549D01*
X110573196Y-92515347D01*
X110576796Y-92539616D01*
X110578000Y-92564120D01*
X110578000Y-94014120D01*
X110576796Y-94038624D01*
X110573196Y-94062893D01*
X110567235Y-94086691D01*
X110558970Y-94109791D01*
X110548480Y-94131969D01*
X110535867Y-94153013D01*
X110521253Y-94172718D01*
X110504777Y-94190897D01*
X110486598Y-94207373D01*
X110466893Y-94221987D01*
X110445849Y-94234600D01*
X110423671Y-94245090D01*
X110400571Y-94253355D01*
X110376773Y-94259316D01*
X110352504Y-94262916D01*
X110328000Y-94264120D01*
X109128000Y-94264120D01*
X109103496Y-94262916D01*
X109079227Y-94259316D01*
X109055429Y-94253355D01*
X109032329Y-94245090D01*
X109010151Y-94234600D01*
X108989107Y-94221987D01*
X108969402Y-94207373D01*
X108951223Y-94190897D01*
X108934747Y-94172718D01*
X108920133Y-94153013D01*
X108907520Y-94131969D01*
X108897030Y-94109791D01*
X108888765Y-94086691D01*
X108882804Y-94062893D01*
X108879204Y-94038624D01*
X108878000Y-94014120D01*
X108878000Y-92564120D01*
X108879204Y-92539616D01*
X108882804Y-92515347D01*
X108888765Y-92491549D01*
X108897030Y-92468449D01*
X108907520Y-92446271D01*
X108920133Y-92425227D01*
X108934747Y-92405522D01*
X108951223Y-92387343D01*
X108969402Y-92370867D01*
X108989107Y-92356253D01*
X109010151Y-92343640D01*
X109032329Y-92333150D01*
X109055429Y-92324885D01*
X109079227Y-92318924D01*
X109103496Y-92315324D01*
X109128000Y-92314120D01*
X110328000Y-92314120D01*
X110352504Y-92315324D01*
X110352504Y-92315324D01*
G37*
D11*
G04 #@! TD*
G04 #@! TO.P,J1,1*
G04 #@! TO.N,GND*
X109728000Y-93289120D03*
D12*
G04 #@! TO.P,J1,2*
G04 #@! TO.N,Net-(J1-Pad2)*
X112228000Y-93289120D03*
G04 #@! TO.P,J1,3*
G04 #@! TO.N,Net-(J1-Pad3)*
X114728000Y-93289120D03*
G04 #@! TO.P,J1,4*
G04 #@! TO.N,Net-(J1-Pad4)*
X117228000Y-93289120D03*
G04 #@! TD*
D13*
G04 #@! TO.P,X1,*
G04 #@! TO.N,*
X109360200Y-109232200D03*
X117360200Y-101232200D03*
G04 #@! TD*
D14*
G04 #@! TO.P,BT1,2*
G04 #@! TO.N,GND*
X98689880Y-105247440D03*
G04 #@! TO.P,BT1,1*
G04 #@! TO.N,Net-(BT1-Pad1)*
X127989880Y-105247440D03*
G04 #@! TD*
D15*
G04 #@! TO.N,VDD*
X115996720Y-101092000D03*
X118008400Y-110606840D03*
G04 #@! TO.N,GND*
X101798120Y-94482920D03*
X106685080Y-94935040D03*
X112110520Y-99283520D03*
X105882440Y-100629720D03*
X99415600Y-104510840D03*
X99735640Y-109113320D03*
X124617480Y-116072920D03*
X114838480Y-98968560D03*
X124480320Y-94706440D03*
X112816652Y-108080473D03*
X118252230Y-103142688D03*
X113334800Y-117693440D03*
X118709440Y-116042440D03*
X125211840Y-112247680D03*
G04 #@! TO.N,/RX*
X106085639Y-101635560D03*
X116951749Y-111100628D03*
G04 #@! TO.N,/TX*
X116083080Y-102331520D03*
X117551200Y-119888000D03*
X117378480Y-116768880D03*
X117180360Y-111917480D03*
G04 #@! TO.N,Net-(R1-Pad1)*
X104002840Y-95826648D03*
X98044000Y-102692200D03*
G04 #@! TO.N,Net-(BT1-Pad1)*
X127391160Y-107812840D03*
G04 #@! TO.N,/SWO*
X105958640Y-103962200D03*
X113273840Y-111307880D03*
G04 #@! TO.N,/rtc_data*
X105928160Y-103129080D03*
X104551974Y-98153824D03*
G04 #@! TO.N,/sensor_data*
X104419400Y-108249720D03*
X116789200Y-106197400D03*
X116789200Y-104531160D03*
X108813600Y-107696000D03*
G04 #@! TO.N,/sensor_clock*
X102519480Y-108574840D03*
X107447080Y-106934000D03*
G04 #@! TO.N,/rtc_clock*
X99070160Y-102626160D03*
X99415600Y-98171000D03*
G04 #@! TO.N,+3V3*
X121549160Y-97530920D03*
X118323360Y-111577120D03*
G04 #@! TO.N,Net-(C3-Pad1)*
X123520200Y-101417120D03*
X121706640Y-100157280D03*
G04 #@! TO.N,Net-(C4-Pad1)*
X121132600Y-105029000D03*
X127741670Y-100356297D03*
G04 #@! TO.N,Net-(C5-Pad1)*
X104881680Y-108945680D03*
X118455440Y-114630200D03*
G04 #@! TO.N,Net-(C7-Pad1)*
X120477280Y-113212880D03*
X124414280Y-115239800D03*
G04 #@! TO.N,Net-(J1-Pad3)*
X121345960Y-96520000D03*
X124520960Y-101874320D03*
G04 #@! TO.N,/NRST*
X105882440Y-99522280D03*
X115397280Y-110307120D03*
G04 #@! TO.N,/SW_MODE*
X125932505Y-102102931D03*
X125161040Y-103957120D03*
G04 #@! TO.N,/oscillator*
X103769160Y-97302320D03*
X103769160Y-99014280D03*
G04 #@! TD*
D16*
G04 #@! TO.N,VDD*
X118262399Y-110352841D02*
X118008400Y-110606840D01*
X118288801Y-110326439D02*
X118262399Y-110352841D01*
X118288801Y-103868109D02*
X118288801Y-110326439D01*
X117769629Y-103348937D02*
X118288801Y-103868109D01*
X117769629Y-103262577D02*
X117769629Y-103348937D01*
X115996720Y-101489668D02*
X117769629Y-103262577D01*
X115996720Y-101092000D02*
X115996720Y-101489668D01*
G04 #@! TO.N,/RX*
X116592539Y-111100628D02*
X116951749Y-111100628D01*
X108087149Y-103637070D02*
X108087149Y-104761698D01*
X106085639Y-101635560D02*
X108087149Y-103637070D01*
X114426079Y-111100628D02*
X116592539Y-111100628D01*
X108087149Y-104761698D02*
X114426079Y-111100628D01*
G04 #@! TO.N,/TX*
X116083080Y-102331520D02*
X116083080Y-109465870D01*
X117551200Y-119888000D02*
X117551200Y-116941600D01*
X117551200Y-116941600D02*
X117378480Y-116768880D01*
X117434359Y-111663481D02*
X117434359Y-110817149D01*
X117434359Y-110817149D02*
X117058440Y-110441230D01*
X117180360Y-111917480D02*
X117434359Y-111663481D01*
X116083080Y-109465870D02*
X117058440Y-110441230D01*
G04 #@! TO.N,Net-(R1-Pad1)*
X104002840Y-95826648D02*
X99877880Y-99951608D01*
X98460561Y-103108761D02*
X98044000Y-102692200D01*
X99301809Y-103108761D02*
X98460561Y-103108761D01*
X99877880Y-99951608D02*
X99877880Y-102532690D01*
X99877880Y-102532690D02*
X99301809Y-103108761D01*
G04 #@! TO.N,Net-(BT1-Pad1)*
X127989880Y-107214120D02*
X127989880Y-105247440D01*
X127391160Y-107812840D02*
X127989880Y-107214120D01*
G04 #@! TO.N,/SWO*
X112914630Y-111307880D02*
X113273840Y-111307880D01*
X110296947Y-108300507D02*
X110296947Y-108690197D01*
X110296947Y-108690197D02*
X112914630Y-111307880D01*
X105958640Y-103962200D02*
X110296947Y-108300507D01*
G04 #@! TO.N,/rtc_data*
X105928160Y-103129080D02*
X104551974Y-101752894D01*
X104551974Y-101752894D02*
X104551974Y-98153824D01*
G04 #@! TO.N,/sensor_data*
X104419400Y-108249720D02*
X104962960Y-107706160D01*
X104962960Y-107706160D02*
X106507280Y-107706160D01*
X116789200Y-106197400D02*
X116789200Y-104531160D01*
X106507280Y-107706160D02*
X108803440Y-107706160D01*
X108803440Y-107706160D02*
X108813600Y-107696000D01*
G04 #@! TO.N,/sensor_clock*
X104519530Y-106934000D02*
X107447080Y-106934000D01*
X102519480Y-108574840D02*
X102878690Y-108574840D01*
X102878690Y-108574840D02*
X104519530Y-106934000D01*
G04 #@! TO.N,/rtc_clock*
X99070160Y-102626160D02*
X99070160Y-102266950D01*
X99070160Y-102266950D02*
X99070160Y-98516440D01*
X99070160Y-98516440D02*
X99415600Y-98171000D01*
G04 #@! TO.N,+3V3*
X121549160Y-97890130D02*
X118734840Y-100704450D01*
X121549160Y-97530920D02*
X121549160Y-97890130D01*
X118734840Y-100704450D02*
X118734840Y-111165640D01*
X118734840Y-111165640D02*
X118323360Y-111577120D01*
G04 #@! TO.N,Net-(C3-Pad1)*
X123520200Y-101417120D02*
X122260360Y-100157280D01*
X122260360Y-100157280D02*
X121706640Y-100157280D01*
G04 #@! TO.N,Net-(C4-Pad1)*
X121132600Y-104548430D02*
X125324733Y-100356297D01*
X121132600Y-105029000D02*
X121132600Y-104548430D01*
X125324733Y-100356297D02*
X127382460Y-100356297D01*
X127382460Y-100356297D02*
X127741670Y-100356297D01*
G04 #@! TO.N,Net-(C5-Pad1)*
X105135679Y-109199679D02*
X104881680Y-108945680D01*
X110312201Y-114376201D02*
X105135679Y-109199679D01*
X118201441Y-114376201D02*
X110312201Y-114376201D01*
X118455440Y-114630200D02*
X118201441Y-114376201D01*
G04 #@! TO.N,Net-(C7-Pad1)*
X120731279Y-113466879D02*
X122641359Y-113466879D01*
X120477280Y-113212880D02*
X120731279Y-113466879D01*
X122641359Y-113466879D02*
X124414280Y-115239800D01*
G04 #@! TO.N,Net-(J1-Pad3)*
X121599959Y-96773999D02*
X124886719Y-96773999D01*
X121345960Y-96520000D02*
X121599959Y-96773999D01*
X124886719Y-96773999D02*
X128402080Y-100289360D01*
X127863599Y-101620321D02*
X128402080Y-101081840D01*
X124774959Y-101620321D02*
X127863599Y-101620321D01*
X124520960Y-101874320D02*
X124774959Y-101620321D01*
X128402080Y-100289360D02*
X128402080Y-101081840D01*
G04 #@! TO.N,/NRST*
X106136439Y-99776279D02*
X106136439Y-100020119D01*
X105882440Y-99522280D02*
X106136439Y-99776279D01*
X106136439Y-100020119D02*
X108391960Y-102275640D01*
X114063638Y-110307120D02*
X115397280Y-110307120D01*
X108391960Y-102275640D02*
X108391960Y-104635442D01*
X108391960Y-104635442D02*
X114063638Y-110307120D01*
G04 #@! TO.N,/SW_MODE*
X125932505Y-103185655D02*
X125932505Y-102102931D01*
X125161040Y-103957120D02*
X125932505Y-103185655D01*
G04 #@! TO.N,/oscillator*
X103769160Y-97302320D02*
X103769160Y-99014280D01*
G04 #@! TD*
D17*
G04 #@! TO.N,GND*
G36*
X126752028Y-99645097D02*
X125394774Y-99645097D01*
X125324732Y-99631165D01*
X125254690Y-99645097D01*
X125254687Y-99645097D01*
X125047237Y-99686361D01*
X125047236Y-99686362D01*
X125047235Y-99686362D01*
X124871368Y-99803873D01*
X124871366Y-99803875D01*
X124811987Y-99843551D01*
X124772311Y-99902930D01*
X124015294Y-100659948D01*
X123697033Y-100528120D01*
X123636989Y-100528120D01*
X122812784Y-99703916D01*
X122773106Y-99644534D01*
X122537856Y-99487344D01*
X122330406Y-99446080D01*
X122330401Y-99446080D01*
X122260360Y-99432148D01*
X122242330Y-99435734D01*
X122210218Y-99403622D01*
X121883473Y-99268280D01*
X121529807Y-99268280D01*
X121203062Y-99403622D01*
X120952982Y-99653702D01*
X120817640Y-99980447D01*
X120817640Y-100334113D01*
X120952982Y-100660858D01*
X121203062Y-100910938D01*
X121529807Y-101046280D01*
X121883473Y-101046280D01*
X122067391Y-100970099D01*
X122631200Y-101533909D01*
X122631200Y-101593953D01*
X122763028Y-101912214D01*
X120679234Y-103996008D01*
X120619855Y-104035684D01*
X120580178Y-104095064D01*
X120580176Y-104095066D01*
X120550152Y-104140000D01*
X120462664Y-104270934D01*
X120421400Y-104478384D01*
X120421400Y-104478389D01*
X120420264Y-104484100D01*
X120378942Y-104525422D01*
X120243600Y-104852167D01*
X120243600Y-105205833D01*
X120378942Y-105532578D01*
X120629022Y-105782658D01*
X120955767Y-105918000D01*
X121309433Y-105918000D01*
X121636178Y-105782658D01*
X121886258Y-105532578D01*
X122021600Y-105205833D01*
X122021600Y-104852167D01*
X121966844Y-104719974D01*
X124046698Y-102640121D01*
X124344127Y-102763320D01*
X124697793Y-102763320D01*
X125024538Y-102627978D01*
X125139939Y-102512577D01*
X125178847Y-102606509D01*
X125221305Y-102648967D01*
X125221305Y-102891066D01*
X125044251Y-103068120D01*
X124984207Y-103068120D01*
X124657462Y-103203462D01*
X124407382Y-103453542D01*
X124272040Y-103780287D01*
X124272040Y-104133953D01*
X124407382Y-104460698D01*
X124657462Y-104710778D01*
X124984207Y-104846120D01*
X125337873Y-104846120D01*
X125664618Y-104710778D01*
X125914698Y-104460698D01*
X126042440Y-104152301D01*
X126042440Y-107047440D01*
X126091723Y-107295205D01*
X126232071Y-107505249D01*
X126442115Y-107645597D01*
X126502160Y-107657541D01*
X126502160Y-107989673D01*
X126637502Y-108316418D01*
X126887582Y-108566498D01*
X127214327Y-108701840D01*
X127567993Y-108701840D01*
X127894738Y-108566498D01*
X128144818Y-108316418D01*
X128280160Y-107989673D01*
X128280160Y-107929629D01*
X128443249Y-107766540D01*
X128502625Y-107726866D01*
X128523998Y-107694880D01*
X128889696Y-107694880D01*
X128709051Y-108719373D01*
X128295508Y-110200516D01*
X127739406Y-111634235D01*
X127046050Y-113006845D01*
X126222061Y-114305245D01*
X125275302Y-115517040D01*
X125251212Y-115542337D01*
X125303280Y-115416633D01*
X125303280Y-115062967D01*
X125167938Y-114736222D01*
X124917858Y-114486142D01*
X124591113Y-114350800D01*
X124531069Y-114350800D01*
X123193783Y-113013515D01*
X123154105Y-112954133D01*
X122918855Y-112796943D01*
X122711405Y-112755679D01*
X122711400Y-112755679D01*
X122641359Y-112741747D01*
X122571318Y-112755679D01*
X121250148Y-112755679D01*
X121230938Y-112709302D01*
X120980858Y-112459222D01*
X120654113Y-112323880D01*
X120300447Y-112323880D01*
X119973702Y-112459222D01*
X119723622Y-112709302D01*
X119588280Y-113036047D01*
X119588280Y-113389713D01*
X119723622Y-113716458D01*
X119973702Y-113966538D01*
X120300447Y-114101880D01*
X120401499Y-114101880D01*
X120453783Y-114136815D01*
X120661233Y-114178079D01*
X120661238Y-114178079D01*
X120731279Y-114192011D01*
X120801321Y-114178079D01*
X122346771Y-114178079D01*
X123525280Y-115356589D01*
X123525280Y-115416633D01*
X123660622Y-115743378D01*
X123910702Y-115993458D01*
X124237447Y-116128800D01*
X124591113Y-116128800D01*
X124758924Y-116059290D01*
X124214812Y-116630665D01*
X123050712Y-117635489D01*
X121794114Y-118521922D01*
X120457012Y-119281501D01*
X119052171Y-119906977D01*
X118418236Y-120117859D01*
X118440200Y-120064833D01*
X118440200Y-119711167D01*
X118304858Y-119384422D01*
X118262400Y-119341964D01*
X118262400Y-117011642D01*
X118276332Y-116941600D01*
X118267480Y-116897098D01*
X118267480Y-116592047D01*
X118132138Y-116265302D01*
X117882058Y-116015222D01*
X117555313Y-115879880D01*
X117201647Y-115879880D01*
X116874902Y-116015222D01*
X116624822Y-116265302D01*
X116489480Y-116592047D01*
X116489480Y-116945713D01*
X116624822Y-117272458D01*
X116840001Y-117487637D01*
X116840000Y-119341964D01*
X116797542Y-119384422D01*
X116662200Y-119711167D01*
X116662200Y-120064833D01*
X116797542Y-120391578D01*
X116945460Y-120539496D01*
X116093422Y-120733074D01*
X114567758Y-120925810D01*
X113030566Y-120968748D01*
X111496522Y-120861477D01*
X109980266Y-120605022D01*
X108496273Y-120201830D01*
X107058706Y-119655749D01*
X105681289Y-118971993D01*
X104377168Y-118157089D01*
X103158793Y-117218813D01*
X102037792Y-116166123D01*
X101024865Y-115009066D01*
X100129682Y-113758687D01*
X99360786Y-112426921D01*
X98725518Y-111026480D01*
X98229941Y-109570732D01*
X97878785Y-108073571D01*
X97826597Y-107682440D01*
X98404130Y-107682440D01*
X98562880Y-107523690D01*
X98562880Y-105374440D01*
X98816880Y-105374440D01*
X98816880Y-107523690D01*
X98975630Y-107682440D01*
X100116189Y-107682440D01*
X100349578Y-107585767D01*
X100528207Y-107407139D01*
X100624880Y-107173750D01*
X100624880Y-105533190D01*
X100466130Y-105374440D01*
X98816880Y-105374440D01*
X98562880Y-105374440D01*
X98542880Y-105374440D01*
X98542880Y-105120440D01*
X98562880Y-105120440D01*
X98562880Y-105100440D01*
X98816880Y-105100440D01*
X98816880Y-105120440D01*
X100466130Y-105120440D01*
X100624880Y-104961690D01*
X100624880Y-103321130D01*
X100528207Y-103087741D01*
X100428788Y-102988323D01*
X100430302Y-102986057D01*
X100430304Y-102986055D01*
X100547815Y-102810188D01*
X100547815Y-102810187D01*
X100547816Y-102810186D01*
X100589080Y-102602736D01*
X100589080Y-102602733D01*
X100603012Y-102532691D01*
X100589080Y-102462649D01*
X100589080Y-100246196D01*
X103022440Y-97812836D01*
X103057960Y-97848356D01*
X103057961Y-98468243D01*
X103015502Y-98510702D01*
X102880160Y-98837447D01*
X102880160Y-99191113D01*
X103015502Y-99517858D01*
X103265582Y-99767938D01*
X103592327Y-99903280D01*
X103840775Y-99903280D01*
X103840774Y-101682852D01*
X103826842Y-101752894D01*
X103840774Y-101822935D01*
X103840774Y-101822939D01*
X103882038Y-102030389D01*
X103882039Y-102030390D01*
X103999550Y-102206258D01*
X103999552Y-102206260D01*
X104039228Y-102265639D01*
X104098608Y-102305316D01*
X105039160Y-103245869D01*
X105039160Y-103305913D01*
X105153698Y-103582433D01*
X105069640Y-103785367D01*
X105069640Y-104139033D01*
X105204982Y-104465778D01*
X105455062Y-104715858D01*
X105781807Y-104851200D01*
X105841852Y-104851200D01*
X107104363Y-106113711D01*
X106943502Y-106180342D01*
X106901044Y-106222800D01*
X104589571Y-106222800D01*
X104519529Y-106208868D01*
X104449487Y-106222800D01*
X104449484Y-106222800D01*
X104242034Y-106264064D01*
X104242033Y-106264065D01*
X104242032Y-106264065D01*
X104066165Y-106381576D01*
X104066163Y-106381578D01*
X104006784Y-106421254D01*
X103967108Y-106480633D01*
X102742691Y-107705050D01*
X102696313Y-107685840D01*
X102342647Y-107685840D01*
X102015902Y-107821182D01*
X101765822Y-108071262D01*
X101630480Y-108398007D01*
X101630480Y-108751673D01*
X101765822Y-109078418D01*
X102015902Y-109328498D01*
X102342647Y-109463840D01*
X102696313Y-109463840D01*
X103023058Y-109328498D01*
X103094512Y-109257044D01*
X103156186Y-109244776D01*
X103391436Y-109087586D01*
X103431114Y-109028204D01*
X103685881Y-108773437D01*
X103915822Y-109003378D01*
X103992680Y-109035214D01*
X103992680Y-109122513D01*
X104128022Y-109449258D01*
X104378102Y-109699338D01*
X104704847Y-109834680D01*
X104764892Y-109834680D01*
X109759779Y-114829568D01*
X109799455Y-114888947D01*
X109858834Y-114928623D01*
X109858836Y-114928625D01*
X109909239Y-114962303D01*
X110034705Y-115046137D01*
X110242155Y-115087401D01*
X110242159Y-115087401D01*
X110312201Y-115101333D01*
X110382243Y-115087401D01*
X117682572Y-115087401D01*
X117701782Y-115133778D01*
X117951862Y-115383858D01*
X118278607Y-115519200D01*
X118632273Y-115519200D01*
X118959018Y-115383858D01*
X119209098Y-115133778D01*
X119344440Y-114807033D01*
X119344440Y-114453367D01*
X119209098Y-114126622D01*
X118959018Y-113876542D01*
X118632273Y-113741200D01*
X118531221Y-113741200D01*
X118478937Y-113706265D01*
X118271487Y-113665001D01*
X118271482Y-113665001D01*
X118201441Y-113651069D01*
X118131400Y-113665001D01*
X110606790Y-113665001D01*
X105770680Y-108828892D01*
X105770680Y-108768847D01*
X105635338Y-108442102D01*
X105610596Y-108417360D01*
X108277724Y-108417360D01*
X108282395Y-108422031D01*
X108228442Y-108475983D01*
X108025200Y-108966652D01*
X108025200Y-109497748D01*
X108228442Y-109988417D01*
X108603983Y-110363958D01*
X109094652Y-110567200D01*
X109625748Y-110567200D01*
X110116417Y-110363958D01*
X110491958Y-109988417D01*
X110520492Y-109919530D01*
X112362208Y-111761247D01*
X112401884Y-111820626D01*
X112461263Y-111860302D01*
X112461265Y-111860304D01*
X112546835Y-111917480D01*
X112637134Y-111977816D01*
X112698808Y-111990084D01*
X112770262Y-112061538D01*
X113097007Y-112196880D01*
X113450673Y-112196880D01*
X113777418Y-112061538D01*
X114027498Y-111811458D01*
X114067013Y-111716060D01*
X114088415Y-111730361D01*
X114148583Y-111770564D01*
X114356033Y-111811828D01*
X114356037Y-111811828D01*
X114426079Y-111825760D01*
X114496121Y-111811828D01*
X116291360Y-111811828D01*
X116291360Y-112094313D01*
X116426702Y-112421058D01*
X116676782Y-112671138D01*
X117003527Y-112806480D01*
X117357193Y-112806480D01*
X117683938Y-112671138D01*
X117934018Y-112421058D01*
X117949207Y-112384388D01*
X118146527Y-112466120D01*
X118500193Y-112466120D01*
X118826938Y-112330778D01*
X119077018Y-112080698D01*
X119212360Y-111753953D01*
X119212360Y-111701923D01*
X119247586Y-111678386D01*
X119404776Y-111443136D01*
X119446040Y-111235686D01*
X119446040Y-111235682D01*
X119459972Y-111165640D01*
X119446040Y-111095598D01*
X119446040Y-100999038D01*
X122002524Y-98442554D01*
X122061906Y-98402876D01*
X122219096Y-98167626D01*
X122231363Y-98105953D01*
X122302818Y-98034498D01*
X122438160Y-97707753D01*
X122438160Y-97485199D01*
X124592131Y-97485199D01*
X126752028Y-99645097D01*
X126752028Y-99645097D01*
G37*
X126752028Y-99645097D02*
X125394774Y-99645097D01*
X125324732Y-99631165D01*
X125254690Y-99645097D01*
X125254687Y-99645097D01*
X125047237Y-99686361D01*
X125047236Y-99686362D01*
X125047235Y-99686362D01*
X124871368Y-99803873D01*
X124871366Y-99803875D01*
X124811987Y-99843551D01*
X124772311Y-99902930D01*
X124015294Y-100659948D01*
X123697033Y-100528120D01*
X123636989Y-100528120D01*
X122812784Y-99703916D01*
X122773106Y-99644534D01*
X122537856Y-99487344D01*
X122330406Y-99446080D01*
X122330401Y-99446080D01*
X122260360Y-99432148D01*
X122242330Y-99435734D01*
X122210218Y-99403622D01*
X121883473Y-99268280D01*
X121529807Y-99268280D01*
X121203062Y-99403622D01*
X120952982Y-99653702D01*
X120817640Y-99980447D01*
X120817640Y-100334113D01*
X120952982Y-100660858D01*
X121203062Y-100910938D01*
X121529807Y-101046280D01*
X121883473Y-101046280D01*
X122067391Y-100970099D01*
X122631200Y-101533909D01*
X122631200Y-101593953D01*
X122763028Y-101912214D01*
X120679234Y-103996008D01*
X120619855Y-104035684D01*
X120580178Y-104095064D01*
X120580176Y-104095066D01*
X120550152Y-104140000D01*
X120462664Y-104270934D01*
X120421400Y-104478384D01*
X120421400Y-104478389D01*
X120420264Y-104484100D01*
X120378942Y-104525422D01*
X120243600Y-104852167D01*
X120243600Y-105205833D01*
X120378942Y-105532578D01*
X120629022Y-105782658D01*
X120955767Y-105918000D01*
X121309433Y-105918000D01*
X121636178Y-105782658D01*
X121886258Y-105532578D01*
X122021600Y-105205833D01*
X122021600Y-104852167D01*
X121966844Y-104719974D01*
X124046698Y-102640121D01*
X124344127Y-102763320D01*
X124697793Y-102763320D01*
X125024538Y-102627978D01*
X125139939Y-102512577D01*
X125178847Y-102606509D01*
X125221305Y-102648967D01*
X125221305Y-102891066D01*
X125044251Y-103068120D01*
X124984207Y-103068120D01*
X124657462Y-103203462D01*
X124407382Y-103453542D01*
X124272040Y-103780287D01*
X124272040Y-104133953D01*
X124407382Y-104460698D01*
X124657462Y-104710778D01*
X124984207Y-104846120D01*
X125337873Y-104846120D01*
X125664618Y-104710778D01*
X125914698Y-104460698D01*
X126042440Y-104152301D01*
X126042440Y-107047440D01*
X126091723Y-107295205D01*
X126232071Y-107505249D01*
X126442115Y-107645597D01*
X126502160Y-107657541D01*
X126502160Y-107989673D01*
X126637502Y-108316418D01*
X126887582Y-108566498D01*
X127214327Y-108701840D01*
X127567993Y-108701840D01*
X127894738Y-108566498D01*
X128144818Y-108316418D01*
X128280160Y-107989673D01*
X128280160Y-107929629D01*
X128443249Y-107766540D01*
X128502625Y-107726866D01*
X128523998Y-107694880D01*
X128889696Y-107694880D01*
X128709051Y-108719373D01*
X128295508Y-110200516D01*
X127739406Y-111634235D01*
X127046050Y-113006845D01*
X126222061Y-114305245D01*
X125275302Y-115517040D01*
X125251212Y-115542337D01*
X125303280Y-115416633D01*
X125303280Y-115062967D01*
X125167938Y-114736222D01*
X124917858Y-114486142D01*
X124591113Y-114350800D01*
X124531069Y-114350800D01*
X123193783Y-113013515D01*
X123154105Y-112954133D01*
X122918855Y-112796943D01*
X122711405Y-112755679D01*
X122711400Y-112755679D01*
X122641359Y-112741747D01*
X122571318Y-112755679D01*
X121250148Y-112755679D01*
X121230938Y-112709302D01*
X120980858Y-112459222D01*
X120654113Y-112323880D01*
X120300447Y-112323880D01*
X119973702Y-112459222D01*
X119723622Y-112709302D01*
X119588280Y-113036047D01*
X119588280Y-113389713D01*
X119723622Y-113716458D01*
X119973702Y-113966538D01*
X120300447Y-114101880D01*
X120401499Y-114101880D01*
X120453783Y-114136815D01*
X120661233Y-114178079D01*
X120661238Y-114178079D01*
X120731279Y-114192011D01*
X120801321Y-114178079D01*
X122346771Y-114178079D01*
X123525280Y-115356589D01*
X123525280Y-115416633D01*
X123660622Y-115743378D01*
X123910702Y-115993458D01*
X124237447Y-116128800D01*
X124591113Y-116128800D01*
X124758924Y-116059290D01*
X124214812Y-116630665D01*
X123050712Y-117635489D01*
X121794114Y-118521922D01*
X120457012Y-119281501D01*
X119052171Y-119906977D01*
X118418236Y-120117859D01*
X118440200Y-120064833D01*
X118440200Y-119711167D01*
X118304858Y-119384422D01*
X118262400Y-119341964D01*
X118262400Y-117011642D01*
X118276332Y-116941600D01*
X118267480Y-116897098D01*
X118267480Y-116592047D01*
X118132138Y-116265302D01*
X117882058Y-116015222D01*
X117555313Y-115879880D01*
X117201647Y-115879880D01*
X116874902Y-116015222D01*
X116624822Y-116265302D01*
X116489480Y-116592047D01*
X116489480Y-116945713D01*
X116624822Y-117272458D01*
X116840001Y-117487637D01*
X116840000Y-119341964D01*
X116797542Y-119384422D01*
X116662200Y-119711167D01*
X116662200Y-120064833D01*
X116797542Y-120391578D01*
X116945460Y-120539496D01*
X116093422Y-120733074D01*
X114567758Y-120925810D01*
X113030566Y-120968748D01*
X111496522Y-120861477D01*
X109980266Y-120605022D01*
X108496273Y-120201830D01*
X107058706Y-119655749D01*
X105681289Y-118971993D01*
X104377168Y-118157089D01*
X103158793Y-117218813D01*
X102037792Y-116166123D01*
X101024865Y-115009066D01*
X100129682Y-113758687D01*
X99360786Y-112426921D01*
X98725518Y-111026480D01*
X98229941Y-109570732D01*
X97878785Y-108073571D01*
X97826597Y-107682440D01*
X98404130Y-107682440D01*
X98562880Y-107523690D01*
X98562880Y-105374440D01*
X98816880Y-105374440D01*
X98816880Y-107523690D01*
X98975630Y-107682440D01*
X100116189Y-107682440D01*
X100349578Y-107585767D01*
X100528207Y-107407139D01*
X100624880Y-107173750D01*
X100624880Y-105533190D01*
X100466130Y-105374440D01*
X98816880Y-105374440D01*
X98562880Y-105374440D01*
X98542880Y-105374440D01*
X98542880Y-105120440D01*
X98562880Y-105120440D01*
X98562880Y-105100440D01*
X98816880Y-105100440D01*
X98816880Y-105120440D01*
X100466130Y-105120440D01*
X100624880Y-104961690D01*
X100624880Y-103321130D01*
X100528207Y-103087741D01*
X100428788Y-102988323D01*
X100430302Y-102986057D01*
X100430304Y-102986055D01*
X100547815Y-102810188D01*
X100547815Y-102810187D01*
X100547816Y-102810186D01*
X100589080Y-102602736D01*
X100589080Y-102602733D01*
X100603012Y-102532691D01*
X100589080Y-102462649D01*
X100589080Y-100246196D01*
X103022440Y-97812836D01*
X103057960Y-97848356D01*
X103057961Y-98468243D01*
X103015502Y-98510702D01*
X102880160Y-98837447D01*
X102880160Y-99191113D01*
X103015502Y-99517858D01*
X103265582Y-99767938D01*
X103592327Y-99903280D01*
X103840775Y-99903280D01*
X103840774Y-101682852D01*
X103826842Y-101752894D01*
X103840774Y-101822935D01*
X103840774Y-101822939D01*
X103882038Y-102030389D01*
X103882039Y-102030390D01*
X103999550Y-102206258D01*
X103999552Y-102206260D01*
X104039228Y-102265639D01*
X104098608Y-102305316D01*
X105039160Y-103245869D01*
X105039160Y-103305913D01*
X105153698Y-103582433D01*
X105069640Y-103785367D01*
X105069640Y-104139033D01*
X105204982Y-104465778D01*
X105455062Y-104715858D01*
X105781807Y-104851200D01*
X105841852Y-104851200D01*
X107104363Y-106113711D01*
X106943502Y-106180342D01*
X106901044Y-106222800D01*
X104589571Y-106222800D01*
X104519529Y-106208868D01*
X104449487Y-106222800D01*
X104449484Y-106222800D01*
X104242034Y-106264064D01*
X104242033Y-106264065D01*
X104242032Y-106264065D01*
X104066165Y-106381576D01*
X104066163Y-106381578D01*
X104006784Y-106421254D01*
X103967108Y-106480633D01*
X102742691Y-107705050D01*
X102696313Y-107685840D01*
X102342647Y-107685840D01*
X102015902Y-107821182D01*
X101765822Y-108071262D01*
X101630480Y-108398007D01*
X101630480Y-108751673D01*
X101765822Y-109078418D01*
X102015902Y-109328498D01*
X102342647Y-109463840D01*
X102696313Y-109463840D01*
X103023058Y-109328498D01*
X103094512Y-109257044D01*
X103156186Y-109244776D01*
X103391436Y-109087586D01*
X103431114Y-109028204D01*
X103685881Y-108773437D01*
X103915822Y-109003378D01*
X103992680Y-109035214D01*
X103992680Y-109122513D01*
X104128022Y-109449258D01*
X104378102Y-109699338D01*
X104704847Y-109834680D01*
X104764892Y-109834680D01*
X109759779Y-114829568D01*
X109799455Y-114888947D01*
X109858834Y-114928623D01*
X109858836Y-114928625D01*
X109909239Y-114962303D01*
X110034705Y-115046137D01*
X110242155Y-115087401D01*
X110242159Y-115087401D01*
X110312201Y-115101333D01*
X110382243Y-115087401D01*
X117682572Y-115087401D01*
X117701782Y-115133778D01*
X117951862Y-115383858D01*
X118278607Y-115519200D01*
X118632273Y-115519200D01*
X118959018Y-115383858D01*
X119209098Y-115133778D01*
X119344440Y-114807033D01*
X119344440Y-114453367D01*
X119209098Y-114126622D01*
X118959018Y-113876542D01*
X118632273Y-113741200D01*
X118531221Y-113741200D01*
X118478937Y-113706265D01*
X118271487Y-113665001D01*
X118271482Y-113665001D01*
X118201441Y-113651069D01*
X118131400Y-113665001D01*
X110606790Y-113665001D01*
X105770680Y-108828892D01*
X105770680Y-108768847D01*
X105635338Y-108442102D01*
X105610596Y-108417360D01*
X108277724Y-108417360D01*
X108282395Y-108422031D01*
X108228442Y-108475983D01*
X108025200Y-108966652D01*
X108025200Y-109497748D01*
X108228442Y-109988417D01*
X108603983Y-110363958D01*
X109094652Y-110567200D01*
X109625748Y-110567200D01*
X110116417Y-110363958D01*
X110491958Y-109988417D01*
X110520492Y-109919530D01*
X112362208Y-111761247D01*
X112401884Y-111820626D01*
X112461263Y-111860302D01*
X112461265Y-111860304D01*
X112546835Y-111917480D01*
X112637134Y-111977816D01*
X112698808Y-111990084D01*
X112770262Y-112061538D01*
X113097007Y-112196880D01*
X113450673Y-112196880D01*
X113777418Y-112061538D01*
X114027498Y-111811458D01*
X114067013Y-111716060D01*
X114088415Y-111730361D01*
X114148583Y-111770564D01*
X114356033Y-111811828D01*
X114356037Y-111811828D01*
X114426079Y-111825760D01*
X114496121Y-111811828D01*
X116291360Y-111811828D01*
X116291360Y-112094313D01*
X116426702Y-112421058D01*
X116676782Y-112671138D01*
X117003527Y-112806480D01*
X117357193Y-112806480D01*
X117683938Y-112671138D01*
X117934018Y-112421058D01*
X117949207Y-112384388D01*
X118146527Y-112466120D01*
X118500193Y-112466120D01*
X118826938Y-112330778D01*
X119077018Y-112080698D01*
X119212360Y-111753953D01*
X119212360Y-111701923D01*
X119247586Y-111678386D01*
X119404776Y-111443136D01*
X119446040Y-111235686D01*
X119446040Y-111235682D01*
X119459972Y-111165640D01*
X119446040Y-111095598D01*
X119446040Y-100999038D01*
X122002524Y-98442554D01*
X122061906Y-98402876D01*
X122219096Y-98167626D01*
X122231363Y-98105953D01*
X122302818Y-98034498D01*
X122438160Y-97707753D01*
X122438160Y-97485199D01*
X124592131Y-97485199D01*
X126752028Y-99645097D01*
G36*
X115005478Y-89578425D02*
X116525166Y-89813686D01*
X118014645Y-90196119D01*
X119459695Y-90722074D01*
X120846525Y-91386531D01*
X122161896Y-92183149D01*
X123393254Y-93104322D01*
X124528843Y-94141258D01*
X125557826Y-95284059D01*
X126470380Y-96521817D01*
X127257795Y-97842718D01*
X127521387Y-98402878D01*
X125439143Y-96320635D01*
X125399465Y-96261253D01*
X125164215Y-96104063D01*
X124956765Y-96062799D01*
X124956760Y-96062799D01*
X124886719Y-96048867D01*
X124816678Y-96062799D01*
X122118828Y-96062799D01*
X122099618Y-96016422D01*
X121849538Y-95766342D01*
X121522793Y-95631000D01*
X121169127Y-95631000D01*
X120842382Y-95766342D01*
X120592302Y-96016422D01*
X120456960Y-96343167D01*
X120456960Y-96696833D01*
X120592302Y-97023578D01*
X120737089Y-97168365D01*
X120660160Y-97354087D01*
X120660160Y-97707753D01*
X120679371Y-97754131D01*
X118281474Y-100152028D01*
X118222094Y-100191705D01*
X118216321Y-100200346D01*
X118116417Y-100100442D01*
X117625748Y-99897200D01*
X117094652Y-99897200D01*
X116603983Y-100100442D01*
X116405394Y-100299031D01*
X116173553Y-100203000D01*
X115819887Y-100203000D01*
X115493142Y-100338342D01*
X115243062Y-100588422D01*
X115107720Y-100915167D01*
X115107720Y-101268833D01*
X115243062Y-101595578D01*
X115304967Y-101657483D01*
X115326784Y-101767164D01*
X115352185Y-101805179D01*
X115329422Y-101827942D01*
X115194080Y-102154687D01*
X115194080Y-102508353D01*
X115329422Y-102835098D01*
X115371880Y-102877556D01*
X115371881Y-109395824D01*
X115367446Y-109418120D01*
X115220447Y-109418120D01*
X114893702Y-109553462D01*
X114851244Y-109595920D01*
X114358227Y-109595920D01*
X109103160Y-104340854D01*
X109103160Y-102567200D01*
X109625748Y-102567200D01*
X110116417Y-102363958D01*
X110491958Y-101988417D01*
X110695200Y-101497748D01*
X110695200Y-100966652D01*
X110491958Y-100475983D01*
X110116417Y-100100442D01*
X109625748Y-99897200D01*
X109094652Y-99897200D01*
X108603983Y-100100442D01*
X108228442Y-100475983D01*
X108043816Y-100921708D01*
X106852430Y-99730321D01*
X106847639Y-99706238D01*
X106847639Y-99706233D01*
X106806375Y-99498783D01*
X106771440Y-99446500D01*
X106771440Y-99345447D01*
X106636098Y-99018702D01*
X106386018Y-98768622D01*
X106059273Y-98633280D01*
X105705607Y-98633280D01*
X105378862Y-98768622D01*
X105263174Y-98884310D01*
X105263174Y-98699860D01*
X105305632Y-98657402D01*
X105440974Y-98330657D01*
X105440974Y-97976991D01*
X105305632Y-97650246D01*
X105055552Y-97400166D01*
X104728807Y-97264824D01*
X104658160Y-97264824D01*
X104658160Y-97125487D01*
X104522818Y-96798742D01*
X104363557Y-96639481D01*
X104506418Y-96580306D01*
X104756498Y-96330226D01*
X104891840Y-96003481D01*
X104891840Y-95649815D01*
X104756498Y-95323070D01*
X104506418Y-95072990D01*
X104435134Y-95043463D01*
X106893000Y-95043463D01*
X106893000Y-95534777D01*
X107081018Y-95988691D01*
X107428429Y-96336102D01*
X107882343Y-96524120D01*
X108373657Y-96524120D01*
X108827571Y-96336102D01*
X109174982Y-95988691D01*
X109363000Y-95534777D01*
X109363000Y-95043463D01*
X109303211Y-94899120D01*
X109442250Y-94899120D01*
X109601000Y-94740370D01*
X109601000Y-93416120D01*
X108401750Y-93416120D01*
X108243000Y-93574870D01*
X108243000Y-94054120D01*
X107882343Y-94054120D01*
X107428429Y-94242138D01*
X107081018Y-94589549D01*
X106893000Y-95043463D01*
X104435134Y-95043463D01*
X104179673Y-94937648D01*
X103826007Y-94937648D01*
X103499262Y-95072990D01*
X103249182Y-95323070D01*
X103113840Y-95649815D01*
X103113840Y-95709859D01*
X100183496Y-98640203D01*
X100304600Y-98347833D01*
X100304600Y-97994167D01*
X100169258Y-97667422D01*
X99919178Y-97417342D01*
X99752395Y-97348258D01*
X100372914Y-96339619D01*
X101302660Y-95114723D01*
X102347499Y-93986400D01*
X103497456Y-92965420D01*
X104567745Y-92187810D01*
X108243000Y-92187810D01*
X108243000Y-93003370D01*
X108401750Y-93162120D01*
X109601000Y-93162120D01*
X109601000Y-91837870D01*
X109855000Y-91837870D01*
X109855000Y-93162120D01*
X109875000Y-93162120D01*
X109875000Y-93416120D01*
X109855000Y-93416120D01*
X109855000Y-94740370D01*
X110013750Y-94899120D01*
X110704309Y-94899120D01*
X110937698Y-94802447D01*
X111116327Y-94623819D01*
X111170344Y-94493411D01*
X111648583Y-94812959D01*
X112228000Y-94928212D01*
X112807418Y-94812959D01*
X113298625Y-94484745D01*
X113478000Y-94216291D01*
X113657375Y-94484745D01*
X114148583Y-94812959D01*
X114728000Y-94928212D01*
X115307418Y-94812959D01*
X115798625Y-94484745D01*
X115978000Y-94216291D01*
X116157375Y-94484745D01*
X116648583Y-94812959D01*
X117228000Y-94928212D01*
X117807418Y-94812959D01*
X118298625Y-94484745D01*
X118626839Y-93993537D01*
X118713000Y-93560375D01*
X118713000Y-93017864D01*
X118626839Y-92584702D01*
X118298625Y-92093495D01*
X117807417Y-91765281D01*
X117228000Y-91650028D01*
X116648582Y-91765281D01*
X116157375Y-92093495D01*
X115978000Y-92361949D01*
X115798625Y-92093495D01*
X115307417Y-91765281D01*
X114728000Y-91650028D01*
X114148582Y-91765281D01*
X113657375Y-92093495D01*
X113478000Y-92361949D01*
X113298625Y-92093495D01*
X112807417Y-91765281D01*
X112228000Y-91650028D01*
X111648582Y-91765281D01*
X111170344Y-92084829D01*
X111116327Y-91954421D01*
X110937698Y-91775793D01*
X110704309Y-91679120D01*
X110013750Y-91679120D01*
X109855000Y-91837870D01*
X109601000Y-91837870D01*
X109442250Y-91679120D01*
X108751691Y-91679120D01*
X108518302Y-91775793D01*
X108339673Y-91954421D01*
X108243000Y-92187810D01*
X104567745Y-92187810D01*
X104741555Y-92061530D01*
X106067920Y-91283356D01*
X107463892Y-90638326D01*
X108916145Y-90132598D01*
X110410818Y-89770999D01*
X111933643Y-89556980D01*
X113470085Y-89492584D01*
X115005478Y-89578425D01*
X115005478Y-89578425D01*
G37*
X115005478Y-89578425D02*
X116525166Y-89813686D01*
X118014645Y-90196119D01*
X119459695Y-90722074D01*
X120846525Y-91386531D01*
X122161896Y-92183149D01*
X123393254Y-93104322D01*
X124528843Y-94141258D01*
X125557826Y-95284059D01*
X126470380Y-96521817D01*
X127257795Y-97842718D01*
X127521387Y-98402878D01*
X125439143Y-96320635D01*
X125399465Y-96261253D01*
X125164215Y-96104063D01*
X124956765Y-96062799D01*
X124956760Y-96062799D01*
X124886719Y-96048867D01*
X124816678Y-96062799D01*
X122118828Y-96062799D01*
X122099618Y-96016422D01*
X121849538Y-95766342D01*
X121522793Y-95631000D01*
X121169127Y-95631000D01*
X120842382Y-95766342D01*
X120592302Y-96016422D01*
X120456960Y-96343167D01*
X120456960Y-96696833D01*
X120592302Y-97023578D01*
X120737089Y-97168365D01*
X120660160Y-97354087D01*
X120660160Y-97707753D01*
X120679371Y-97754131D01*
X118281474Y-100152028D01*
X118222094Y-100191705D01*
X118216321Y-100200346D01*
X118116417Y-100100442D01*
X117625748Y-99897200D01*
X117094652Y-99897200D01*
X116603983Y-100100442D01*
X116405394Y-100299031D01*
X116173553Y-100203000D01*
X115819887Y-100203000D01*
X115493142Y-100338342D01*
X115243062Y-100588422D01*
X115107720Y-100915167D01*
X115107720Y-101268833D01*
X115243062Y-101595578D01*
X115304967Y-101657483D01*
X115326784Y-101767164D01*
X115352185Y-101805179D01*
X115329422Y-101827942D01*
X115194080Y-102154687D01*
X115194080Y-102508353D01*
X115329422Y-102835098D01*
X115371880Y-102877556D01*
X115371881Y-109395824D01*
X115367446Y-109418120D01*
X115220447Y-109418120D01*
X114893702Y-109553462D01*
X114851244Y-109595920D01*
X114358227Y-109595920D01*
X109103160Y-104340854D01*
X109103160Y-102567200D01*
X109625748Y-102567200D01*
X110116417Y-102363958D01*
X110491958Y-101988417D01*
X110695200Y-101497748D01*
X110695200Y-100966652D01*
X110491958Y-100475983D01*
X110116417Y-100100442D01*
X109625748Y-99897200D01*
X109094652Y-99897200D01*
X108603983Y-100100442D01*
X108228442Y-100475983D01*
X108043816Y-100921708D01*
X106852430Y-99730321D01*
X106847639Y-99706238D01*
X106847639Y-99706233D01*
X106806375Y-99498783D01*
X106771440Y-99446500D01*
X106771440Y-99345447D01*
X106636098Y-99018702D01*
X106386018Y-98768622D01*
X106059273Y-98633280D01*
X105705607Y-98633280D01*
X105378862Y-98768622D01*
X105263174Y-98884310D01*
X105263174Y-98699860D01*
X105305632Y-98657402D01*
X105440974Y-98330657D01*
X105440974Y-97976991D01*
X105305632Y-97650246D01*
X105055552Y-97400166D01*
X104728807Y-97264824D01*
X104658160Y-97264824D01*
X104658160Y-97125487D01*
X104522818Y-96798742D01*
X104363557Y-96639481D01*
X104506418Y-96580306D01*
X104756498Y-96330226D01*
X104891840Y-96003481D01*
X104891840Y-95649815D01*
X104756498Y-95323070D01*
X104506418Y-95072990D01*
X104435134Y-95043463D01*
X106893000Y-95043463D01*
X106893000Y-95534777D01*
X107081018Y-95988691D01*
X107428429Y-96336102D01*
X107882343Y-96524120D01*
X108373657Y-96524120D01*
X108827571Y-96336102D01*
X109174982Y-95988691D01*
X109363000Y-95534777D01*
X109363000Y-95043463D01*
X109303211Y-94899120D01*
X109442250Y-94899120D01*
X109601000Y-94740370D01*
X109601000Y-93416120D01*
X108401750Y-93416120D01*
X108243000Y-93574870D01*
X108243000Y-94054120D01*
X107882343Y-94054120D01*
X107428429Y-94242138D01*
X107081018Y-94589549D01*
X106893000Y-95043463D01*
X104435134Y-95043463D01*
X104179673Y-94937648D01*
X103826007Y-94937648D01*
X103499262Y-95072990D01*
X103249182Y-95323070D01*
X103113840Y-95649815D01*
X103113840Y-95709859D01*
X100183496Y-98640203D01*
X100304600Y-98347833D01*
X100304600Y-97994167D01*
X100169258Y-97667422D01*
X99919178Y-97417342D01*
X99752395Y-97348258D01*
X100372914Y-96339619D01*
X101302660Y-95114723D01*
X102347499Y-93986400D01*
X103497456Y-92965420D01*
X104567745Y-92187810D01*
X108243000Y-92187810D01*
X108243000Y-93003370D01*
X108401750Y-93162120D01*
X109601000Y-93162120D01*
X109601000Y-91837870D01*
X109855000Y-91837870D01*
X109855000Y-93162120D01*
X109875000Y-93162120D01*
X109875000Y-93416120D01*
X109855000Y-93416120D01*
X109855000Y-94740370D01*
X110013750Y-94899120D01*
X110704309Y-94899120D01*
X110937698Y-94802447D01*
X111116327Y-94623819D01*
X111170344Y-94493411D01*
X111648583Y-94812959D01*
X112228000Y-94928212D01*
X112807418Y-94812959D01*
X113298625Y-94484745D01*
X113478000Y-94216291D01*
X113657375Y-94484745D01*
X114148583Y-94812959D01*
X114728000Y-94928212D01*
X115307418Y-94812959D01*
X115798625Y-94484745D01*
X115978000Y-94216291D01*
X116157375Y-94484745D01*
X116648583Y-94812959D01*
X117228000Y-94928212D01*
X117807418Y-94812959D01*
X118298625Y-94484745D01*
X118626839Y-93993537D01*
X118713000Y-93560375D01*
X118713000Y-93017864D01*
X118626839Y-92584702D01*
X118298625Y-92093495D01*
X117807417Y-91765281D01*
X117228000Y-91650028D01*
X116648582Y-91765281D01*
X116157375Y-92093495D01*
X115978000Y-92361949D01*
X115798625Y-92093495D01*
X115307417Y-91765281D01*
X114728000Y-91650028D01*
X114148582Y-91765281D01*
X113657375Y-92093495D01*
X113478000Y-92361949D01*
X113298625Y-92093495D01*
X112807417Y-91765281D01*
X112228000Y-91650028D01*
X111648582Y-91765281D01*
X111170344Y-92084829D01*
X111116327Y-91954421D01*
X110937698Y-91775793D01*
X110704309Y-91679120D01*
X110013750Y-91679120D01*
X109855000Y-91837870D01*
X109601000Y-91837870D01*
X109442250Y-91679120D01*
X108751691Y-91679120D01*
X108518302Y-91775793D01*
X108339673Y-91954421D01*
X108243000Y-92187810D01*
X104567745Y-92187810D01*
X104741555Y-92061530D01*
X106067920Y-91283356D01*
X107463892Y-90638326D01*
X108916145Y-90132598D01*
X110410818Y-89770999D01*
X111933643Y-89556980D01*
X113470085Y-89492584D01*
X115005478Y-89578425D01*
G36*
X105378862Y-100275938D02*
X105480015Y-100317837D01*
X105534924Y-100400014D01*
X105584015Y-100473483D01*
X105584017Y-100473485D01*
X105623694Y-100532865D01*
X105683073Y-100572541D01*
X105872239Y-100761707D01*
X105582061Y-100881902D01*
X105331981Y-101131982D01*
X105263174Y-101298097D01*
X105263174Y-100160250D01*
X105378862Y-100275938D01*
X105378862Y-100275938D01*
G37*
X105378862Y-100275938D02*
X105480015Y-100317837D01*
X105534924Y-100400014D01*
X105584015Y-100473483D01*
X105584017Y-100473485D01*
X105623694Y-100532865D01*
X105683073Y-100572541D01*
X105872239Y-100761707D01*
X105582061Y-100881902D01*
X105331981Y-101131982D01*
X105263174Y-101298097D01*
X105263174Y-100160250D01*
X105378862Y-100275938D01*
G04 #@! TD*
M02*
