G04 #@! TF.GenerationSoftware,KiCad,Pcbnew,(5.1.2)-2*
G04 #@! TF.CreationDate,2019-07-23T13:22:34-04:00*
G04 #@! TF.ProjectId,light_monitor,6c696768-745f-46d6-9f6e-69746f722e6b,R001*
G04 #@! TF.SameCoordinates,Original*
G04 #@! TF.FileFunction,Legend,Bot*
G04 #@! TF.FilePolarity,Positive*
%FSLAX46Y46*%
G04 Gerber Fmt 4.6, Leading zero omitted, Abs format (unit mm)*
G04 Created by KiCad (PCBNEW (5.1.2)-2) date 2019-07-23 13:22:34*
%MOMM*%
%LPD*%
G04 APERTURE LIST*
%ADD10C,0.150000*%
G04 APERTURE END LIST*
D10*
X116639000Y-98855000D02*
X110035000Y-98855000D01*
X116766000Y-95172000D02*
X116766000Y-93902000D01*
X115877000Y-118667000D02*
X115877000Y-115365000D01*
X115877000Y-115365000D02*
X110924000Y-115365000D01*
X110924000Y-115365000D02*
X110670000Y-115365000D01*
X110670000Y-115365000D02*
X110670000Y-118667000D01*
X109908000Y-93013000D02*
X109908000Y-98855000D01*
X116766000Y-95172000D02*
X116766000Y-98855000D01*
X109884836Y-93049126D02*
G75*
G03X99748000Y-106094000I3325164J-13044874D01*
G01*
X126643213Y-106093999D02*
G75*
G03X116765999Y-93140001I-13433213J-1D01*
G01*
X116766000Y-93902000D02*
X116766000Y-93140000D01*
X99748000Y-106094000D02*
X110670000Y-118667000D01*
X115877000Y-118667000D02*
X126643213Y-106093999D01*
X113995714Y-107538571D02*
X113852857Y-107586190D01*
X113805238Y-107633809D01*
X113757619Y-107729047D01*
X113757619Y-107871904D01*
X113805238Y-107967142D01*
X113852857Y-108014761D01*
X113948095Y-108062380D01*
X114329047Y-108062380D01*
X114329047Y-107062380D01*
X113995714Y-107062380D01*
X113900476Y-107110000D01*
X113852857Y-107157619D01*
X113805238Y-107252857D01*
X113805238Y-107348095D01*
X113852857Y-107443333D01*
X113900476Y-107490952D01*
X113995714Y-107538571D01*
X114329047Y-107538571D01*
X113471904Y-107062380D02*
X112900476Y-107062380D01*
X113186190Y-108062380D02*
X113186190Y-107062380D01*
X112043333Y-108062380D02*
X112614761Y-108062380D01*
X112329047Y-108062380D02*
X112329047Y-107062380D01*
X112424285Y-107205238D01*
X112519523Y-107300476D01*
X112614761Y-107348095D01*
M02*
