M48
; DRILL file {KiCad (5.1.2)-2} date 7/23/2019 1:19:44 PM
; FORMAT={-:-/ absolute / inch / decimal}
; #@! TF.CreationDate,2019-07-23T13:19:44-04:00
; #@! TF.GenerationSoftware,Kicad,Pcbnew,(5.1.2)-2
; #@! TF.FileFunction,Plated,1,2,PTH
FMAT,2
INCH
T1C0.0100
T2C0.0374
%
G90
G05
T1
X3.863Y-4.3215
X3.8834Y-4.0415
X3.8928Y-3.9417
X3.895Y-4.2955
X3.8997Y-4.0995
X3.921Y-4.155
X3.9392Y-3.9467
X3.963Y-4.362
X3.9662Y-3.9197
X3.9868Y-4.1543
X3.9881Y-3.731
X4.006Y-4.217
X4.016Y-3.895
X4.0262Y-4.1887
X4.0325Y-3.725
X4.04Y-3.693
X4.0457Y-4.252
X4.0501Y-3.9015
X4.0719Y-3.866
X4.0935Y-4.3885
X4.1042Y-4.3615
X4.105Y-3.837
X4.1239Y-3.879
X4.189Y-3.974
X4.202Y-3.737
X4.2085Y-3.811
X4.2193Y-4.5992
X4.22Y-3.8555
X4.2285Y-4.4125
X4.2515Y-4.332
X4.26Y-3.7085
X4.2945Y-3.8005
X4.2957Y-4.2398
X4.346Y-3.6655
X4.3555Y-4.067
X4.356Y-4.2165
X4.361Y-4.3885
X4.3615Y-3.7985
X4.3681Y-4.5953
X4.386Y-4.144
X4.386Y-4.3665
X4.4335Y-4.25
X4.4535Y-3.886
X4.4607Y-4.4125
X4.5035Y-3.6655
X4.535Y-4.084
X4.535Y-4.135
X4.564Y-4.1825
X4.5642Y-3.7886
X4.5826Y-4.0162
X4.6988Y-3.9043
X4.7436Y-3.9465
T2
X4.9091Y-4.1491
X4.9091Y-4.2475
X4.9091Y-4.3459
T0
M30
