G04 #@! TF.GenerationSoftware,KiCad,Pcbnew,(5.1.2)-2*
G04 #@! TF.CreationDate,2019-07-23T13:22:34-04:00*
G04 #@! TF.ProjectId,light_monitor,6c696768-745f-46d6-9f6e-69746f722e6b,R001*
G04 #@! TF.SameCoordinates,Original*
G04 #@! TF.FileFunction,Paste,Top*
G04 #@! TF.FilePolarity,Positive*
%FSLAX46Y46*%
G04 Gerber Fmt 4.6, Leading zero omitted, Abs format (unit mm)*
G04 Created by KiCad (PCBNEW (5.1.2)-2) date 2019-07-23 13:22:34*
%MOMM*%
%LPD*%
G04 APERTURE LIST*
%ADD10R,0.740000X2.790000*%
%ADD11R,1.200000X0.350000*%
%ADD12C,0.100000*%
%ADD13C,0.950000*%
%ADD14R,0.900000X1.200000*%
%ADD15R,1.035000X1.035000*%
%ADD16R,0.700000X0.250000*%
%ADD17R,0.250000X0.700000*%
%ADD18R,0.800000X0.500000*%
G04 APERTURE END LIST*
D10*
X117094000Y-114706400D03*
X117094000Y-118770400D03*
X115824000Y-114706400D03*
X115824000Y-118770400D03*
X114554000Y-114706400D03*
X114554000Y-118770400D03*
X113284000Y-114706400D03*
X113284000Y-118770400D03*
X112014000Y-114706400D03*
X112014000Y-118770400D03*
X110744000Y-114706400D03*
X110744000Y-118770400D03*
X109474000Y-114706400D03*
X109474000Y-118770400D03*
D11*
X114110200Y-104582200D03*
X114110200Y-105232200D03*
X114110200Y-105882200D03*
X112610200Y-105882200D03*
X112610200Y-105232200D03*
X112610200Y-104582200D03*
D12*
G36*
X111856179Y-92629844D02*
G01*
X111879234Y-92633263D01*
X111901843Y-92638927D01*
X111923787Y-92646779D01*
X111944857Y-92656744D01*
X111964848Y-92668726D01*
X111983568Y-92682610D01*
X112000838Y-92698262D01*
X112016490Y-92715532D01*
X112030374Y-92734252D01*
X112042356Y-92754243D01*
X112052321Y-92775313D01*
X112060173Y-92797257D01*
X112065837Y-92819866D01*
X112069256Y-92842921D01*
X112070400Y-92866200D01*
X112070400Y-93341200D01*
X112069256Y-93364479D01*
X112065837Y-93387534D01*
X112060173Y-93410143D01*
X112052321Y-93432087D01*
X112042356Y-93453157D01*
X112030374Y-93473148D01*
X112016490Y-93491868D01*
X112000838Y-93509138D01*
X111983568Y-93524790D01*
X111964848Y-93538674D01*
X111944857Y-93550656D01*
X111923787Y-93560621D01*
X111901843Y-93568473D01*
X111879234Y-93574137D01*
X111856179Y-93577556D01*
X111832900Y-93578700D01*
X111257900Y-93578700D01*
X111234621Y-93577556D01*
X111211566Y-93574137D01*
X111188957Y-93568473D01*
X111167013Y-93560621D01*
X111145943Y-93550656D01*
X111125952Y-93538674D01*
X111107232Y-93524790D01*
X111089962Y-93509138D01*
X111074310Y-93491868D01*
X111060426Y-93473148D01*
X111048444Y-93453157D01*
X111038479Y-93432087D01*
X111030627Y-93410143D01*
X111024963Y-93387534D01*
X111021544Y-93364479D01*
X111020400Y-93341200D01*
X111020400Y-92866200D01*
X111021544Y-92842921D01*
X111024963Y-92819866D01*
X111030627Y-92797257D01*
X111038479Y-92775313D01*
X111048444Y-92754243D01*
X111060426Y-92734252D01*
X111074310Y-92715532D01*
X111089962Y-92698262D01*
X111107232Y-92682610D01*
X111125952Y-92668726D01*
X111145943Y-92656744D01*
X111167013Y-92646779D01*
X111188957Y-92638927D01*
X111211566Y-92633263D01*
X111234621Y-92629844D01*
X111257900Y-92628700D01*
X111832900Y-92628700D01*
X111856179Y-92629844D01*
X111856179Y-92629844D01*
G37*
D13*
X111545400Y-93103700D03*
D12*
G36*
X113606179Y-92629844D02*
G01*
X113629234Y-92633263D01*
X113651843Y-92638927D01*
X113673787Y-92646779D01*
X113694857Y-92656744D01*
X113714848Y-92668726D01*
X113733568Y-92682610D01*
X113750838Y-92698262D01*
X113766490Y-92715532D01*
X113780374Y-92734252D01*
X113792356Y-92754243D01*
X113802321Y-92775313D01*
X113810173Y-92797257D01*
X113815837Y-92819866D01*
X113819256Y-92842921D01*
X113820400Y-92866200D01*
X113820400Y-93341200D01*
X113819256Y-93364479D01*
X113815837Y-93387534D01*
X113810173Y-93410143D01*
X113802321Y-93432087D01*
X113792356Y-93453157D01*
X113780374Y-93473148D01*
X113766490Y-93491868D01*
X113750838Y-93509138D01*
X113733568Y-93524790D01*
X113714848Y-93538674D01*
X113694857Y-93550656D01*
X113673787Y-93560621D01*
X113651843Y-93568473D01*
X113629234Y-93574137D01*
X113606179Y-93577556D01*
X113582900Y-93578700D01*
X113007900Y-93578700D01*
X112984621Y-93577556D01*
X112961566Y-93574137D01*
X112938957Y-93568473D01*
X112917013Y-93560621D01*
X112895943Y-93550656D01*
X112875952Y-93538674D01*
X112857232Y-93524790D01*
X112839962Y-93509138D01*
X112824310Y-93491868D01*
X112810426Y-93473148D01*
X112798444Y-93453157D01*
X112788479Y-93432087D01*
X112780627Y-93410143D01*
X112774963Y-93387534D01*
X112771544Y-93364479D01*
X112770400Y-93341200D01*
X112770400Y-92866200D01*
X112771544Y-92842921D01*
X112774963Y-92819866D01*
X112780627Y-92797257D01*
X112788479Y-92775313D01*
X112798444Y-92754243D01*
X112810426Y-92734252D01*
X112824310Y-92715532D01*
X112839962Y-92698262D01*
X112857232Y-92682610D01*
X112875952Y-92668726D01*
X112895943Y-92656744D01*
X112917013Y-92646779D01*
X112938957Y-92638927D01*
X112961566Y-92633263D01*
X112984621Y-92629844D01*
X113007900Y-92628700D01*
X113582900Y-92628700D01*
X113606179Y-92629844D01*
X113606179Y-92629844D01*
G37*
D13*
X113295400Y-93103700D03*
D12*
G36*
X104273779Y-92708144D02*
G01*
X104296834Y-92711563D01*
X104319443Y-92717227D01*
X104341387Y-92725079D01*
X104362457Y-92735044D01*
X104382448Y-92747026D01*
X104401168Y-92760910D01*
X104418438Y-92776562D01*
X104434090Y-92793832D01*
X104447974Y-92812552D01*
X104459956Y-92832543D01*
X104469921Y-92853613D01*
X104477773Y-92875557D01*
X104483437Y-92898166D01*
X104486856Y-92921221D01*
X104488000Y-92944500D01*
X104488000Y-93519500D01*
X104486856Y-93542779D01*
X104483437Y-93565834D01*
X104477773Y-93588443D01*
X104469921Y-93610387D01*
X104459956Y-93631457D01*
X104447974Y-93651448D01*
X104434090Y-93670168D01*
X104418438Y-93687438D01*
X104401168Y-93703090D01*
X104382448Y-93716974D01*
X104362457Y-93728956D01*
X104341387Y-93738921D01*
X104319443Y-93746773D01*
X104296834Y-93752437D01*
X104273779Y-93755856D01*
X104250500Y-93757000D01*
X103775500Y-93757000D01*
X103752221Y-93755856D01*
X103729166Y-93752437D01*
X103706557Y-93746773D01*
X103684613Y-93738921D01*
X103663543Y-93728956D01*
X103643552Y-93716974D01*
X103624832Y-93703090D01*
X103607562Y-93687438D01*
X103591910Y-93670168D01*
X103578026Y-93651448D01*
X103566044Y-93631457D01*
X103556079Y-93610387D01*
X103548227Y-93588443D01*
X103542563Y-93565834D01*
X103539144Y-93542779D01*
X103538000Y-93519500D01*
X103538000Y-92944500D01*
X103539144Y-92921221D01*
X103542563Y-92898166D01*
X103548227Y-92875557D01*
X103556079Y-92853613D01*
X103566044Y-92832543D01*
X103578026Y-92812552D01*
X103591910Y-92793832D01*
X103607562Y-92776562D01*
X103624832Y-92760910D01*
X103643552Y-92747026D01*
X103663543Y-92735044D01*
X103684613Y-92725079D01*
X103706557Y-92717227D01*
X103729166Y-92711563D01*
X103752221Y-92708144D01*
X103775500Y-92707000D01*
X104250500Y-92707000D01*
X104273779Y-92708144D01*
X104273779Y-92708144D01*
G37*
D13*
X104013000Y-93232000D03*
D12*
G36*
X104273779Y-94458144D02*
G01*
X104296834Y-94461563D01*
X104319443Y-94467227D01*
X104341387Y-94475079D01*
X104362457Y-94485044D01*
X104382448Y-94497026D01*
X104401168Y-94510910D01*
X104418438Y-94526562D01*
X104434090Y-94543832D01*
X104447974Y-94562552D01*
X104459956Y-94582543D01*
X104469921Y-94603613D01*
X104477773Y-94625557D01*
X104483437Y-94648166D01*
X104486856Y-94671221D01*
X104488000Y-94694500D01*
X104488000Y-95269500D01*
X104486856Y-95292779D01*
X104483437Y-95315834D01*
X104477773Y-95338443D01*
X104469921Y-95360387D01*
X104459956Y-95381457D01*
X104447974Y-95401448D01*
X104434090Y-95420168D01*
X104418438Y-95437438D01*
X104401168Y-95453090D01*
X104382448Y-95466974D01*
X104362457Y-95478956D01*
X104341387Y-95488921D01*
X104319443Y-95496773D01*
X104296834Y-95502437D01*
X104273779Y-95505856D01*
X104250500Y-95507000D01*
X103775500Y-95507000D01*
X103752221Y-95505856D01*
X103729166Y-95502437D01*
X103706557Y-95496773D01*
X103684613Y-95488921D01*
X103663543Y-95478956D01*
X103643552Y-95466974D01*
X103624832Y-95453090D01*
X103607562Y-95437438D01*
X103591910Y-95420168D01*
X103578026Y-95401448D01*
X103566044Y-95381457D01*
X103556079Y-95360387D01*
X103548227Y-95338443D01*
X103542563Y-95315834D01*
X103539144Y-95292779D01*
X103538000Y-95269500D01*
X103538000Y-94694500D01*
X103539144Y-94671221D01*
X103542563Y-94648166D01*
X103548227Y-94625557D01*
X103556079Y-94603613D01*
X103566044Y-94582543D01*
X103578026Y-94562552D01*
X103591910Y-94543832D01*
X103607562Y-94526562D01*
X103624832Y-94510910D01*
X103643552Y-94497026D01*
X103663543Y-94485044D01*
X103684613Y-94475079D01*
X103706557Y-94467227D01*
X103729166Y-94461563D01*
X103752221Y-94458144D01*
X103775500Y-94457000D01*
X104250500Y-94457000D01*
X104273779Y-94458144D01*
X104273779Y-94458144D01*
G37*
D13*
X104013000Y-94982000D03*
D12*
G36*
X106158459Y-98034464D02*
G01*
X106181514Y-98037883D01*
X106204123Y-98043547D01*
X106226067Y-98051399D01*
X106247137Y-98061364D01*
X106267128Y-98073346D01*
X106285848Y-98087230D01*
X106303118Y-98102882D01*
X106318770Y-98120152D01*
X106332654Y-98138872D01*
X106344636Y-98158863D01*
X106354601Y-98179933D01*
X106362453Y-98201877D01*
X106368117Y-98224486D01*
X106371536Y-98247541D01*
X106372680Y-98270820D01*
X106372680Y-98845820D01*
X106371536Y-98869099D01*
X106368117Y-98892154D01*
X106362453Y-98914763D01*
X106354601Y-98936707D01*
X106344636Y-98957777D01*
X106332654Y-98977768D01*
X106318770Y-98996488D01*
X106303118Y-99013758D01*
X106285848Y-99029410D01*
X106267128Y-99043294D01*
X106247137Y-99055276D01*
X106226067Y-99065241D01*
X106204123Y-99073093D01*
X106181514Y-99078757D01*
X106158459Y-99082176D01*
X106135180Y-99083320D01*
X105660180Y-99083320D01*
X105636901Y-99082176D01*
X105613846Y-99078757D01*
X105591237Y-99073093D01*
X105569293Y-99065241D01*
X105548223Y-99055276D01*
X105528232Y-99043294D01*
X105509512Y-99029410D01*
X105492242Y-99013758D01*
X105476590Y-98996488D01*
X105462706Y-98977768D01*
X105450724Y-98957777D01*
X105440759Y-98936707D01*
X105432907Y-98914763D01*
X105427243Y-98892154D01*
X105423824Y-98869099D01*
X105422680Y-98845820D01*
X105422680Y-98270820D01*
X105423824Y-98247541D01*
X105427243Y-98224486D01*
X105432907Y-98201877D01*
X105440759Y-98179933D01*
X105450724Y-98158863D01*
X105462706Y-98138872D01*
X105476590Y-98120152D01*
X105492242Y-98102882D01*
X105509512Y-98087230D01*
X105528232Y-98073346D01*
X105548223Y-98061364D01*
X105569293Y-98051399D01*
X105591237Y-98043547D01*
X105613846Y-98037883D01*
X105636901Y-98034464D01*
X105660180Y-98033320D01*
X106135180Y-98033320D01*
X106158459Y-98034464D01*
X106158459Y-98034464D01*
G37*
D13*
X105897680Y-98558320D03*
D12*
G36*
X106158459Y-96284464D02*
G01*
X106181514Y-96287883D01*
X106204123Y-96293547D01*
X106226067Y-96301399D01*
X106247137Y-96311364D01*
X106267128Y-96323346D01*
X106285848Y-96337230D01*
X106303118Y-96352882D01*
X106318770Y-96370152D01*
X106332654Y-96388872D01*
X106344636Y-96408863D01*
X106354601Y-96429933D01*
X106362453Y-96451877D01*
X106368117Y-96474486D01*
X106371536Y-96497541D01*
X106372680Y-96520820D01*
X106372680Y-97095820D01*
X106371536Y-97119099D01*
X106368117Y-97142154D01*
X106362453Y-97164763D01*
X106354601Y-97186707D01*
X106344636Y-97207777D01*
X106332654Y-97227768D01*
X106318770Y-97246488D01*
X106303118Y-97263758D01*
X106285848Y-97279410D01*
X106267128Y-97293294D01*
X106247137Y-97305276D01*
X106226067Y-97315241D01*
X106204123Y-97323093D01*
X106181514Y-97328757D01*
X106158459Y-97332176D01*
X106135180Y-97333320D01*
X105660180Y-97333320D01*
X105636901Y-97332176D01*
X105613846Y-97328757D01*
X105591237Y-97323093D01*
X105569293Y-97315241D01*
X105548223Y-97305276D01*
X105528232Y-97293294D01*
X105509512Y-97279410D01*
X105492242Y-97263758D01*
X105476590Y-97246488D01*
X105462706Y-97227768D01*
X105450724Y-97207777D01*
X105440759Y-97186707D01*
X105432907Y-97164763D01*
X105427243Y-97142154D01*
X105423824Y-97119099D01*
X105422680Y-97095820D01*
X105422680Y-96520820D01*
X105423824Y-96497541D01*
X105427243Y-96474486D01*
X105432907Y-96451877D01*
X105440759Y-96429933D01*
X105450724Y-96408863D01*
X105462706Y-96388872D01*
X105476590Y-96370152D01*
X105492242Y-96352882D01*
X105509512Y-96337230D01*
X105528232Y-96323346D01*
X105548223Y-96311364D01*
X105569293Y-96301399D01*
X105591237Y-96293547D01*
X105613846Y-96287883D01*
X105636901Y-96284464D01*
X105660180Y-96283320D01*
X106135180Y-96283320D01*
X106158459Y-96284464D01*
X106158459Y-96284464D01*
G37*
D13*
X105897680Y-96808320D03*
D12*
G36*
X111071259Y-98804584D02*
G01*
X111094314Y-98808003D01*
X111116923Y-98813667D01*
X111138867Y-98821519D01*
X111159937Y-98831484D01*
X111179928Y-98843466D01*
X111198648Y-98857350D01*
X111215918Y-98873002D01*
X111231570Y-98890272D01*
X111245454Y-98908992D01*
X111257436Y-98928983D01*
X111267401Y-98950053D01*
X111275253Y-98971997D01*
X111280917Y-98994606D01*
X111284336Y-99017661D01*
X111285480Y-99040940D01*
X111285480Y-99515940D01*
X111284336Y-99539219D01*
X111280917Y-99562274D01*
X111275253Y-99584883D01*
X111267401Y-99606827D01*
X111257436Y-99627897D01*
X111245454Y-99647888D01*
X111231570Y-99666608D01*
X111215918Y-99683878D01*
X111198648Y-99699530D01*
X111179928Y-99713414D01*
X111159937Y-99725396D01*
X111138867Y-99735361D01*
X111116923Y-99743213D01*
X111094314Y-99748877D01*
X111071259Y-99752296D01*
X111047980Y-99753440D01*
X110472980Y-99753440D01*
X110449701Y-99752296D01*
X110426646Y-99748877D01*
X110404037Y-99743213D01*
X110382093Y-99735361D01*
X110361023Y-99725396D01*
X110341032Y-99713414D01*
X110322312Y-99699530D01*
X110305042Y-99683878D01*
X110289390Y-99666608D01*
X110275506Y-99647888D01*
X110263524Y-99627897D01*
X110253559Y-99606827D01*
X110245707Y-99584883D01*
X110240043Y-99562274D01*
X110236624Y-99539219D01*
X110235480Y-99515940D01*
X110235480Y-99040940D01*
X110236624Y-99017661D01*
X110240043Y-98994606D01*
X110245707Y-98971997D01*
X110253559Y-98950053D01*
X110263524Y-98928983D01*
X110275506Y-98908992D01*
X110289390Y-98890272D01*
X110305042Y-98873002D01*
X110322312Y-98857350D01*
X110341032Y-98843466D01*
X110361023Y-98831484D01*
X110382093Y-98821519D01*
X110404037Y-98813667D01*
X110426646Y-98808003D01*
X110449701Y-98804584D01*
X110472980Y-98803440D01*
X111047980Y-98803440D01*
X111071259Y-98804584D01*
X111071259Y-98804584D01*
G37*
D13*
X110760480Y-99278440D03*
D12*
G36*
X109321259Y-98804584D02*
G01*
X109344314Y-98808003D01*
X109366923Y-98813667D01*
X109388867Y-98821519D01*
X109409937Y-98831484D01*
X109429928Y-98843466D01*
X109448648Y-98857350D01*
X109465918Y-98873002D01*
X109481570Y-98890272D01*
X109495454Y-98908992D01*
X109507436Y-98928983D01*
X109517401Y-98950053D01*
X109525253Y-98971997D01*
X109530917Y-98994606D01*
X109534336Y-99017661D01*
X109535480Y-99040940D01*
X109535480Y-99515940D01*
X109534336Y-99539219D01*
X109530917Y-99562274D01*
X109525253Y-99584883D01*
X109517401Y-99606827D01*
X109507436Y-99627897D01*
X109495454Y-99647888D01*
X109481570Y-99666608D01*
X109465918Y-99683878D01*
X109448648Y-99699530D01*
X109429928Y-99713414D01*
X109409937Y-99725396D01*
X109388867Y-99735361D01*
X109366923Y-99743213D01*
X109344314Y-99748877D01*
X109321259Y-99752296D01*
X109297980Y-99753440D01*
X108722980Y-99753440D01*
X108699701Y-99752296D01*
X108676646Y-99748877D01*
X108654037Y-99743213D01*
X108632093Y-99735361D01*
X108611023Y-99725396D01*
X108591032Y-99713414D01*
X108572312Y-99699530D01*
X108555042Y-99683878D01*
X108539390Y-99666608D01*
X108525506Y-99647888D01*
X108513524Y-99627897D01*
X108503559Y-99606827D01*
X108495707Y-99584883D01*
X108490043Y-99562274D01*
X108486624Y-99539219D01*
X108485480Y-99515940D01*
X108485480Y-99040940D01*
X108486624Y-99017661D01*
X108490043Y-98994606D01*
X108495707Y-98971997D01*
X108503559Y-98950053D01*
X108513524Y-98928983D01*
X108525506Y-98908992D01*
X108539390Y-98890272D01*
X108555042Y-98873002D01*
X108572312Y-98857350D01*
X108591032Y-98843466D01*
X108611023Y-98831484D01*
X108632093Y-98821519D01*
X108654037Y-98813667D01*
X108676646Y-98808003D01*
X108699701Y-98804584D01*
X108722980Y-98803440D01*
X109297980Y-98803440D01*
X109321259Y-98804584D01*
X109321259Y-98804584D01*
G37*
D13*
X109010480Y-99278440D03*
D12*
G36*
X111116979Y-97189144D02*
G01*
X111140034Y-97192563D01*
X111162643Y-97198227D01*
X111184587Y-97206079D01*
X111205657Y-97216044D01*
X111225648Y-97228026D01*
X111244368Y-97241910D01*
X111261638Y-97257562D01*
X111277290Y-97274832D01*
X111291174Y-97293552D01*
X111303156Y-97313543D01*
X111313121Y-97334613D01*
X111320973Y-97356557D01*
X111326637Y-97379166D01*
X111330056Y-97402221D01*
X111331200Y-97425500D01*
X111331200Y-97900500D01*
X111330056Y-97923779D01*
X111326637Y-97946834D01*
X111320973Y-97969443D01*
X111313121Y-97991387D01*
X111303156Y-98012457D01*
X111291174Y-98032448D01*
X111277290Y-98051168D01*
X111261638Y-98068438D01*
X111244368Y-98084090D01*
X111225648Y-98097974D01*
X111205657Y-98109956D01*
X111184587Y-98119921D01*
X111162643Y-98127773D01*
X111140034Y-98133437D01*
X111116979Y-98136856D01*
X111093700Y-98138000D01*
X110518700Y-98138000D01*
X110495421Y-98136856D01*
X110472366Y-98133437D01*
X110449757Y-98127773D01*
X110427813Y-98119921D01*
X110406743Y-98109956D01*
X110386752Y-98097974D01*
X110368032Y-98084090D01*
X110350762Y-98068438D01*
X110335110Y-98051168D01*
X110321226Y-98032448D01*
X110309244Y-98012457D01*
X110299279Y-97991387D01*
X110291427Y-97969443D01*
X110285763Y-97946834D01*
X110282344Y-97923779D01*
X110281200Y-97900500D01*
X110281200Y-97425500D01*
X110282344Y-97402221D01*
X110285763Y-97379166D01*
X110291427Y-97356557D01*
X110299279Y-97334613D01*
X110309244Y-97313543D01*
X110321226Y-97293552D01*
X110335110Y-97274832D01*
X110350762Y-97257562D01*
X110368032Y-97241910D01*
X110386752Y-97228026D01*
X110406743Y-97216044D01*
X110427813Y-97206079D01*
X110449757Y-97198227D01*
X110472366Y-97192563D01*
X110495421Y-97189144D01*
X110518700Y-97188000D01*
X111093700Y-97188000D01*
X111116979Y-97189144D01*
X111116979Y-97189144D01*
G37*
D13*
X110806200Y-97663000D03*
D12*
G36*
X109366979Y-97189144D02*
G01*
X109390034Y-97192563D01*
X109412643Y-97198227D01*
X109434587Y-97206079D01*
X109455657Y-97216044D01*
X109475648Y-97228026D01*
X109494368Y-97241910D01*
X109511638Y-97257562D01*
X109527290Y-97274832D01*
X109541174Y-97293552D01*
X109553156Y-97313543D01*
X109563121Y-97334613D01*
X109570973Y-97356557D01*
X109576637Y-97379166D01*
X109580056Y-97402221D01*
X109581200Y-97425500D01*
X109581200Y-97900500D01*
X109580056Y-97923779D01*
X109576637Y-97946834D01*
X109570973Y-97969443D01*
X109563121Y-97991387D01*
X109553156Y-98012457D01*
X109541174Y-98032448D01*
X109527290Y-98051168D01*
X109511638Y-98068438D01*
X109494368Y-98084090D01*
X109475648Y-98097974D01*
X109455657Y-98109956D01*
X109434587Y-98119921D01*
X109412643Y-98127773D01*
X109390034Y-98133437D01*
X109366979Y-98136856D01*
X109343700Y-98138000D01*
X108768700Y-98138000D01*
X108745421Y-98136856D01*
X108722366Y-98133437D01*
X108699757Y-98127773D01*
X108677813Y-98119921D01*
X108656743Y-98109956D01*
X108636752Y-98097974D01*
X108618032Y-98084090D01*
X108600762Y-98068438D01*
X108585110Y-98051168D01*
X108571226Y-98032448D01*
X108559244Y-98012457D01*
X108549279Y-97991387D01*
X108541427Y-97969443D01*
X108535763Y-97946834D01*
X108532344Y-97923779D01*
X108531200Y-97900500D01*
X108531200Y-97425500D01*
X108532344Y-97402221D01*
X108535763Y-97379166D01*
X108541427Y-97356557D01*
X108549279Y-97334613D01*
X108559244Y-97313543D01*
X108571226Y-97293552D01*
X108585110Y-97274832D01*
X108600762Y-97257562D01*
X108618032Y-97241910D01*
X108636752Y-97228026D01*
X108656743Y-97216044D01*
X108677813Y-97206079D01*
X108699757Y-97198227D01*
X108722366Y-97192563D01*
X108745421Y-97189144D01*
X108768700Y-97188000D01*
X109343700Y-97188000D01*
X109366979Y-97189144D01*
X109366979Y-97189144D01*
G37*
D13*
X109056200Y-97663000D03*
D12*
G36*
X100956979Y-107552344D02*
G01*
X100980034Y-107555763D01*
X101002643Y-107561427D01*
X101024587Y-107569279D01*
X101045657Y-107579244D01*
X101065648Y-107591226D01*
X101084368Y-107605110D01*
X101101638Y-107620762D01*
X101117290Y-107638032D01*
X101131174Y-107656752D01*
X101143156Y-107676743D01*
X101153121Y-107697813D01*
X101160973Y-107719757D01*
X101166637Y-107742366D01*
X101170056Y-107765421D01*
X101171200Y-107788700D01*
X101171200Y-108263700D01*
X101170056Y-108286979D01*
X101166637Y-108310034D01*
X101160973Y-108332643D01*
X101153121Y-108354587D01*
X101143156Y-108375657D01*
X101131174Y-108395648D01*
X101117290Y-108414368D01*
X101101638Y-108431638D01*
X101084368Y-108447290D01*
X101065648Y-108461174D01*
X101045657Y-108473156D01*
X101024587Y-108483121D01*
X101002643Y-108490973D01*
X100980034Y-108496637D01*
X100956979Y-108500056D01*
X100933700Y-108501200D01*
X100358700Y-108501200D01*
X100335421Y-108500056D01*
X100312366Y-108496637D01*
X100289757Y-108490973D01*
X100267813Y-108483121D01*
X100246743Y-108473156D01*
X100226752Y-108461174D01*
X100208032Y-108447290D01*
X100190762Y-108431638D01*
X100175110Y-108414368D01*
X100161226Y-108395648D01*
X100149244Y-108375657D01*
X100139279Y-108354587D01*
X100131427Y-108332643D01*
X100125763Y-108310034D01*
X100122344Y-108286979D01*
X100121200Y-108263700D01*
X100121200Y-107788700D01*
X100122344Y-107765421D01*
X100125763Y-107742366D01*
X100131427Y-107719757D01*
X100139279Y-107697813D01*
X100149244Y-107676743D01*
X100161226Y-107656752D01*
X100175110Y-107638032D01*
X100190762Y-107620762D01*
X100208032Y-107605110D01*
X100226752Y-107591226D01*
X100246743Y-107579244D01*
X100267813Y-107569279D01*
X100289757Y-107561427D01*
X100312366Y-107555763D01*
X100335421Y-107552344D01*
X100358700Y-107551200D01*
X100933700Y-107551200D01*
X100956979Y-107552344D01*
X100956979Y-107552344D01*
G37*
D13*
X100646200Y-108026200D03*
D12*
G36*
X99206979Y-107552344D02*
G01*
X99230034Y-107555763D01*
X99252643Y-107561427D01*
X99274587Y-107569279D01*
X99295657Y-107579244D01*
X99315648Y-107591226D01*
X99334368Y-107605110D01*
X99351638Y-107620762D01*
X99367290Y-107638032D01*
X99381174Y-107656752D01*
X99393156Y-107676743D01*
X99403121Y-107697813D01*
X99410973Y-107719757D01*
X99416637Y-107742366D01*
X99420056Y-107765421D01*
X99421200Y-107788700D01*
X99421200Y-108263700D01*
X99420056Y-108286979D01*
X99416637Y-108310034D01*
X99410973Y-108332643D01*
X99403121Y-108354587D01*
X99393156Y-108375657D01*
X99381174Y-108395648D01*
X99367290Y-108414368D01*
X99351638Y-108431638D01*
X99334368Y-108447290D01*
X99315648Y-108461174D01*
X99295657Y-108473156D01*
X99274587Y-108483121D01*
X99252643Y-108490973D01*
X99230034Y-108496637D01*
X99206979Y-108500056D01*
X99183700Y-108501200D01*
X98608700Y-108501200D01*
X98585421Y-108500056D01*
X98562366Y-108496637D01*
X98539757Y-108490973D01*
X98517813Y-108483121D01*
X98496743Y-108473156D01*
X98476752Y-108461174D01*
X98458032Y-108447290D01*
X98440762Y-108431638D01*
X98425110Y-108414368D01*
X98411226Y-108395648D01*
X98399244Y-108375657D01*
X98389279Y-108354587D01*
X98381427Y-108332643D01*
X98375763Y-108310034D01*
X98372344Y-108286979D01*
X98371200Y-108263700D01*
X98371200Y-107788700D01*
X98372344Y-107765421D01*
X98375763Y-107742366D01*
X98381427Y-107719757D01*
X98389279Y-107697813D01*
X98399244Y-107676743D01*
X98411226Y-107656752D01*
X98425110Y-107638032D01*
X98440762Y-107620762D01*
X98458032Y-107605110D01*
X98476752Y-107591226D01*
X98496743Y-107579244D01*
X98517813Y-107569279D01*
X98539757Y-107561427D01*
X98562366Y-107555763D01*
X98585421Y-107552344D01*
X98608700Y-107551200D01*
X99183700Y-107551200D01*
X99206979Y-107552344D01*
X99206979Y-107552344D01*
G37*
D13*
X98896200Y-108026200D03*
D12*
G36*
X100982379Y-105914044D02*
G01*
X101005434Y-105917463D01*
X101028043Y-105923127D01*
X101049987Y-105930979D01*
X101071057Y-105940944D01*
X101091048Y-105952926D01*
X101109768Y-105966810D01*
X101127038Y-105982462D01*
X101142690Y-105999732D01*
X101156574Y-106018452D01*
X101168556Y-106038443D01*
X101178521Y-106059513D01*
X101186373Y-106081457D01*
X101192037Y-106104066D01*
X101195456Y-106127121D01*
X101196600Y-106150400D01*
X101196600Y-106625400D01*
X101195456Y-106648679D01*
X101192037Y-106671734D01*
X101186373Y-106694343D01*
X101178521Y-106716287D01*
X101168556Y-106737357D01*
X101156574Y-106757348D01*
X101142690Y-106776068D01*
X101127038Y-106793338D01*
X101109768Y-106808990D01*
X101091048Y-106822874D01*
X101071057Y-106834856D01*
X101049987Y-106844821D01*
X101028043Y-106852673D01*
X101005434Y-106858337D01*
X100982379Y-106861756D01*
X100959100Y-106862900D01*
X100384100Y-106862900D01*
X100360821Y-106861756D01*
X100337766Y-106858337D01*
X100315157Y-106852673D01*
X100293213Y-106844821D01*
X100272143Y-106834856D01*
X100252152Y-106822874D01*
X100233432Y-106808990D01*
X100216162Y-106793338D01*
X100200510Y-106776068D01*
X100186626Y-106757348D01*
X100174644Y-106737357D01*
X100164679Y-106716287D01*
X100156827Y-106694343D01*
X100151163Y-106671734D01*
X100147744Y-106648679D01*
X100146600Y-106625400D01*
X100146600Y-106150400D01*
X100147744Y-106127121D01*
X100151163Y-106104066D01*
X100156827Y-106081457D01*
X100164679Y-106059513D01*
X100174644Y-106038443D01*
X100186626Y-106018452D01*
X100200510Y-105999732D01*
X100216162Y-105982462D01*
X100233432Y-105966810D01*
X100252152Y-105952926D01*
X100272143Y-105940944D01*
X100293213Y-105930979D01*
X100315157Y-105923127D01*
X100337766Y-105917463D01*
X100360821Y-105914044D01*
X100384100Y-105912900D01*
X100959100Y-105912900D01*
X100982379Y-105914044D01*
X100982379Y-105914044D01*
G37*
D13*
X100671600Y-106387900D03*
D12*
G36*
X99232379Y-105914044D02*
G01*
X99255434Y-105917463D01*
X99278043Y-105923127D01*
X99299987Y-105930979D01*
X99321057Y-105940944D01*
X99341048Y-105952926D01*
X99359768Y-105966810D01*
X99377038Y-105982462D01*
X99392690Y-105999732D01*
X99406574Y-106018452D01*
X99418556Y-106038443D01*
X99428521Y-106059513D01*
X99436373Y-106081457D01*
X99442037Y-106104066D01*
X99445456Y-106127121D01*
X99446600Y-106150400D01*
X99446600Y-106625400D01*
X99445456Y-106648679D01*
X99442037Y-106671734D01*
X99436373Y-106694343D01*
X99428521Y-106716287D01*
X99418556Y-106737357D01*
X99406574Y-106757348D01*
X99392690Y-106776068D01*
X99377038Y-106793338D01*
X99359768Y-106808990D01*
X99341048Y-106822874D01*
X99321057Y-106834856D01*
X99299987Y-106844821D01*
X99278043Y-106852673D01*
X99255434Y-106858337D01*
X99232379Y-106861756D01*
X99209100Y-106862900D01*
X98634100Y-106862900D01*
X98610821Y-106861756D01*
X98587766Y-106858337D01*
X98565157Y-106852673D01*
X98543213Y-106844821D01*
X98522143Y-106834856D01*
X98502152Y-106822874D01*
X98483432Y-106808990D01*
X98466162Y-106793338D01*
X98450510Y-106776068D01*
X98436626Y-106757348D01*
X98424644Y-106737357D01*
X98414679Y-106716287D01*
X98406827Y-106694343D01*
X98401163Y-106671734D01*
X98397744Y-106648679D01*
X98396600Y-106625400D01*
X98396600Y-106150400D01*
X98397744Y-106127121D01*
X98401163Y-106104066D01*
X98406827Y-106081457D01*
X98414679Y-106059513D01*
X98424644Y-106038443D01*
X98436626Y-106018452D01*
X98450510Y-105999732D01*
X98466162Y-105982462D01*
X98483432Y-105966810D01*
X98502152Y-105952926D01*
X98522143Y-105940944D01*
X98543213Y-105930979D01*
X98565157Y-105923127D01*
X98587766Y-105917463D01*
X98610821Y-105914044D01*
X98634100Y-105912900D01*
X99209100Y-105912900D01*
X99232379Y-105914044D01*
X99232379Y-105914044D01*
G37*
D13*
X98921600Y-106387900D03*
D14*
X105623360Y-92735400D03*
X105623360Y-94935400D03*
D15*
X103376900Y-101524900D03*
X101651900Y-101524900D03*
X103376900Y-103249900D03*
X101651900Y-103249900D03*
D16*
X104914400Y-100637400D03*
X104914400Y-101137400D03*
X104914400Y-101637400D03*
X104914400Y-102137400D03*
X104914400Y-102637400D03*
X104914400Y-103137400D03*
X104914400Y-103637400D03*
X104914400Y-104137400D03*
D17*
X104264400Y-104787400D03*
X103764400Y-104787400D03*
X103264400Y-104787400D03*
X102764400Y-104787400D03*
X102264400Y-104787400D03*
X101764400Y-104787400D03*
X101264400Y-104787400D03*
X100764400Y-104787400D03*
D16*
X100114400Y-104137400D03*
X100114400Y-103637400D03*
X100114400Y-103137400D03*
X100114400Y-102637400D03*
X100114400Y-102137400D03*
X100114400Y-101637400D03*
X100114400Y-101137400D03*
X100114400Y-100637400D03*
D17*
X100764400Y-99987400D03*
X101264400Y-99987400D03*
X101764400Y-99987400D03*
X102264400Y-99987400D03*
X102764400Y-99987400D03*
X103264400Y-99987400D03*
X103764400Y-99987400D03*
X104264400Y-99987400D03*
D18*
X101233680Y-98164640D03*
X101233680Y-97264640D03*
X101233680Y-96364640D03*
X101233680Y-95464640D03*
X102433680Y-95464640D03*
X102433680Y-96364640D03*
X102433680Y-97264640D03*
X102433680Y-98164640D03*
D12*
G36*
X116527179Y-98675044D02*
G01*
X116550234Y-98678463D01*
X116572843Y-98684127D01*
X116594787Y-98691979D01*
X116615857Y-98701944D01*
X116635848Y-98713926D01*
X116654568Y-98727810D01*
X116671838Y-98743462D01*
X116687490Y-98760732D01*
X116701374Y-98779452D01*
X116713356Y-98799443D01*
X116723321Y-98820513D01*
X116731173Y-98842457D01*
X116736837Y-98865066D01*
X116740256Y-98888121D01*
X116741400Y-98911400D01*
X116741400Y-99386400D01*
X116740256Y-99409679D01*
X116736837Y-99432734D01*
X116731173Y-99455343D01*
X116723321Y-99477287D01*
X116713356Y-99498357D01*
X116701374Y-99518348D01*
X116687490Y-99537068D01*
X116671838Y-99554338D01*
X116654568Y-99569990D01*
X116635848Y-99583874D01*
X116615857Y-99595856D01*
X116594787Y-99605821D01*
X116572843Y-99613673D01*
X116550234Y-99619337D01*
X116527179Y-99622756D01*
X116503900Y-99623900D01*
X115928900Y-99623900D01*
X115905621Y-99622756D01*
X115882566Y-99619337D01*
X115859957Y-99613673D01*
X115838013Y-99605821D01*
X115816943Y-99595856D01*
X115796952Y-99583874D01*
X115778232Y-99569990D01*
X115760962Y-99554338D01*
X115745310Y-99537068D01*
X115731426Y-99518348D01*
X115719444Y-99498357D01*
X115709479Y-99477287D01*
X115701627Y-99455343D01*
X115695963Y-99432734D01*
X115692544Y-99409679D01*
X115691400Y-99386400D01*
X115691400Y-98911400D01*
X115692544Y-98888121D01*
X115695963Y-98865066D01*
X115701627Y-98842457D01*
X115709479Y-98820513D01*
X115719444Y-98799443D01*
X115731426Y-98779452D01*
X115745310Y-98760732D01*
X115760962Y-98743462D01*
X115778232Y-98727810D01*
X115796952Y-98713926D01*
X115816943Y-98701944D01*
X115838013Y-98691979D01*
X115859957Y-98684127D01*
X115882566Y-98678463D01*
X115905621Y-98675044D01*
X115928900Y-98673900D01*
X116503900Y-98673900D01*
X116527179Y-98675044D01*
X116527179Y-98675044D01*
G37*
D13*
X116216400Y-99148900D03*
D12*
G36*
X114777179Y-98675044D02*
G01*
X114800234Y-98678463D01*
X114822843Y-98684127D01*
X114844787Y-98691979D01*
X114865857Y-98701944D01*
X114885848Y-98713926D01*
X114904568Y-98727810D01*
X114921838Y-98743462D01*
X114937490Y-98760732D01*
X114951374Y-98779452D01*
X114963356Y-98799443D01*
X114973321Y-98820513D01*
X114981173Y-98842457D01*
X114986837Y-98865066D01*
X114990256Y-98888121D01*
X114991400Y-98911400D01*
X114991400Y-99386400D01*
X114990256Y-99409679D01*
X114986837Y-99432734D01*
X114981173Y-99455343D01*
X114973321Y-99477287D01*
X114963356Y-99498357D01*
X114951374Y-99518348D01*
X114937490Y-99537068D01*
X114921838Y-99554338D01*
X114904568Y-99569990D01*
X114885848Y-99583874D01*
X114865857Y-99595856D01*
X114844787Y-99605821D01*
X114822843Y-99613673D01*
X114800234Y-99619337D01*
X114777179Y-99622756D01*
X114753900Y-99623900D01*
X114178900Y-99623900D01*
X114155621Y-99622756D01*
X114132566Y-99619337D01*
X114109957Y-99613673D01*
X114088013Y-99605821D01*
X114066943Y-99595856D01*
X114046952Y-99583874D01*
X114028232Y-99569990D01*
X114010962Y-99554338D01*
X113995310Y-99537068D01*
X113981426Y-99518348D01*
X113969444Y-99498357D01*
X113959479Y-99477287D01*
X113951627Y-99455343D01*
X113945963Y-99432734D01*
X113942544Y-99409679D01*
X113941400Y-99386400D01*
X113941400Y-98911400D01*
X113942544Y-98888121D01*
X113945963Y-98865066D01*
X113951627Y-98842457D01*
X113959479Y-98820513D01*
X113969444Y-98799443D01*
X113981426Y-98779452D01*
X113995310Y-98760732D01*
X114010962Y-98743462D01*
X114028232Y-98727810D01*
X114046952Y-98713926D01*
X114066943Y-98701944D01*
X114088013Y-98691979D01*
X114109957Y-98684127D01*
X114132566Y-98678463D01*
X114155621Y-98675044D01*
X114178900Y-98673900D01*
X114753900Y-98673900D01*
X114777179Y-98675044D01*
X114777179Y-98675044D01*
G37*
D13*
X114466400Y-99148900D03*
D12*
G36*
X121708779Y-114207144D02*
G01*
X121731834Y-114210563D01*
X121754443Y-114216227D01*
X121776387Y-114224079D01*
X121797457Y-114234044D01*
X121817448Y-114246026D01*
X121836168Y-114259910D01*
X121853438Y-114275562D01*
X121869090Y-114292832D01*
X121882974Y-114311552D01*
X121894956Y-114331543D01*
X121904921Y-114352613D01*
X121912773Y-114374557D01*
X121918437Y-114397166D01*
X121921856Y-114420221D01*
X121923000Y-114443500D01*
X121923000Y-114918500D01*
X121921856Y-114941779D01*
X121918437Y-114964834D01*
X121912773Y-114987443D01*
X121904921Y-115009387D01*
X121894956Y-115030457D01*
X121882974Y-115050448D01*
X121869090Y-115069168D01*
X121853438Y-115086438D01*
X121836168Y-115102090D01*
X121817448Y-115115974D01*
X121797457Y-115127956D01*
X121776387Y-115137921D01*
X121754443Y-115145773D01*
X121731834Y-115151437D01*
X121708779Y-115154856D01*
X121685500Y-115156000D01*
X121110500Y-115156000D01*
X121087221Y-115154856D01*
X121064166Y-115151437D01*
X121041557Y-115145773D01*
X121019613Y-115137921D01*
X120998543Y-115127956D01*
X120978552Y-115115974D01*
X120959832Y-115102090D01*
X120942562Y-115086438D01*
X120926910Y-115069168D01*
X120913026Y-115050448D01*
X120901044Y-115030457D01*
X120891079Y-115009387D01*
X120883227Y-114987443D01*
X120877563Y-114964834D01*
X120874144Y-114941779D01*
X120873000Y-114918500D01*
X120873000Y-114443500D01*
X120874144Y-114420221D01*
X120877563Y-114397166D01*
X120883227Y-114374557D01*
X120891079Y-114352613D01*
X120901044Y-114331543D01*
X120913026Y-114311552D01*
X120926910Y-114292832D01*
X120942562Y-114275562D01*
X120959832Y-114259910D01*
X120978552Y-114246026D01*
X120998543Y-114234044D01*
X121019613Y-114224079D01*
X121041557Y-114216227D01*
X121064166Y-114210563D01*
X121087221Y-114207144D01*
X121110500Y-114206000D01*
X121685500Y-114206000D01*
X121708779Y-114207144D01*
X121708779Y-114207144D01*
G37*
D13*
X121398000Y-114681000D03*
D12*
G36*
X119958779Y-114207144D02*
G01*
X119981834Y-114210563D01*
X120004443Y-114216227D01*
X120026387Y-114224079D01*
X120047457Y-114234044D01*
X120067448Y-114246026D01*
X120086168Y-114259910D01*
X120103438Y-114275562D01*
X120119090Y-114292832D01*
X120132974Y-114311552D01*
X120144956Y-114331543D01*
X120154921Y-114352613D01*
X120162773Y-114374557D01*
X120168437Y-114397166D01*
X120171856Y-114420221D01*
X120173000Y-114443500D01*
X120173000Y-114918500D01*
X120171856Y-114941779D01*
X120168437Y-114964834D01*
X120162773Y-114987443D01*
X120154921Y-115009387D01*
X120144956Y-115030457D01*
X120132974Y-115050448D01*
X120119090Y-115069168D01*
X120103438Y-115086438D01*
X120086168Y-115102090D01*
X120067448Y-115115974D01*
X120047457Y-115127956D01*
X120026387Y-115137921D01*
X120004443Y-115145773D01*
X119981834Y-115151437D01*
X119958779Y-115154856D01*
X119935500Y-115156000D01*
X119360500Y-115156000D01*
X119337221Y-115154856D01*
X119314166Y-115151437D01*
X119291557Y-115145773D01*
X119269613Y-115137921D01*
X119248543Y-115127956D01*
X119228552Y-115115974D01*
X119209832Y-115102090D01*
X119192562Y-115086438D01*
X119176910Y-115069168D01*
X119163026Y-115050448D01*
X119151044Y-115030457D01*
X119141079Y-115009387D01*
X119133227Y-114987443D01*
X119127563Y-114964834D01*
X119124144Y-114941779D01*
X119123000Y-114918500D01*
X119123000Y-114443500D01*
X119124144Y-114420221D01*
X119127563Y-114397166D01*
X119133227Y-114374557D01*
X119141079Y-114352613D01*
X119151044Y-114331543D01*
X119163026Y-114311552D01*
X119176910Y-114292832D01*
X119192562Y-114275562D01*
X119209832Y-114259910D01*
X119228552Y-114246026D01*
X119248543Y-114234044D01*
X119269613Y-114224079D01*
X119291557Y-114216227D01*
X119314166Y-114210563D01*
X119337221Y-114207144D01*
X119360500Y-114206000D01*
X119935500Y-114206000D01*
X119958779Y-114207144D01*
X119958779Y-114207144D01*
G37*
D13*
X119648000Y-114681000D03*
D12*
G36*
X119958779Y-116112144D02*
G01*
X119981834Y-116115563D01*
X120004443Y-116121227D01*
X120026387Y-116129079D01*
X120047457Y-116139044D01*
X120067448Y-116151026D01*
X120086168Y-116164910D01*
X120103438Y-116180562D01*
X120119090Y-116197832D01*
X120132974Y-116216552D01*
X120144956Y-116236543D01*
X120154921Y-116257613D01*
X120162773Y-116279557D01*
X120168437Y-116302166D01*
X120171856Y-116325221D01*
X120173000Y-116348500D01*
X120173000Y-116823500D01*
X120171856Y-116846779D01*
X120168437Y-116869834D01*
X120162773Y-116892443D01*
X120154921Y-116914387D01*
X120144956Y-116935457D01*
X120132974Y-116955448D01*
X120119090Y-116974168D01*
X120103438Y-116991438D01*
X120086168Y-117007090D01*
X120067448Y-117020974D01*
X120047457Y-117032956D01*
X120026387Y-117042921D01*
X120004443Y-117050773D01*
X119981834Y-117056437D01*
X119958779Y-117059856D01*
X119935500Y-117061000D01*
X119360500Y-117061000D01*
X119337221Y-117059856D01*
X119314166Y-117056437D01*
X119291557Y-117050773D01*
X119269613Y-117042921D01*
X119248543Y-117032956D01*
X119228552Y-117020974D01*
X119209832Y-117007090D01*
X119192562Y-116991438D01*
X119176910Y-116974168D01*
X119163026Y-116955448D01*
X119151044Y-116935457D01*
X119141079Y-116914387D01*
X119133227Y-116892443D01*
X119127563Y-116869834D01*
X119124144Y-116846779D01*
X119123000Y-116823500D01*
X119123000Y-116348500D01*
X119124144Y-116325221D01*
X119127563Y-116302166D01*
X119133227Y-116279557D01*
X119141079Y-116257613D01*
X119151044Y-116236543D01*
X119163026Y-116216552D01*
X119176910Y-116197832D01*
X119192562Y-116180562D01*
X119209832Y-116164910D01*
X119228552Y-116151026D01*
X119248543Y-116139044D01*
X119269613Y-116129079D01*
X119291557Y-116121227D01*
X119314166Y-116115563D01*
X119337221Y-116112144D01*
X119360500Y-116111000D01*
X119935500Y-116111000D01*
X119958779Y-116112144D01*
X119958779Y-116112144D01*
G37*
D13*
X119648000Y-116586000D03*
D12*
G36*
X121708779Y-116112144D02*
G01*
X121731834Y-116115563D01*
X121754443Y-116121227D01*
X121776387Y-116129079D01*
X121797457Y-116139044D01*
X121817448Y-116151026D01*
X121836168Y-116164910D01*
X121853438Y-116180562D01*
X121869090Y-116197832D01*
X121882974Y-116216552D01*
X121894956Y-116236543D01*
X121904921Y-116257613D01*
X121912773Y-116279557D01*
X121918437Y-116302166D01*
X121921856Y-116325221D01*
X121923000Y-116348500D01*
X121923000Y-116823500D01*
X121921856Y-116846779D01*
X121918437Y-116869834D01*
X121912773Y-116892443D01*
X121904921Y-116914387D01*
X121894956Y-116935457D01*
X121882974Y-116955448D01*
X121869090Y-116974168D01*
X121853438Y-116991438D01*
X121836168Y-117007090D01*
X121817448Y-117020974D01*
X121797457Y-117032956D01*
X121776387Y-117042921D01*
X121754443Y-117050773D01*
X121731834Y-117056437D01*
X121708779Y-117059856D01*
X121685500Y-117061000D01*
X121110500Y-117061000D01*
X121087221Y-117059856D01*
X121064166Y-117056437D01*
X121041557Y-117050773D01*
X121019613Y-117042921D01*
X120998543Y-117032956D01*
X120978552Y-117020974D01*
X120959832Y-117007090D01*
X120942562Y-116991438D01*
X120926910Y-116974168D01*
X120913026Y-116955448D01*
X120901044Y-116935457D01*
X120891079Y-116914387D01*
X120883227Y-116892443D01*
X120877563Y-116869834D01*
X120874144Y-116846779D01*
X120873000Y-116823500D01*
X120873000Y-116348500D01*
X120874144Y-116325221D01*
X120877563Y-116302166D01*
X120883227Y-116279557D01*
X120891079Y-116257613D01*
X120901044Y-116236543D01*
X120913026Y-116216552D01*
X120926910Y-116197832D01*
X120942562Y-116180562D01*
X120959832Y-116164910D01*
X120978552Y-116151026D01*
X120998543Y-116139044D01*
X121019613Y-116129079D01*
X121041557Y-116121227D01*
X121064166Y-116115563D01*
X121087221Y-116112144D01*
X121110500Y-116111000D01*
X121685500Y-116111000D01*
X121708779Y-116112144D01*
X121708779Y-116112144D01*
G37*
D13*
X121398000Y-116586000D03*
M02*
