G04 #@! TF.GenerationSoftware,KiCad,Pcbnew,(5.1.2)-2*
G04 #@! TF.CreationDate,2019-07-23T13:27:12-04:00*
G04 #@! TF.ProjectId,light_monitor,6c696768-745f-46d6-9f6e-69746f722e6b,R001*
G04 #@! TF.SameCoordinates,Original*
G04 #@! TF.FileFunction,Legend,Top*
G04 #@! TF.FilePolarity,Positive*
%FSLAX46Y46*%
G04 Gerber Fmt 4.6, Leading zero omitted, Abs format (unit mm)*
G04 Created by KiCad (PCBNEW (5.1.2)-2) date 2019-07-23 13:27:12*
%MOMM*%
%LPD*%
G04 APERTURE LIST*
%ADD10C,0.300000*%
%ADD11C,0.010000*%
%ADD12C,0.150000*%
%ADD13C,0.100000*%
%ADD14C,0.120000*%
G04 APERTURE END LIST*
D10*
X109355037Y-109669971D02*
X109355037Y-108169971D01*
X109712180Y-108169971D01*
X109926465Y-108241400D01*
X110069322Y-108384257D01*
X110140751Y-108527114D01*
X110212180Y-108812828D01*
X110212180Y-109027114D01*
X110140751Y-109312828D01*
X110069322Y-109455685D01*
X109926465Y-109598542D01*
X109712180Y-109669971D01*
X109355037Y-109669971D01*
X111497894Y-109669971D02*
X111497894Y-108884257D01*
X111426465Y-108741400D01*
X111283608Y-108669971D01*
X110997894Y-108669971D01*
X110855037Y-108741400D01*
X111497894Y-109598542D02*
X111355037Y-109669971D01*
X110997894Y-109669971D01*
X110855037Y-109598542D01*
X110783608Y-109455685D01*
X110783608Y-109312828D01*
X110855037Y-109169971D01*
X110997894Y-109098542D01*
X111355037Y-109098542D01*
X111497894Y-109027114D01*
X112212180Y-109669971D02*
X112212180Y-108669971D01*
X112212180Y-108955685D02*
X112283608Y-108812828D01*
X112355037Y-108741400D01*
X112497894Y-108669971D01*
X112640751Y-108669971D01*
X113140751Y-109669971D02*
X113140751Y-108169971D01*
X113283608Y-109098542D02*
X113712180Y-109669971D01*
X113712180Y-108669971D02*
X113140751Y-109241400D01*
X115426465Y-109598542D02*
X115640751Y-109669971D01*
X115997894Y-109669971D01*
X116140751Y-109598542D01*
X116212180Y-109527114D01*
X116283608Y-109384257D01*
X116283608Y-109241400D01*
X116212180Y-109098542D01*
X116140751Y-109027114D01*
X115997894Y-108955685D01*
X115712180Y-108884257D01*
X115569322Y-108812828D01*
X115497894Y-108741400D01*
X115426465Y-108598542D01*
X115426465Y-108455685D01*
X115497894Y-108312828D01*
X115569322Y-108241400D01*
X115712180Y-108169971D01*
X116069322Y-108169971D01*
X116283608Y-108241400D01*
X116926465Y-109669971D02*
X116926465Y-108169971D01*
X117069322Y-109098542D02*
X117497894Y-109669971D01*
X117497894Y-108669971D02*
X116926465Y-109241400D01*
X117997894Y-108669971D02*
X118355037Y-109669971D01*
X118712180Y-108669971D02*
X118355037Y-109669971D01*
X118212180Y-110027114D01*
X118140751Y-110098542D01*
X117997894Y-110169971D01*
X110249200Y-111917871D02*
X109749200Y-111203585D01*
X109392057Y-111917871D02*
X109392057Y-110417871D01*
X109963485Y-110417871D01*
X110106342Y-110489300D01*
X110177771Y-110560728D01*
X110249200Y-110703585D01*
X110249200Y-110917871D01*
X110177771Y-111060728D01*
X110106342Y-111132157D01*
X109963485Y-111203585D01*
X109392057Y-111203585D01*
X111177771Y-110417871D02*
X111320628Y-110417871D01*
X111463485Y-110489300D01*
X111534914Y-110560728D01*
X111606342Y-110703585D01*
X111677771Y-110989300D01*
X111677771Y-111346442D01*
X111606342Y-111632157D01*
X111534914Y-111775014D01*
X111463485Y-111846442D01*
X111320628Y-111917871D01*
X111177771Y-111917871D01*
X111034914Y-111846442D01*
X110963485Y-111775014D01*
X110892057Y-111632157D01*
X110820628Y-111346442D01*
X110820628Y-110989300D01*
X110892057Y-110703585D01*
X110963485Y-110560728D01*
X111034914Y-110489300D01*
X111177771Y-110417871D01*
X112606342Y-110417871D02*
X112749200Y-110417871D01*
X112892057Y-110489300D01*
X112963485Y-110560728D01*
X113034914Y-110703585D01*
X113106342Y-110989300D01*
X113106342Y-111346442D01*
X113034914Y-111632157D01*
X112963485Y-111775014D01*
X112892057Y-111846442D01*
X112749200Y-111917871D01*
X112606342Y-111917871D01*
X112463485Y-111846442D01*
X112392057Y-111775014D01*
X112320628Y-111632157D01*
X112249200Y-111346442D01*
X112249200Y-110989300D01*
X112320628Y-110703585D01*
X112392057Y-110560728D01*
X112463485Y-110489300D01*
X112606342Y-110417871D01*
X114463485Y-110417871D02*
X113749200Y-110417871D01*
X113677771Y-111132157D01*
X113749200Y-111060728D01*
X113892057Y-110989300D01*
X114249200Y-110989300D01*
X114392057Y-111060728D01*
X114463485Y-111132157D01*
X114534914Y-111275014D01*
X114534914Y-111632157D01*
X114463485Y-111775014D01*
X114392057Y-111846442D01*
X114249200Y-111917871D01*
X113892057Y-111917871D01*
X113749200Y-111846442D01*
X113677771Y-111775014D01*
X115177771Y-111346442D02*
X116320628Y-111346442D01*
X117749200Y-111917871D02*
X117034914Y-111917871D01*
X117034914Y-110417871D01*
X118249200Y-110417871D02*
X118249200Y-111632157D01*
X118320628Y-111775014D01*
X118392057Y-111846442D01*
X118534914Y-111917871D01*
X118820628Y-111917871D01*
X118963485Y-111846442D01*
X119034914Y-111775014D01*
X119106342Y-111632157D01*
X119106342Y-110417871D01*
D11*
G36*
X122120254Y-93915442D02*
G01*
X122153680Y-93975112D01*
X122123911Y-94003529D01*
X122055760Y-93976889D01*
X121941297Y-93947084D01*
X121877960Y-93955137D01*
X121804196Y-94013895D01*
X121820300Y-94086321D01*
X121919081Y-94156043D01*
X121975902Y-94178127D01*
X122118385Y-94258340D01*
X122191059Y-94368016D01*
X122184831Y-94483337D01*
X122121738Y-94560100D01*
X121970250Y-94628654D01*
X121821731Y-94596892D01*
X121774693Y-94566874D01*
X121717125Y-94499584D01*
X121736462Y-94464205D01*
X121805029Y-94470177D01*
X121833057Y-94501068D01*
X121900012Y-94546456D01*
X121992351Y-94527779D01*
X122079154Y-94457900D01*
X122086499Y-94369366D01*
X122017081Y-94300146D01*
X121975296Y-94287536D01*
X121840067Y-94229867D01*
X121759464Y-94134199D01*
X121740373Y-94027315D01*
X121789680Y-93935996D01*
X121874166Y-93894209D01*
X122017118Y-93881847D01*
X122120254Y-93915442D01*
X122120254Y-93915442D01*
G37*
X122120254Y-93915442D02*
X122153680Y-93975112D01*
X122123911Y-94003529D01*
X122055760Y-93976889D01*
X121941297Y-93947084D01*
X121877960Y-93955137D01*
X121804196Y-94013895D01*
X121820300Y-94086321D01*
X121919081Y-94156043D01*
X121975902Y-94178127D01*
X122118385Y-94258340D01*
X122191059Y-94368016D01*
X122184831Y-94483337D01*
X122121738Y-94560100D01*
X121970250Y-94628654D01*
X121821731Y-94596892D01*
X121774693Y-94566874D01*
X121717125Y-94499584D01*
X121736462Y-94464205D01*
X121805029Y-94470177D01*
X121833057Y-94501068D01*
X121900012Y-94546456D01*
X121992351Y-94527779D01*
X122079154Y-94457900D01*
X122086499Y-94369366D01*
X122017081Y-94300146D01*
X121975296Y-94287536D01*
X121840067Y-94229867D01*
X121759464Y-94134199D01*
X121740373Y-94027315D01*
X121789680Y-93935996D01*
X121874166Y-93894209D01*
X122017118Y-93881847D01*
X122120254Y-93915442D01*
G36*
X121216010Y-93884744D02*
G01*
X121285422Y-93913235D01*
X121290080Y-93924120D01*
X121247349Y-93964820D01*
X121184145Y-93974920D01*
X121127526Y-93982985D01*
X121097733Y-94022289D01*
X121088667Y-94115498D01*
X121094228Y-94285275D01*
X121095245Y-94305226D01*
X121097416Y-94488534D01*
X121083403Y-94604109D01*
X121061480Y-94635533D01*
X121035729Y-94588182D01*
X121024652Y-94458309D01*
X121027714Y-94305226D01*
X121034402Y-94127524D01*
X121027087Y-94028403D01*
X120999445Y-93985135D01*
X120945153Y-93974991D01*
X120935816Y-93974920D01*
X120862885Y-93956026D01*
X120858280Y-93924120D01*
X120924886Y-93891648D01*
X121051228Y-93874248D01*
X121089878Y-93873320D01*
X121216010Y-93884744D01*
X121216010Y-93884744D01*
G37*
X121216010Y-93884744D02*
X121285422Y-93913235D01*
X121290080Y-93924120D01*
X121247349Y-93964820D01*
X121184145Y-93974920D01*
X121127526Y-93982985D01*
X121097733Y-94022289D01*
X121088667Y-94115498D01*
X121094228Y-94285275D01*
X121095245Y-94305226D01*
X121097416Y-94488534D01*
X121083403Y-94604109D01*
X121061480Y-94635533D01*
X121035729Y-94588182D01*
X121024652Y-94458309D01*
X121027714Y-94305226D01*
X121034402Y-94127524D01*
X121027087Y-94028403D01*
X120999445Y-93985135D01*
X120945153Y-93974991D01*
X120935816Y-93974920D01*
X120862885Y-93956026D01*
X120858280Y-93924120D01*
X120924886Y-93891648D01*
X121051228Y-93874248D01*
X121089878Y-93873320D01*
X121216010Y-93884744D01*
G36*
X122458480Y-93915413D02*
G01*
X122585760Y-93938537D01*
X122656520Y-93972726D01*
X122661680Y-93984292D01*
X122618638Y-94010247D01*
X122509835Y-94000441D01*
X122509280Y-94000320D01*
X122402981Y-93986025D01*
X122362586Y-94022084D01*
X122356880Y-94097883D01*
X122379147Y-94199477D01*
X122457162Y-94228916D01*
X122458480Y-94228920D01*
X122540986Y-94252642D01*
X122560080Y-94285644D01*
X122519874Y-94320571D01*
X122458480Y-94315800D01*
X122385758Y-94313852D01*
X122359118Y-94377295D01*
X122356880Y-94436875D01*
X122370429Y-94542279D01*
X122432642Y-94580517D01*
X122506281Y-94584520D01*
X122623599Y-94600179D01*
X122687080Y-94635320D01*
X122670463Y-94670178D01*
X122570049Y-94677263D01*
X122399958Y-94655912D01*
X122369580Y-94650268D01*
X122310228Y-94630824D01*
X122275949Y-94585664D01*
X122259946Y-94491701D01*
X122255417Y-94325848D01*
X122255280Y-94262144D01*
X122255280Y-93896035D01*
X122458480Y-93915413D01*
X122458480Y-93915413D01*
G37*
X122458480Y-93915413D02*
X122585760Y-93938537D01*
X122656520Y-93972726D01*
X122661680Y-93984292D01*
X122618638Y-94010247D01*
X122509835Y-94000441D01*
X122509280Y-94000320D01*
X122402981Y-93986025D01*
X122362586Y-94022084D01*
X122356880Y-94097883D01*
X122379147Y-94199477D01*
X122457162Y-94228916D01*
X122458480Y-94228920D01*
X122540986Y-94252642D01*
X122560080Y-94285644D01*
X122519874Y-94320571D01*
X122458480Y-94315800D01*
X122385758Y-94313852D01*
X122359118Y-94377295D01*
X122356880Y-94436875D01*
X122370429Y-94542279D01*
X122432642Y-94580517D01*
X122506281Y-94584520D01*
X122623599Y-94600179D01*
X122687080Y-94635320D01*
X122670463Y-94670178D01*
X122570049Y-94677263D01*
X122399958Y-94655912D01*
X122369580Y-94650268D01*
X122310228Y-94630824D01*
X122275949Y-94585664D01*
X122259946Y-94491701D01*
X122255417Y-94325848D01*
X122255280Y-94262144D01*
X122255280Y-93896035D01*
X122458480Y-93915413D01*
G36*
X120612245Y-93934062D02*
G01*
X120704953Y-93965938D01*
X120709659Y-94010447D01*
X120633153Y-94043649D01*
X120579813Y-94048437D01*
X120467018Y-94078502D01*
X120433764Y-94142943D01*
X120480097Y-94212861D01*
X120579484Y-94254452D01*
X120722752Y-94315865D01*
X120774020Y-94419551D01*
X120739047Y-94562359D01*
X120655383Y-94661636D01*
X120537635Y-94686120D01*
X120420887Y-94675319D01*
X120358746Y-94652253D01*
X120322939Y-94587503D01*
X120368191Y-94564633D01*
X120450161Y-94583866D01*
X120570716Y-94602883D01*
X120653361Y-94553580D01*
X120715690Y-94483030D01*
X120731280Y-94455195D01*
X120690361Y-94417357D01*
X120594861Y-94364305D01*
X120485661Y-94315599D01*
X120403643Y-94290798D01*
X120388912Y-94291390D01*
X120352443Y-94260352D01*
X120334876Y-94197151D01*
X120360832Y-94066218D01*
X120457083Y-93968097D01*
X120592374Y-93932434D01*
X120612245Y-93934062D01*
X120612245Y-93934062D01*
G37*
X120612245Y-93934062D02*
X120704953Y-93965938D01*
X120709659Y-94010447D01*
X120633153Y-94043649D01*
X120579813Y-94048437D01*
X120467018Y-94078502D01*
X120433764Y-94142943D01*
X120480097Y-94212861D01*
X120579484Y-94254452D01*
X120722752Y-94315865D01*
X120774020Y-94419551D01*
X120739047Y-94562359D01*
X120655383Y-94661636D01*
X120537635Y-94686120D01*
X120420887Y-94675319D01*
X120358746Y-94652253D01*
X120322939Y-94587503D01*
X120368191Y-94564633D01*
X120450161Y-94583866D01*
X120570716Y-94602883D01*
X120653361Y-94553580D01*
X120715690Y-94483030D01*
X120731280Y-94455195D01*
X120690361Y-94417357D01*
X120594861Y-94364305D01*
X120485661Y-94315599D01*
X120403643Y-94290798D01*
X120388912Y-94291390D01*
X120352443Y-94260352D01*
X120334876Y-94197151D01*
X120360832Y-94066218D01*
X120457083Y-93968097D01*
X120592374Y-93932434D01*
X120612245Y-93934062D01*
G36*
X123035759Y-94014606D02*
G01*
X123147208Y-94113881D01*
X123196085Y-94243068D01*
X123193137Y-94289806D01*
X123157445Y-94387164D01*
X123123072Y-94422255D01*
X123102947Y-94477531D01*
X123128443Y-94590116D01*
X123163581Y-94718532D01*
X123155275Y-94760661D01*
X123112598Y-94717190D01*
X123044623Y-94588807D01*
X123042262Y-94583593D01*
X122964532Y-94449867D01*
X122897983Y-94402866D01*
X122853837Y-94444433D01*
X122842308Y-94550766D01*
X122831171Y-94650145D01*
X122804208Y-94686120D01*
X122784035Y-94639618D01*
X122769417Y-94517244D01*
X122763312Y-94344689D01*
X122763280Y-94330520D01*
X122763659Y-94292767D01*
X122847769Y-94292767D01*
X122899635Y-94326591D01*
X122977057Y-94330520D01*
X123081810Y-94318012D01*
X123113195Y-94265127D01*
X123109713Y-94216220D01*
X123060489Y-94114568D01*
X122975926Y-94080931D01*
X122893205Y-94117540D01*
X122852960Y-94200830D01*
X122847769Y-94292767D01*
X122763659Y-94292767D01*
X122765147Y-94144738D01*
X122776021Y-94038411D01*
X122803808Y-93989401D01*
X122856415Y-93975567D01*
X122890280Y-93974920D01*
X123035759Y-94014606D01*
X123035759Y-94014606D01*
G37*
X123035759Y-94014606D02*
X123147208Y-94113881D01*
X123196085Y-94243068D01*
X123193137Y-94289806D01*
X123157445Y-94387164D01*
X123123072Y-94422255D01*
X123102947Y-94477531D01*
X123128443Y-94590116D01*
X123163581Y-94718532D01*
X123155275Y-94760661D01*
X123112598Y-94717190D01*
X123044623Y-94588807D01*
X123042262Y-94583593D01*
X122964532Y-94449867D01*
X122897983Y-94402866D01*
X122853837Y-94444433D01*
X122842308Y-94550766D01*
X122831171Y-94650145D01*
X122804208Y-94686120D01*
X122784035Y-94639618D01*
X122769417Y-94517244D01*
X122763312Y-94344689D01*
X122763280Y-94330520D01*
X122763659Y-94292767D01*
X122847769Y-94292767D01*
X122899635Y-94326591D01*
X122977057Y-94330520D01*
X123081810Y-94318012D01*
X123113195Y-94265127D01*
X123109713Y-94216220D01*
X123060489Y-94114568D01*
X122975926Y-94080931D01*
X122893205Y-94117540D01*
X122852960Y-94200830D01*
X122847769Y-94292767D01*
X122763659Y-94292767D01*
X122765147Y-94144738D01*
X122776021Y-94038411D01*
X122803808Y-93989401D01*
X122856415Y-93975567D01*
X122890280Y-93974920D01*
X123035759Y-94014606D01*
G36*
X123304973Y-94122103D02*
G01*
X123344290Y-94240681D01*
X123376742Y-94380351D01*
X123413526Y-94535239D01*
X123449811Y-94636091D01*
X123474650Y-94660614D01*
X123508675Y-94601482D01*
X123552610Y-94477327D01*
X123575980Y-94394883D01*
X123615425Y-94268788D01*
X123648205Y-94207418D01*
X123661158Y-94211710D01*
X123661046Y-94291720D01*
X123635057Y-94424160D01*
X123592857Y-94576852D01*
X123544115Y-94717621D01*
X123498499Y-94814288D01*
X123472833Y-94838520D01*
X123433932Y-94794151D01*
X123388844Y-94682322D01*
X123371586Y-94622620D01*
X123324599Y-94442084D01*
X123279739Y-94270596D01*
X123272122Y-94241620D01*
X123254014Y-94129421D01*
X123268789Y-94077220D01*
X123272818Y-94076520D01*
X123304973Y-94122103D01*
X123304973Y-94122103D01*
G37*
X123304973Y-94122103D02*
X123344290Y-94240681D01*
X123376742Y-94380351D01*
X123413526Y-94535239D01*
X123449811Y-94636091D01*
X123474650Y-94660614D01*
X123508675Y-94601482D01*
X123552610Y-94477327D01*
X123575980Y-94394883D01*
X123615425Y-94268788D01*
X123648205Y-94207418D01*
X123661158Y-94211710D01*
X123661046Y-94291720D01*
X123635057Y-94424160D01*
X123592857Y-94576852D01*
X123544115Y-94717621D01*
X123498499Y-94814288D01*
X123472833Y-94838520D01*
X123433932Y-94794151D01*
X123388844Y-94682322D01*
X123371586Y-94622620D01*
X123324599Y-94442084D01*
X123279739Y-94270596D01*
X123272122Y-94241620D01*
X123254014Y-94129421D01*
X123268789Y-94077220D01*
X123272818Y-94076520D01*
X123304973Y-94122103D01*
G36*
X120267570Y-94016633D02*
G01*
X120274080Y-94024771D01*
X120230237Y-94060878D01*
X120124493Y-94093730D01*
X120121680Y-94094300D01*
X120009408Y-94136259D01*
X119970683Y-94217329D01*
X119969280Y-94248294D01*
X119985877Y-94337431D01*
X120050774Y-94349876D01*
X120070880Y-94345239D01*
X120152268Y-94346403D01*
X120172480Y-94375395D01*
X120129990Y-94421459D01*
X120070880Y-94432120D01*
X119992489Y-94460402D01*
X119969300Y-94560081D01*
X119969280Y-94564885D01*
X119981157Y-94656390D01*
X120037705Y-94683108D01*
X120121680Y-94675283D01*
X120227923Y-94671650D01*
X120274023Y-94693775D01*
X120274080Y-94694918D01*
X120232809Y-94732217D01*
X120197880Y-94736920D01*
X120082621Y-94743639D01*
X119992377Y-94775941D01*
X119956580Y-94794516D01*
X119911157Y-94809913D01*
X119884488Y-94783618D01*
X119871675Y-94697507D01*
X119867821Y-94533454D01*
X119867680Y-94465486D01*
X119867680Y-94088878D01*
X120070880Y-94037300D01*
X120196009Y-94013876D01*
X120267570Y-94016633D01*
X120267570Y-94016633D01*
G37*
X120267570Y-94016633D02*
X120274080Y-94024771D01*
X120230237Y-94060878D01*
X120124493Y-94093730D01*
X120121680Y-94094300D01*
X120009408Y-94136259D01*
X119970683Y-94217329D01*
X119969280Y-94248294D01*
X119985877Y-94337431D01*
X120050774Y-94349876D01*
X120070880Y-94345239D01*
X120152268Y-94346403D01*
X120172480Y-94375395D01*
X120129990Y-94421459D01*
X120070880Y-94432120D01*
X119992489Y-94460402D01*
X119969300Y-94560081D01*
X119969280Y-94564885D01*
X119981157Y-94656390D01*
X120037705Y-94683108D01*
X120121680Y-94675283D01*
X120227923Y-94671650D01*
X120274023Y-94693775D01*
X120274080Y-94694918D01*
X120232809Y-94732217D01*
X120197880Y-94736920D01*
X120082621Y-94743639D01*
X119992377Y-94775941D01*
X119956580Y-94794516D01*
X119911157Y-94809913D01*
X119884488Y-94783618D01*
X119871675Y-94697507D01*
X119867821Y-94533454D01*
X119867680Y-94465486D01*
X119867680Y-94088878D01*
X120070880Y-94037300D01*
X120196009Y-94013876D01*
X120267570Y-94016633D01*
G36*
X123812251Y-94383011D02*
G01*
X123816541Y-94420762D01*
X123824457Y-94612624D01*
X123818547Y-94801654D01*
X123816206Y-94827162D01*
X123807423Y-94868622D01*
X123800712Y-94819576D01*
X123797068Y-94691112D01*
X123796694Y-94609920D01*
X123798860Y-94452952D01*
X123804376Y-94374163D01*
X123812251Y-94383011D01*
X123812251Y-94383011D01*
G37*
X123812251Y-94383011D02*
X123816541Y-94420762D01*
X123824457Y-94612624D01*
X123818547Y-94801654D01*
X123816206Y-94827162D01*
X123807423Y-94868622D01*
X123800712Y-94819576D01*
X123797068Y-94691112D01*
X123796694Y-94609920D01*
X123798860Y-94452952D01*
X123804376Y-94374163D01*
X123812251Y-94383011D01*
G36*
X119729216Y-94174972D02*
G01*
X119763339Y-94204408D01*
X119810747Y-94267342D01*
X119805152Y-94336718D01*
X119751839Y-94440538D01*
X119695486Y-94554288D01*
X119694362Y-94633453D01*
X119740382Y-94718195D01*
X119787007Y-94806544D01*
X119767140Y-94837609D01*
X119753897Y-94838520D01*
X119684549Y-94797274D01*
X119638426Y-94727506D01*
X119566401Y-94616314D01*
X119504423Y-94601501D01*
X119466657Y-94680861D01*
X119461280Y-94755088D01*
X119448126Y-94883109D01*
X119415915Y-94961135D01*
X119410480Y-94965520D01*
X119382712Y-94936442D01*
X119365381Y-94814431D01*
X119359680Y-94617887D01*
X119359680Y-94489997D01*
X119468318Y-94489997D01*
X119509699Y-94508908D01*
X119572244Y-94489687D01*
X119670212Y-94413663D01*
X119706646Y-94333624D01*
X119701795Y-94250669D01*
X119633547Y-94234254D01*
X119605046Y-94237553D01*
X119508003Y-94284516D01*
X119470644Y-94393616D01*
X119468318Y-94489997D01*
X119359680Y-94489997D01*
X119359680Y-94238859D01*
X119522111Y-94182235D01*
X119647702Y-94151440D01*
X119729216Y-94174972D01*
X119729216Y-94174972D01*
G37*
X119729216Y-94174972D02*
X119763339Y-94204408D01*
X119810747Y-94267342D01*
X119805152Y-94336718D01*
X119751839Y-94440538D01*
X119695486Y-94554288D01*
X119694362Y-94633453D01*
X119740382Y-94718195D01*
X119787007Y-94806544D01*
X119767140Y-94837609D01*
X119753897Y-94838520D01*
X119684549Y-94797274D01*
X119638426Y-94727506D01*
X119566401Y-94616314D01*
X119504423Y-94601501D01*
X119466657Y-94680861D01*
X119461280Y-94755088D01*
X119448126Y-94883109D01*
X119415915Y-94961135D01*
X119410480Y-94965520D01*
X119382712Y-94936442D01*
X119365381Y-94814431D01*
X119359680Y-94617887D01*
X119359680Y-94489997D01*
X119468318Y-94489997D01*
X119509699Y-94508908D01*
X119572244Y-94489687D01*
X119670212Y-94413663D01*
X119706646Y-94333624D01*
X119701795Y-94250669D01*
X119633547Y-94234254D01*
X119605046Y-94237553D01*
X119508003Y-94284516D01*
X119470644Y-94393616D01*
X119468318Y-94489997D01*
X119359680Y-94489997D01*
X119359680Y-94238859D01*
X119522111Y-94182235D01*
X119647702Y-94151440D01*
X119729216Y-94174972D01*
G36*
X124235770Y-94385224D02*
G01*
X124325840Y-94446138D01*
X124365249Y-94515114D01*
X124358068Y-94542475D01*
X124312034Y-94557802D01*
X124277725Y-94514843D01*
X124195541Y-94445295D01*
X124093686Y-94440748D01*
X124018110Y-94501613D01*
X124013315Y-94512474D01*
X123984173Y-94688666D01*
X124020544Y-94853639D01*
X124109378Y-94979922D01*
X124237622Y-95040043D01*
X124264760Y-95041720D01*
X124358842Y-95059476D01*
X124388880Y-95092520D01*
X124351169Y-95138239D01*
X124261087Y-95137035D01*
X124153210Y-95094547D01*
X124085372Y-95043012D01*
X123988980Y-94897917D01*
X123939621Y-94722780D01*
X123939436Y-94550234D01*
X123990567Y-94412918D01*
X124040849Y-94364539D01*
X124129340Y-94351611D01*
X124235770Y-94385224D01*
X124235770Y-94385224D01*
G37*
X124235770Y-94385224D02*
X124325840Y-94446138D01*
X124365249Y-94515114D01*
X124358068Y-94542475D01*
X124312034Y-94557802D01*
X124277725Y-94514843D01*
X124195541Y-94445295D01*
X124093686Y-94440748D01*
X124018110Y-94501613D01*
X124013315Y-94512474D01*
X123984173Y-94688666D01*
X124020544Y-94853639D01*
X124109378Y-94979922D01*
X124237622Y-95040043D01*
X124264760Y-95041720D01*
X124358842Y-95059476D01*
X124388880Y-95092520D01*
X124351169Y-95138239D01*
X124261087Y-95137035D01*
X124153210Y-95094547D01*
X124085372Y-95043012D01*
X123988980Y-94897917D01*
X123939621Y-94722780D01*
X123939436Y-94550234D01*
X123990567Y-94412918D01*
X124040849Y-94364539D01*
X124129340Y-94351611D01*
X124235770Y-94385224D01*
G36*
X119265244Y-94418478D02*
G01*
X119306325Y-94582497D01*
X119308880Y-94649387D01*
X119283447Y-94819909D01*
X119191723Y-94962055D01*
X119160387Y-94994827D01*
X119033843Y-95105763D01*
X118946546Y-95136006D01*
X118880144Y-95088559D01*
X118853467Y-95045059D01*
X118800663Y-94849654D01*
X118801609Y-94841859D01*
X118857843Y-94841859D01*
X118891666Y-94951445D01*
X118900363Y-94962970D01*
X118975972Y-95031007D01*
X119046724Y-95019602D01*
X119131673Y-94939464D01*
X119200233Y-94810075D01*
X119222181Y-94653259D01*
X119194401Y-94514948D01*
X119163548Y-94469668D01*
X119082105Y-94440064D01*
X118997911Y-94486664D01*
X118923868Y-94585286D01*
X118872878Y-94711745D01*
X118857843Y-94841859D01*
X118801609Y-94841859D01*
X118825816Y-94642395D01*
X118923492Y-94467070D01*
X118925454Y-94464937D01*
X119065029Y-94354994D01*
X119181552Y-94341076D01*
X119265244Y-94418478D01*
X119265244Y-94418478D01*
G37*
X119265244Y-94418478D02*
X119306325Y-94582497D01*
X119308880Y-94649387D01*
X119283447Y-94819909D01*
X119191723Y-94962055D01*
X119160387Y-94994827D01*
X119033843Y-95105763D01*
X118946546Y-95136006D01*
X118880144Y-95088559D01*
X118853467Y-95045059D01*
X118800663Y-94849654D01*
X118801609Y-94841859D01*
X118857843Y-94841859D01*
X118891666Y-94951445D01*
X118900363Y-94962970D01*
X118975972Y-95031007D01*
X119046724Y-95019602D01*
X119131673Y-94939464D01*
X119200233Y-94810075D01*
X119222181Y-94653259D01*
X119194401Y-94514948D01*
X119163548Y-94469668D01*
X119082105Y-94440064D01*
X118997911Y-94486664D01*
X118923868Y-94585286D01*
X118872878Y-94711745D01*
X118857843Y-94841859D01*
X118801609Y-94841859D01*
X118825816Y-94642395D01*
X118923492Y-94467070D01*
X118925454Y-94464937D01*
X119065029Y-94354994D01*
X119181552Y-94341076D01*
X119265244Y-94418478D01*
G36*
X124627757Y-94574251D02*
G01*
X124737620Y-94637290D01*
X124793499Y-94690187D01*
X124795280Y-94697316D01*
X124758684Y-94711285D01*
X124697019Y-94687907D01*
X124593629Y-94642067D01*
X124550027Y-94663679D01*
X124541280Y-94758896D01*
X124580332Y-94875137D01*
X124642880Y-94914720D01*
X124725000Y-94961086D01*
X124744480Y-94996130D01*
X124708272Y-95016212D01*
X124642880Y-94990920D01*
X124568131Y-94963956D01*
X124543097Y-95010933D01*
X124541280Y-95064028D01*
X124579431Y-95183301D01*
X124693680Y-95270320D01*
X124796508Y-95329845D01*
X124845426Y-95370655D01*
X124846080Y-95373224D01*
X124808384Y-95395733D01*
X124715199Y-95371163D01*
X124596375Y-95307566D01*
X124592080Y-95304706D01*
X124525095Y-95250112D01*
X124486571Y-95180395D01*
X124468500Y-95067848D01*
X124462875Y-94884767D01*
X124462657Y-94856943D01*
X124460235Y-94494366D01*
X124627757Y-94574251D01*
X124627757Y-94574251D01*
G37*
X124627757Y-94574251D02*
X124737620Y-94637290D01*
X124793499Y-94690187D01*
X124795280Y-94697316D01*
X124758684Y-94711285D01*
X124697019Y-94687907D01*
X124593629Y-94642067D01*
X124550027Y-94663679D01*
X124541280Y-94758896D01*
X124580332Y-94875137D01*
X124642880Y-94914720D01*
X124725000Y-94961086D01*
X124744480Y-94996130D01*
X124708272Y-95016212D01*
X124642880Y-94990920D01*
X124568131Y-94963956D01*
X124543097Y-95010933D01*
X124541280Y-95064028D01*
X124579431Y-95183301D01*
X124693680Y-95270320D01*
X124796508Y-95329845D01*
X124845426Y-95370655D01*
X124846080Y-95373224D01*
X124808384Y-95395733D01*
X124715199Y-95371163D01*
X124596375Y-95307566D01*
X124592080Y-95304706D01*
X124525095Y-95250112D01*
X124486571Y-95180395D01*
X124468500Y-95067848D01*
X124462875Y-94884767D01*
X124462657Y-94856943D01*
X124460235Y-94494366D01*
X124627757Y-94574251D01*
G36*
X118790275Y-94505354D02*
G01*
X118740534Y-94559531D01*
X118644250Y-94626120D01*
X118593266Y-94653903D01*
X118501518Y-94740313D01*
X118470566Y-94824635D01*
X118479696Y-94904343D01*
X118543067Y-94919002D01*
X118593556Y-94910328D01*
X118680865Y-94894939D01*
X118676359Y-94911100D01*
X118623080Y-94945271D01*
X118505650Y-95039837D01*
X118465415Y-95151979D01*
X118470632Y-95254708D01*
X118469266Y-95356762D01*
X118441580Y-95397320D01*
X118418388Y-95350818D01*
X118401571Y-95228424D01*
X118394520Y-95055797D01*
X118394480Y-95040973D01*
X118396825Y-94853019D01*
X118410771Y-94737968D01*
X118446682Y-94667132D01*
X118514921Y-94611822D01*
X118559580Y-94583963D01*
X118678980Y-94518278D01*
X118763415Y-94484366D01*
X118772940Y-94483109D01*
X118790275Y-94505354D01*
X118790275Y-94505354D01*
G37*
X118790275Y-94505354D02*
X118740534Y-94559531D01*
X118644250Y-94626120D01*
X118593266Y-94653903D01*
X118501518Y-94740313D01*
X118470566Y-94824635D01*
X118479696Y-94904343D01*
X118543067Y-94919002D01*
X118593556Y-94910328D01*
X118680865Y-94894939D01*
X118676359Y-94911100D01*
X118623080Y-94945271D01*
X118505650Y-95039837D01*
X118465415Y-95151979D01*
X118470632Y-95254708D01*
X118469266Y-95356762D01*
X118441580Y-95397320D01*
X118418388Y-95350818D01*
X118401571Y-95228424D01*
X118394520Y-95055797D01*
X118394480Y-95040973D01*
X118396825Y-94853019D01*
X118410771Y-94737968D01*
X118446682Y-94667132D01*
X118514921Y-94611822D01*
X118559580Y-94583963D01*
X118678980Y-94518278D01*
X118763415Y-94484366D01*
X118772940Y-94483109D01*
X118790275Y-94505354D01*
G36*
X124134880Y-95759826D02*
G01*
X124414280Y-95779983D01*
X124429515Y-96071251D01*
X124434689Y-96235960D01*
X124423239Y-96323416D01*
X124387864Y-96357539D01*
X124340615Y-96362520D01*
X124253466Y-96327351D01*
X124236480Y-96264607D01*
X124191257Y-96141182D01*
X124075048Y-96043343D01*
X123917043Y-95979726D01*
X123746434Y-95958967D01*
X123592409Y-95989700D01*
X123507753Y-96049020D01*
X123424266Y-96196280D01*
X123433398Y-96354498D01*
X123536836Y-96526725D01*
X123736269Y-96716015D01*
X123969937Y-96884336D01*
X124288367Y-97114304D01*
X124515094Y-97327882D01*
X124656454Y-97535338D01*
X124718786Y-97746940D01*
X124708426Y-97972956D01*
X124690360Y-98051620D01*
X124594441Y-98259575D01*
X124436597Y-98452260D01*
X124245422Y-98601454D01*
X124055856Y-98677801D01*
X123836989Y-98696459D01*
X123614996Y-98678943D01*
X123426055Y-98630532D01*
X123320018Y-98570454D01*
X123247579Y-98511222D01*
X123223023Y-98526927D01*
X123220480Y-98589846D01*
X123188573Y-98679841D01*
X123118880Y-98699320D01*
X123066933Y-98690321D01*
X123036453Y-98649288D01*
X123021827Y-98555167D01*
X123017439Y-98386902D01*
X123017280Y-98318320D01*
X123019679Y-98123519D01*
X123030621Y-98009222D01*
X123055720Y-97954372D01*
X123100591Y-97937917D01*
X123118880Y-97937320D01*
X123204479Y-97973762D01*
X123220480Y-98032069D01*
X123265174Y-98173661D01*
X123380808Y-98310909D01*
X123539710Y-98415014D01*
X123614889Y-98442539D01*
X123848161Y-98467792D01*
X124055895Y-98418890D01*
X124218771Y-98307313D01*
X124317472Y-98144541D01*
X124338080Y-98012784D01*
X124290146Y-97798402D01*
X124144911Y-97581948D01*
X123945168Y-97395266D01*
X123814427Y-97286462D01*
X123719953Y-97200831D01*
X123686146Y-97162620D01*
X123627662Y-97126426D01*
X123607615Y-97124520D01*
X123543375Y-97090832D01*
X123490088Y-97048320D01*
X124033280Y-97048320D01*
X124058680Y-97073720D01*
X124084080Y-97048320D01*
X124058680Y-97022920D01*
X124033280Y-97048320D01*
X123490088Y-97048320D01*
X123432259Y-97002185D01*
X123297449Y-96877205D01*
X123287332Y-96867186D01*
X123107399Y-96664592D01*
X123067474Y-96591120D01*
X123068080Y-96591120D01*
X123093480Y-96616520D01*
X123118880Y-96591120D01*
X123093480Y-96565720D01*
X123068080Y-96591120D01*
X123067474Y-96591120D01*
X123011440Y-96488005D01*
X123006312Y-96438720D01*
X123068080Y-96438720D01*
X123093480Y-96464120D01*
X123118880Y-96438720D01*
X123093480Y-96413320D01*
X123068080Y-96438720D01*
X123006312Y-96438720D01*
X122993547Y-96316065D01*
X123047809Y-96127411D01*
X123069590Y-96080000D01*
X123153153Y-95937727D01*
X123255055Y-95837949D01*
X123274462Y-95829120D01*
X124338080Y-95829120D01*
X124363480Y-95854520D01*
X124388880Y-95829120D01*
X124363480Y-95803720D01*
X124338080Y-95829120D01*
X123274462Y-95829120D01*
X123392029Y-95775635D01*
X123580803Y-95745759D01*
X123838110Y-95743292D01*
X124134880Y-95759826D01*
X124134880Y-95759826D01*
G37*
X124134880Y-95759826D02*
X124414280Y-95779983D01*
X124429515Y-96071251D01*
X124434689Y-96235960D01*
X124423239Y-96323416D01*
X124387864Y-96357539D01*
X124340615Y-96362520D01*
X124253466Y-96327351D01*
X124236480Y-96264607D01*
X124191257Y-96141182D01*
X124075048Y-96043343D01*
X123917043Y-95979726D01*
X123746434Y-95958967D01*
X123592409Y-95989700D01*
X123507753Y-96049020D01*
X123424266Y-96196280D01*
X123433398Y-96354498D01*
X123536836Y-96526725D01*
X123736269Y-96716015D01*
X123969937Y-96884336D01*
X124288367Y-97114304D01*
X124515094Y-97327882D01*
X124656454Y-97535338D01*
X124718786Y-97746940D01*
X124708426Y-97972956D01*
X124690360Y-98051620D01*
X124594441Y-98259575D01*
X124436597Y-98452260D01*
X124245422Y-98601454D01*
X124055856Y-98677801D01*
X123836989Y-98696459D01*
X123614996Y-98678943D01*
X123426055Y-98630532D01*
X123320018Y-98570454D01*
X123247579Y-98511222D01*
X123223023Y-98526927D01*
X123220480Y-98589846D01*
X123188573Y-98679841D01*
X123118880Y-98699320D01*
X123066933Y-98690321D01*
X123036453Y-98649288D01*
X123021827Y-98555167D01*
X123017439Y-98386902D01*
X123017280Y-98318320D01*
X123019679Y-98123519D01*
X123030621Y-98009222D01*
X123055720Y-97954372D01*
X123100591Y-97937917D01*
X123118880Y-97937320D01*
X123204479Y-97973762D01*
X123220480Y-98032069D01*
X123265174Y-98173661D01*
X123380808Y-98310909D01*
X123539710Y-98415014D01*
X123614889Y-98442539D01*
X123848161Y-98467792D01*
X124055895Y-98418890D01*
X124218771Y-98307313D01*
X124317472Y-98144541D01*
X124338080Y-98012784D01*
X124290146Y-97798402D01*
X124144911Y-97581948D01*
X123945168Y-97395266D01*
X123814427Y-97286462D01*
X123719953Y-97200831D01*
X123686146Y-97162620D01*
X123627662Y-97126426D01*
X123607615Y-97124520D01*
X123543375Y-97090832D01*
X123490088Y-97048320D01*
X124033280Y-97048320D01*
X124058680Y-97073720D01*
X124084080Y-97048320D01*
X124058680Y-97022920D01*
X124033280Y-97048320D01*
X123490088Y-97048320D01*
X123432259Y-97002185D01*
X123297449Y-96877205D01*
X123287332Y-96867186D01*
X123107399Y-96664592D01*
X123067474Y-96591120D01*
X123068080Y-96591120D01*
X123093480Y-96616520D01*
X123118880Y-96591120D01*
X123093480Y-96565720D01*
X123068080Y-96591120D01*
X123067474Y-96591120D01*
X123011440Y-96488005D01*
X123006312Y-96438720D01*
X123068080Y-96438720D01*
X123093480Y-96464120D01*
X123118880Y-96438720D01*
X123093480Y-96413320D01*
X123068080Y-96438720D01*
X123006312Y-96438720D01*
X122993547Y-96316065D01*
X123047809Y-96127411D01*
X123069590Y-96080000D01*
X123153153Y-95937727D01*
X123255055Y-95837949D01*
X123274462Y-95829120D01*
X124338080Y-95829120D01*
X124363480Y-95854520D01*
X124388880Y-95829120D01*
X124363480Y-95803720D01*
X124338080Y-95829120D01*
X123274462Y-95829120D01*
X123392029Y-95775635D01*
X123580803Y-95745759D01*
X123838110Y-95743292D01*
X124134880Y-95759826D01*
G36*
X120359344Y-95757329D02*
G01*
X120443458Y-95776396D01*
X120474300Y-95818875D01*
X120477280Y-95854520D01*
X120445516Y-95937262D01*
X120401080Y-95956120D01*
X120375752Y-95968159D01*
X120356606Y-96012223D01*
X120342820Y-96100229D01*
X120333570Y-96244094D01*
X120328034Y-96455736D01*
X120325390Y-96747071D01*
X120324801Y-97061020D01*
X120323795Y-97434908D01*
X120320168Y-97721708D01*
X120312911Y-97935919D01*
X120301018Y-98092038D01*
X120283482Y-98204565D01*
X120259295Y-98287999D01*
X120235901Y-98340762D01*
X120084228Y-98532926D01*
X119867063Y-98661151D01*
X119603467Y-98717831D01*
X119335490Y-98700084D01*
X119137492Y-98621964D01*
X118970227Y-98471898D01*
X118947237Y-98442012D01*
X119168935Y-98442012D01*
X119175883Y-98445320D01*
X119222243Y-98409557D01*
X119232680Y-98394520D01*
X119245624Y-98347027D01*
X119238676Y-98343720D01*
X119192316Y-98379482D01*
X119181880Y-98394520D01*
X119168935Y-98442012D01*
X118947237Y-98442012D01*
X118898218Y-98378293D01*
X118842993Y-98275638D01*
X118802741Y-98150045D01*
X118775646Y-97987622D01*
X118759895Y-97774482D01*
X118753676Y-97496733D01*
X118755173Y-97140486D01*
X118759470Y-96857757D01*
X118762585Y-96567847D01*
X118761404Y-96316645D01*
X118756321Y-96120283D01*
X118747732Y-95994894D01*
X118737380Y-95956057D01*
X118706397Y-95913462D01*
X118699280Y-95854520D01*
X118710401Y-95797774D01*
X118759255Y-95767111D01*
X118869078Y-95754787D01*
X119004080Y-95752920D01*
X119174316Y-95756627D01*
X119266304Y-95772911D01*
X119303276Y-95809519D01*
X119308880Y-95854520D01*
X119287606Y-95937068D01*
X119258080Y-95956120D01*
X119239926Y-96006003D01*
X119225528Y-96152105D01*
X119215131Y-96389106D01*
X119208982Y-96711686D01*
X119207280Y-97052227D01*
X119207280Y-98148335D01*
X119362036Y-98303092D01*
X119476398Y-98402043D01*
X119578221Y-98437151D01*
X119704936Y-98427729D01*
X119816613Y-98405880D01*
X119902924Y-98372421D01*
X119967131Y-98315236D01*
X120012495Y-98222209D01*
X120042276Y-98081224D01*
X120059735Y-97880164D01*
X120068134Y-97606915D01*
X120070733Y-97249359D01*
X120070880Y-97068092D01*
X120070056Y-96699550D01*
X120067044Y-96420718D01*
X120061029Y-96219711D01*
X120051196Y-96084649D01*
X120036731Y-96003649D01*
X120016820Y-95964829D01*
X119994680Y-95956120D01*
X119932623Y-95913768D01*
X119918480Y-95854520D01*
X119930607Y-95795805D01*
X119983040Y-95765218D01*
X120099858Y-95754003D01*
X120197880Y-95752920D01*
X120359344Y-95757329D01*
X120359344Y-95757329D01*
G37*
X120359344Y-95757329D02*
X120443458Y-95776396D01*
X120474300Y-95818875D01*
X120477280Y-95854520D01*
X120445516Y-95937262D01*
X120401080Y-95956120D01*
X120375752Y-95968159D01*
X120356606Y-96012223D01*
X120342820Y-96100229D01*
X120333570Y-96244094D01*
X120328034Y-96455736D01*
X120325390Y-96747071D01*
X120324801Y-97061020D01*
X120323795Y-97434908D01*
X120320168Y-97721708D01*
X120312911Y-97935919D01*
X120301018Y-98092038D01*
X120283482Y-98204565D01*
X120259295Y-98287999D01*
X120235901Y-98340762D01*
X120084228Y-98532926D01*
X119867063Y-98661151D01*
X119603467Y-98717831D01*
X119335490Y-98700084D01*
X119137492Y-98621964D01*
X118970227Y-98471898D01*
X118947237Y-98442012D01*
X119168935Y-98442012D01*
X119175883Y-98445320D01*
X119222243Y-98409557D01*
X119232680Y-98394520D01*
X119245624Y-98347027D01*
X119238676Y-98343720D01*
X119192316Y-98379482D01*
X119181880Y-98394520D01*
X119168935Y-98442012D01*
X118947237Y-98442012D01*
X118898218Y-98378293D01*
X118842993Y-98275638D01*
X118802741Y-98150045D01*
X118775646Y-97987622D01*
X118759895Y-97774482D01*
X118753676Y-97496733D01*
X118755173Y-97140486D01*
X118759470Y-96857757D01*
X118762585Y-96567847D01*
X118761404Y-96316645D01*
X118756321Y-96120283D01*
X118747732Y-95994894D01*
X118737380Y-95956057D01*
X118706397Y-95913462D01*
X118699280Y-95854520D01*
X118710401Y-95797774D01*
X118759255Y-95767111D01*
X118869078Y-95754787D01*
X119004080Y-95752920D01*
X119174316Y-95756627D01*
X119266304Y-95772911D01*
X119303276Y-95809519D01*
X119308880Y-95854520D01*
X119287606Y-95937068D01*
X119258080Y-95956120D01*
X119239926Y-96006003D01*
X119225528Y-96152105D01*
X119215131Y-96389106D01*
X119208982Y-96711686D01*
X119207280Y-97052227D01*
X119207280Y-98148335D01*
X119362036Y-98303092D01*
X119476398Y-98402043D01*
X119578221Y-98437151D01*
X119704936Y-98427729D01*
X119816613Y-98405880D01*
X119902924Y-98372421D01*
X119967131Y-98315236D01*
X120012495Y-98222209D01*
X120042276Y-98081224D01*
X120059735Y-97880164D01*
X120068134Y-97606915D01*
X120070733Y-97249359D01*
X120070880Y-97068092D01*
X120070056Y-96699550D01*
X120067044Y-96420718D01*
X120061029Y-96219711D01*
X120051196Y-96084649D01*
X120036731Y-96003649D01*
X120016820Y-95964829D01*
X119994680Y-95956120D01*
X119932623Y-95913768D01*
X119918480Y-95854520D01*
X119930607Y-95795805D01*
X119983040Y-95765218D01*
X120099858Y-95754003D01*
X120197880Y-95752920D01*
X120359344Y-95757329D01*
G36*
X124684154Y-98843467D02*
G01*
X124693680Y-98902520D01*
X124725443Y-98985262D01*
X124769880Y-99004120D01*
X124837229Y-98963456D01*
X124846080Y-98927920D01*
X124873510Y-98860316D01*
X124896880Y-98851720D01*
X124941948Y-98892865D01*
X124947680Y-98927920D01*
X124991840Y-98989205D01*
X125074680Y-99004120D01*
X125173751Y-98980801D01*
X125201680Y-98899521D01*
X125218204Y-98827068D01*
X125244148Y-98821171D01*
X125274299Y-98886691D01*
X125278092Y-98963869D01*
X125265420Y-99026307D01*
X125223473Y-99062306D01*
X125129133Y-99080203D01*
X124959281Y-99088336D01*
X124930823Y-99089101D01*
X124592080Y-99097883D01*
X124592080Y-98949401D01*
X124607151Y-98844102D01*
X124642880Y-98800920D01*
X124684154Y-98843467D01*
X124684154Y-98843467D01*
G37*
X124684154Y-98843467D02*
X124693680Y-98902520D01*
X124725443Y-98985262D01*
X124769880Y-99004120D01*
X124837229Y-98963456D01*
X124846080Y-98927920D01*
X124873510Y-98860316D01*
X124896880Y-98851720D01*
X124941948Y-98892865D01*
X124947680Y-98927920D01*
X124991840Y-98989205D01*
X125074680Y-99004120D01*
X125173751Y-98980801D01*
X125201680Y-98899521D01*
X125218204Y-98827068D01*
X125244148Y-98821171D01*
X125274299Y-98886691D01*
X125278092Y-98963869D01*
X125265420Y-99026307D01*
X125223473Y-99062306D01*
X125129133Y-99080203D01*
X124959281Y-99088336D01*
X124930823Y-99089101D01*
X124592080Y-99097883D01*
X124592080Y-98949401D01*
X124607151Y-98844102D01*
X124642880Y-98800920D01*
X124684154Y-98843467D01*
G36*
X118302827Y-98838458D02*
G01*
X118483380Y-98846544D01*
X118573876Y-98887716D01*
X118597996Y-98977763D01*
X118548514Y-99082952D01*
X118536719Y-99095560D01*
X118443614Y-99134396D01*
X118290517Y-99149565D01*
X118116688Y-99139125D01*
X118023220Y-99120932D01*
X117954325Y-99066314D01*
X117947020Y-98961725D01*
X117949993Y-98940266D01*
X118017291Y-98940266D01*
X118017838Y-98972107D01*
X118058406Y-99016820D01*
X118202335Y-99095228D01*
X118368198Y-99087170D01*
X118473590Y-99033673D01*
X118540976Y-98965824D01*
X118517718Y-98924580D01*
X118400780Y-98908379D01*
X118238194Y-98912370D01*
X118085239Y-98923551D01*
X118017291Y-98940266D01*
X117949993Y-98940266D01*
X117955652Y-98899437D01*
X117976732Y-98860007D01*
X118029076Y-98839394D01*
X118131502Y-98833558D01*
X118302827Y-98838458D01*
X118302827Y-98838458D01*
G37*
X118302827Y-98838458D02*
X118483380Y-98846544D01*
X118573876Y-98887716D01*
X118597996Y-98977763D01*
X118548514Y-99082952D01*
X118536719Y-99095560D01*
X118443614Y-99134396D01*
X118290517Y-99149565D01*
X118116688Y-99139125D01*
X118023220Y-99120932D01*
X117954325Y-99066314D01*
X117947020Y-98961725D01*
X117949993Y-98940266D01*
X118017291Y-98940266D01*
X118017838Y-98972107D01*
X118058406Y-99016820D01*
X118202335Y-99095228D01*
X118368198Y-99087170D01*
X118473590Y-99033673D01*
X118540976Y-98965824D01*
X118517718Y-98924580D01*
X118400780Y-98908379D01*
X118238194Y-98912370D01*
X118085239Y-98923551D01*
X118017291Y-98940266D01*
X117949993Y-98940266D01*
X117955652Y-98899437D01*
X117976732Y-98860007D01*
X118029076Y-98839394D01*
X118131502Y-98833558D01*
X118302827Y-98838458D01*
G36*
X121752644Y-94925932D02*
G01*
X121818665Y-95077457D01*
X121857110Y-95200183D01*
X121861525Y-95244920D01*
X121875949Y-95348897D01*
X121927425Y-95500912D01*
X122000080Y-95662274D01*
X122078044Y-95794293D01*
X122096863Y-95818606D01*
X122146096Y-95883599D01*
X122125503Y-95890379D01*
X122092470Y-95878642D01*
X122006318Y-95869146D01*
X121984376Y-95913829D01*
X122028183Y-95986902D01*
X122083346Y-96031492D01*
X122169602Y-96105639D01*
X122167812Y-96164350D01*
X122159110Y-96174209D01*
X122110769Y-96245159D01*
X122109842Y-96292742D01*
X122153680Y-96286319D01*
X122200368Y-96293068D01*
X122204480Y-96313579D01*
X122231957Y-96390966D01*
X122299508Y-96505195D01*
X122313698Y-96525619D01*
X122422917Y-96679002D01*
X122302968Y-96640932D01*
X122222094Y-96619265D01*
X122215530Y-96643168D01*
X122270724Y-96723990D01*
X122358645Y-96857566D01*
X122416609Y-96959420D01*
X122476822Y-97046223D01*
X122520432Y-97073720D01*
X122543728Y-97105028D01*
X122536051Y-97122301D01*
X122469965Y-97149976D01*
X122431453Y-97142266D01*
X122368728Y-97132777D01*
X122369582Y-97182615D01*
X122434701Y-97300700D01*
X122444903Y-97316807D01*
X122496167Y-97404781D01*
X122488841Y-97422799D01*
X122455204Y-97403920D01*
X122435629Y-97397997D01*
X122483946Y-97446638D01*
X122506881Y-97467167D01*
X122580589Y-97542261D01*
X122595461Y-97580314D01*
X122590306Y-97581467D01*
X122582200Y-97612868D01*
X122620679Y-97670620D01*
X122716957Y-97795086D01*
X122738941Y-97856856D01*
X122689718Y-97855103D01*
X122622442Y-97846058D01*
X122625663Y-97900418D01*
X122699779Y-98022547D01*
X122705752Y-98031077D01*
X122770983Y-98176658D01*
X122760122Y-98267520D01*
X122727945Y-98322476D01*
X122716050Y-98305620D01*
X122675060Y-98256630D01*
X122593936Y-98243679D01*
X122524208Y-98267971D01*
X122509280Y-98300793D01*
X122479935Y-98318953D01*
X122416379Y-98275393D01*
X122303328Y-98218143D01*
X122152691Y-98191554D01*
X122138602Y-98191320D01*
X121999449Y-98174584D01*
X121914824Y-98108588D01*
X121880271Y-98051620D01*
X121806818Y-97911920D01*
X122407680Y-97911920D01*
X122433080Y-97937320D01*
X122458480Y-97911920D01*
X122433080Y-97886520D01*
X122407680Y-97911920D01*
X121806818Y-97911920D01*
X121774760Y-98038920D01*
X121761527Y-98148257D01*
X121754930Y-98325487D01*
X121756002Y-98537057D01*
X121757691Y-98594338D01*
X121772680Y-99022756D01*
X122009491Y-99161716D01*
X122167441Y-99245774D01*
X122308584Y-99306580D01*
X122365091Y-99323280D01*
X122383414Y-99335820D01*
X122317459Y-99347897D01*
X122184551Y-99359008D01*
X122002012Y-99368649D01*
X121787166Y-99376317D01*
X121557334Y-99381507D01*
X121329841Y-99383717D01*
X121122009Y-99382442D01*
X120951162Y-99377180D01*
X120836637Y-99367714D01*
X120792852Y-99351001D01*
X120821767Y-99318639D01*
X120932122Y-99264579D01*
X121065237Y-99209493D01*
X121417080Y-99068676D01*
X121431619Y-98579198D01*
X121435608Y-98370283D01*
X121434531Y-98205812D01*
X121428766Y-98107668D01*
X121423131Y-98089720D01*
X121366828Y-98107945D01*
X121250220Y-98154175D01*
X121179991Y-98183645D01*
X120982150Y-98250260D01*
X120767131Y-98297848D01*
X120719873Y-98304259D01*
X120575493Y-98316027D01*
X120507446Y-98303979D01*
X120491790Y-98260646D01*
X120494661Y-98234004D01*
X120534271Y-98142795D01*
X120620551Y-98010798D01*
X120696582Y-97913197D01*
X120803220Y-97766899D01*
X120834857Y-97675902D01*
X120791422Y-97644829D01*
X120700379Y-97667060D01*
X120653241Y-97675463D01*
X120665155Y-97633496D01*
X120719011Y-97556320D01*
X120782080Y-97556320D01*
X120807480Y-97581720D01*
X120832880Y-97556320D01*
X120807480Y-97530920D01*
X120782080Y-97556320D01*
X120719011Y-97556320D01*
X120733895Y-97534992D01*
X120851242Y-97374930D01*
X120914919Y-97277365D01*
X120933361Y-97224386D01*
X120915001Y-97198081D01*
X120896380Y-97189955D01*
X120837399Y-97137250D01*
X120832880Y-97117288D01*
X120861500Y-97087445D01*
X120872794Y-97092392D01*
X120905887Y-97072891D01*
X120912708Y-97026792D01*
X120883105Y-96959631D01*
X120809294Y-96958092D01*
X120739502Y-96966591D01*
X120759896Y-96933812D01*
X120784146Y-96912390D01*
X120862042Y-96831397D01*
X120874518Y-96816412D01*
X120997735Y-96816412D01*
X121004683Y-96819720D01*
X121051043Y-96783957D01*
X121061480Y-96768920D01*
X121074424Y-96721427D01*
X121067476Y-96718120D01*
X121021116Y-96753882D01*
X121010680Y-96768920D01*
X120997735Y-96816412D01*
X120874518Y-96816412D01*
X120965433Y-96707218D01*
X120985011Y-96681881D01*
X122009468Y-96681881D01*
X122021829Y-96710270D01*
X122072979Y-96764807D01*
X122102385Y-96753619D01*
X122102880Y-96746518D01*
X122066797Y-96703550D01*
X122044230Y-96687869D01*
X122009468Y-96681881D01*
X120985011Y-96681881D01*
X121006076Y-96654620D01*
X121087344Y-96537460D01*
X121102164Y-96489520D01*
X122153680Y-96489520D01*
X122179080Y-96514920D01*
X122204480Y-96489520D01*
X122179080Y-96464120D01*
X122153680Y-96489520D01*
X121102164Y-96489520D01*
X121105319Y-96479316D01*
X121067509Y-96464120D01*
X120997442Y-96445151D01*
X121000285Y-96379838D01*
X121068232Y-96266694D01*
X121120306Y-96175119D01*
X121109157Y-96133920D01*
X121950480Y-96133920D01*
X121975880Y-96159320D01*
X122001280Y-96133920D01*
X121975880Y-96108520D01*
X121950480Y-96133920D01*
X121109157Y-96133920D01*
X121106122Y-96122706D01*
X121080932Y-96103769D01*
X121046392Y-96066165D01*
X121064057Y-96058497D01*
X121115073Y-96016110D01*
X121186403Y-95908744D01*
X121229157Y-95827761D01*
X121310524Y-95645343D01*
X121338463Y-95540193D01*
X121314795Y-95504316D01*
X121302780Y-95504935D01*
X121227743Y-95501410D01*
X121227267Y-95447717D01*
X121286867Y-95351031D01*
X121369949Y-95217562D01*
X121396266Y-95168720D01*
X121594880Y-95168720D01*
X121620280Y-95194120D01*
X121645680Y-95168720D01*
X121620280Y-95143320D01*
X121594880Y-95168720D01*
X121396266Y-95168720D01*
X121464763Y-95041600D01*
X121512633Y-94943143D01*
X121633092Y-94683144D01*
X121752644Y-94925932D01*
X121752644Y-94925932D01*
G37*
X121752644Y-94925932D02*
X121818665Y-95077457D01*
X121857110Y-95200183D01*
X121861525Y-95244920D01*
X121875949Y-95348897D01*
X121927425Y-95500912D01*
X122000080Y-95662274D01*
X122078044Y-95794293D01*
X122096863Y-95818606D01*
X122146096Y-95883599D01*
X122125503Y-95890379D01*
X122092470Y-95878642D01*
X122006318Y-95869146D01*
X121984376Y-95913829D01*
X122028183Y-95986902D01*
X122083346Y-96031492D01*
X122169602Y-96105639D01*
X122167812Y-96164350D01*
X122159110Y-96174209D01*
X122110769Y-96245159D01*
X122109842Y-96292742D01*
X122153680Y-96286319D01*
X122200368Y-96293068D01*
X122204480Y-96313579D01*
X122231957Y-96390966D01*
X122299508Y-96505195D01*
X122313698Y-96525619D01*
X122422917Y-96679002D01*
X122302968Y-96640932D01*
X122222094Y-96619265D01*
X122215530Y-96643168D01*
X122270724Y-96723990D01*
X122358645Y-96857566D01*
X122416609Y-96959420D01*
X122476822Y-97046223D01*
X122520432Y-97073720D01*
X122543728Y-97105028D01*
X122536051Y-97122301D01*
X122469965Y-97149976D01*
X122431453Y-97142266D01*
X122368728Y-97132777D01*
X122369582Y-97182615D01*
X122434701Y-97300700D01*
X122444903Y-97316807D01*
X122496167Y-97404781D01*
X122488841Y-97422799D01*
X122455204Y-97403920D01*
X122435629Y-97397997D01*
X122483946Y-97446638D01*
X122506881Y-97467167D01*
X122580589Y-97542261D01*
X122595461Y-97580314D01*
X122590306Y-97581467D01*
X122582200Y-97612868D01*
X122620679Y-97670620D01*
X122716957Y-97795086D01*
X122738941Y-97856856D01*
X122689718Y-97855103D01*
X122622442Y-97846058D01*
X122625663Y-97900418D01*
X122699779Y-98022547D01*
X122705752Y-98031077D01*
X122770983Y-98176658D01*
X122760122Y-98267520D01*
X122727945Y-98322476D01*
X122716050Y-98305620D01*
X122675060Y-98256630D01*
X122593936Y-98243679D01*
X122524208Y-98267971D01*
X122509280Y-98300793D01*
X122479935Y-98318953D01*
X122416379Y-98275393D01*
X122303328Y-98218143D01*
X122152691Y-98191554D01*
X122138602Y-98191320D01*
X121999449Y-98174584D01*
X121914824Y-98108588D01*
X121880271Y-98051620D01*
X121806818Y-97911920D01*
X122407680Y-97911920D01*
X122433080Y-97937320D01*
X122458480Y-97911920D01*
X122433080Y-97886520D01*
X122407680Y-97911920D01*
X121806818Y-97911920D01*
X121774760Y-98038920D01*
X121761527Y-98148257D01*
X121754930Y-98325487D01*
X121756002Y-98537057D01*
X121757691Y-98594338D01*
X121772680Y-99022756D01*
X122009491Y-99161716D01*
X122167441Y-99245774D01*
X122308584Y-99306580D01*
X122365091Y-99323280D01*
X122383414Y-99335820D01*
X122317459Y-99347897D01*
X122184551Y-99359008D01*
X122002012Y-99368649D01*
X121787166Y-99376317D01*
X121557334Y-99381507D01*
X121329841Y-99383717D01*
X121122009Y-99382442D01*
X120951162Y-99377180D01*
X120836637Y-99367714D01*
X120792852Y-99351001D01*
X120821767Y-99318639D01*
X120932122Y-99264579D01*
X121065237Y-99209493D01*
X121417080Y-99068676D01*
X121431619Y-98579198D01*
X121435608Y-98370283D01*
X121434531Y-98205812D01*
X121428766Y-98107668D01*
X121423131Y-98089720D01*
X121366828Y-98107945D01*
X121250220Y-98154175D01*
X121179991Y-98183645D01*
X120982150Y-98250260D01*
X120767131Y-98297848D01*
X120719873Y-98304259D01*
X120575493Y-98316027D01*
X120507446Y-98303979D01*
X120491790Y-98260646D01*
X120494661Y-98234004D01*
X120534271Y-98142795D01*
X120620551Y-98010798D01*
X120696582Y-97913197D01*
X120803220Y-97766899D01*
X120834857Y-97675902D01*
X120791422Y-97644829D01*
X120700379Y-97667060D01*
X120653241Y-97675463D01*
X120665155Y-97633496D01*
X120719011Y-97556320D01*
X120782080Y-97556320D01*
X120807480Y-97581720D01*
X120832880Y-97556320D01*
X120807480Y-97530920D01*
X120782080Y-97556320D01*
X120719011Y-97556320D01*
X120733895Y-97534992D01*
X120851242Y-97374930D01*
X120914919Y-97277365D01*
X120933361Y-97224386D01*
X120915001Y-97198081D01*
X120896380Y-97189955D01*
X120837399Y-97137250D01*
X120832880Y-97117288D01*
X120861500Y-97087445D01*
X120872794Y-97092392D01*
X120905887Y-97072891D01*
X120912708Y-97026792D01*
X120883105Y-96959631D01*
X120809294Y-96958092D01*
X120739502Y-96966591D01*
X120759896Y-96933812D01*
X120784146Y-96912390D01*
X120862042Y-96831397D01*
X120874518Y-96816412D01*
X120997735Y-96816412D01*
X121004683Y-96819720D01*
X121051043Y-96783957D01*
X121061480Y-96768920D01*
X121074424Y-96721427D01*
X121067476Y-96718120D01*
X121021116Y-96753882D01*
X121010680Y-96768920D01*
X120997735Y-96816412D01*
X120874518Y-96816412D01*
X120965433Y-96707218D01*
X120985011Y-96681881D01*
X122009468Y-96681881D01*
X122021829Y-96710270D01*
X122072979Y-96764807D01*
X122102385Y-96753619D01*
X122102880Y-96746518D01*
X122066797Y-96703550D01*
X122044230Y-96687869D01*
X122009468Y-96681881D01*
X120985011Y-96681881D01*
X121006076Y-96654620D01*
X121087344Y-96537460D01*
X121102164Y-96489520D01*
X122153680Y-96489520D01*
X122179080Y-96514920D01*
X122204480Y-96489520D01*
X122179080Y-96464120D01*
X122153680Y-96489520D01*
X121102164Y-96489520D01*
X121105319Y-96479316D01*
X121067509Y-96464120D01*
X120997442Y-96445151D01*
X121000285Y-96379838D01*
X121068232Y-96266694D01*
X121120306Y-96175119D01*
X121109157Y-96133920D01*
X121950480Y-96133920D01*
X121975880Y-96159320D01*
X122001280Y-96133920D01*
X121975880Y-96108520D01*
X121950480Y-96133920D01*
X121109157Y-96133920D01*
X121106122Y-96122706D01*
X121080932Y-96103769D01*
X121046392Y-96066165D01*
X121064057Y-96058497D01*
X121115073Y-96016110D01*
X121186403Y-95908744D01*
X121229157Y-95827761D01*
X121310524Y-95645343D01*
X121338463Y-95540193D01*
X121314795Y-95504316D01*
X121302780Y-95504935D01*
X121227743Y-95501410D01*
X121227267Y-95447717D01*
X121286867Y-95351031D01*
X121369949Y-95217562D01*
X121396266Y-95168720D01*
X121594880Y-95168720D01*
X121620280Y-95194120D01*
X121645680Y-95168720D01*
X121620280Y-95143320D01*
X121594880Y-95168720D01*
X121396266Y-95168720D01*
X121464763Y-95041600D01*
X121512633Y-94943143D01*
X121633092Y-94683144D01*
X121752644Y-94925932D01*
G36*
X118492543Y-99211326D02*
G01*
X118568717Y-99231860D01*
X118595049Y-99281692D01*
X118597680Y-99334320D01*
X118588651Y-99440143D01*
X118564900Y-99448321D01*
X118532160Y-99359720D01*
X118481344Y-99283414D01*
X118408176Y-99259664D01*
X118352503Y-99293841D01*
X118343680Y-99334320D01*
X118316249Y-99401923D01*
X118292880Y-99410520D01*
X118248297Y-99369170D01*
X118242080Y-99331321D01*
X118219017Y-99277635D01*
X118194790Y-99281350D01*
X118129546Y-99274980D01*
X118115592Y-99258948D01*
X118140124Y-99226665D01*
X118255025Y-99209492D01*
X118340681Y-99207320D01*
X118492543Y-99211326D01*
X118492543Y-99211326D01*
G37*
X118492543Y-99211326D02*
X118568717Y-99231860D01*
X118595049Y-99281692D01*
X118597680Y-99334320D01*
X118588651Y-99440143D01*
X118564900Y-99448321D01*
X118532160Y-99359720D01*
X118481344Y-99283414D01*
X118408176Y-99259664D01*
X118352503Y-99293841D01*
X118343680Y-99334320D01*
X118316249Y-99401923D01*
X118292880Y-99410520D01*
X118248297Y-99369170D01*
X118242080Y-99331321D01*
X118219017Y-99277635D01*
X118194790Y-99281350D01*
X118129546Y-99274980D01*
X118115592Y-99258948D01*
X118140124Y-99226665D01*
X118255025Y-99209492D01*
X118340681Y-99207320D01*
X118492543Y-99211326D01*
G36*
X117981267Y-99228509D02*
G01*
X118000960Y-99285376D01*
X118000113Y-99384360D01*
X117982981Y-99476223D01*
X117956757Y-99512120D01*
X117943172Y-99467816D01*
X117937286Y-99360816D01*
X117937280Y-99356721D01*
X117949368Y-99257465D01*
X117978722Y-99227195D01*
X117981267Y-99228509D01*
X117981267Y-99228509D01*
G37*
X117981267Y-99228509D02*
X118000960Y-99285376D01*
X118000113Y-99384360D01*
X117982981Y-99476223D01*
X117956757Y-99512120D01*
X117943172Y-99467816D01*
X117937286Y-99360816D01*
X117937280Y-99356721D01*
X117949368Y-99257465D01*
X117978722Y-99227195D01*
X117981267Y-99228509D01*
G36*
X124916737Y-99223334D02*
G01*
X125074828Y-99267233D01*
X125163580Y-99254280D01*
X125262991Y-99239790D01*
X125303280Y-99258477D01*
X125259526Y-99297726D01*
X125153963Y-99333634D01*
X125150880Y-99334320D01*
X125044230Y-99371182D01*
X124998508Y-99413640D01*
X124998480Y-99414556D01*
X125042640Y-99447395D01*
X125149035Y-99461316D01*
X125150880Y-99461320D01*
X125257885Y-99476034D01*
X125303268Y-99511487D01*
X125303280Y-99512120D01*
X125255908Y-99542975D01*
X125123608Y-99553613D01*
X124921100Y-99543628D01*
X124766350Y-99526855D01*
X124658760Y-99501818D01*
X124625352Y-99443175D01*
X124629333Y-99393068D01*
X124711273Y-99393068D01*
X124782243Y-99450574D01*
X124850865Y-99461320D01*
X124919677Y-99447513D01*
X124911131Y-99387813D01*
X124896880Y-99359720D01*
X124821301Y-99270146D01*
X124747969Y-99275091D01*
X124719080Y-99308920D01*
X124711273Y-99393068D01*
X124629333Y-99393068D01*
X124631914Y-99360600D01*
X124685044Y-99225576D01*
X124784314Y-99177971D01*
X124916737Y-99223334D01*
X124916737Y-99223334D01*
G37*
X124916737Y-99223334D02*
X125074828Y-99267233D01*
X125163580Y-99254280D01*
X125262991Y-99239790D01*
X125303280Y-99258477D01*
X125259526Y-99297726D01*
X125153963Y-99333634D01*
X125150880Y-99334320D01*
X125044230Y-99371182D01*
X124998508Y-99413640D01*
X124998480Y-99414556D01*
X125042640Y-99447395D01*
X125149035Y-99461316D01*
X125150880Y-99461320D01*
X125257885Y-99476034D01*
X125303268Y-99511487D01*
X125303280Y-99512120D01*
X125255908Y-99542975D01*
X125123608Y-99553613D01*
X124921100Y-99543628D01*
X124766350Y-99526855D01*
X124658760Y-99501818D01*
X124625352Y-99443175D01*
X124629333Y-99393068D01*
X124711273Y-99393068D01*
X124782243Y-99450574D01*
X124850865Y-99461320D01*
X124919677Y-99447513D01*
X124911131Y-99387813D01*
X124896880Y-99359720D01*
X124821301Y-99270146D01*
X124747969Y-99275091D01*
X124719080Y-99308920D01*
X124711273Y-99393068D01*
X124629333Y-99393068D01*
X124631914Y-99360600D01*
X124685044Y-99225576D01*
X124784314Y-99177971D01*
X124916737Y-99223334D01*
G36*
X118592787Y-99599121D02*
G01*
X118622015Y-99661164D01*
X118622053Y-99789732D01*
X118553033Y-99881498D01*
X118445264Y-99917801D01*
X118329056Y-99879979D01*
X118303040Y-99857560D01*
X118249097Y-99772958D01*
X118242080Y-99739358D01*
X118204017Y-99708234D01*
X118322659Y-99708234D01*
X118322664Y-99775305D01*
X118404539Y-99813333D01*
X118453746Y-99816920D01*
X118531358Y-99782711D01*
X118546880Y-99740720D01*
X118506823Y-99683940D01*
X118420644Y-99664419D01*
X118339333Y-99689541D01*
X118322659Y-99708234D01*
X118204017Y-99708234D01*
X118197921Y-99703250D01*
X118089680Y-99704483D01*
X117977032Y-99704653D01*
X117937280Y-99670285D01*
X117981095Y-99629066D01*
X118076980Y-99613160D01*
X118226274Y-99604127D01*
X118395308Y-99583047D01*
X118401918Y-99581968D01*
X118528889Y-99570132D01*
X118592787Y-99599121D01*
X118592787Y-99599121D01*
G37*
X118592787Y-99599121D02*
X118622015Y-99661164D01*
X118622053Y-99789732D01*
X118553033Y-99881498D01*
X118445264Y-99917801D01*
X118329056Y-99879979D01*
X118303040Y-99857560D01*
X118249097Y-99772958D01*
X118242080Y-99739358D01*
X118204017Y-99708234D01*
X118322659Y-99708234D01*
X118322664Y-99775305D01*
X118404539Y-99813333D01*
X118453746Y-99816920D01*
X118531358Y-99782711D01*
X118546880Y-99740720D01*
X118506823Y-99683940D01*
X118420644Y-99664419D01*
X118339333Y-99689541D01*
X118322659Y-99708234D01*
X118204017Y-99708234D01*
X118197921Y-99703250D01*
X118089680Y-99704483D01*
X117977032Y-99704653D01*
X117937280Y-99670285D01*
X117981095Y-99629066D01*
X118076980Y-99613160D01*
X118226274Y-99604127D01*
X118395308Y-99583047D01*
X118401918Y-99581968D01*
X118528889Y-99570132D01*
X118592787Y-99599121D01*
G36*
X124674618Y-99630969D02*
G01*
X124788400Y-99658711D01*
X124940213Y-99689223D01*
X124958570Y-99692525D01*
X125135705Y-99744448D01*
X125214751Y-99820611D01*
X125196506Y-99921942D01*
X125179234Y-99948087D01*
X125131984Y-100002848D01*
X125077811Y-100020119D01*
X124985600Y-100000723D01*
X124855776Y-99956620D01*
X124687541Y-99898737D01*
X124593466Y-99875325D01*
X124551998Y-99886781D01*
X124541580Y-99933502D01*
X124541280Y-99962411D01*
X124581215Y-100047163D01*
X124683705Y-100151663D01*
X124744480Y-100197920D01*
X124862891Y-100288257D01*
X124936132Y-100360075D01*
X124947680Y-100382628D01*
X124943852Y-100414999D01*
X124920254Y-100413902D01*
X124858716Y-100368823D01*
X124741065Y-100269247D01*
X124719080Y-100250357D01*
X124560224Y-100136200D01*
X124443173Y-100099988D01*
X124423556Y-100103223D01*
X124371976Y-100110947D01*
X124373141Y-100076056D01*
X124429959Y-99980285D01*
X124447380Y-99953555D01*
X124563527Y-99776371D01*
X124814222Y-99875186D01*
X124989895Y-99931263D01*
X125096085Y-99935467D01*
X125113632Y-99925287D01*
X125142065Y-99852741D01*
X125071835Y-99793320D01*
X124905240Y-99748760D01*
X124873288Y-99743646D01*
X124728764Y-99712081D01*
X124630647Y-99672419D01*
X124612302Y-99656142D01*
X124619772Y-99623005D01*
X124674618Y-99630969D01*
X124674618Y-99630969D01*
G37*
X124674618Y-99630969D02*
X124788400Y-99658711D01*
X124940213Y-99689223D01*
X124958570Y-99692525D01*
X125135705Y-99744448D01*
X125214751Y-99820611D01*
X125196506Y-99921942D01*
X125179234Y-99948087D01*
X125131984Y-100002848D01*
X125077811Y-100020119D01*
X124985600Y-100000723D01*
X124855776Y-99956620D01*
X124687541Y-99898737D01*
X124593466Y-99875325D01*
X124551998Y-99886781D01*
X124541580Y-99933502D01*
X124541280Y-99962411D01*
X124581215Y-100047163D01*
X124683705Y-100151663D01*
X124744480Y-100197920D01*
X124862891Y-100288257D01*
X124936132Y-100360075D01*
X124947680Y-100382628D01*
X124943852Y-100414999D01*
X124920254Y-100413902D01*
X124858716Y-100368823D01*
X124741065Y-100269247D01*
X124719080Y-100250357D01*
X124560224Y-100136200D01*
X124443173Y-100099988D01*
X124423556Y-100103223D01*
X124371976Y-100110947D01*
X124373141Y-100076056D01*
X124429959Y-99980285D01*
X124447380Y-99953555D01*
X124563527Y-99776371D01*
X124814222Y-99875186D01*
X124989895Y-99931263D01*
X125096085Y-99935467D01*
X125113632Y-99925287D01*
X125142065Y-99852741D01*
X125071835Y-99793320D01*
X124905240Y-99748760D01*
X124873288Y-99743646D01*
X124728764Y-99712081D01*
X124630647Y-99672419D01*
X124612302Y-99656142D01*
X124619772Y-99623005D01*
X124674618Y-99630969D01*
G36*
X118741280Y-99943587D02*
G01*
X118725838Y-99993090D01*
X118651126Y-100086355D01*
X118564605Y-100173312D01*
X118455477Y-100283923D01*
X118390924Y-100366942D01*
X118382876Y-100397983D01*
X118371328Y-100423839D01*
X118346711Y-100426520D01*
X118304639Y-100390240D01*
X118309825Y-100354034D01*
X118303653Y-100278396D01*
X118254701Y-100211842D01*
X118195217Y-100191911D01*
X118178992Y-100201740D01*
X118131904Y-100195943D01*
X118121153Y-100182346D01*
X118137854Y-100159077D01*
X118360389Y-100159077D01*
X118368223Y-100221933D01*
X118417388Y-100241878D01*
X118472006Y-100188259D01*
X118508413Y-100106417D01*
X118488084Y-100077904D01*
X118409239Y-100091283D01*
X118360389Y-100159077D01*
X118137854Y-100159077D01*
X118148722Y-100143935D01*
X118244977Y-100089651D01*
X118380693Y-100030745D01*
X118526643Y-99978471D01*
X118653602Y-99944080D01*
X118732344Y-99938825D01*
X118741280Y-99943587D01*
X118741280Y-99943587D01*
G37*
X118741280Y-99943587D02*
X118725838Y-99993090D01*
X118651126Y-100086355D01*
X118564605Y-100173312D01*
X118455477Y-100283923D01*
X118390924Y-100366942D01*
X118382876Y-100397983D01*
X118371328Y-100423839D01*
X118346711Y-100426520D01*
X118304639Y-100390240D01*
X118309825Y-100354034D01*
X118303653Y-100278396D01*
X118254701Y-100211842D01*
X118195217Y-100191911D01*
X118178992Y-100201740D01*
X118131904Y-100195943D01*
X118121153Y-100182346D01*
X118137854Y-100159077D01*
X118360389Y-100159077D01*
X118368223Y-100221933D01*
X118417388Y-100241878D01*
X118472006Y-100188259D01*
X118508413Y-100106417D01*
X118488084Y-100077904D01*
X118409239Y-100091283D01*
X118360389Y-100159077D01*
X118137854Y-100159077D01*
X118148722Y-100143935D01*
X118244977Y-100089651D01*
X118380693Y-100030745D01*
X118526643Y-99978471D01*
X118653602Y-99944080D01*
X118732344Y-99938825D01*
X118741280Y-99943587D01*
G36*
X124315513Y-100184000D02*
G01*
X124407433Y-100313467D01*
X124536935Y-100512868D01*
X124572916Y-100570335D01*
X124619323Y-100562391D01*
X124695206Y-100527302D01*
X124773673Y-100501924D01*
X124789135Y-100531319D01*
X124746432Y-100594632D01*
X124663881Y-100662307D01*
X124606765Y-100690315D01*
X124557519Y-100675648D01*
X124499096Y-100603197D01*
X124414450Y-100457853D01*
X124396526Y-100425355D01*
X124301683Y-100245144D01*
X124258995Y-100146844D01*
X124264819Y-100127461D01*
X124315513Y-100184000D01*
X124315513Y-100184000D01*
G37*
X124315513Y-100184000D02*
X124407433Y-100313467D01*
X124536935Y-100512868D01*
X124572916Y-100570335D01*
X124619323Y-100562391D01*
X124695206Y-100527302D01*
X124773673Y-100501924D01*
X124789135Y-100531319D01*
X124746432Y-100594632D01*
X124663881Y-100662307D01*
X124606765Y-100690315D01*
X124557519Y-100675648D01*
X124499096Y-100603197D01*
X124414450Y-100457853D01*
X124396526Y-100425355D01*
X124301683Y-100245144D01*
X124258995Y-100146844D01*
X124264819Y-100127461D01*
X124315513Y-100184000D01*
G36*
X118879624Y-100087221D02*
G01*
X118926652Y-100120701D01*
X118996370Y-100230326D01*
X118982903Y-100347242D01*
X118905693Y-100424800D01*
X118825906Y-100515471D01*
X118786823Y-100642487D01*
X118773241Y-100744176D01*
X118765904Y-100753550D01*
X118760365Y-100666652D01*
X118758209Y-100617020D01*
X118737188Y-100476078D01*
X118689723Y-100433087D01*
X118614883Y-100487650D01*
X118575160Y-100539423D01*
X118519224Y-100600095D01*
X118496080Y-100587244D01*
X118525295Y-100512540D01*
X118600094Y-100392182D01*
X118639932Y-100337620D01*
X118750857Y-100337620D01*
X118786614Y-100372722D01*
X118862364Y-100367021D01*
X118927332Y-100325353D01*
X118930615Y-100320493D01*
X118930146Y-100241846D01*
X118906098Y-100206618D01*
X118843883Y-100178573D01*
X118799542Y-100223744D01*
X118757485Y-100308991D01*
X118750857Y-100337620D01*
X118639932Y-100337620D01*
X118660653Y-100309241D01*
X118755123Y-100186252D01*
X118820178Y-100100119D01*
X118837226Y-100076380D01*
X118879624Y-100087221D01*
X118879624Y-100087221D01*
G37*
X118879624Y-100087221D02*
X118926652Y-100120701D01*
X118996370Y-100230326D01*
X118982903Y-100347242D01*
X118905693Y-100424800D01*
X118825906Y-100515471D01*
X118786823Y-100642487D01*
X118773241Y-100744176D01*
X118765904Y-100753550D01*
X118760365Y-100666652D01*
X118758209Y-100617020D01*
X118737188Y-100476078D01*
X118689723Y-100433087D01*
X118614883Y-100487650D01*
X118575160Y-100539423D01*
X118519224Y-100600095D01*
X118496080Y-100587244D01*
X118525295Y-100512540D01*
X118600094Y-100392182D01*
X118639932Y-100337620D01*
X118750857Y-100337620D01*
X118786614Y-100372722D01*
X118862364Y-100367021D01*
X118927332Y-100325353D01*
X118930615Y-100320493D01*
X118930146Y-100241846D01*
X118906098Y-100206618D01*
X118843883Y-100178573D01*
X118799542Y-100223744D01*
X118757485Y-100308991D01*
X118750857Y-100337620D01*
X118639932Y-100337620D01*
X118660653Y-100309241D01*
X118755123Y-100186252D01*
X118820178Y-100100119D01*
X118837226Y-100076380D01*
X118879624Y-100087221D01*
G36*
X124170074Y-100267279D02*
G01*
X124219734Y-100376452D01*
X124268601Y-100516778D01*
X124305468Y-100654198D01*
X124319126Y-100754654D01*
X124314009Y-100779968D01*
X124233691Y-100829266D01*
X124127304Y-100817094D01*
X124044286Y-100749960D01*
X124040966Y-100744020D01*
X124008432Y-100655130D01*
X123977342Y-100528815D01*
X123952851Y-100395455D01*
X123940114Y-100285429D01*
X123944286Y-100229114D01*
X123953743Y-100230020D01*
X123984840Y-100294535D01*
X124026220Y-100422718D01*
X124048446Y-100505508D01*
X124095824Y-100650871D01*
X124148148Y-100748608D01*
X124172980Y-100769741D01*
X124223447Y-100750345D01*
X124227953Y-100650698D01*
X124186757Y-100481029D01*
X124164036Y-100413820D01*
X124129252Y-100294883D01*
X124124677Y-100228391D01*
X124130830Y-100223320D01*
X124170074Y-100267279D01*
X124170074Y-100267279D01*
G37*
X124170074Y-100267279D02*
X124219734Y-100376452D01*
X124268601Y-100516778D01*
X124305468Y-100654198D01*
X124319126Y-100754654D01*
X124314009Y-100779968D01*
X124233691Y-100829266D01*
X124127304Y-100817094D01*
X124044286Y-100749960D01*
X124040966Y-100744020D01*
X124008432Y-100655130D01*
X123977342Y-100528815D01*
X123952851Y-100395455D01*
X123940114Y-100285429D01*
X123944286Y-100229114D01*
X123953743Y-100230020D01*
X123984840Y-100294535D01*
X124026220Y-100422718D01*
X124048446Y-100505508D01*
X124095824Y-100650871D01*
X124148148Y-100748608D01*
X124172980Y-100769741D01*
X124223447Y-100750345D01*
X124227953Y-100650698D01*
X124186757Y-100481029D01*
X124164036Y-100413820D01*
X124129252Y-100294883D01*
X124124677Y-100228391D01*
X124130830Y-100223320D01*
X124170074Y-100267279D01*
G36*
X123753148Y-100291942D02*
G01*
X123788113Y-100313433D01*
X123803103Y-100353677D01*
X123746623Y-100358278D01*
X123663736Y-100391107D01*
X123635077Y-100472201D01*
X123641731Y-100603465D01*
X123687627Y-100720143D01*
X123755586Y-100802817D01*
X123828425Y-100832065D01*
X123888964Y-100788470D01*
X123898036Y-100769420D01*
X123920400Y-100751601D01*
X123927669Y-100794820D01*
X123893578Y-100863824D01*
X123807802Y-100885090D01*
X123707710Y-100859788D01*
X123630672Y-100789087D01*
X123628667Y-100785459D01*
X123585651Y-100650990D01*
X123576425Y-100499075D01*
X123598935Y-100367282D01*
X123651125Y-100293181D01*
X123655694Y-100291180D01*
X123753148Y-100291942D01*
X123753148Y-100291942D01*
G37*
X123753148Y-100291942D02*
X123788113Y-100313433D01*
X123803103Y-100353677D01*
X123746623Y-100358278D01*
X123663736Y-100391107D01*
X123635077Y-100472201D01*
X123641731Y-100603465D01*
X123687627Y-100720143D01*
X123755586Y-100802817D01*
X123828425Y-100832065D01*
X123888964Y-100788470D01*
X123898036Y-100769420D01*
X123920400Y-100751601D01*
X123927669Y-100794820D01*
X123893578Y-100863824D01*
X123807802Y-100885090D01*
X123707710Y-100859788D01*
X123630672Y-100789087D01*
X123628667Y-100785459D01*
X123585651Y-100650990D01*
X123576425Y-100499075D01*
X123598935Y-100367282D01*
X123651125Y-100293181D01*
X123655694Y-100291180D01*
X123753148Y-100291942D01*
G36*
X119333465Y-100241190D02*
G01*
X119385080Y-100274120D01*
X119374261Y-100318175D01*
X119340933Y-100324920D01*
X119288238Y-100362475D01*
X119249510Y-100482797D01*
X119230482Y-100604320D01*
X119204023Y-100757121D01*
X119172335Y-100858605D01*
X119150626Y-100883720D01*
X119108107Y-100851640D01*
X119107892Y-100845620D01*
X119118156Y-100776457D01*
X119141503Y-100646091D01*
X119154261Y-100578920D01*
X119173560Y-100394634D01*
X119147057Y-100288348D01*
X119145828Y-100286820D01*
X119130162Y-100239728D01*
X119200134Y-100223665D01*
X119223461Y-100223320D01*
X119333465Y-100241190D01*
X119333465Y-100241190D01*
G37*
X119333465Y-100241190D02*
X119385080Y-100274120D01*
X119374261Y-100318175D01*
X119340933Y-100324920D01*
X119288238Y-100362475D01*
X119249510Y-100482797D01*
X119230482Y-100604320D01*
X119204023Y-100757121D01*
X119172335Y-100858605D01*
X119150626Y-100883720D01*
X119108107Y-100851640D01*
X119107892Y-100845620D01*
X119118156Y-100776457D01*
X119141503Y-100646091D01*
X119154261Y-100578920D01*
X119173560Y-100394634D01*
X119147057Y-100288348D01*
X119145828Y-100286820D01*
X119130162Y-100239728D01*
X119200134Y-100223665D01*
X119223461Y-100223320D01*
X119333465Y-100241190D01*
G36*
X119547122Y-100318146D02*
G01*
X119581095Y-100425517D01*
X119584034Y-100439220D01*
X119617888Y-100604320D01*
X119703750Y-100464620D01*
X119784247Y-100353715D01*
X119831238Y-100334114D01*
X119841230Y-100406480D01*
X119837510Y-100439220D01*
X119801636Y-100677985D01*
X119772411Y-100830336D01*
X119746352Y-100910954D01*
X119720022Y-100934520D01*
X119696677Y-100891481D01*
X119699712Y-100794820D01*
X119720854Y-100655120D01*
X119566480Y-100909120D01*
X119564680Y-100784660D01*
X119546839Y-100709217D01*
X119507699Y-100717959D01*
X119463583Y-100800694D01*
X119446703Y-100858320D01*
X119427357Y-100928132D01*
X119419240Y-100899293D01*
X119416372Y-100852710D01*
X119419053Y-100719050D01*
X119435743Y-100562152D01*
X119461065Y-100414332D01*
X119489643Y-100307904D01*
X119512634Y-100274120D01*
X119547122Y-100318146D01*
X119547122Y-100318146D01*
G37*
X119547122Y-100318146D02*
X119581095Y-100425517D01*
X119584034Y-100439220D01*
X119617888Y-100604320D01*
X119703750Y-100464620D01*
X119784247Y-100353715D01*
X119831238Y-100334114D01*
X119841230Y-100406480D01*
X119837510Y-100439220D01*
X119801636Y-100677985D01*
X119772411Y-100830336D01*
X119746352Y-100910954D01*
X119720022Y-100934520D01*
X119696677Y-100891481D01*
X119699712Y-100794820D01*
X119720854Y-100655120D01*
X119566480Y-100909120D01*
X119564680Y-100784660D01*
X119546839Y-100709217D01*
X119507699Y-100717959D01*
X119463583Y-100800694D01*
X119446703Y-100858320D01*
X119427357Y-100928132D01*
X119419240Y-100899293D01*
X119416372Y-100852710D01*
X119419053Y-100719050D01*
X119435743Y-100562152D01*
X119461065Y-100414332D01*
X119489643Y-100307904D01*
X119512634Y-100274120D01*
X119547122Y-100318146D01*
G36*
X123404669Y-100341695D02*
G01*
X123436741Y-100408439D01*
X123471445Y-100533044D01*
X123503067Y-100684274D01*
X123525895Y-100830889D01*
X123534215Y-100941650D01*
X123522383Y-100985320D01*
X123494822Y-100939968D01*
X123465414Y-100824537D01*
X123451954Y-100744020D01*
X123425391Y-100576938D01*
X123398347Y-100438524D01*
X123389075Y-100401120D01*
X123382787Y-100337395D01*
X123404669Y-100341695D01*
X123404669Y-100341695D01*
G37*
X123404669Y-100341695D02*
X123436741Y-100408439D01*
X123471445Y-100533044D01*
X123503067Y-100684274D01*
X123525895Y-100830889D01*
X123534215Y-100941650D01*
X123522383Y-100985320D01*
X123494822Y-100939968D01*
X123465414Y-100824537D01*
X123451954Y-100744020D01*
X123425391Y-100576938D01*
X123398347Y-100438524D01*
X123389075Y-100401120D01*
X123382787Y-100337395D01*
X123404669Y-100341695D01*
G36*
X123156980Y-100385045D02*
G01*
X123247560Y-100406743D01*
X123288537Y-100464582D01*
X123300445Y-100589874D01*
X123300768Y-100604320D01*
X123313077Y-100758763D01*
X123338233Y-100880466D01*
X123344303Y-100896420D01*
X123362704Y-100972293D01*
X123333313Y-100982688D01*
X123277701Y-100936363D01*
X123219163Y-100845620D01*
X123150738Y-100705920D01*
X123121405Y-100883720D01*
X123098057Y-100990873D01*
X123074612Y-101006130D01*
X123054676Y-100968465D01*
X123032528Y-100863834D01*
X123019115Y-100704958D01*
X123017280Y-100622190D01*
X123019302Y-100528120D01*
X123068080Y-100528120D01*
X123099843Y-100610862D01*
X123144280Y-100629720D01*
X123206336Y-100587368D01*
X123220480Y-100528120D01*
X123188716Y-100445377D01*
X123144280Y-100426520D01*
X123082223Y-100468871D01*
X123068080Y-100528120D01*
X123019302Y-100528120D01*
X123020497Y-100472570D01*
X123039774Y-100400035D01*
X123089544Y-100380081D01*
X123156980Y-100385045D01*
X123156980Y-100385045D01*
G37*
X123156980Y-100385045D02*
X123247560Y-100406743D01*
X123288537Y-100464582D01*
X123300445Y-100589874D01*
X123300768Y-100604320D01*
X123313077Y-100758763D01*
X123338233Y-100880466D01*
X123344303Y-100896420D01*
X123362704Y-100972293D01*
X123333313Y-100982688D01*
X123277701Y-100936363D01*
X123219163Y-100845620D01*
X123150738Y-100705920D01*
X123121405Y-100883720D01*
X123098057Y-100990873D01*
X123074612Y-101006130D01*
X123054676Y-100968465D01*
X123032528Y-100863834D01*
X123019115Y-100704958D01*
X123017280Y-100622190D01*
X123019302Y-100528120D01*
X123068080Y-100528120D01*
X123099843Y-100610862D01*
X123144280Y-100629720D01*
X123206336Y-100587368D01*
X123220480Y-100528120D01*
X123188716Y-100445377D01*
X123144280Y-100426520D01*
X123082223Y-100468871D01*
X123068080Y-100528120D01*
X123019302Y-100528120D01*
X123020497Y-100472570D01*
X123039774Y-100400035D01*
X123089544Y-100380081D01*
X123156980Y-100385045D01*
G36*
X120172480Y-100378347D02*
G01*
X120257792Y-100406309D01*
X120248656Y-100417522D01*
X120185180Y-100421456D01*
X120091362Y-100457491D01*
X120070880Y-100528120D01*
X120092153Y-100610668D01*
X120121680Y-100629720D01*
X120171003Y-100668377D01*
X120172480Y-100680520D01*
X120131334Y-100725588D01*
X120096280Y-100731320D01*
X120034223Y-100773671D01*
X120020080Y-100832920D01*
X120056001Y-100917822D01*
X120121680Y-100934520D01*
X120204228Y-100955793D01*
X120223280Y-100985320D01*
X120194747Y-101029306D01*
X120185180Y-101029201D01*
X120108385Y-101014524D01*
X120041498Y-101001411D01*
X119982288Y-100979483D01*
X119954161Y-100926929D01*
X119950193Y-100817885D01*
X119958333Y-100690829D01*
X119975793Y-100528144D01*
X119997505Y-100410171D01*
X120013115Y-100370710D01*
X120080761Y-100360863D01*
X120172480Y-100378347D01*
X120172480Y-100378347D01*
G37*
X120172480Y-100378347D02*
X120257792Y-100406309D01*
X120248656Y-100417522D01*
X120185180Y-100421456D01*
X120091362Y-100457491D01*
X120070880Y-100528120D01*
X120092153Y-100610668D01*
X120121680Y-100629720D01*
X120171003Y-100668377D01*
X120172480Y-100680520D01*
X120131334Y-100725588D01*
X120096280Y-100731320D01*
X120034223Y-100773671D01*
X120020080Y-100832920D01*
X120056001Y-100917822D01*
X120121680Y-100934520D01*
X120204228Y-100955793D01*
X120223280Y-100985320D01*
X120194747Y-101029306D01*
X120185180Y-101029201D01*
X120108385Y-101014524D01*
X120041498Y-101001411D01*
X119982288Y-100979483D01*
X119954161Y-100926929D01*
X119950193Y-100817885D01*
X119958333Y-100690829D01*
X119975793Y-100528144D01*
X119997505Y-100410171D01*
X120013115Y-100370710D01*
X120080761Y-100360863D01*
X120172480Y-100378347D01*
G36*
X122841579Y-100429917D02*
G01*
X122832819Y-100468061D01*
X122781077Y-100468017D01*
X122707810Y-100483161D01*
X122673353Y-100575341D01*
X122670413Y-100597758D01*
X122669369Y-100775676D01*
X122704437Y-100912106D01*
X122767735Y-100981425D01*
X122789647Y-100985320D01*
X122850624Y-100943050D01*
X122864880Y-100883720D01*
X122843606Y-100801171D01*
X122814080Y-100782120D01*
X122764756Y-100743462D01*
X122763280Y-100731320D01*
X122804425Y-100686251D01*
X122839480Y-100680520D01*
X122899531Y-100720817D01*
X122921805Y-100816288D01*
X122908729Y-100928797D01*
X122862729Y-101020210D01*
X122815947Y-101050350D01*
X122709057Y-101042652D01*
X122661089Y-101010008D01*
X122601077Y-100880232D01*
X122574171Y-100706858D01*
X122585892Y-100543709D01*
X122607151Y-100484287D01*
X122689804Y-100394995D01*
X122782540Y-100381700D01*
X122841579Y-100429917D01*
X122841579Y-100429917D01*
G37*
X122841579Y-100429917D02*
X122832819Y-100468061D01*
X122781077Y-100468017D01*
X122707810Y-100483161D01*
X122673353Y-100575341D01*
X122670413Y-100597758D01*
X122669369Y-100775676D01*
X122704437Y-100912106D01*
X122767735Y-100981425D01*
X122789647Y-100985320D01*
X122850624Y-100943050D01*
X122864880Y-100883720D01*
X122843606Y-100801171D01*
X122814080Y-100782120D01*
X122764756Y-100743462D01*
X122763280Y-100731320D01*
X122804425Y-100686251D01*
X122839480Y-100680520D01*
X122899531Y-100720817D01*
X122921805Y-100816288D01*
X122908729Y-100928797D01*
X122862729Y-101020210D01*
X122815947Y-101050350D01*
X122709057Y-101042652D01*
X122661089Y-101010008D01*
X122601077Y-100880232D01*
X122574171Y-100706858D01*
X122585892Y-100543709D01*
X122607151Y-100484287D01*
X122689804Y-100394995D01*
X122782540Y-100381700D01*
X122841579Y-100429917D01*
G36*
X122333025Y-100481069D02*
G01*
X122370331Y-100527999D01*
X122415645Y-100637459D01*
X122460395Y-100778727D01*
X122496006Y-100921080D01*
X122513905Y-101033795D01*
X122505517Y-101086149D01*
X122502100Y-101086920D01*
X122459703Y-101048055D01*
X122458480Y-101036120D01*
X122419544Y-100993095D01*
X122331757Y-100990544D01*
X122238650Y-101026654D01*
X122214640Y-101046280D01*
X122164765Y-101075406D01*
X122155832Y-101058980D01*
X122172719Y-100937032D01*
X122192358Y-100854165D01*
X122275244Y-100854165D01*
X122279961Y-100922083D01*
X122326044Y-100934520D01*
X122394075Y-100892308D01*
X122407680Y-100835918D01*
X122384353Y-100738669D01*
X122356880Y-100705920D01*
X122309965Y-100707578D01*
X122306080Y-100724167D01*
X122289203Y-100812376D01*
X122275244Y-100854165D01*
X122192358Y-100854165D01*
X122208287Y-100786957D01*
X122252938Y-100640061D01*
X122297074Y-100527650D01*
X122331093Y-100481031D01*
X122333025Y-100481069D01*
X122333025Y-100481069D01*
G37*
X122333025Y-100481069D02*
X122370331Y-100527999D01*
X122415645Y-100637459D01*
X122460395Y-100778727D01*
X122496006Y-100921080D01*
X122513905Y-101033795D01*
X122505517Y-101086149D01*
X122502100Y-101086920D01*
X122459703Y-101048055D01*
X122458480Y-101036120D01*
X122419544Y-100993095D01*
X122331757Y-100990544D01*
X122238650Y-101026654D01*
X122214640Y-101046280D01*
X122164765Y-101075406D01*
X122155832Y-101058980D01*
X122172719Y-100937032D01*
X122192358Y-100854165D01*
X122275244Y-100854165D01*
X122279961Y-100922083D01*
X122326044Y-100934520D01*
X122394075Y-100892308D01*
X122407680Y-100835918D01*
X122384353Y-100738669D01*
X122356880Y-100705920D01*
X122309965Y-100707578D01*
X122306080Y-100724167D01*
X122289203Y-100812376D01*
X122275244Y-100854165D01*
X122192358Y-100854165D01*
X122208287Y-100786957D01*
X122252938Y-100640061D01*
X122297074Y-100527650D01*
X122331093Y-100481031D01*
X122333025Y-100481069D01*
G36*
X121969748Y-100443909D02*
G01*
X122001280Y-100477320D01*
X121958732Y-100518594D01*
X121899680Y-100528120D01*
X121816999Y-100560033D01*
X121804819Y-100633038D01*
X121865316Y-100713033D01*
X121886980Y-100727250D01*
X121947106Y-100767744D01*
X121918539Y-100779685D01*
X121890198Y-100780575D01*
X121818136Y-100826153D01*
X121784028Y-100947220D01*
X121773218Y-100984133D01*
X121763327Y-100931104D01*
X121756229Y-100799786D01*
X121755409Y-100769420D01*
X121753006Y-100587820D01*
X121761843Y-100485229D01*
X121789734Y-100439112D01*
X121844489Y-100426935D01*
X121874280Y-100426520D01*
X121969748Y-100443909D01*
X121969748Y-100443909D01*
G37*
X121969748Y-100443909D02*
X122001280Y-100477320D01*
X121958732Y-100518594D01*
X121899680Y-100528120D01*
X121816999Y-100560033D01*
X121804819Y-100633038D01*
X121865316Y-100713033D01*
X121886980Y-100727250D01*
X121947106Y-100767744D01*
X121918539Y-100779685D01*
X121890198Y-100780575D01*
X121818136Y-100826153D01*
X121784028Y-100947220D01*
X121773218Y-100984133D01*
X121763327Y-100931104D01*
X121756229Y-100799786D01*
X121755409Y-100769420D01*
X121753006Y-100587820D01*
X121761843Y-100485229D01*
X121789734Y-100439112D01*
X121844489Y-100426935D01*
X121874280Y-100426520D01*
X121969748Y-100443909D01*
G36*
X121541241Y-100469149D02*
G01*
X121603824Y-100577265D01*
X121629662Y-100721210D01*
X121618201Y-100871325D01*
X121568887Y-100997952D01*
X121481166Y-101071434D01*
X121454631Y-101077825D01*
X121368158Y-101069383D01*
X121322079Y-100994602D01*
X121308825Y-100939346D01*
X121285595Y-100816846D01*
X121283403Y-100778832D01*
X121355616Y-100778832D01*
X121380719Y-100903988D01*
X121387664Y-100920594D01*
X121447489Y-101004949D01*
X121498800Y-100999110D01*
X121531494Y-100914471D01*
X121535465Y-100762424D01*
X121534845Y-100754641D01*
X121509743Y-100625031D01*
X121467947Y-100547544D01*
X121457053Y-100541138D01*
X121399855Y-100564201D01*
X121364019Y-100654501D01*
X121355616Y-100778832D01*
X121283403Y-100778832D01*
X121281007Y-100737302D01*
X121294948Y-100643814D01*
X121308104Y-100577698D01*
X121355173Y-100461559D01*
X121441809Y-100426521D01*
X121442467Y-100426520D01*
X121541241Y-100469149D01*
X121541241Y-100469149D01*
G37*
X121541241Y-100469149D02*
X121603824Y-100577265D01*
X121629662Y-100721210D01*
X121618201Y-100871325D01*
X121568887Y-100997952D01*
X121481166Y-101071434D01*
X121454631Y-101077825D01*
X121368158Y-101069383D01*
X121322079Y-100994602D01*
X121308825Y-100939346D01*
X121285595Y-100816846D01*
X121283403Y-100778832D01*
X121355616Y-100778832D01*
X121380719Y-100903988D01*
X121387664Y-100920594D01*
X121447489Y-101004949D01*
X121498800Y-100999110D01*
X121531494Y-100914471D01*
X121535465Y-100762424D01*
X121534845Y-100754641D01*
X121509743Y-100625031D01*
X121467947Y-100547544D01*
X121457053Y-100541138D01*
X121399855Y-100564201D01*
X121364019Y-100654501D01*
X121355616Y-100778832D01*
X121283403Y-100778832D01*
X121281007Y-100737302D01*
X121294948Y-100643814D01*
X121308104Y-100577698D01*
X121355173Y-100461559D01*
X121441809Y-100426521D01*
X121442467Y-100426520D01*
X121541241Y-100469149D01*
G36*
X121048799Y-100442179D02*
G01*
X121112280Y-100477320D01*
X121100763Y-100520809D01*
X121064478Y-100528120D01*
X121017172Y-100550653D01*
X120992712Y-100631870D01*
X120985309Y-100792194D01*
X120985280Y-100807520D01*
X120976121Y-100971514D01*
X120951473Y-101069192D01*
X120930824Y-101086920D01*
X120900984Y-101038967D01*
X120901950Y-100894811D01*
X120911277Y-100807520D01*
X120927242Y-100645840D01*
X120920636Y-100561110D01*
X120887592Y-100530413D01*
X120864133Y-100528120D01*
X120792855Y-100502407D01*
X120782080Y-100477320D01*
X120826154Y-100441378D01*
X120931481Y-100426520D01*
X121048799Y-100442179D01*
X121048799Y-100442179D01*
G37*
X121048799Y-100442179D02*
X121112280Y-100477320D01*
X121100763Y-100520809D01*
X121064478Y-100528120D01*
X121017172Y-100550653D01*
X120992712Y-100631870D01*
X120985309Y-100792194D01*
X120985280Y-100807520D01*
X120976121Y-100971514D01*
X120951473Y-101069192D01*
X120930824Y-101086920D01*
X120900984Y-101038967D01*
X120901950Y-100894811D01*
X120911277Y-100807520D01*
X120927242Y-100645840D01*
X120920636Y-100561110D01*
X120887592Y-100530413D01*
X120864133Y-100528120D01*
X120792855Y-100502407D01*
X120782080Y-100477320D01*
X120826154Y-100441378D01*
X120931481Y-100426520D01*
X121048799Y-100442179D01*
G36*
X120698662Y-100482531D02*
G01*
X120699797Y-100619353D01*
X120689415Y-100779888D01*
X120670443Y-100932441D01*
X120645809Y-101045314D01*
X120619732Y-101086920D01*
X120590136Y-101049585D01*
X120598263Y-101008081D01*
X120602542Y-100955275D01*
X120581955Y-100958019D01*
X120533488Y-100939896D01*
X120499971Y-100875185D01*
X120472726Y-100805503D01*
X120444959Y-100813857D01*
X120396390Y-100907394D01*
X120393947Y-100912547D01*
X120354402Y-100986863D01*
X120346199Y-100981611D01*
X120349513Y-100968465D01*
X120364826Y-100864507D01*
X120374246Y-100705184D01*
X120375680Y-100615405D01*
X120384192Y-100462181D01*
X120409989Y-100408527D01*
X120453464Y-100454540D01*
X120515009Y-100600319D01*
X120534204Y-100655120D01*
X120603401Y-100858320D01*
X120629240Y-100604320D01*
X120648524Y-100470956D01*
X120670294Y-100401257D01*
X120683081Y-100401120D01*
X120698662Y-100482531D01*
X120698662Y-100482531D01*
G37*
X120698662Y-100482531D02*
X120699797Y-100619353D01*
X120689415Y-100779888D01*
X120670443Y-100932441D01*
X120645809Y-101045314D01*
X120619732Y-101086920D01*
X120590136Y-101049585D01*
X120598263Y-101008081D01*
X120602542Y-100955275D01*
X120581955Y-100958019D01*
X120533488Y-100939896D01*
X120499971Y-100875185D01*
X120472726Y-100805503D01*
X120444959Y-100813857D01*
X120396390Y-100907394D01*
X120393947Y-100912547D01*
X120354402Y-100986863D01*
X120346199Y-100981611D01*
X120349513Y-100968465D01*
X120364826Y-100864507D01*
X120374246Y-100705184D01*
X120375680Y-100615405D01*
X120384192Y-100462181D01*
X120409989Y-100408527D01*
X120453464Y-100454540D01*
X120515009Y-100600319D01*
X120534204Y-100655120D01*
X120603401Y-100858320D01*
X120629240Y-100604320D01*
X120648524Y-100470956D01*
X120670294Y-100401257D01*
X120683081Y-100401120D01*
X120698662Y-100482531D01*
G36*
X119054880Y-92730320D02*
G01*
X119029480Y-92755720D01*
X119004080Y-92730320D01*
X119029480Y-92704920D01*
X119054880Y-92730320D01*
X119054880Y-92730320D01*
G37*
X119054880Y-92730320D02*
X119029480Y-92755720D01*
X119004080Y-92730320D01*
X119029480Y-92704920D01*
X119054880Y-92730320D01*
G36*
X118936346Y-92721853D02*
G01*
X118942426Y-92782141D01*
X118936346Y-92789586D01*
X118906146Y-92782613D01*
X118902480Y-92755720D01*
X118921066Y-92713905D01*
X118936346Y-92721853D01*
X118936346Y-92721853D01*
G37*
X118936346Y-92721853D02*
X118942426Y-92782141D01*
X118936346Y-92789586D01*
X118906146Y-92782613D01*
X118902480Y-92755720D01*
X118921066Y-92713905D01*
X118936346Y-92721853D01*
G36*
X117378480Y-94305120D02*
G01*
X117353080Y-94330520D01*
X117327680Y-94305120D01*
X117353080Y-94279720D01*
X117378480Y-94305120D01*
X117378480Y-94305120D01*
G37*
X117378480Y-94305120D02*
X117353080Y-94330520D01*
X117327680Y-94305120D01*
X117353080Y-94279720D01*
X117378480Y-94305120D01*
G36*
X117005946Y-94601453D02*
G01*
X117012026Y-94661741D01*
X117005946Y-94669186D01*
X116975746Y-94662213D01*
X116972080Y-94635320D01*
X116990666Y-94593505D01*
X117005946Y-94601453D01*
X117005946Y-94601453D01*
G37*
X117005946Y-94601453D02*
X117012026Y-94661741D01*
X117005946Y-94669186D01*
X116975746Y-94662213D01*
X116972080Y-94635320D01*
X116990666Y-94593505D01*
X117005946Y-94601453D01*
G36*
X117124480Y-94762320D02*
G01*
X117099080Y-94787720D01*
X117073680Y-94762320D01*
X117099080Y-94736920D01*
X117124480Y-94762320D01*
X117124480Y-94762320D01*
G37*
X117124480Y-94762320D02*
X117099080Y-94787720D01*
X117073680Y-94762320D01*
X117099080Y-94736920D01*
X117124480Y-94762320D01*
G36*
X118775444Y-92621393D02*
G01*
X118880533Y-92633562D01*
X118885288Y-92657010D01*
X118790899Y-92699096D01*
X118788180Y-92700115D01*
X118723328Y-92730071D01*
X118728985Y-92758595D01*
X118815446Y-92802075D01*
X118865640Y-92823412D01*
X119046434Y-92887232D01*
X119230749Y-92935066D01*
X119246640Y-92938078D01*
X119383919Y-92970049D01*
X119477871Y-93004801D01*
X119486680Y-93010396D01*
X119582330Y-93051142D01*
X119759450Y-93098080D01*
X119998393Y-93147464D01*
X120279517Y-93195545D01*
X120583176Y-93238576D01*
X120832880Y-93267228D01*
X121611789Y-93304272D01*
X122419007Y-93264727D01*
X122968676Y-93187520D01*
X124490480Y-93187520D01*
X124515880Y-93212920D01*
X124541280Y-93187520D01*
X124515880Y-93162120D01*
X124490480Y-93187520D01*
X122968676Y-93187520D01*
X123221409Y-93152021D01*
X123711263Y-93035120D01*
X124490480Y-93035120D01*
X124515880Y-93060520D01*
X124541280Y-93035120D01*
X124515880Y-93009720D01*
X124490480Y-93035120D01*
X123711263Y-93035120D01*
X123985869Y-92969587D01*
X124128407Y-92925953D01*
X124338693Y-92862038D01*
X124472859Y-92830669D01*
X124550103Y-92829211D01*
X124589619Y-92855031D01*
X124594033Y-92862062D01*
X124635562Y-92922788D01*
X124728481Y-93051482D01*
X124863083Y-93234931D01*
X125029660Y-93459925D01*
X125218504Y-93713255D01*
X125273606Y-93786874D01*
X125463936Y-94042233D01*
X125631702Y-94269786D01*
X125767940Y-94457171D01*
X125863685Y-94592024D01*
X125909974Y-94661982D01*
X125912879Y-94668564D01*
X125883990Y-94721545D01*
X125810477Y-94824576D01*
X125759547Y-94890497D01*
X125651623Y-95047123D01*
X125536177Y-95245312D01*
X125467744Y-95380408D01*
X125412405Y-95504686D01*
X125374357Y-95614642D01*
X125350572Y-95733207D01*
X125338020Y-95883310D01*
X125333671Y-96087881D01*
X125334495Y-96369852D01*
X125334629Y-96387920D01*
X125337961Y-96654990D01*
X125346089Y-96867805D01*
X125363064Y-97052921D01*
X125392933Y-97236893D01*
X125439745Y-97446278D01*
X125507549Y-97707631D01*
X125571761Y-97943339D01*
X125685537Y-98363965D01*
X125772482Y-98702899D01*
X125835367Y-98975639D01*
X125876962Y-99197686D01*
X125900037Y-99384538D01*
X125907361Y-99551697D01*
X125901706Y-99714661D01*
X125897712Y-99767209D01*
X125868731Y-99973469D01*
X125820621Y-100176593D01*
X125761136Y-100355368D01*
X125698031Y-100488580D01*
X125639061Y-100555014D01*
X125609863Y-100554622D01*
X125578812Y-100561113D01*
X125585816Y-100594175D01*
X125566350Y-100675063D01*
X125472097Y-100785150D01*
X125320142Y-100910259D01*
X125127574Y-101036212D01*
X124924686Y-101142759D01*
X124730975Y-101217160D01*
X124473755Y-101294957D01*
X124184415Y-101368806D01*
X123894350Y-101431364D01*
X123634949Y-101475285D01*
X123437606Y-101493226D01*
X123426258Y-101493320D01*
X123226727Y-101510040D01*
X122969786Y-101554461D01*
X122692916Y-101617975D01*
X122433597Y-101691973D01*
X122229311Y-101767847D01*
X122227561Y-101768636D01*
X122039130Y-101869192D01*
X121856269Y-101990679D01*
X121789055Y-102044556D01*
X121678931Y-102137729D01*
X121604292Y-102194319D01*
X121588173Y-102202436D01*
X121543435Y-102170075D01*
X121447708Y-102088809D01*
X121360310Y-102011007D01*
X121179933Y-101876136D01*
X121075465Y-101823520D01*
X121899680Y-101823520D01*
X121925080Y-101848920D01*
X121950480Y-101823520D01*
X121925080Y-101798120D01*
X121899680Y-101823520D01*
X121075465Y-101823520D01*
X120974602Y-101772720D01*
X121493280Y-101772720D01*
X121518680Y-101798120D01*
X121544080Y-101772720D01*
X121518680Y-101747320D01*
X121493280Y-101772720D01*
X120974602Y-101772720D01*
X120954756Y-101762725D01*
X120671330Y-101666393D01*
X120316208Y-101582758D01*
X119875941Y-101507437D01*
X119766080Y-101491513D01*
X119189020Y-101395745D01*
X118706017Y-101283479D01*
X118310496Y-101152207D01*
X117995881Y-100999422D01*
X117755598Y-100822616D01*
X117620525Y-100673162D01*
X117447686Y-100378477D01*
X117341544Y-100043273D01*
X117301657Y-99659260D01*
X117305451Y-99594695D01*
X117678593Y-99594695D01*
X117692977Y-99885365D01*
X117754505Y-100127795D01*
X117863662Y-100332675D01*
X118012227Y-100502552D01*
X118205838Y-100680642D01*
X118332215Y-100786426D01*
X118390400Y-100819124D01*
X118394480Y-100813367D01*
X118437647Y-100815624D01*
X118549166Y-100845993D01*
X118661180Y-100882898D01*
X118828848Y-100931109D01*
X119060180Y-100984153D01*
X119318066Y-101033931D01*
X119461280Y-101057519D01*
X119837073Y-101115378D01*
X120128185Y-101161498D01*
X120350462Y-101198854D01*
X120519751Y-101230420D01*
X120651901Y-101259170D01*
X120762757Y-101288080D01*
X120868166Y-101320124D01*
X120879187Y-101323669D01*
X121023204Y-101378049D01*
X121117044Y-101428578D01*
X121137680Y-101453234D01*
X121168148Y-101478426D01*
X121180898Y-101472605D01*
X121244818Y-101483337D01*
X121352694Y-101542413D01*
X121393967Y-101571207D01*
X121539743Y-101662202D01*
X121645458Y-101695622D01*
X121694805Y-101667075D01*
X121696480Y-101652693D01*
X121740214Y-101606540D01*
X121855321Y-101537058D01*
X122017655Y-101455547D01*
X122203074Y-101373307D01*
X122387431Y-101301638D01*
X122546584Y-101251840D01*
X122560080Y-101248522D01*
X122759293Y-101207824D01*
X122979420Y-101172172D01*
X123042680Y-101163946D01*
X123592756Y-101090452D01*
X124051343Y-101009741D01*
X124428502Y-100917722D01*
X124734294Y-100810305D01*
X124739659Y-100807520D01*
X125150880Y-100807520D01*
X125176280Y-100832920D01*
X125201680Y-100807520D01*
X125176280Y-100782120D01*
X125150880Y-100807520D01*
X124739659Y-100807520D01*
X124935391Y-100705920D01*
X125404880Y-100705920D01*
X125430280Y-100731320D01*
X125455680Y-100705920D01*
X125430280Y-100680520D01*
X125404880Y-100705920D01*
X124935391Y-100705920D01*
X124978782Y-100683397D01*
X125172028Y-100532909D01*
X125324093Y-100354747D01*
X125418520Y-100197920D01*
X125499647Y-99949713D01*
X125527065Y-99628265D01*
X125501067Y-99246394D01*
X125421948Y-98816917D01*
X125383229Y-98663184D01*
X125329110Y-98443483D01*
X125292275Y-98257590D01*
X125276806Y-98128759D01*
X125281516Y-98083835D01*
X125289500Y-98046574D01*
X125266380Y-98055729D01*
X125228832Y-98027429D01*
X125181103Y-97915228D01*
X125127300Y-97735815D01*
X125071528Y-97505878D01*
X125017893Y-97242106D01*
X124970501Y-96961190D01*
X124938266Y-96722023D01*
X124915509Y-96167077D01*
X124983169Y-95656943D01*
X125141660Y-95189303D01*
X125246341Y-94985798D01*
X125439119Y-94650476D01*
X125296150Y-94457520D01*
X125404880Y-94457520D01*
X125430280Y-94482920D01*
X125455680Y-94457520D01*
X125430280Y-94432120D01*
X125404880Y-94457520D01*
X125296150Y-94457520D01*
X124934775Y-93969798D01*
X124766348Y-93742788D01*
X124619799Y-93545844D01*
X124505459Y-93392802D01*
X124433659Y-93297501D01*
X124414042Y-93272340D01*
X124361317Y-93277617D01*
X124232803Y-93305452D01*
X124050497Y-93350811D01*
X123923367Y-93384637D01*
X123412948Y-93508867D01*
X122922148Y-93594970D01*
X122416255Y-93647254D01*
X121860556Y-93670025D01*
X121608275Y-93671828D01*
X120998555Y-93658695D01*
X120455146Y-93617444D01*
X119945512Y-93543439D01*
X119437113Y-93432041D01*
X118938741Y-93291388D01*
X118807404Y-93257793D01*
X118732432Y-93252111D01*
X118725325Y-93264764D01*
X118707284Y-93320605D01*
X118637361Y-93440967D01*
X118525743Y-93609932D01*
X118382616Y-93811585D01*
X118328270Y-93885188D01*
X118130169Y-94150128D01*
X117985312Y-94346788D01*
X117888007Y-94489646D01*
X117832565Y-94593183D01*
X117813294Y-94671877D01*
X117824504Y-94740209D01*
X117860505Y-94812658D01*
X117915605Y-94903705D01*
X117923055Y-94916269D01*
X118091318Y-95246374D01*
X118200671Y-95578338D01*
X118261944Y-95950119D01*
X118277751Y-96159320D01*
X118284538Y-96384026D01*
X118278225Y-96602609D01*
X118256064Y-96831409D01*
X118215308Y-97086763D01*
X118153212Y-97385014D01*
X118067027Y-97742500D01*
X117954008Y-98175561D01*
X117913454Y-98326375D01*
X117789317Y-98825888D01*
X117710868Y-99245099D01*
X117678593Y-99594695D01*
X117305451Y-99594695D01*
X117327582Y-99218145D01*
X117418877Y-98711637D01*
X117498889Y-98394520D01*
X117663472Y-97757037D01*
X117783439Y-97201870D01*
X117858753Y-96720033D01*
X117889376Y-96302544D01*
X117875271Y-95940420D01*
X117816399Y-95624676D01*
X117712723Y-95346329D01*
X117637370Y-95219520D01*
X117886480Y-95219520D01*
X117911880Y-95244920D01*
X117937280Y-95219520D01*
X117911880Y-95194120D01*
X117886480Y-95219520D01*
X117637370Y-95219520D01*
X117564206Y-95096395D01*
X117484622Y-94993087D01*
X117375227Y-94857639D01*
X117291208Y-94748317D01*
X117258708Y-94701402D01*
X117272595Y-94636389D01*
X117340145Y-94511172D01*
X117449353Y-94343067D01*
X117588211Y-94149393D01*
X117744712Y-93947468D01*
X117906849Y-93754611D01*
X117943905Y-93713103D01*
X118054152Y-93580349D01*
X118138219Y-93459976D01*
X118159291Y-93421003D01*
X118222927Y-93336980D01*
X118274275Y-93314520D01*
X118336468Y-93271352D01*
X118372410Y-93192337D01*
X118431518Y-93070015D01*
X118525778Y-92954882D01*
X118612044Y-92841070D01*
X118648474Y-92727931D01*
X118648480Y-92726838D01*
X118671047Y-92642100D01*
X118756955Y-92620646D01*
X118775444Y-92621393D01*
X118775444Y-92621393D01*
G37*
X118775444Y-92621393D02*
X118880533Y-92633562D01*
X118885288Y-92657010D01*
X118790899Y-92699096D01*
X118788180Y-92700115D01*
X118723328Y-92730071D01*
X118728985Y-92758595D01*
X118815446Y-92802075D01*
X118865640Y-92823412D01*
X119046434Y-92887232D01*
X119230749Y-92935066D01*
X119246640Y-92938078D01*
X119383919Y-92970049D01*
X119477871Y-93004801D01*
X119486680Y-93010396D01*
X119582330Y-93051142D01*
X119759450Y-93098080D01*
X119998393Y-93147464D01*
X120279517Y-93195545D01*
X120583176Y-93238576D01*
X120832880Y-93267228D01*
X121611789Y-93304272D01*
X122419007Y-93264727D01*
X122968676Y-93187520D01*
X124490480Y-93187520D01*
X124515880Y-93212920D01*
X124541280Y-93187520D01*
X124515880Y-93162120D01*
X124490480Y-93187520D01*
X122968676Y-93187520D01*
X123221409Y-93152021D01*
X123711263Y-93035120D01*
X124490480Y-93035120D01*
X124515880Y-93060520D01*
X124541280Y-93035120D01*
X124515880Y-93009720D01*
X124490480Y-93035120D01*
X123711263Y-93035120D01*
X123985869Y-92969587D01*
X124128407Y-92925953D01*
X124338693Y-92862038D01*
X124472859Y-92830669D01*
X124550103Y-92829211D01*
X124589619Y-92855031D01*
X124594033Y-92862062D01*
X124635562Y-92922788D01*
X124728481Y-93051482D01*
X124863083Y-93234931D01*
X125029660Y-93459925D01*
X125218504Y-93713255D01*
X125273606Y-93786874D01*
X125463936Y-94042233D01*
X125631702Y-94269786D01*
X125767940Y-94457171D01*
X125863685Y-94592024D01*
X125909974Y-94661982D01*
X125912879Y-94668564D01*
X125883990Y-94721545D01*
X125810477Y-94824576D01*
X125759547Y-94890497D01*
X125651623Y-95047123D01*
X125536177Y-95245312D01*
X125467744Y-95380408D01*
X125412405Y-95504686D01*
X125374357Y-95614642D01*
X125350572Y-95733207D01*
X125338020Y-95883310D01*
X125333671Y-96087881D01*
X125334495Y-96369852D01*
X125334629Y-96387920D01*
X125337961Y-96654990D01*
X125346089Y-96867805D01*
X125363064Y-97052921D01*
X125392933Y-97236893D01*
X125439745Y-97446278D01*
X125507549Y-97707631D01*
X125571761Y-97943339D01*
X125685537Y-98363965D01*
X125772482Y-98702899D01*
X125835367Y-98975639D01*
X125876962Y-99197686D01*
X125900037Y-99384538D01*
X125907361Y-99551697D01*
X125901706Y-99714661D01*
X125897712Y-99767209D01*
X125868731Y-99973469D01*
X125820621Y-100176593D01*
X125761136Y-100355368D01*
X125698031Y-100488580D01*
X125639061Y-100555014D01*
X125609863Y-100554622D01*
X125578812Y-100561113D01*
X125585816Y-100594175D01*
X125566350Y-100675063D01*
X125472097Y-100785150D01*
X125320142Y-100910259D01*
X125127574Y-101036212D01*
X124924686Y-101142759D01*
X124730975Y-101217160D01*
X124473755Y-101294957D01*
X124184415Y-101368806D01*
X123894350Y-101431364D01*
X123634949Y-101475285D01*
X123437606Y-101493226D01*
X123426258Y-101493320D01*
X123226727Y-101510040D01*
X122969786Y-101554461D01*
X122692916Y-101617975D01*
X122433597Y-101691973D01*
X122229311Y-101767847D01*
X122227561Y-101768636D01*
X122039130Y-101869192D01*
X121856269Y-101990679D01*
X121789055Y-102044556D01*
X121678931Y-102137729D01*
X121604292Y-102194319D01*
X121588173Y-102202436D01*
X121543435Y-102170075D01*
X121447708Y-102088809D01*
X121360310Y-102011007D01*
X121179933Y-101876136D01*
X121075465Y-101823520D01*
X121899680Y-101823520D01*
X121925080Y-101848920D01*
X121950480Y-101823520D01*
X121925080Y-101798120D01*
X121899680Y-101823520D01*
X121075465Y-101823520D01*
X120974602Y-101772720D01*
X121493280Y-101772720D01*
X121518680Y-101798120D01*
X121544080Y-101772720D01*
X121518680Y-101747320D01*
X121493280Y-101772720D01*
X120974602Y-101772720D01*
X120954756Y-101762725D01*
X120671330Y-101666393D01*
X120316208Y-101582758D01*
X119875941Y-101507437D01*
X119766080Y-101491513D01*
X119189020Y-101395745D01*
X118706017Y-101283479D01*
X118310496Y-101152207D01*
X117995881Y-100999422D01*
X117755598Y-100822616D01*
X117620525Y-100673162D01*
X117447686Y-100378477D01*
X117341544Y-100043273D01*
X117301657Y-99659260D01*
X117305451Y-99594695D01*
X117678593Y-99594695D01*
X117692977Y-99885365D01*
X117754505Y-100127795D01*
X117863662Y-100332675D01*
X118012227Y-100502552D01*
X118205838Y-100680642D01*
X118332215Y-100786426D01*
X118390400Y-100819124D01*
X118394480Y-100813367D01*
X118437647Y-100815624D01*
X118549166Y-100845993D01*
X118661180Y-100882898D01*
X118828848Y-100931109D01*
X119060180Y-100984153D01*
X119318066Y-101033931D01*
X119461280Y-101057519D01*
X119837073Y-101115378D01*
X120128185Y-101161498D01*
X120350462Y-101198854D01*
X120519751Y-101230420D01*
X120651901Y-101259170D01*
X120762757Y-101288080D01*
X120868166Y-101320124D01*
X120879187Y-101323669D01*
X121023204Y-101378049D01*
X121117044Y-101428578D01*
X121137680Y-101453234D01*
X121168148Y-101478426D01*
X121180898Y-101472605D01*
X121244818Y-101483337D01*
X121352694Y-101542413D01*
X121393967Y-101571207D01*
X121539743Y-101662202D01*
X121645458Y-101695622D01*
X121694805Y-101667075D01*
X121696480Y-101652693D01*
X121740214Y-101606540D01*
X121855321Y-101537058D01*
X122017655Y-101455547D01*
X122203074Y-101373307D01*
X122387431Y-101301638D01*
X122546584Y-101251840D01*
X122560080Y-101248522D01*
X122759293Y-101207824D01*
X122979420Y-101172172D01*
X123042680Y-101163946D01*
X123592756Y-101090452D01*
X124051343Y-101009741D01*
X124428502Y-100917722D01*
X124734294Y-100810305D01*
X124739659Y-100807520D01*
X125150880Y-100807520D01*
X125176280Y-100832920D01*
X125201680Y-100807520D01*
X125176280Y-100782120D01*
X125150880Y-100807520D01*
X124739659Y-100807520D01*
X124935391Y-100705920D01*
X125404880Y-100705920D01*
X125430280Y-100731320D01*
X125455680Y-100705920D01*
X125430280Y-100680520D01*
X125404880Y-100705920D01*
X124935391Y-100705920D01*
X124978782Y-100683397D01*
X125172028Y-100532909D01*
X125324093Y-100354747D01*
X125418520Y-100197920D01*
X125499647Y-99949713D01*
X125527065Y-99628265D01*
X125501067Y-99246394D01*
X125421948Y-98816917D01*
X125383229Y-98663184D01*
X125329110Y-98443483D01*
X125292275Y-98257590D01*
X125276806Y-98128759D01*
X125281516Y-98083835D01*
X125289500Y-98046574D01*
X125266380Y-98055729D01*
X125228832Y-98027429D01*
X125181103Y-97915228D01*
X125127300Y-97735815D01*
X125071528Y-97505878D01*
X125017893Y-97242106D01*
X124970501Y-96961190D01*
X124938266Y-96722023D01*
X124915509Y-96167077D01*
X124983169Y-95656943D01*
X125141660Y-95189303D01*
X125246341Y-94985798D01*
X125439119Y-94650476D01*
X125296150Y-94457520D01*
X125404880Y-94457520D01*
X125430280Y-94482920D01*
X125455680Y-94457520D01*
X125430280Y-94432120D01*
X125404880Y-94457520D01*
X125296150Y-94457520D01*
X124934775Y-93969798D01*
X124766348Y-93742788D01*
X124619799Y-93545844D01*
X124505459Y-93392802D01*
X124433659Y-93297501D01*
X124414042Y-93272340D01*
X124361317Y-93277617D01*
X124232803Y-93305452D01*
X124050497Y-93350811D01*
X123923367Y-93384637D01*
X123412948Y-93508867D01*
X122922148Y-93594970D01*
X122416255Y-93647254D01*
X121860556Y-93670025D01*
X121608275Y-93671828D01*
X120998555Y-93658695D01*
X120455146Y-93617444D01*
X119945512Y-93543439D01*
X119437113Y-93432041D01*
X118938741Y-93291388D01*
X118807404Y-93257793D01*
X118732432Y-93252111D01*
X118725325Y-93264764D01*
X118707284Y-93320605D01*
X118637361Y-93440967D01*
X118525743Y-93609932D01*
X118382616Y-93811585D01*
X118328270Y-93885188D01*
X118130169Y-94150128D01*
X117985312Y-94346788D01*
X117888007Y-94489646D01*
X117832565Y-94593183D01*
X117813294Y-94671877D01*
X117824504Y-94740209D01*
X117860505Y-94812658D01*
X117915605Y-94903705D01*
X117923055Y-94916269D01*
X118091318Y-95246374D01*
X118200671Y-95578338D01*
X118261944Y-95950119D01*
X118277751Y-96159320D01*
X118284538Y-96384026D01*
X118278225Y-96602609D01*
X118256064Y-96831409D01*
X118215308Y-97086763D01*
X118153212Y-97385014D01*
X118067027Y-97742500D01*
X117954008Y-98175561D01*
X117913454Y-98326375D01*
X117789317Y-98825888D01*
X117710868Y-99245099D01*
X117678593Y-99594695D01*
X117305451Y-99594695D01*
X117327582Y-99218145D01*
X117418877Y-98711637D01*
X117498889Y-98394520D01*
X117663472Y-97757037D01*
X117783439Y-97201870D01*
X117858753Y-96720033D01*
X117889376Y-96302544D01*
X117875271Y-95940420D01*
X117816399Y-95624676D01*
X117712723Y-95346329D01*
X117637370Y-95219520D01*
X117886480Y-95219520D01*
X117911880Y-95244920D01*
X117937280Y-95219520D01*
X117911880Y-95194120D01*
X117886480Y-95219520D01*
X117637370Y-95219520D01*
X117564206Y-95096395D01*
X117484622Y-94993087D01*
X117375227Y-94857639D01*
X117291208Y-94748317D01*
X117258708Y-94701402D01*
X117272595Y-94636389D01*
X117340145Y-94511172D01*
X117449353Y-94343067D01*
X117588211Y-94149393D01*
X117744712Y-93947468D01*
X117906849Y-93754611D01*
X117943905Y-93713103D01*
X118054152Y-93580349D01*
X118138219Y-93459976D01*
X118159291Y-93421003D01*
X118222927Y-93336980D01*
X118274275Y-93314520D01*
X118336468Y-93271352D01*
X118372410Y-93192337D01*
X118431518Y-93070015D01*
X118525778Y-92954882D01*
X118612044Y-92841070D01*
X118648474Y-92727931D01*
X118648480Y-92726838D01*
X118671047Y-92642100D01*
X118756955Y-92620646D01*
X118775444Y-92621393D01*
G36*
X105331260Y-109153960D02*
G01*
X104759760Y-109153960D01*
X104759760Y-114500935D01*
X105296335Y-114497622D01*
X105832910Y-114494310D01*
X105836123Y-112465484D01*
X105839337Y-110436659D01*
X105585298Y-110436659D01*
X105331260Y-110436660D01*
X105331260Y-109712760D01*
X107820460Y-109712760D01*
X107820460Y-110436660D01*
X107261660Y-110436660D01*
X107260644Y-115129310D01*
X106800777Y-115596432D01*
X106340910Y-116063555D01*
X105550335Y-116063157D01*
X104759760Y-116062760D01*
X104759760Y-117154960D01*
X105331260Y-117154960D01*
X105331260Y-118082060D01*
X102676960Y-118082060D01*
X102676960Y-117154960D01*
X103248732Y-117154960D01*
X103242110Y-116069110D01*
X102446418Y-116065840D01*
X101650727Y-116062570D01*
X101220868Y-115622415D01*
X101134262Y-115533808D01*
X101052317Y-115450114D01*
X100976892Y-115373219D01*
X100909846Y-115305013D01*
X100853038Y-115247384D01*
X100808326Y-115202220D01*
X100777568Y-115171409D01*
X100762624Y-115156840D01*
X100762435Y-115156669D01*
X100733859Y-115131079D01*
X100733859Y-112783869D01*
X100733860Y-110436660D01*
X100175060Y-110436660D01*
X100175060Y-109712760D01*
X102664260Y-109712760D01*
X102664260Y-110436660D01*
X102156182Y-110436660D01*
X102162610Y-114494310D01*
X103242110Y-114494310D01*
X103245314Y-111824135D01*
X103248519Y-109153960D01*
X102676960Y-109153960D01*
X102676960Y-108430060D01*
X105331260Y-108430060D01*
X105331260Y-109153960D01*
X105331260Y-109153960D01*
G37*
X105331260Y-109153960D02*
X104759760Y-109153960D01*
X104759760Y-114500935D01*
X105296335Y-114497622D01*
X105832910Y-114494310D01*
X105836123Y-112465484D01*
X105839337Y-110436659D01*
X105585298Y-110436659D01*
X105331260Y-110436660D01*
X105331260Y-109712760D01*
X107820460Y-109712760D01*
X107820460Y-110436660D01*
X107261660Y-110436660D01*
X107260644Y-115129310D01*
X106800777Y-115596432D01*
X106340910Y-116063555D01*
X105550335Y-116063157D01*
X104759760Y-116062760D01*
X104759760Y-117154960D01*
X105331260Y-117154960D01*
X105331260Y-118082060D01*
X102676960Y-118082060D01*
X102676960Y-117154960D01*
X103248732Y-117154960D01*
X103242110Y-116069110D01*
X102446418Y-116065840D01*
X101650727Y-116062570D01*
X101220868Y-115622415D01*
X101134262Y-115533808D01*
X101052317Y-115450114D01*
X100976892Y-115373219D01*
X100909846Y-115305013D01*
X100853038Y-115247384D01*
X100808326Y-115202220D01*
X100777568Y-115171409D01*
X100762624Y-115156840D01*
X100762435Y-115156669D01*
X100733859Y-115131079D01*
X100733859Y-112783869D01*
X100733860Y-110436660D01*
X100175060Y-110436660D01*
X100175060Y-109712760D01*
X102664260Y-109712760D01*
X102664260Y-110436660D01*
X102156182Y-110436660D01*
X102162610Y-114494310D01*
X103242110Y-114494310D01*
X103245314Y-111824135D01*
X103248519Y-109153960D01*
X102676960Y-109153960D01*
X102676960Y-108430060D01*
X105331260Y-108430060D01*
X105331260Y-109153960D01*
D12*
X118872000Y-118262400D02*
X117856000Y-118262400D01*
X118872000Y-115214400D02*
X118872000Y-118262400D01*
X117856000Y-115214400D02*
X118872000Y-115214400D01*
X107696000Y-118262400D02*
X108712000Y-118262400D01*
X107696000Y-115214400D02*
X107696000Y-118262400D01*
X108712000Y-115214400D02*
X107696000Y-115214400D01*
D13*
X114360200Y-106432200D02*
X114360200Y-106232200D01*
X112360200Y-106432200D02*
X114360200Y-106432200D01*
X112360200Y-106232200D02*
X112360200Y-106432200D01*
X114360200Y-104032200D02*
X114360200Y-104232200D01*
X112360200Y-104032200D02*
X114360200Y-104032200D01*
X112360200Y-104232200D02*
X112360200Y-104032200D01*
D14*
X112591667Y-92593700D02*
X112249133Y-92593700D01*
X112591667Y-93613700D02*
X112249133Y-93613700D01*
X104523000Y-94278267D02*
X104523000Y-93935733D01*
X103503000Y-94278267D02*
X103503000Y-93935733D01*
X105387680Y-97512053D02*
X105387680Y-97854587D01*
X106407680Y-97512053D02*
X106407680Y-97854587D01*
X109714213Y-99788440D02*
X110056747Y-99788440D01*
X109714213Y-98768440D02*
X110056747Y-98768440D01*
X109759933Y-98173000D02*
X110102467Y-98173000D01*
X109759933Y-97153000D02*
X110102467Y-97153000D01*
X99599933Y-108536200D02*
X99942467Y-108536200D01*
X99599933Y-107516200D02*
X99942467Y-107516200D01*
X99625333Y-106897900D02*
X99967867Y-106897900D01*
X99625333Y-105877900D02*
X99967867Y-105877900D01*
X105073360Y-95635400D02*
X105073360Y-93035400D01*
X106173360Y-95635400D02*
X106173360Y-93035400D01*
X105073360Y-95635400D02*
X106173360Y-95635400D01*
D12*
X105139400Y-105012400D02*
X105139400Y-104487400D01*
X99889400Y-105012400D02*
X99889400Y-104487400D01*
X99889400Y-99762400D02*
X99889400Y-100287400D01*
X105139400Y-99762400D02*
X105139400Y-100287400D01*
X99889400Y-105012400D02*
X100414400Y-105012400D01*
X99889400Y-99762400D02*
X100414400Y-99762400D01*
X105139400Y-105012400D02*
X104614400Y-105012400D01*
X102533680Y-98614640D02*
X103033680Y-98614640D01*
X103033680Y-98614640D02*
X103033680Y-98114640D01*
D14*
X115512667Y-99658900D02*
X115170133Y-99658900D01*
X115512667Y-98638900D02*
X115170133Y-98638900D01*
X127151140Y-102826500D02*
X121181140Y-102826500D01*
X121181140Y-102826500D02*
X121181140Y-112946500D01*
X121181140Y-112946500D02*
X127151140Y-112946500D01*
X127151140Y-112946500D02*
X127151140Y-102826500D01*
X127141140Y-106136500D02*
X126391140Y-106136500D01*
X126391140Y-106136500D02*
X126391140Y-109636500D01*
X126391140Y-109636500D02*
X127141140Y-109636500D01*
X127141140Y-109636500D02*
X127141140Y-106136500D01*
X127141140Y-102836500D02*
X126391140Y-102836500D01*
X126391140Y-102836500D02*
X126391140Y-104636500D01*
X126391140Y-104636500D02*
X127141140Y-104636500D01*
X127141140Y-104636500D02*
X127141140Y-102836500D01*
X127141140Y-111136500D02*
X126391140Y-111136500D01*
X126391140Y-111136500D02*
X126391140Y-112936500D01*
X126391140Y-112936500D02*
X127141140Y-112936500D01*
X127141140Y-112936500D02*
X127141140Y-111136500D01*
X124891140Y-102836500D02*
X124891140Y-103586500D01*
X124891140Y-103586500D02*
X123551140Y-103586500D01*
X121941140Y-107886500D02*
X121941140Y-104646500D01*
X124891140Y-112936500D02*
X124891140Y-112186500D01*
X124891140Y-112186500D02*
X121941140Y-112186500D01*
X121941140Y-112186500D02*
X121941140Y-107886500D01*
X127441140Y-103786500D02*
X127441140Y-102536500D01*
X127441140Y-102536500D02*
X126191140Y-102536500D01*
X120351733Y-115191000D02*
X120694267Y-115191000D01*
X120351733Y-114171000D02*
X120694267Y-114171000D01*
X120351733Y-116076000D02*
X120694267Y-116076000D01*
X120351733Y-117096000D02*
X120694267Y-117096000D01*
D12*
X107272380Y-120391904D02*
X108081904Y-120391904D01*
X108177142Y-120344285D01*
X108224761Y-120296666D01*
X108272380Y-120201428D01*
X108272380Y-120010952D01*
X108224761Y-119915714D01*
X108177142Y-119868095D01*
X108081904Y-119820476D01*
X107272380Y-119820476D01*
X107367619Y-119391904D02*
X107320000Y-119344285D01*
X107272380Y-119249047D01*
X107272380Y-119010952D01*
X107320000Y-118915714D01*
X107367619Y-118868095D01*
X107462857Y-118820476D01*
X107558095Y-118820476D01*
X107700952Y-118868095D01*
X108272380Y-119439523D01*
X108272380Y-118820476D01*
X112213093Y-92114642D02*
X112165474Y-92162261D01*
X112022617Y-92209880D01*
X111927379Y-92209880D01*
X111784521Y-92162261D01*
X111689283Y-92067023D01*
X111641664Y-91971785D01*
X111594045Y-91781309D01*
X111594045Y-91638452D01*
X111641664Y-91447976D01*
X111689283Y-91352738D01*
X111784521Y-91257500D01*
X111927379Y-91209880D01*
X112022617Y-91209880D01*
X112165474Y-91257500D01*
X112213093Y-91305119D01*
X113165474Y-92209880D02*
X112594045Y-92209880D01*
X112879760Y-92209880D02*
X112879760Y-91209880D01*
X112784521Y-91352738D01*
X112689283Y-91447976D01*
X112594045Y-91495595D01*
X102157233Y-94813380D02*
X101823900Y-94337190D01*
X101585804Y-94813380D02*
X101585804Y-93813380D01*
X101966757Y-93813380D01*
X102061995Y-93861000D01*
X102109614Y-93908619D01*
X102157233Y-94003857D01*
X102157233Y-94146714D01*
X102109614Y-94241952D01*
X102061995Y-94289571D01*
X101966757Y-94337190D01*
X101585804Y-94337190D01*
X103109614Y-94813380D02*
X102538185Y-94813380D01*
X102823900Y-94813380D02*
X102823900Y-93813380D01*
X102728661Y-93956238D01*
X102633423Y-94051476D01*
X102538185Y-94099095D01*
X107853740Y-98073506D02*
X107377550Y-98406840D01*
X107853740Y-98644935D02*
X106853740Y-98644935D01*
X106853740Y-98263982D01*
X106901360Y-98168744D01*
X106948979Y-98121125D01*
X107044217Y-98073506D01*
X107187074Y-98073506D01*
X107282312Y-98121125D01*
X107329931Y-98168744D01*
X107377550Y-98263982D01*
X107377550Y-98644935D01*
X106948979Y-97692554D02*
X106901360Y-97644935D01*
X106853740Y-97549697D01*
X106853740Y-97311601D01*
X106901360Y-97216363D01*
X106948979Y-97168744D01*
X107044217Y-97121125D01*
X107139455Y-97121125D01*
X107282312Y-97168744D01*
X107853740Y-97740173D01*
X107853740Y-97121125D01*
X112520433Y-99645742D02*
X112472814Y-99693361D01*
X112329957Y-99740980D01*
X112234719Y-99740980D01*
X112091861Y-99693361D01*
X111996623Y-99598123D01*
X111949004Y-99502885D01*
X111901385Y-99312409D01*
X111901385Y-99169552D01*
X111949004Y-98979076D01*
X111996623Y-98883838D01*
X112091861Y-98788600D01*
X112234719Y-98740980D01*
X112329957Y-98740980D01*
X112472814Y-98788600D01*
X112520433Y-98836219D01*
X113091861Y-99169552D02*
X112996623Y-99121933D01*
X112949004Y-99074314D01*
X112901385Y-98979076D01*
X112901385Y-98931457D01*
X112949004Y-98836219D01*
X112996623Y-98788600D01*
X113091861Y-98740980D01*
X113282338Y-98740980D01*
X113377576Y-98788600D01*
X113425195Y-98836219D01*
X113472814Y-98931457D01*
X113472814Y-98979076D01*
X113425195Y-99074314D01*
X113377576Y-99121933D01*
X113282338Y-99169552D01*
X113091861Y-99169552D01*
X112996623Y-99217171D01*
X112949004Y-99264790D01*
X112901385Y-99360028D01*
X112901385Y-99550504D01*
X112949004Y-99645742D01*
X112996623Y-99693361D01*
X113091861Y-99740980D01*
X113282338Y-99740980D01*
X113377576Y-99693361D01*
X113425195Y-99645742D01*
X113472814Y-99550504D01*
X113472814Y-99360028D01*
X113425195Y-99264790D01*
X113377576Y-99217171D01*
X113282338Y-99169552D01*
X112482333Y-98096342D02*
X112434714Y-98143961D01*
X112291857Y-98191580D01*
X112196619Y-98191580D01*
X112053761Y-98143961D01*
X111958523Y-98048723D01*
X111910904Y-97953485D01*
X111863285Y-97763009D01*
X111863285Y-97620152D01*
X111910904Y-97429676D01*
X111958523Y-97334438D01*
X112053761Y-97239200D01*
X112196619Y-97191580D01*
X112291857Y-97191580D01*
X112434714Y-97239200D01*
X112482333Y-97286819D01*
X112958523Y-98191580D02*
X113149000Y-98191580D01*
X113244238Y-98143961D01*
X113291857Y-98096342D01*
X113387095Y-97953485D01*
X113434714Y-97763009D01*
X113434714Y-97382057D01*
X113387095Y-97286819D01*
X113339476Y-97239200D01*
X113244238Y-97191580D01*
X113053761Y-97191580D01*
X112958523Y-97239200D01*
X112910904Y-97286819D01*
X112863285Y-97382057D01*
X112863285Y-97620152D01*
X112910904Y-97715390D01*
X112958523Y-97763009D01*
X113053761Y-97810628D01*
X113244238Y-97810628D01*
X113339476Y-97763009D01*
X113387095Y-97715390D01*
X113434714Y-97620152D01*
X102387142Y-108007142D02*
X102339523Y-108054761D01*
X102196666Y-108102380D01*
X102101428Y-108102380D01*
X101958571Y-108054761D01*
X101863333Y-107959523D01*
X101815714Y-107864285D01*
X101768095Y-107673809D01*
X101768095Y-107530952D01*
X101815714Y-107340476D01*
X101863333Y-107245238D01*
X101958571Y-107150000D01*
X102101428Y-107102380D01*
X102196666Y-107102380D01*
X102339523Y-107150000D01*
X102387142Y-107197619D01*
X103339523Y-108102380D02*
X102768095Y-108102380D01*
X103053809Y-108102380D02*
X103053809Y-107102380D01*
X102958571Y-107245238D01*
X102863333Y-107340476D01*
X102768095Y-107388095D01*
X103958571Y-107102380D02*
X104053809Y-107102380D01*
X104149047Y-107150000D01*
X104196666Y-107197619D01*
X104244285Y-107292857D01*
X104291904Y-107483333D01*
X104291904Y-107721428D01*
X104244285Y-107911904D01*
X104196666Y-108007142D01*
X104149047Y-108054761D01*
X104053809Y-108102380D01*
X103958571Y-108102380D01*
X103863333Y-108054761D01*
X103815714Y-108007142D01*
X103768095Y-107911904D01*
X103720476Y-107721428D01*
X103720476Y-107483333D01*
X103768095Y-107292857D01*
X103815714Y-107197619D01*
X103863333Y-107150000D01*
X103958571Y-107102380D01*
X102481142Y-106546922D02*
X102433523Y-106594541D01*
X102290666Y-106642160D01*
X102195428Y-106642160D01*
X102052571Y-106594541D01*
X101957333Y-106499303D01*
X101909714Y-106404065D01*
X101862095Y-106213589D01*
X101862095Y-106070732D01*
X101909714Y-105880256D01*
X101957333Y-105785018D01*
X102052571Y-105689780D01*
X102195428Y-105642160D01*
X102290666Y-105642160D01*
X102433523Y-105689780D01*
X102481142Y-105737399D01*
X103433523Y-106642160D02*
X102862095Y-106642160D01*
X103147809Y-106642160D02*
X103147809Y-105642160D01*
X103052571Y-105785018D01*
X102957333Y-105880256D01*
X102862095Y-105927875D01*
X104385904Y-106642160D02*
X103814476Y-106642160D01*
X104100190Y-106642160D02*
X104100190Y-105642160D01*
X104004952Y-105785018D01*
X103909714Y-105880256D01*
X103814476Y-105927875D01*
X106500704Y-93136980D02*
X106500704Y-92136980D01*
X106738800Y-92136980D01*
X106881657Y-92184600D01*
X106976895Y-92279838D01*
X107024514Y-92375076D01*
X107072133Y-92565552D01*
X107072133Y-92708409D01*
X107024514Y-92898885D01*
X106976895Y-92994123D01*
X106881657Y-93089361D01*
X106738800Y-93136980D01*
X106500704Y-93136980D01*
X108024514Y-93136980D02*
X107453085Y-93136980D01*
X107738800Y-93136980D02*
X107738800Y-92136980D01*
X107643561Y-92279838D01*
X107548323Y-92375076D01*
X107453085Y-92422695D01*
X98640995Y-98321880D02*
X98640995Y-99131404D01*
X98688614Y-99226642D01*
X98736233Y-99274261D01*
X98831471Y-99321880D01*
X99021947Y-99321880D01*
X99117185Y-99274261D01*
X99164804Y-99226642D01*
X99212423Y-99131404D01*
X99212423Y-98321880D01*
X100212423Y-99321880D02*
X99640995Y-99321880D01*
X99926709Y-99321880D02*
X99926709Y-98321880D01*
X99831471Y-98464738D01*
X99736233Y-98559976D01*
X99640995Y-98607595D01*
X115753333Y-97967142D02*
X115705714Y-98014761D01*
X115562857Y-98062380D01*
X115467619Y-98062380D01*
X115324761Y-98014761D01*
X115229523Y-97919523D01*
X115181904Y-97824285D01*
X115134285Y-97633809D01*
X115134285Y-97490952D01*
X115181904Y-97300476D01*
X115229523Y-97205238D01*
X115324761Y-97110000D01*
X115467619Y-97062380D01*
X115562857Y-97062380D01*
X115705714Y-97110000D01*
X115753333Y-97157619D01*
X116134285Y-97157619D02*
X116181904Y-97110000D01*
X116277142Y-97062380D01*
X116515238Y-97062380D01*
X116610476Y-97110000D01*
X116658095Y-97157619D01*
X116705714Y-97252857D01*
X116705714Y-97348095D01*
X116658095Y-97490952D01*
X116086666Y-98062380D01*
X116705714Y-98062380D01*
X127693520Y-108219833D02*
X128407806Y-108219833D01*
X128550663Y-108267452D01*
X128645901Y-108362690D01*
X128693520Y-108505547D01*
X128693520Y-108600785D01*
X128693520Y-107219833D02*
X128693520Y-107791261D01*
X128693520Y-107505547D02*
X127693520Y-107505547D01*
X127836378Y-107600785D01*
X127931616Y-107696023D01*
X127979235Y-107791261D01*
X123023333Y-115133380D02*
X122690000Y-114657190D01*
X122451904Y-115133380D02*
X122451904Y-114133380D01*
X122832857Y-114133380D01*
X122928095Y-114181000D01*
X122975714Y-114228619D01*
X123023333Y-114323857D01*
X123023333Y-114466714D01*
X122975714Y-114561952D01*
X122928095Y-114609571D01*
X122832857Y-114657190D01*
X122451904Y-114657190D01*
X123356666Y-114133380D02*
X123975714Y-114133380D01*
X123642380Y-114514333D01*
X123785238Y-114514333D01*
X123880476Y-114561952D01*
X123928095Y-114609571D01*
X123975714Y-114704809D01*
X123975714Y-114942904D01*
X123928095Y-115038142D01*
X123880476Y-115085761D01*
X123785238Y-115133380D01*
X123499523Y-115133380D01*
X123404285Y-115085761D01*
X123356666Y-115038142D01*
X123023333Y-117038380D02*
X122690000Y-116562190D01*
X122451904Y-117038380D02*
X122451904Y-116038380D01*
X122832857Y-116038380D01*
X122928095Y-116086000D01*
X122975714Y-116133619D01*
X123023333Y-116228857D01*
X123023333Y-116371714D01*
X122975714Y-116466952D01*
X122928095Y-116514571D01*
X122832857Y-116562190D01*
X122451904Y-116562190D01*
X123880476Y-116371714D02*
X123880476Y-117038380D01*
X123642380Y-115990761D02*
X123404285Y-116705047D01*
X124023333Y-116705047D01*
M02*
