G04 #@! TF.GenerationSoftware,KiCad,Pcbnew,(5.1.2)-2*
G04 #@! TF.CreationDate,2019-07-23T13:27:12-04:00*
G04 #@! TF.ProjectId,light_monitor,6c696768-745f-46d6-9f6e-69746f722e6b,R001*
G04 #@! TF.SameCoordinates,Original*
G04 #@! TF.FileFunction,Copper,L2,Bot*
G04 #@! TF.FilePolarity,Positive*
%FSLAX46Y46*%
G04 Gerber Fmt 4.6, Leading zero omitted, Abs format (unit mm)*
G04 Created by KiCad (PCBNEW (5.1.2)-2) date 2019-07-23 13:27:12*
%MOMM*%
%LPD*%
G04 APERTURE LIST*
%ADD10R,3.170000X3.960000*%
%ADD11C,0.100000*%
%ADD12C,1.700000*%
%ADD13O,1.950000X1.700000*%
%ADD14C,0.508000*%
%ADD15C,0.152400*%
%ADD16C,0.254000*%
G04 APERTURE END LIST*
D10*
X113210000Y-96210000D03*
X113210000Y-118010000D03*
D11*
G36*
X125440644Y-104537704D02*
G01*
X125464913Y-104541304D01*
X125488711Y-104547265D01*
X125511811Y-104555530D01*
X125533989Y-104566020D01*
X125555033Y-104578633D01*
X125574738Y-104593247D01*
X125592917Y-104609723D01*
X125609393Y-104627902D01*
X125624007Y-104647607D01*
X125636620Y-104668651D01*
X125647110Y-104690829D01*
X125655375Y-104713929D01*
X125661336Y-104737727D01*
X125664936Y-104761996D01*
X125666140Y-104786500D01*
X125666140Y-105986500D01*
X125664936Y-106011004D01*
X125661336Y-106035273D01*
X125655375Y-106059071D01*
X125647110Y-106082171D01*
X125636620Y-106104349D01*
X125624007Y-106125393D01*
X125609393Y-106145098D01*
X125592917Y-106163277D01*
X125574738Y-106179753D01*
X125555033Y-106194367D01*
X125533989Y-106206980D01*
X125511811Y-106217470D01*
X125488711Y-106225735D01*
X125464913Y-106231696D01*
X125440644Y-106235296D01*
X125416140Y-106236500D01*
X123966140Y-106236500D01*
X123941636Y-106235296D01*
X123917367Y-106231696D01*
X123893569Y-106225735D01*
X123870469Y-106217470D01*
X123848291Y-106206980D01*
X123827247Y-106194367D01*
X123807542Y-106179753D01*
X123789363Y-106163277D01*
X123772887Y-106145098D01*
X123758273Y-106125393D01*
X123745660Y-106104349D01*
X123735170Y-106082171D01*
X123726905Y-106059071D01*
X123720944Y-106035273D01*
X123717344Y-106011004D01*
X123716140Y-105986500D01*
X123716140Y-104786500D01*
X123717344Y-104761996D01*
X123720944Y-104737727D01*
X123726905Y-104713929D01*
X123735170Y-104690829D01*
X123745660Y-104668651D01*
X123758273Y-104647607D01*
X123772887Y-104627902D01*
X123789363Y-104609723D01*
X123807542Y-104593247D01*
X123827247Y-104578633D01*
X123848291Y-104566020D01*
X123870469Y-104555530D01*
X123893569Y-104547265D01*
X123917367Y-104541304D01*
X123941636Y-104537704D01*
X123966140Y-104536500D01*
X125416140Y-104536500D01*
X125440644Y-104537704D01*
X125440644Y-104537704D01*
G37*
D12*
X124691140Y-105386500D03*
D13*
X124691140Y-107886500D03*
X124691140Y-110386500D03*
D14*
X98933000Y-109105700D03*
X114388900Y-93103700D03*
X109080300Y-96532700D03*
X106895900Y-96799400D03*
X102425500Y-94615000D03*
X104267000Y-97459800D03*
X102006400Y-98933000D03*
X115930000Y-96230000D03*
X107170000Y-116820000D03*
X110388400Y-93103700D03*
X110782100Y-96481900D03*
X101298418Y-94768198D03*
X106730800Y-94919800D03*
X99053189Y-104127300D03*
X113118900Y-98704400D03*
X112610900Y-107950000D03*
X100660200Y-110794800D03*
X110629700Y-103301800D03*
X99593400Y-105537000D03*
X110950000Y-116720000D03*
X104247010Y-110782100D03*
X111404400Y-110909100D03*
X103974900Y-111467900D03*
X110769400Y-111467900D03*
X100055317Y-100245798D03*
X120486900Y-100241100D03*
X100740266Y-99560834D03*
X119350000Y-99170000D03*
X98120200Y-109766100D03*
X107988100Y-110032800D03*
X108204000Y-94195900D03*
X102616000Y-93802200D03*
X107403900Y-112077500D03*
X113302500Y-112077500D03*
X107188000Y-97929700D03*
X103425549Y-98196366D03*
X115925600Y-106235500D03*
X102264400Y-106391900D03*
X101752400Y-107111800D03*
X110642400Y-107099100D03*
X98877745Y-100119069D03*
X98639320Y-102654790D03*
X102872916Y-99097382D03*
X104747010Y-98526600D03*
X106400600Y-100939600D03*
X116399199Y-102010801D03*
X111404400Y-105257600D03*
X101264400Y-105518900D03*
X115189000Y-105029000D03*
X115189000Y-103733600D03*
X109110000Y-107690000D03*
X102760000Y-108000000D03*
D15*
X108813600Y-96799400D02*
X109080300Y-96532700D01*
X106895900Y-96799400D02*
X108813600Y-96799400D01*
X103479600Y-97459800D02*
X104267000Y-97459800D01*
X102006400Y-98933000D02*
X103479600Y-97459800D01*
X113210000Y-96210000D02*
X115910000Y-96210000D01*
X115910000Y-96210000D02*
X115930000Y-96230000D01*
X111920000Y-116720000D02*
X113210000Y-118010000D01*
X110950000Y-116720000D02*
X111920000Y-116720000D01*
X111404400Y-110909100D02*
X104374010Y-110909100D01*
X104374010Y-110909100D02*
X104247010Y-110782100D01*
X103974900Y-111467900D02*
X110769400Y-111467900D01*
X100060015Y-100241100D02*
X120486900Y-100241100D01*
X100055317Y-100245798D02*
X100060015Y-100241100D01*
X100740266Y-99560834D02*
X100937922Y-99758490D01*
X119086001Y-99423999D02*
X118751510Y-99758490D01*
X119096001Y-99423999D02*
X119086001Y-99423999D01*
X119350000Y-99170000D02*
X119096001Y-99423999D01*
X100937922Y-99758490D02*
X118751510Y-99758490D01*
X98120200Y-109766100D02*
X107721400Y-109766100D01*
X107721400Y-109766100D02*
X107988100Y-110032800D01*
X108204000Y-94195900D02*
X107810300Y-93802200D01*
X107810300Y-93802200D02*
X102616000Y-93802200D01*
X107403900Y-112077500D02*
X113302500Y-112077500D01*
X113302500Y-112077500D02*
X113423700Y-112077500D01*
X104244684Y-98196366D02*
X103784759Y-98196366D01*
X107188000Y-97929700D02*
X104511350Y-97929700D01*
X103784759Y-98196366D02*
X103425549Y-98196366D01*
X104511350Y-97929700D02*
X104244684Y-98196366D01*
X115769200Y-106391900D02*
X115925600Y-106235500D01*
X102264400Y-106391900D02*
X115769200Y-106391900D01*
X101752400Y-107111800D02*
X110629700Y-107111800D01*
X110629700Y-107111800D02*
X110642400Y-107099100D01*
X98877745Y-100119069D02*
X98877745Y-102416365D01*
X98877745Y-102416365D02*
X98639320Y-102654790D01*
X104493011Y-98780599D02*
X104747010Y-98526600D01*
X104176228Y-99097382D02*
X104493011Y-98780599D01*
X102872916Y-99097382D02*
X104176228Y-99097382D01*
X106400600Y-100939600D02*
X107471801Y-102010801D01*
X107471801Y-102010801D02*
X116399199Y-102010801D01*
X111143100Y-105518900D02*
X111404400Y-105257600D01*
X101264400Y-105518900D02*
X111143100Y-105518900D01*
X115189000Y-105029000D02*
X115189000Y-103733600D01*
X109110000Y-107690000D02*
X108750790Y-107690000D01*
X108750790Y-107690000D02*
X103070000Y-107690000D01*
X103070000Y-107690000D02*
X102760000Y-108000000D01*
D16*
G36*
X115474408Y-89173197D02*
G01*
X117003862Y-89449768D01*
X118499766Y-89871656D01*
X119948347Y-90434979D01*
X121336268Y-91134548D01*
X122650747Y-91963923D01*
X123879683Y-92915467D01*
X125011760Y-93980419D01*
X126036554Y-95148972D01*
X126944629Y-96410368D01*
X127727624Y-97752992D01*
X128378330Y-99164482D01*
X128890755Y-100631840D01*
X129260180Y-102141557D01*
X129483205Y-103679731D01*
X129557775Y-105232200D01*
X129542358Y-105938728D01*
X129400141Y-107486467D01*
X129110235Y-109013449D01*
X128675308Y-110505615D01*
X128099366Y-111949225D01*
X127387711Y-113330987D01*
X126546897Y-114638180D01*
X125584665Y-115858765D01*
X124509875Y-116981506D01*
X123332423Y-117996063D01*
X122063151Y-118893096D01*
X120713745Y-119664345D01*
X119296631Y-120302708D01*
X117824857Y-120802308D01*
X116311974Y-121158545D01*
X114771912Y-121368138D01*
X113218851Y-121429158D01*
X111667092Y-121341043D01*
X110130923Y-121104604D01*
X108624487Y-120722018D01*
X107161656Y-120196808D01*
X106723161Y-119990000D01*
X110986928Y-119990000D01*
X110999188Y-120114482D01*
X111035498Y-120234180D01*
X111094463Y-120344494D01*
X111173815Y-120441185D01*
X111270506Y-120520537D01*
X111380820Y-120579502D01*
X111500518Y-120615812D01*
X111625000Y-120628072D01*
X112924250Y-120625000D01*
X113083000Y-120466250D01*
X113083000Y-118137000D01*
X113337000Y-118137000D01*
X113337000Y-120466250D01*
X113495750Y-120625000D01*
X114795000Y-120628072D01*
X114919482Y-120615812D01*
X115039180Y-120579502D01*
X115149494Y-120520537D01*
X115246185Y-120441185D01*
X115325537Y-120344494D01*
X115384502Y-120234180D01*
X115420812Y-120114482D01*
X115433072Y-119990000D01*
X115430000Y-118295750D01*
X115271250Y-118137000D01*
X113337000Y-118137000D01*
X113083000Y-118137000D01*
X111148750Y-118137000D01*
X110990000Y-118295750D01*
X110986928Y-119990000D01*
X106723161Y-119990000D01*
X105755899Y-119533810D01*
X104420159Y-118739128D01*
X103166736Y-117820080D01*
X102007170Y-116785128D01*
X101958467Y-116732441D01*
X106281000Y-116732441D01*
X106281000Y-116907559D01*
X106315164Y-117079312D01*
X106382179Y-117241099D01*
X106479469Y-117386704D01*
X106603296Y-117510531D01*
X106748901Y-117607821D01*
X106910688Y-117674836D01*
X107082441Y-117709000D01*
X107257559Y-117709000D01*
X107429312Y-117674836D01*
X107591099Y-117607821D01*
X107736704Y-117510531D01*
X107860531Y-117386704D01*
X107957821Y-117241099D01*
X108024836Y-117079312D01*
X108059000Y-116907559D01*
X108059000Y-116732441D01*
X108024836Y-116560688D01*
X107957821Y-116398901D01*
X107860531Y-116253296D01*
X107736704Y-116129469D01*
X107591099Y-116032179D01*
X107585839Y-116030000D01*
X110986928Y-116030000D01*
X110990000Y-117724250D01*
X111148750Y-117883000D01*
X113083000Y-117883000D01*
X113083000Y-115553750D01*
X113337000Y-115553750D01*
X113337000Y-117883000D01*
X115271250Y-117883000D01*
X115430000Y-117724250D01*
X115433072Y-116030000D01*
X115420812Y-115905518D01*
X115384502Y-115785820D01*
X115325537Y-115675506D01*
X115246185Y-115578815D01*
X115149494Y-115499463D01*
X115039180Y-115440498D01*
X114919482Y-115404188D01*
X114795000Y-115391928D01*
X113495750Y-115395000D01*
X113337000Y-115553750D01*
X113083000Y-115553750D01*
X112924250Y-115395000D01*
X111625000Y-115391928D01*
X111500518Y-115404188D01*
X111380820Y-115440498D01*
X111270506Y-115499463D01*
X111173815Y-115578815D01*
X111094463Y-115675506D01*
X111035498Y-115785820D01*
X110999188Y-115905518D01*
X110986928Y-116030000D01*
X107585839Y-116030000D01*
X107429312Y-115965164D01*
X107257559Y-115931000D01*
X107082441Y-115931000D01*
X106910688Y-115965164D01*
X106748901Y-116032179D01*
X106603296Y-116129469D01*
X106479469Y-116253296D01*
X106382179Y-116398901D01*
X106315164Y-116560688D01*
X106281000Y-116732441D01*
X101958467Y-116732441D01*
X100952138Y-115643801D01*
X100011354Y-114406608D01*
X99193482Y-113084940D01*
X98506051Y-111690968D01*
X98113596Y-110655100D01*
X98207759Y-110655100D01*
X98379512Y-110620936D01*
X98541299Y-110553921D01*
X98655971Y-110477300D01*
X103411016Y-110477300D01*
X103392174Y-110522788D01*
X103358010Y-110694541D01*
X103358010Y-110827555D01*
X103284369Y-110901196D01*
X103187079Y-111046801D01*
X103120064Y-111208588D01*
X103085900Y-111380341D01*
X103085900Y-111555459D01*
X103120064Y-111727212D01*
X103187079Y-111888999D01*
X103284369Y-112034604D01*
X103408196Y-112158431D01*
X103553801Y-112255721D01*
X103715588Y-112322736D01*
X103887341Y-112356900D01*
X104062459Y-112356900D01*
X104234212Y-112322736D01*
X104395999Y-112255721D01*
X104510671Y-112179100D01*
X106517693Y-112179100D01*
X106549064Y-112336812D01*
X106616079Y-112498599D01*
X106713369Y-112644204D01*
X106837196Y-112768031D01*
X106982801Y-112865321D01*
X107144588Y-112932336D01*
X107316341Y-112966500D01*
X107491459Y-112966500D01*
X107663212Y-112932336D01*
X107824999Y-112865321D01*
X107939671Y-112788700D01*
X112766729Y-112788700D01*
X112881401Y-112865321D01*
X113043188Y-112932336D01*
X113214941Y-112966500D01*
X113390059Y-112966500D01*
X113561812Y-112932336D01*
X113723599Y-112865321D01*
X113869204Y-112768031D01*
X113993031Y-112644204D01*
X114090321Y-112498599D01*
X114157336Y-112336812D01*
X114191500Y-112165059D01*
X114191500Y-111989941D01*
X114157336Y-111818188D01*
X114090321Y-111656401D01*
X113993031Y-111510796D01*
X113869204Y-111386969D01*
X113723599Y-111289679D01*
X113561812Y-111222664D01*
X113390059Y-111188500D01*
X113214941Y-111188500D01*
X113043188Y-111222664D01*
X112881401Y-111289679D01*
X112766729Y-111366300D01*
X112168099Y-111366300D01*
X112192221Y-111330199D01*
X112259236Y-111168412D01*
X112293400Y-110996659D01*
X112293400Y-110821541D01*
X112277855Y-110743390D01*
X123124664Y-110743390D01*
X123216788Y-111006358D01*
X123363644Y-111257693D01*
X123556711Y-111475549D01*
X123788570Y-111651553D01*
X124050310Y-111778942D01*
X124331873Y-111852820D01*
X124564140Y-111712665D01*
X124564140Y-110513500D01*
X124818140Y-110513500D01*
X124818140Y-111712665D01*
X125050407Y-111852820D01*
X125331970Y-111778942D01*
X125593710Y-111651553D01*
X125825569Y-111475549D01*
X126018636Y-111257693D01*
X126165492Y-111006358D01*
X126257616Y-110743390D01*
X126136295Y-110513500D01*
X124818140Y-110513500D01*
X124564140Y-110513500D01*
X123245985Y-110513500D01*
X123124664Y-110743390D01*
X112277855Y-110743390D01*
X112259236Y-110649788D01*
X112192221Y-110488001D01*
X112094931Y-110342396D01*
X111971104Y-110218569D01*
X111825499Y-110121279D01*
X111663712Y-110054264D01*
X111491959Y-110020100D01*
X111316841Y-110020100D01*
X111145088Y-110054264D01*
X110983301Y-110121279D01*
X110868629Y-110197900D01*
X108861676Y-110197900D01*
X108877100Y-110120359D01*
X108877100Y-109945241D01*
X108842936Y-109773488D01*
X108775921Y-109611701D01*
X108678631Y-109466096D01*
X108554804Y-109342269D01*
X108409199Y-109244979D01*
X108247412Y-109177964D01*
X108075659Y-109143800D01*
X108065865Y-109143800D01*
X107994881Y-109105858D01*
X107860820Y-109065191D01*
X107756336Y-109054900D01*
X107756326Y-109054900D01*
X107721400Y-109051460D01*
X107686474Y-109054900D01*
X99822000Y-109054900D01*
X99822000Y-109018141D01*
X99787836Y-108846388D01*
X99720821Y-108684601D01*
X99623531Y-108538996D01*
X99499704Y-108415169D01*
X99354099Y-108317879D01*
X99192312Y-108250864D01*
X99020559Y-108216700D01*
X98845441Y-108216700D01*
X98673688Y-108250864D01*
X98511901Y-108317879D01*
X98366296Y-108415169D01*
X98242469Y-108538996D01*
X98145179Y-108684601D01*
X98078164Y-108846388D01*
X98072055Y-108877100D01*
X98032641Y-108877100D01*
X97860888Y-108911264D01*
X97699101Y-108978279D01*
X97625490Y-109027464D01*
X97546572Y-108737997D01*
X97283359Y-107206188D01*
X97168176Y-105656203D01*
X97173082Y-105431341D01*
X100375400Y-105431341D01*
X100375400Y-105606459D01*
X100409564Y-105778212D01*
X100476579Y-105939999D01*
X100573869Y-106085604D01*
X100697696Y-106209431D01*
X100843301Y-106306721D01*
X101005088Y-106373736D01*
X101176841Y-106407900D01*
X101205704Y-106407900D01*
X101185696Y-106421269D01*
X101061869Y-106545096D01*
X100964579Y-106690701D01*
X100897564Y-106852488D01*
X100863400Y-107024241D01*
X100863400Y-107199359D01*
X100897564Y-107371112D01*
X100964579Y-107532899D01*
X101061869Y-107678504D01*
X101185696Y-107802331D01*
X101331301Y-107899621D01*
X101493088Y-107966636D01*
X101664841Y-108000800D01*
X101839959Y-108000800D01*
X101871000Y-107994626D01*
X101871000Y-108087559D01*
X101905164Y-108259312D01*
X101972179Y-108421099D01*
X102069469Y-108566704D01*
X102193296Y-108690531D01*
X102338901Y-108787821D01*
X102500688Y-108854836D01*
X102672441Y-108889000D01*
X102847559Y-108889000D01*
X103019312Y-108854836D01*
X103181099Y-108787821D01*
X103326704Y-108690531D01*
X103450531Y-108566704D01*
X103547821Y-108421099D01*
X103556064Y-108401200D01*
X108574229Y-108401200D01*
X108688901Y-108477821D01*
X108850688Y-108544836D01*
X109022441Y-108579000D01*
X109197559Y-108579000D01*
X109369312Y-108544836D01*
X109531099Y-108477821D01*
X109676704Y-108380531D01*
X109800531Y-108256704D01*
X109897821Y-108111099D01*
X109964836Y-107949312D01*
X109989961Y-107823000D01*
X110125636Y-107823000D01*
X110221301Y-107886921D01*
X110383088Y-107953936D01*
X110554841Y-107988100D01*
X110729959Y-107988100D01*
X110901712Y-107953936D01*
X111063499Y-107886921D01*
X111209104Y-107789631D01*
X111332931Y-107665804D01*
X111430221Y-107520199D01*
X111497236Y-107358412D01*
X111531400Y-107186659D01*
X111531400Y-107103100D01*
X115730457Y-107103100D01*
X115838041Y-107124500D01*
X116013159Y-107124500D01*
X116184912Y-107090336D01*
X116346699Y-107023321D01*
X116492304Y-106926031D01*
X116616131Y-106802204D01*
X116713421Y-106656599D01*
X116780436Y-106494812D01*
X116814600Y-106323059D01*
X116814600Y-106147941D01*
X116780436Y-105976188D01*
X116713421Y-105814401D01*
X116616131Y-105668796D01*
X116492304Y-105544969D01*
X116346699Y-105447679D01*
X116184912Y-105380664D01*
X116019233Y-105347708D01*
X116043836Y-105288312D01*
X116078000Y-105116559D01*
X116078000Y-104941441D01*
X116043836Y-104769688D01*
X115976821Y-104607901D01*
X115900200Y-104493229D01*
X115900200Y-104269371D01*
X115976821Y-104154699D01*
X116043836Y-103992912D01*
X116078000Y-103821159D01*
X116078000Y-103664863D01*
X121456140Y-103664863D01*
X121456140Y-103908137D01*
X121503600Y-104146736D01*
X121596697Y-104371492D01*
X121731853Y-104573767D01*
X121903873Y-104745787D01*
X122106148Y-104880943D01*
X122330904Y-104974040D01*
X122569503Y-105021500D01*
X122812777Y-105021500D01*
X123051376Y-104974040D01*
X123078068Y-104962984D01*
X123078068Y-105986500D01*
X123095132Y-106159754D01*
X123145668Y-106326350D01*
X123227735Y-106479886D01*
X123338178Y-106614462D01*
X123472754Y-106724905D01*
X123574477Y-106779277D01*
X123511006Y-106831366D01*
X123325434Y-107057486D01*
X123187541Y-107315466D01*
X123102627Y-107595389D01*
X123073955Y-107886500D01*
X123102627Y-108177611D01*
X123187541Y-108457534D01*
X123325434Y-108715514D01*
X123511006Y-108941634D01*
X123737126Y-109127206D01*
X123762862Y-109140962D01*
X123556711Y-109297451D01*
X123363644Y-109515307D01*
X123216788Y-109766642D01*
X123124664Y-110029610D01*
X123245985Y-110259500D01*
X124564140Y-110259500D01*
X124564140Y-110239500D01*
X124818140Y-110239500D01*
X124818140Y-110259500D01*
X126136295Y-110259500D01*
X126257616Y-110029610D01*
X126165492Y-109766642D01*
X126018636Y-109515307D01*
X125825569Y-109297451D01*
X125619418Y-109140962D01*
X125645154Y-109127206D01*
X125871274Y-108941634D01*
X126056846Y-108715514D01*
X126194739Y-108457534D01*
X126279653Y-108177611D01*
X126308325Y-107886500D01*
X126279653Y-107595389D01*
X126194739Y-107315466D01*
X126056846Y-107057486D01*
X125871274Y-106831366D01*
X125807803Y-106779277D01*
X125909526Y-106724905D01*
X126044102Y-106614462D01*
X126154545Y-106479886D01*
X126236612Y-106326350D01*
X126287148Y-106159754D01*
X126304212Y-105986500D01*
X126304212Y-104786500D01*
X126287148Y-104613246D01*
X126236612Y-104446650D01*
X126154545Y-104293114D01*
X126044102Y-104158538D01*
X125909526Y-104048095D01*
X125755990Y-103966028D01*
X125589394Y-103915492D01*
X125416140Y-103898428D01*
X123966140Y-103898428D01*
X123926140Y-103902368D01*
X123926140Y-103664863D01*
X123878680Y-103426264D01*
X123785583Y-103201508D01*
X123650427Y-102999233D01*
X123478407Y-102827213D01*
X123276132Y-102692057D01*
X123051376Y-102598960D01*
X122812777Y-102551500D01*
X122569503Y-102551500D01*
X122330904Y-102598960D01*
X122106148Y-102692057D01*
X121903873Y-102827213D01*
X121731853Y-102999233D01*
X121596697Y-103201508D01*
X121503600Y-103426264D01*
X121456140Y-103664863D01*
X116078000Y-103664863D01*
X116078000Y-103646041D01*
X116043836Y-103474288D01*
X115976821Y-103312501D01*
X115879531Y-103166896D01*
X115755704Y-103043069D01*
X115610099Y-102945779D01*
X115448312Y-102878764D01*
X115276559Y-102844600D01*
X115101441Y-102844600D01*
X114929688Y-102878764D01*
X114767901Y-102945779D01*
X114622296Y-103043069D01*
X114498469Y-103166896D01*
X114401179Y-103312501D01*
X114334164Y-103474288D01*
X114300000Y-103646041D01*
X114300000Y-103821159D01*
X114334164Y-103992912D01*
X114401179Y-104154699D01*
X114477801Y-104269371D01*
X114477800Y-104493229D01*
X114401179Y-104607901D01*
X114334164Y-104769688D01*
X114300000Y-104941441D01*
X114300000Y-105116559D01*
X114334164Y-105288312D01*
X114401179Y-105450099D01*
X114498469Y-105595704D01*
X114583465Y-105680700D01*
X112190884Y-105680700D01*
X112192221Y-105678699D01*
X112259236Y-105516912D01*
X112293400Y-105345159D01*
X112293400Y-105170041D01*
X112259236Y-104998288D01*
X112192221Y-104836501D01*
X112094931Y-104690896D01*
X111971104Y-104567069D01*
X111825499Y-104469779D01*
X111663712Y-104402764D01*
X111491959Y-104368600D01*
X111316841Y-104368600D01*
X111145088Y-104402764D01*
X110983301Y-104469779D01*
X110837696Y-104567069D01*
X110713869Y-104690896D01*
X110635823Y-104807700D01*
X101800171Y-104807700D01*
X101685499Y-104731079D01*
X101523712Y-104664064D01*
X101351959Y-104629900D01*
X101176841Y-104629900D01*
X101005088Y-104664064D01*
X100843301Y-104731079D01*
X100697696Y-104828369D01*
X100573869Y-104952196D01*
X100476579Y-105097801D01*
X100409564Y-105259588D01*
X100375400Y-105431341D01*
X97173082Y-105431341D01*
X97202081Y-104102314D01*
X97384765Y-102558829D01*
X97714544Y-101039959D01*
X97988745Y-100183356D01*
X97988745Y-100206628D01*
X98022909Y-100378381D01*
X98089924Y-100540168D01*
X98166545Y-100654840D01*
X98166546Y-101901497D01*
X98072616Y-101964259D01*
X97948789Y-102088086D01*
X97851499Y-102233691D01*
X97784484Y-102395478D01*
X97750320Y-102567231D01*
X97750320Y-102742349D01*
X97784484Y-102914102D01*
X97851499Y-103075889D01*
X97948789Y-103221494D01*
X98072616Y-103345321D01*
X98218221Y-103442611D01*
X98380008Y-103509626D01*
X98551761Y-103543790D01*
X98726879Y-103543790D01*
X98898632Y-103509626D01*
X99060419Y-103442611D01*
X99206024Y-103345321D01*
X99329851Y-103221494D01*
X99427141Y-103075889D01*
X99494156Y-102914102D01*
X99528320Y-102742349D01*
X99528320Y-102707932D01*
X99537987Y-102689846D01*
X99578654Y-102555785D01*
X99588945Y-102451301D01*
X99588945Y-102451294D01*
X99592385Y-102416365D01*
X99588945Y-102381437D01*
X99588945Y-101003369D01*
X99634218Y-101033619D01*
X99796005Y-101100634D01*
X99967758Y-101134798D01*
X100142876Y-101134798D01*
X100314629Y-101100634D01*
X100476416Y-101033619D01*
X100598119Y-100952300D01*
X105511600Y-100952300D01*
X105511600Y-101027159D01*
X105545764Y-101198912D01*
X105612779Y-101360699D01*
X105710069Y-101506304D01*
X105833896Y-101630131D01*
X105979501Y-101727421D01*
X106141288Y-101794436D01*
X106276555Y-101821342D01*
X106944204Y-102488992D01*
X106966474Y-102516128D01*
X107074768Y-102605003D01*
X107198320Y-102671043D01*
X107332381Y-102711710D01*
X107436865Y-102722001D01*
X107436872Y-102722001D01*
X107471801Y-102725441D01*
X107506729Y-102722001D01*
X115863428Y-102722001D01*
X115978100Y-102798622D01*
X116139887Y-102865637D01*
X116311640Y-102899801D01*
X116486758Y-102899801D01*
X116658511Y-102865637D01*
X116820298Y-102798622D01*
X116965903Y-102701332D01*
X117089730Y-102577505D01*
X117187020Y-102431900D01*
X117254035Y-102270113D01*
X117288199Y-102098360D01*
X117288199Y-101923242D01*
X117254035Y-101751489D01*
X117187020Y-101589702D01*
X117089730Y-101444097D01*
X116965903Y-101320270D01*
X116820298Y-101222980D01*
X116658511Y-101155965D01*
X116486758Y-101121801D01*
X116311640Y-101121801D01*
X116139887Y-101155965D01*
X115978100Y-101222980D01*
X115863428Y-101299601D01*
X107766389Y-101299601D01*
X107419087Y-100952300D01*
X119951129Y-100952300D01*
X120065801Y-101028921D01*
X120227588Y-101095936D01*
X120399341Y-101130100D01*
X120574459Y-101130100D01*
X120746212Y-101095936D01*
X120907999Y-101028921D01*
X121053604Y-100931631D01*
X121177431Y-100807804D01*
X121274721Y-100662199D01*
X121341736Y-100500412D01*
X121375900Y-100328659D01*
X121375900Y-100153541D01*
X121341736Y-99981788D01*
X121274721Y-99820001D01*
X121177431Y-99674396D01*
X121053604Y-99550569D01*
X120907999Y-99453279D01*
X120746212Y-99386264D01*
X120574459Y-99352100D01*
X120399341Y-99352100D01*
X120227588Y-99386264D01*
X120212125Y-99392669D01*
X120239000Y-99257559D01*
X120239000Y-99082441D01*
X120204836Y-98910688D01*
X120137821Y-98748901D01*
X120040531Y-98603296D01*
X119916704Y-98479469D01*
X119771099Y-98382179D01*
X119609312Y-98315164D01*
X119437559Y-98281000D01*
X119262441Y-98281000D01*
X119090688Y-98315164D01*
X118928901Y-98382179D01*
X118783296Y-98479469D01*
X118659469Y-98603296D01*
X118562179Y-98748901D01*
X118495164Y-98910688D01*
X118470741Y-99033472D01*
X118456922Y-99047290D01*
X105468287Y-99047290D01*
X105534831Y-98947699D01*
X105601846Y-98785912D01*
X105630691Y-98640900D01*
X106652229Y-98640900D01*
X106766901Y-98717521D01*
X106928688Y-98784536D01*
X107100441Y-98818700D01*
X107275559Y-98818700D01*
X107447312Y-98784536D01*
X107609099Y-98717521D01*
X107754704Y-98620231D01*
X107878531Y-98496404D01*
X107975821Y-98350799D01*
X108042836Y-98189012D01*
X108077000Y-98017259D01*
X108077000Y-97842141D01*
X108042836Y-97670388D01*
X107976649Y-97510600D01*
X108778674Y-97510600D01*
X108813600Y-97514040D01*
X108848526Y-97510600D01*
X108848536Y-97510600D01*
X108953020Y-97500309D01*
X109087081Y-97459642D01*
X109158065Y-97421700D01*
X109167859Y-97421700D01*
X109339612Y-97387536D01*
X109501399Y-97320521D01*
X109647004Y-97223231D01*
X109770831Y-97099404D01*
X109868121Y-96953799D01*
X109935136Y-96792012D01*
X109969300Y-96620259D01*
X109969300Y-96445141D01*
X109935136Y-96273388D01*
X109868121Y-96111601D01*
X109770831Y-95965996D01*
X109647004Y-95842169D01*
X109501399Y-95744879D01*
X109339612Y-95677864D01*
X109167859Y-95643700D01*
X108992741Y-95643700D01*
X108820988Y-95677864D01*
X108659201Y-95744879D01*
X108513596Y-95842169D01*
X108389769Y-95965996D01*
X108308115Y-96088200D01*
X107431671Y-96088200D01*
X107316999Y-96011579D01*
X107155212Y-95944564D01*
X106983459Y-95910400D01*
X106808341Y-95910400D01*
X106636588Y-95944564D01*
X106474801Y-96011579D01*
X106329196Y-96108869D01*
X106205369Y-96232696D01*
X106108079Y-96378301D01*
X106041064Y-96540088D01*
X106006900Y-96711841D01*
X106006900Y-96886959D01*
X106041064Y-97058712D01*
X106107251Y-97218500D01*
X105125419Y-97218500D01*
X105121836Y-97200488D01*
X105054821Y-97038701D01*
X104957531Y-96893096D01*
X104833704Y-96769269D01*
X104688099Y-96671979D01*
X104526312Y-96604964D01*
X104354559Y-96570800D01*
X104179441Y-96570800D01*
X104007688Y-96604964D01*
X103845901Y-96671979D01*
X103731229Y-96748600D01*
X103514517Y-96748600D01*
X103479599Y-96745161D01*
X103444681Y-96748600D01*
X103444664Y-96748600D01*
X103340180Y-96758891D01*
X103206119Y-96799558D01*
X103082567Y-96865598D01*
X103001408Y-96932203D01*
X103001404Y-96932207D01*
X102974273Y-96954473D01*
X102952007Y-96981604D01*
X101882355Y-98051258D01*
X101747088Y-98078164D01*
X101585301Y-98145179D01*
X101439696Y-98242469D01*
X101315869Y-98366296D01*
X101218579Y-98511901D01*
X101151564Y-98673688D01*
X101134057Y-98761702D01*
X100999578Y-98705998D01*
X100827825Y-98671834D01*
X100652707Y-98671834D01*
X100480954Y-98705998D01*
X100319167Y-98773013D01*
X100173562Y-98870303D01*
X100049735Y-98994130D01*
X99952445Y-99139735D01*
X99885430Y-99301522D01*
X99870590Y-99376126D01*
X99796005Y-99390962D01*
X99634218Y-99457977D01*
X99538107Y-99522196D01*
X99444449Y-99428538D01*
X99298844Y-99331248D01*
X99137057Y-99264233D01*
X98965304Y-99230069D01*
X98790186Y-99230069D01*
X98618433Y-99264233D01*
X98456646Y-99331248D01*
X98311041Y-99428538D01*
X98194779Y-99544800D01*
X98801916Y-98131650D01*
X99549497Y-96768990D01*
X100424241Y-95484256D01*
X101418095Y-94289277D01*
X101742501Y-93967689D01*
X101754625Y-94028640D01*
X101734969Y-94048296D01*
X101637679Y-94193901D01*
X101570664Y-94355688D01*
X101536500Y-94527441D01*
X101536500Y-94702559D01*
X101570664Y-94874312D01*
X101637679Y-95036099D01*
X101734969Y-95181704D01*
X101858796Y-95305531D01*
X102004401Y-95402821D01*
X102166188Y-95469836D01*
X102337941Y-95504000D01*
X102513059Y-95504000D01*
X102684812Y-95469836D01*
X102846599Y-95402821D01*
X102992204Y-95305531D01*
X103116031Y-95181704D01*
X103213321Y-95036099D01*
X103280336Y-94874312D01*
X103314500Y-94702559D01*
X103314500Y-94527441D01*
X103311707Y-94513400D01*
X107373266Y-94513400D01*
X107416179Y-94616999D01*
X107513469Y-94762604D01*
X107637296Y-94886431D01*
X107782901Y-94983721D01*
X107944688Y-95050736D01*
X108116441Y-95084900D01*
X108291559Y-95084900D01*
X108463312Y-95050736D01*
X108625099Y-94983721D01*
X108770704Y-94886431D01*
X108894531Y-94762604D01*
X108991821Y-94616999D01*
X109058836Y-94455212D01*
X109093000Y-94283459D01*
X109093000Y-94230000D01*
X110986928Y-94230000D01*
X110986928Y-98190000D01*
X110999188Y-98314482D01*
X111035498Y-98434180D01*
X111094463Y-98544494D01*
X111173815Y-98641185D01*
X111270506Y-98720537D01*
X111380820Y-98779502D01*
X111500518Y-98815812D01*
X111625000Y-98828072D01*
X114795000Y-98828072D01*
X114919482Y-98815812D01*
X115039180Y-98779502D01*
X115149494Y-98720537D01*
X115246185Y-98641185D01*
X115325537Y-98544494D01*
X115384502Y-98434180D01*
X115420812Y-98314482D01*
X115433072Y-98190000D01*
X115433072Y-96967154D01*
X115508901Y-97017821D01*
X115670688Y-97084836D01*
X115842441Y-97119000D01*
X116017559Y-97119000D01*
X116189312Y-97084836D01*
X116351099Y-97017821D01*
X116496704Y-96920531D01*
X116620531Y-96796704D01*
X116717821Y-96651099D01*
X116784836Y-96489312D01*
X116819000Y-96317559D01*
X116819000Y-96142441D01*
X116784836Y-95970688D01*
X116717821Y-95808901D01*
X116620531Y-95663296D01*
X116496704Y-95539469D01*
X116351099Y-95442179D01*
X116189312Y-95375164D01*
X116017559Y-95341000D01*
X115842441Y-95341000D01*
X115670688Y-95375164D01*
X115508901Y-95442179D01*
X115433072Y-95492846D01*
X115433072Y-94230000D01*
X115420812Y-94105518D01*
X115384502Y-93985820D01*
X115325537Y-93875506D01*
X115246185Y-93778815D01*
X115149494Y-93699463D01*
X115083562Y-93664221D01*
X115176721Y-93524799D01*
X115243736Y-93363012D01*
X115277900Y-93191259D01*
X115277900Y-93016141D01*
X115243736Y-92844388D01*
X115176721Y-92682601D01*
X115079431Y-92536996D01*
X114955604Y-92413169D01*
X114809999Y-92315879D01*
X114648212Y-92248864D01*
X114476459Y-92214700D01*
X114301341Y-92214700D01*
X114129588Y-92248864D01*
X113967801Y-92315879D01*
X113822196Y-92413169D01*
X113698369Y-92536996D01*
X113601079Y-92682601D01*
X113534064Y-92844388D01*
X113499900Y-93016141D01*
X113499900Y-93191259D01*
X113534064Y-93363012D01*
X113601079Y-93524799D01*
X113645933Y-93591928D01*
X111625000Y-93591928D01*
X111500518Y-93604188D01*
X111380820Y-93640498D01*
X111270506Y-93699463D01*
X111173815Y-93778815D01*
X111094463Y-93875506D01*
X111035498Y-93985820D01*
X110999188Y-94105518D01*
X110986928Y-94230000D01*
X109093000Y-94230000D01*
X109093000Y-94108341D01*
X109058836Y-93936588D01*
X108991821Y-93774801D01*
X108894531Y-93629196D01*
X108770704Y-93505369D01*
X108625099Y-93408079D01*
X108463312Y-93341064D01*
X108330157Y-93314578D01*
X108315627Y-93296873D01*
X108207333Y-93207998D01*
X108083781Y-93141958D01*
X107949720Y-93101291D01*
X107845236Y-93091000D01*
X107845226Y-93091000D01*
X107810300Y-93087560D01*
X107775374Y-93091000D01*
X103151771Y-93091000D01*
X103037099Y-93014379D01*
X102875312Y-92947364D01*
X102834904Y-92939326D01*
X103725513Y-92211668D01*
X105017832Y-91348168D01*
X106386964Y-90612507D01*
X107820303Y-90011458D01*
X109304651Y-89550556D01*
X110826341Y-89234044D01*
X112371362Y-89064837D01*
X113925487Y-89044492D01*
X115474408Y-89173197D01*
X115474408Y-89173197D01*
G37*
X115474408Y-89173197D02*
X117003862Y-89449768D01*
X118499766Y-89871656D01*
X119948347Y-90434979D01*
X121336268Y-91134548D01*
X122650747Y-91963923D01*
X123879683Y-92915467D01*
X125011760Y-93980419D01*
X126036554Y-95148972D01*
X126944629Y-96410368D01*
X127727624Y-97752992D01*
X128378330Y-99164482D01*
X128890755Y-100631840D01*
X129260180Y-102141557D01*
X129483205Y-103679731D01*
X129557775Y-105232200D01*
X129542358Y-105938728D01*
X129400141Y-107486467D01*
X129110235Y-109013449D01*
X128675308Y-110505615D01*
X128099366Y-111949225D01*
X127387711Y-113330987D01*
X126546897Y-114638180D01*
X125584665Y-115858765D01*
X124509875Y-116981506D01*
X123332423Y-117996063D01*
X122063151Y-118893096D01*
X120713745Y-119664345D01*
X119296631Y-120302708D01*
X117824857Y-120802308D01*
X116311974Y-121158545D01*
X114771912Y-121368138D01*
X113218851Y-121429158D01*
X111667092Y-121341043D01*
X110130923Y-121104604D01*
X108624487Y-120722018D01*
X107161656Y-120196808D01*
X106723161Y-119990000D01*
X110986928Y-119990000D01*
X110999188Y-120114482D01*
X111035498Y-120234180D01*
X111094463Y-120344494D01*
X111173815Y-120441185D01*
X111270506Y-120520537D01*
X111380820Y-120579502D01*
X111500518Y-120615812D01*
X111625000Y-120628072D01*
X112924250Y-120625000D01*
X113083000Y-120466250D01*
X113083000Y-118137000D01*
X113337000Y-118137000D01*
X113337000Y-120466250D01*
X113495750Y-120625000D01*
X114795000Y-120628072D01*
X114919482Y-120615812D01*
X115039180Y-120579502D01*
X115149494Y-120520537D01*
X115246185Y-120441185D01*
X115325537Y-120344494D01*
X115384502Y-120234180D01*
X115420812Y-120114482D01*
X115433072Y-119990000D01*
X115430000Y-118295750D01*
X115271250Y-118137000D01*
X113337000Y-118137000D01*
X113083000Y-118137000D01*
X111148750Y-118137000D01*
X110990000Y-118295750D01*
X110986928Y-119990000D01*
X106723161Y-119990000D01*
X105755899Y-119533810D01*
X104420159Y-118739128D01*
X103166736Y-117820080D01*
X102007170Y-116785128D01*
X101958467Y-116732441D01*
X106281000Y-116732441D01*
X106281000Y-116907559D01*
X106315164Y-117079312D01*
X106382179Y-117241099D01*
X106479469Y-117386704D01*
X106603296Y-117510531D01*
X106748901Y-117607821D01*
X106910688Y-117674836D01*
X107082441Y-117709000D01*
X107257559Y-117709000D01*
X107429312Y-117674836D01*
X107591099Y-117607821D01*
X107736704Y-117510531D01*
X107860531Y-117386704D01*
X107957821Y-117241099D01*
X108024836Y-117079312D01*
X108059000Y-116907559D01*
X108059000Y-116732441D01*
X108024836Y-116560688D01*
X107957821Y-116398901D01*
X107860531Y-116253296D01*
X107736704Y-116129469D01*
X107591099Y-116032179D01*
X107585839Y-116030000D01*
X110986928Y-116030000D01*
X110990000Y-117724250D01*
X111148750Y-117883000D01*
X113083000Y-117883000D01*
X113083000Y-115553750D01*
X113337000Y-115553750D01*
X113337000Y-117883000D01*
X115271250Y-117883000D01*
X115430000Y-117724250D01*
X115433072Y-116030000D01*
X115420812Y-115905518D01*
X115384502Y-115785820D01*
X115325537Y-115675506D01*
X115246185Y-115578815D01*
X115149494Y-115499463D01*
X115039180Y-115440498D01*
X114919482Y-115404188D01*
X114795000Y-115391928D01*
X113495750Y-115395000D01*
X113337000Y-115553750D01*
X113083000Y-115553750D01*
X112924250Y-115395000D01*
X111625000Y-115391928D01*
X111500518Y-115404188D01*
X111380820Y-115440498D01*
X111270506Y-115499463D01*
X111173815Y-115578815D01*
X111094463Y-115675506D01*
X111035498Y-115785820D01*
X110999188Y-115905518D01*
X110986928Y-116030000D01*
X107585839Y-116030000D01*
X107429312Y-115965164D01*
X107257559Y-115931000D01*
X107082441Y-115931000D01*
X106910688Y-115965164D01*
X106748901Y-116032179D01*
X106603296Y-116129469D01*
X106479469Y-116253296D01*
X106382179Y-116398901D01*
X106315164Y-116560688D01*
X106281000Y-116732441D01*
X101958467Y-116732441D01*
X100952138Y-115643801D01*
X100011354Y-114406608D01*
X99193482Y-113084940D01*
X98506051Y-111690968D01*
X98113596Y-110655100D01*
X98207759Y-110655100D01*
X98379512Y-110620936D01*
X98541299Y-110553921D01*
X98655971Y-110477300D01*
X103411016Y-110477300D01*
X103392174Y-110522788D01*
X103358010Y-110694541D01*
X103358010Y-110827555D01*
X103284369Y-110901196D01*
X103187079Y-111046801D01*
X103120064Y-111208588D01*
X103085900Y-111380341D01*
X103085900Y-111555459D01*
X103120064Y-111727212D01*
X103187079Y-111888999D01*
X103284369Y-112034604D01*
X103408196Y-112158431D01*
X103553801Y-112255721D01*
X103715588Y-112322736D01*
X103887341Y-112356900D01*
X104062459Y-112356900D01*
X104234212Y-112322736D01*
X104395999Y-112255721D01*
X104510671Y-112179100D01*
X106517693Y-112179100D01*
X106549064Y-112336812D01*
X106616079Y-112498599D01*
X106713369Y-112644204D01*
X106837196Y-112768031D01*
X106982801Y-112865321D01*
X107144588Y-112932336D01*
X107316341Y-112966500D01*
X107491459Y-112966500D01*
X107663212Y-112932336D01*
X107824999Y-112865321D01*
X107939671Y-112788700D01*
X112766729Y-112788700D01*
X112881401Y-112865321D01*
X113043188Y-112932336D01*
X113214941Y-112966500D01*
X113390059Y-112966500D01*
X113561812Y-112932336D01*
X113723599Y-112865321D01*
X113869204Y-112768031D01*
X113993031Y-112644204D01*
X114090321Y-112498599D01*
X114157336Y-112336812D01*
X114191500Y-112165059D01*
X114191500Y-111989941D01*
X114157336Y-111818188D01*
X114090321Y-111656401D01*
X113993031Y-111510796D01*
X113869204Y-111386969D01*
X113723599Y-111289679D01*
X113561812Y-111222664D01*
X113390059Y-111188500D01*
X113214941Y-111188500D01*
X113043188Y-111222664D01*
X112881401Y-111289679D01*
X112766729Y-111366300D01*
X112168099Y-111366300D01*
X112192221Y-111330199D01*
X112259236Y-111168412D01*
X112293400Y-110996659D01*
X112293400Y-110821541D01*
X112277855Y-110743390D01*
X123124664Y-110743390D01*
X123216788Y-111006358D01*
X123363644Y-111257693D01*
X123556711Y-111475549D01*
X123788570Y-111651553D01*
X124050310Y-111778942D01*
X124331873Y-111852820D01*
X124564140Y-111712665D01*
X124564140Y-110513500D01*
X124818140Y-110513500D01*
X124818140Y-111712665D01*
X125050407Y-111852820D01*
X125331970Y-111778942D01*
X125593710Y-111651553D01*
X125825569Y-111475549D01*
X126018636Y-111257693D01*
X126165492Y-111006358D01*
X126257616Y-110743390D01*
X126136295Y-110513500D01*
X124818140Y-110513500D01*
X124564140Y-110513500D01*
X123245985Y-110513500D01*
X123124664Y-110743390D01*
X112277855Y-110743390D01*
X112259236Y-110649788D01*
X112192221Y-110488001D01*
X112094931Y-110342396D01*
X111971104Y-110218569D01*
X111825499Y-110121279D01*
X111663712Y-110054264D01*
X111491959Y-110020100D01*
X111316841Y-110020100D01*
X111145088Y-110054264D01*
X110983301Y-110121279D01*
X110868629Y-110197900D01*
X108861676Y-110197900D01*
X108877100Y-110120359D01*
X108877100Y-109945241D01*
X108842936Y-109773488D01*
X108775921Y-109611701D01*
X108678631Y-109466096D01*
X108554804Y-109342269D01*
X108409199Y-109244979D01*
X108247412Y-109177964D01*
X108075659Y-109143800D01*
X108065865Y-109143800D01*
X107994881Y-109105858D01*
X107860820Y-109065191D01*
X107756336Y-109054900D01*
X107756326Y-109054900D01*
X107721400Y-109051460D01*
X107686474Y-109054900D01*
X99822000Y-109054900D01*
X99822000Y-109018141D01*
X99787836Y-108846388D01*
X99720821Y-108684601D01*
X99623531Y-108538996D01*
X99499704Y-108415169D01*
X99354099Y-108317879D01*
X99192312Y-108250864D01*
X99020559Y-108216700D01*
X98845441Y-108216700D01*
X98673688Y-108250864D01*
X98511901Y-108317879D01*
X98366296Y-108415169D01*
X98242469Y-108538996D01*
X98145179Y-108684601D01*
X98078164Y-108846388D01*
X98072055Y-108877100D01*
X98032641Y-108877100D01*
X97860888Y-108911264D01*
X97699101Y-108978279D01*
X97625490Y-109027464D01*
X97546572Y-108737997D01*
X97283359Y-107206188D01*
X97168176Y-105656203D01*
X97173082Y-105431341D01*
X100375400Y-105431341D01*
X100375400Y-105606459D01*
X100409564Y-105778212D01*
X100476579Y-105939999D01*
X100573869Y-106085604D01*
X100697696Y-106209431D01*
X100843301Y-106306721D01*
X101005088Y-106373736D01*
X101176841Y-106407900D01*
X101205704Y-106407900D01*
X101185696Y-106421269D01*
X101061869Y-106545096D01*
X100964579Y-106690701D01*
X100897564Y-106852488D01*
X100863400Y-107024241D01*
X100863400Y-107199359D01*
X100897564Y-107371112D01*
X100964579Y-107532899D01*
X101061869Y-107678504D01*
X101185696Y-107802331D01*
X101331301Y-107899621D01*
X101493088Y-107966636D01*
X101664841Y-108000800D01*
X101839959Y-108000800D01*
X101871000Y-107994626D01*
X101871000Y-108087559D01*
X101905164Y-108259312D01*
X101972179Y-108421099D01*
X102069469Y-108566704D01*
X102193296Y-108690531D01*
X102338901Y-108787821D01*
X102500688Y-108854836D01*
X102672441Y-108889000D01*
X102847559Y-108889000D01*
X103019312Y-108854836D01*
X103181099Y-108787821D01*
X103326704Y-108690531D01*
X103450531Y-108566704D01*
X103547821Y-108421099D01*
X103556064Y-108401200D01*
X108574229Y-108401200D01*
X108688901Y-108477821D01*
X108850688Y-108544836D01*
X109022441Y-108579000D01*
X109197559Y-108579000D01*
X109369312Y-108544836D01*
X109531099Y-108477821D01*
X109676704Y-108380531D01*
X109800531Y-108256704D01*
X109897821Y-108111099D01*
X109964836Y-107949312D01*
X109989961Y-107823000D01*
X110125636Y-107823000D01*
X110221301Y-107886921D01*
X110383088Y-107953936D01*
X110554841Y-107988100D01*
X110729959Y-107988100D01*
X110901712Y-107953936D01*
X111063499Y-107886921D01*
X111209104Y-107789631D01*
X111332931Y-107665804D01*
X111430221Y-107520199D01*
X111497236Y-107358412D01*
X111531400Y-107186659D01*
X111531400Y-107103100D01*
X115730457Y-107103100D01*
X115838041Y-107124500D01*
X116013159Y-107124500D01*
X116184912Y-107090336D01*
X116346699Y-107023321D01*
X116492304Y-106926031D01*
X116616131Y-106802204D01*
X116713421Y-106656599D01*
X116780436Y-106494812D01*
X116814600Y-106323059D01*
X116814600Y-106147941D01*
X116780436Y-105976188D01*
X116713421Y-105814401D01*
X116616131Y-105668796D01*
X116492304Y-105544969D01*
X116346699Y-105447679D01*
X116184912Y-105380664D01*
X116019233Y-105347708D01*
X116043836Y-105288312D01*
X116078000Y-105116559D01*
X116078000Y-104941441D01*
X116043836Y-104769688D01*
X115976821Y-104607901D01*
X115900200Y-104493229D01*
X115900200Y-104269371D01*
X115976821Y-104154699D01*
X116043836Y-103992912D01*
X116078000Y-103821159D01*
X116078000Y-103664863D01*
X121456140Y-103664863D01*
X121456140Y-103908137D01*
X121503600Y-104146736D01*
X121596697Y-104371492D01*
X121731853Y-104573767D01*
X121903873Y-104745787D01*
X122106148Y-104880943D01*
X122330904Y-104974040D01*
X122569503Y-105021500D01*
X122812777Y-105021500D01*
X123051376Y-104974040D01*
X123078068Y-104962984D01*
X123078068Y-105986500D01*
X123095132Y-106159754D01*
X123145668Y-106326350D01*
X123227735Y-106479886D01*
X123338178Y-106614462D01*
X123472754Y-106724905D01*
X123574477Y-106779277D01*
X123511006Y-106831366D01*
X123325434Y-107057486D01*
X123187541Y-107315466D01*
X123102627Y-107595389D01*
X123073955Y-107886500D01*
X123102627Y-108177611D01*
X123187541Y-108457534D01*
X123325434Y-108715514D01*
X123511006Y-108941634D01*
X123737126Y-109127206D01*
X123762862Y-109140962D01*
X123556711Y-109297451D01*
X123363644Y-109515307D01*
X123216788Y-109766642D01*
X123124664Y-110029610D01*
X123245985Y-110259500D01*
X124564140Y-110259500D01*
X124564140Y-110239500D01*
X124818140Y-110239500D01*
X124818140Y-110259500D01*
X126136295Y-110259500D01*
X126257616Y-110029610D01*
X126165492Y-109766642D01*
X126018636Y-109515307D01*
X125825569Y-109297451D01*
X125619418Y-109140962D01*
X125645154Y-109127206D01*
X125871274Y-108941634D01*
X126056846Y-108715514D01*
X126194739Y-108457534D01*
X126279653Y-108177611D01*
X126308325Y-107886500D01*
X126279653Y-107595389D01*
X126194739Y-107315466D01*
X126056846Y-107057486D01*
X125871274Y-106831366D01*
X125807803Y-106779277D01*
X125909526Y-106724905D01*
X126044102Y-106614462D01*
X126154545Y-106479886D01*
X126236612Y-106326350D01*
X126287148Y-106159754D01*
X126304212Y-105986500D01*
X126304212Y-104786500D01*
X126287148Y-104613246D01*
X126236612Y-104446650D01*
X126154545Y-104293114D01*
X126044102Y-104158538D01*
X125909526Y-104048095D01*
X125755990Y-103966028D01*
X125589394Y-103915492D01*
X125416140Y-103898428D01*
X123966140Y-103898428D01*
X123926140Y-103902368D01*
X123926140Y-103664863D01*
X123878680Y-103426264D01*
X123785583Y-103201508D01*
X123650427Y-102999233D01*
X123478407Y-102827213D01*
X123276132Y-102692057D01*
X123051376Y-102598960D01*
X122812777Y-102551500D01*
X122569503Y-102551500D01*
X122330904Y-102598960D01*
X122106148Y-102692057D01*
X121903873Y-102827213D01*
X121731853Y-102999233D01*
X121596697Y-103201508D01*
X121503600Y-103426264D01*
X121456140Y-103664863D01*
X116078000Y-103664863D01*
X116078000Y-103646041D01*
X116043836Y-103474288D01*
X115976821Y-103312501D01*
X115879531Y-103166896D01*
X115755704Y-103043069D01*
X115610099Y-102945779D01*
X115448312Y-102878764D01*
X115276559Y-102844600D01*
X115101441Y-102844600D01*
X114929688Y-102878764D01*
X114767901Y-102945779D01*
X114622296Y-103043069D01*
X114498469Y-103166896D01*
X114401179Y-103312501D01*
X114334164Y-103474288D01*
X114300000Y-103646041D01*
X114300000Y-103821159D01*
X114334164Y-103992912D01*
X114401179Y-104154699D01*
X114477801Y-104269371D01*
X114477800Y-104493229D01*
X114401179Y-104607901D01*
X114334164Y-104769688D01*
X114300000Y-104941441D01*
X114300000Y-105116559D01*
X114334164Y-105288312D01*
X114401179Y-105450099D01*
X114498469Y-105595704D01*
X114583465Y-105680700D01*
X112190884Y-105680700D01*
X112192221Y-105678699D01*
X112259236Y-105516912D01*
X112293400Y-105345159D01*
X112293400Y-105170041D01*
X112259236Y-104998288D01*
X112192221Y-104836501D01*
X112094931Y-104690896D01*
X111971104Y-104567069D01*
X111825499Y-104469779D01*
X111663712Y-104402764D01*
X111491959Y-104368600D01*
X111316841Y-104368600D01*
X111145088Y-104402764D01*
X110983301Y-104469779D01*
X110837696Y-104567069D01*
X110713869Y-104690896D01*
X110635823Y-104807700D01*
X101800171Y-104807700D01*
X101685499Y-104731079D01*
X101523712Y-104664064D01*
X101351959Y-104629900D01*
X101176841Y-104629900D01*
X101005088Y-104664064D01*
X100843301Y-104731079D01*
X100697696Y-104828369D01*
X100573869Y-104952196D01*
X100476579Y-105097801D01*
X100409564Y-105259588D01*
X100375400Y-105431341D01*
X97173082Y-105431341D01*
X97202081Y-104102314D01*
X97384765Y-102558829D01*
X97714544Y-101039959D01*
X97988745Y-100183356D01*
X97988745Y-100206628D01*
X98022909Y-100378381D01*
X98089924Y-100540168D01*
X98166545Y-100654840D01*
X98166546Y-101901497D01*
X98072616Y-101964259D01*
X97948789Y-102088086D01*
X97851499Y-102233691D01*
X97784484Y-102395478D01*
X97750320Y-102567231D01*
X97750320Y-102742349D01*
X97784484Y-102914102D01*
X97851499Y-103075889D01*
X97948789Y-103221494D01*
X98072616Y-103345321D01*
X98218221Y-103442611D01*
X98380008Y-103509626D01*
X98551761Y-103543790D01*
X98726879Y-103543790D01*
X98898632Y-103509626D01*
X99060419Y-103442611D01*
X99206024Y-103345321D01*
X99329851Y-103221494D01*
X99427141Y-103075889D01*
X99494156Y-102914102D01*
X99528320Y-102742349D01*
X99528320Y-102707932D01*
X99537987Y-102689846D01*
X99578654Y-102555785D01*
X99588945Y-102451301D01*
X99588945Y-102451294D01*
X99592385Y-102416365D01*
X99588945Y-102381437D01*
X99588945Y-101003369D01*
X99634218Y-101033619D01*
X99796005Y-101100634D01*
X99967758Y-101134798D01*
X100142876Y-101134798D01*
X100314629Y-101100634D01*
X100476416Y-101033619D01*
X100598119Y-100952300D01*
X105511600Y-100952300D01*
X105511600Y-101027159D01*
X105545764Y-101198912D01*
X105612779Y-101360699D01*
X105710069Y-101506304D01*
X105833896Y-101630131D01*
X105979501Y-101727421D01*
X106141288Y-101794436D01*
X106276555Y-101821342D01*
X106944204Y-102488992D01*
X106966474Y-102516128D01*
X107074768Y-102605003D01*
X107198320Y-102671043D01*
X107332381Y-102711710D01*
X107436865Y-102722001D01*
X107436872Y-102722001D01*
X107471801Y-102725441D01*
X107506729Y-102722001D01*
X115863428Y-102722001D01*
X115978100Y-102798622D01*
X116139887Y-102865637D01*
X116311640Y-102899801D01*
X116486758Y-102899801D01*
X116658511Y-102865637D01*
X116820298Y-102798622D01*
X116965903Y-102701332D01*
X117089730Y-102577505D01*
X117187020Y-102431900D01*
X117254035Y-102270113D01*
X117288199Y-102098360D01*
X117288199Y-101923242D01*
X117254035Y-101751489D01*
X117187020Y-101589702D01*
X117089730Y-101444097D01*
X116965903Y-101320270D01*
X116820298Y-101222980D01*
X116658511Y-101155965D01*
X116486758Y-101121801D01*
X116311640Y-101121801D01*
X116139887Y-101155965D01*
X115978100Y-101222980D01*
X115863428Y-101299601D01*
X107766389Y-101299601D01*
X107419087Y-100952300D01*
X119951129Y-100952300D01*
X120065801Y-101028921D01*
X120227588Y-101095936D01*
X120399341Y-101130100D01*
X120574459Y-101130100D01*
X120746212Y-101095936D01*
X120907999Y-101028921D01*
X121053604Y-100931631D01*
X121177431Y-100807804D01*
X121274721Y-100662199D01*
X121341736Y-100500412D01*
X121375900Y-100328659D01*
X121375900Y-100153541D01*
X121341736Y-99981788D01*
X121274721Y-99820001D01*
X121177431Y-99674396D01*
X121053604Y-99550569D01*
X120907999Y-99453279D01*
X120746212Y-99386264D01*
X120574459Y-99352100D01*
X120399341Y-99352100D01*
X120227588Y-99386264D01*
X120212125Y-99392669D01*
X120239000Y-99257559D01*
X120239000Y-99082441D01*
X120204836Y-98910688D01*
X120137821Y-98748901D01*
X120040531Y-98603296D01*
X119916704Y-98479469D01*
X119771099Y-98382179D01*
X119609312Y-98315164D01*
X119437559Y-98281000D01*
X119262441Y-98281000D01*
X119090688Y-98315164D01*
X118928901Y-98382179D01*
X118783296Y-98479469D01*
X118659469Y-98603296D01*
X118562179Y-98748901D01*
X118495164Y-98910688D01*
X118470741Y-99033472D01*
X118456922Y-99047290D01*
X105468287Y-99047290D01*
X105534831Y-98947699D01*
X105601846Y-98785912D01*
X105630691Y-98640900D01*
X106652229Y-98640900D01*
X106766901Y-98717521D01*
X106928688Y-98784536D01*
X107100441Y-98818700D01*
X107275559Y-98818700D01*
X107447312Y-98784536D01*
X107609099Y-98717521D01*
X107754704Y-98620231D01*
X107878531Y-98496404D01*
X107975821Y-98350799D01*
X108042836Y-98189012D01*
X108077000Y-98017259D01*
X108077000Y-97842141D01*
X108042836Y-97670388D01*
X107976649Y-97510600D01*
X108778674Y-97510600D01*
X108813600Y-97514040D01*
X108848526Y-97510600D01*
X108848536Y-97510600D01*
X108953020Y-97500309D01*
X109087081Y-97459642D01*
X109158065Y-97421700D01*
X109167859Y-97421700D01*
X109339612Y-97387536D01*
X109501399Y-97320521D01*
X109647004Y-97223231D01*
X109770831Y-97099404D01*
X109868121Y-96953799D01*
X109935136Y-96792012D01*
X109969300Y-96620259D01*
X109969300Y-96445141D01*
X109935136Y-96273388D01*
X109868121Y-96111601D01*
X109770831Y-95965996D01*
X109647004Y-95842169D01*
X109501399Y-95744879D01*
X109339612Y-95677864D01*
X109167859Y-95643700D01*
X108992741Y-95643700D01*
X108820988Y-95677864D01*
X108659201Y-95744879D01*
X108513596Y-95842169D01*
X108389769Y-95965996D01*
X108308115Y-96088200D01*
X107431671Y-96088200D01*
X107316999Y-96011579D01*
X107155212Y-95944564D01*
X106983459Y-95910400D01*
X106808341Y-95910400D01*
X106636588Y-95944564D01*
X106474801Y-96011579D01*
X106329196Y-96108869D01*
X106205369Y-96232696D01*
X106108079Y-96378301D01*
X106041064Y-96540088D01*
X106006900Y-96711841D01*
X106006900Y-96886959D01*
X106041064Y-97058712D01*
X106107251Y-97218500D01*
X105125419Y-97218500D01*
X105121836Y-97200488D01*
X105054821Y-97038701D01*
X104957531Y-96893096D01*
X104833704Y-96769269D01*
X104688099Y-96671979D01*
X104526312Y-96604964D01*
X104354559Y-96570800D01*
X104179441Y-96570800D01*
X104007688Y-96604964D01*
X103845901Y-96671979D01*
X103731229Y-96748600D01*
X103514517Y-96748600D01*
X103479599Y-96745161D01*
X103444681Y-96748600D01*
X103444664Y-96748600D01*
X103340180Y-96758891D01*
X103206119Y-96799558D01*
X103082567Y-96865598D01*
X103001408Y-96932203D01*
X103001404Y-96932207D01*
X102974273Y-96954473D01*
X102952007Y-96981604D01*
X101882355Y-98051258D01*
X101747088Y-98078164D01*
X101585301Y-98145179D01*
X101439696Y-98242469D01*
X101315869Y-98366296D01*
X101218579Y-98511901D01*
X101151564Y-98673688D01*
X101134057Y-98761702D01*
X100999578Y-98705998D01*
X100827825Y-98671834D01*
X100652707Y-98671834D01*
X100480954Y-98705998D01*
X100319167Y-98773013D01*
X100173562Y-98870303D01*
X100049735Y-98994130D01*
X99952445Y-99139735D01*
X99885430Y-99301522D01*
X99870590Y-99376126D01*
X99796005Y-99390962D01*
X99634218Y-99457977D01*
X99538107Y-99522196D01*
X99444449Y-99428538D01*
X99298844Y-99331248D01*
X99137057Y-99264233D01*
X98965304Y-99230069D01*
X98790186Y-99230069D01*
X98618433Y-99264233D01*
X98456646Y-99331248D01*
X98311041Y-99428538D01*
X98194779Y-99544800D01*
X98801916Y-98131650D01*
X99549497Y-96768990D01*
X100424241Y-95484256D01*
X101418095Y-94289277D01*
X101742501Y-93967689D01*
X101754625Y-94028640D01*
X101734969Y-94048296D01*
X101637679Y-94193901D01*
X101570664Y-94355688D01*
X101536500Y-94527441D01*
X101536500Y-94702559D01*
X101570664Y-94874312D01*
X101637679Y-95036099D01*
X101734969Y-95181704D01*
X101858796Y-95305531D01*
X102004401Y-95402821D01*
X102166188Y-95469836D01*
X102337941Y-95504000D01*
X102513059Y-95504000D01*
X102684812Y-95469836D01*
X102846599Y-95402821D01*
X102992204Y-95305531D01*
X103116031Y-95181704D01*
X103213321Y-95036099D01*
X103280336Y-94874312D01*
X103314500Y-94702559D01*
X103314500Y-94527441D01*
X103311707Y-94513400D01*
X107373266Y-94513400D01*
X107416179Y-94616999D01*
X107513469Y-94762604D01*
X107637296Y-94886431D01*
X107782901Y-94983721D01*
X107944688Y-95050736D01*
X108116441Y-95084900D01*
X108291559Y-95084900D01*
X108463312Y-95050736D01*
X108625099Y-94983721D01*
X108770704Y-94886431D01*
X108894531Y-94762604D01*
X108991821Y-94616999D01*
X109058836Y-94455212D01*
X109093000Y-94283459D01*
X109093000Y-94230000D01*
X110986928Y-94230000D01*
X110986928Y-98190000D01*
X110999188Y-98314482D01*
X111035498Y-98434180D01*
X111094463Y-98544494D01*
X111173815Y-98641185D01*
X111270506Y-98720537D01*
X111380820Y-98779502D01*
X111500518Y-98815812D01*
X111625000Y-98828072D01*
X114795000Y-98828072D01*
X114919482Y-98815812D01*
X115039180Y-98779502D01*
X115149494Y-98720537D01*
X115246185Y-98641185D01*
X115325537Y-98544494D01*
X115384502Y-98434180D01*
X115420812Y-98314482D01*
X115433072Y-98190000D01*
X115433072Y-96967154D01*
X115508901Y-97017821D01*
X115670688Y-97084836D01*
X115842441Y-97119000D01*
X116017559Y-97119000D01*
X116189312Y-97084836D01*
X116351099Y-97017821D01*
X116496704Y-96920531D01*
X116620531Y-96796704D01*
X116717821Y-96651099D01*
X116784836Y-96489312D01*
X116819000Y-96317559D01*
X116819000Y-96142441D01*
X116784836Y-95970688D01*
X116717821Y-95808901D01*
X116620531Y-95663296D01*
X116496704Y-95539469D01*
X116351099Y-95442179D01*
X116189312Y-95375164D01*
X116017559Y-95341000D01*
X115842441Y-95341000D01*
X115670688Y-95375164D01*
X115508901Y-95442179D01*
X115433072Y-95492846D01*
X115433072Y-94230000D01*
X115420812Y-94105518D01*
X115384502Y-93985820D01*
X115325537Y-93875506D01*
X115246185Y-93778815D01*
X115149494Y-93699463D01*
X115083562Y-93664221D01*
X115176721Y-93524799D01*
X115243736Y-93363012D01*
X115277900Y-93191259D01*
X115277900Y-93016141D01*
X115243736Y-92844388D01*
X115176721Y-92682601D01*
X115079431Y-92536996D01*
X114955604Y-92413169D01*
X114809999Y-92315879D01*
X114648212Y-92248864D01*
X114476459Y-92214700D01*
X114301341Y-92214700D01*
X114129588Y-92248864D01*
X113967801Y-92315879D01*
X113822196Y-92413169D01*
X113698369Y-92536996D01*
X113601079Y-92682601D01*
X113534064Y-92844388D01*
X113499900Y-93016141D01*
X113499900Y-93191259D01*
X113534064Y-93363012D01*
X113601079Y-93524799D01*
X113645933Y-93591928D01*
X111625000Y-93591928D01*
X111500518Y-93604188D01*
X111380820Y-93640498D01*
X111270506Y-93699463D01*
X111173815Y-93778815D01*
X111094463Y-93875506D01*
X111035498Y-93985820D01*
X110999188Y-94105518D01*
X110986928Y-94230000D01*
X109093000Y-94230000D01*
X109093000Y-94108341D01*
X109058836Y-93936588D01*
X108991821Y-93774801D01*
X108894531Y-93629196D01*
X108770704Y-93505369D01*
X108625099Y-93408079D01*
X108463312Y-93341064D01*
X108330157Y-93314578D01*
X108315627Y-93296873D01*
X108207333Y-93207998D01*
X108083781Y-93141958D01*
X107949720Y-93101291D01*
X107845236Y-93091000D01*
X107845226Y-93091000D01*
X107810300Y-93087560D01*
X107775374Y-93091000D01*
X103151771Y-93091000D01*
X103037099Y-93014379D01*
X102875312Y-92947364D01*
X102834904Y-92939326D01*
X103725513Y-92211668D01*
X105017832Y-91348168D01*
X106386964Y-90612507D01*
X107820303Y-90011458D01*
X109304651Y-89550556D01*
X110826341Y-89234044D01*
X112371362Y-89064837D01*
X113925487Y-89044492D01*
X115474408Y-89173197D01*
M02*
