G04 #@! TF.GenerationSoftware,KiCad,Pcbnew,(5.0.2)-1*
G04 #@! TF.CreationDate,2019-02-24T19:10:18-05:00*
G04 #@! TF.ProjectId,light_monitor,6c696768-745f-46d6-9f6e-69746f722e6b,R001*
G04 #@! TF.SameCoordinates,Original*
G04 #@! TF.FileFunction,Paste,Top*
G04 #@! TF.FilePolarity,Positive*
%FSLAX46Y46*%
G04 Gerber Fmt 4.6, Leading zero omitted, Abs format (unit mm)*
G04 Created by KiCad (PCBNEW (5.0.2)-1) date 2/24/2019 7:10:18 PM*
%MOMM*%
%LPD*%
G01*
G04 APERTURE LIST*
%ADD10R,0.530000X0.280000*%
%ADD11R,0.530000X0.200000*%
%ADD12R,0.900000X1.200000*%
%ADD13R,1.035000X1.035000*%
%ADD14R,0.700000X0.250000*%
%ADD15R,0.250000X0.700000*%
%ADD16R,0.900000X1.450000*%
%ADD17R,0.800000X0.500000*%
%ADD18R,1.200000X0.350000*%
%ADD19R,0.740000X2.790000*%
%ADD20R,1.500000X2.400000*%
%ADD21R,0.600000X0.400000*%
%ADD22C,0.100000*%
%ADD23C,0.950000*%
%ADD24R,0.600000X0.450000*%
%ADD25R,0.450000X0.600000*%
%ADD26C,0.450000*%
%ADD27C,1.475000*%
%ADD28C,1.900000*%
%ADD29C,1.175000*%
%ADD30R,2.510000X1.000000*%
G04 APERTURE END LIST*
D10*
G04 #@! TO.C,U4*
X121272600Y-114700000D03*
D11*
X121272600Y-114300000D03*
D10*
X121272600Y-113900000D03*
X122008600Y-113900000D03*
D11*
X122008600Y-114300000D03*
D10*
X122008600Y-114700000D03*
G04 #@! TD*
D12*
G04 #@! TO.C,D1*
X105623360Y-92735400D03*
X105623360Y-94935400D03*
G04 #@! TD*
D13*
G04 #@! TO.C,U1*
X103376900Y-101524900D03*
X101651900Y-101524900D03*
X103376900Y-103249900D03*
X101651900Y-103249900D03*
D14*
X104914400Y-100637400D03*
X104914400Y-101137400D03*
X104914400Y-101637400D03*
X104914400Y-102137400D03*
X104914400Y-102637400D03*
X104914400Y-103137400D03*
X104914400Y-103637400D03*
X104914400Y-104137400D03*
D15*
X104264400Y-104787400D03*
X103764400Y-104787400D03*
X103264400Y-104787400D03*
X102764400Y-104787400D03*
X102264400Y-104787400D03*
X101764400Y-104787400D03*
X101264400Y-104787400D03*
X100764400Y-104787400D03*
D14*
X100114400Y-104137400D03*
X100114400Y-103637400D03*
X100114400Y-103137400D03*
X100114400Y-102637400D03*
X100114400Y-102137400D03*
X100114400Y-101637400D03*
X100114400Y-101137400D03*
X100114400Y-100637400D03*
D15*
X100764400Y-99987400D03*
X101264400Y-99987400D03*
X101764400Y-99987400D03*
X102264400Y-99987400D03*
X102764400Y-99987400D03*
X103264400Y-99987400D03*
X103764400Y-99987400D03*
X104264400Y-99987400D03*
G04 #@! TD*
D16*
G04 #@! TO.C,L1*
X121119900Y-98971100D03*
X119419900Y-98971100D03*
G04 #@! TD*
D17*
G04 #@! TO.C,U5*
X101233680Y-98164640D03*
X101233680Y-97264640D03*
X101233680Y-96364640D03*
X101233680Y-95464640D03*
X102433680Y-95464640D03*
X102433680Y-96364640D03*
X102433680Y-97264640D03*
X102433680Y-98164640D03*
G04 #@! TD*
D18*
G04 #@! TO.C,IC1*
X112610200Y-104582200D03*
X112610200Y-105232200D03*
X112610200Y-105882200D03*
X114110200Y-105882200D03*
X114110200Y-105232200D03*
X114110200Y-104582200D03*
G04 #@! TD*
D19*
G04 #@! TO.C,U2*
X110286800Y-119542560D03*
X110286800Y-115478560D03*
X111302800Y-119542560D03*
X111302800Y-115478560D03*
X112318800Y-119542560D03*
X112318800Y-115478560D03*
X113334800Y-119542560D03*
X113334800Y-115478560D03*
X114350800Y-119542560D03*
X114350800Y-115478560D03*
X115366800Y-119542560D03*
X115366800Y-115478560D03*
X116382800Y-119542560D03*
X116382800Y-115478560D03*
G04 #@! TD*
D20*
G04 #@! TO.C,U3*
X124142500Y-98945700D03*
D21*
X122742500Y-97995700D03*
X122742500Y-98945700D03*
X122742500Y-99895700D03*
X125542500Y-99895700D03*
X125542500Y-98945700D03*
X125542500Y-97995700D03*
G04 #@! TD*
D22*
G04 #@! TO.C,C1*
G36*
X118147699Y-98499784D02*
X118170754Y-98503203D01*
X118193363Y-98508867D01*
X118215307Y-98516719D01*
X118236377Y-98526684D01*
X118256368Y-98538666D01*
X118275088Y-98552550D01*
X118292358Y-98568202D01*
X118308010Y-98585472D01*
X118321894Y-98604192D01*
X118333876Y-98624183D01*
X118343841Y-98645253D01*
X118351693Y-98667197D01*
X118357357Y-98689806D01*
X118360776Y-98712861D01*
X118361920Y-98736140D01*
X118361920Y-99211140D01*
X118360776Y-99234419D01*
X118357357Y-99257474D01*
X118351693Y-99280083D01*
X118343841Y-99302027D01*
X118333876Y-99323097D01*
X118321894Y-99343088D01*
X118308010Y-99361808D01*
X118292358Y-99379078D01*
X118275088Y-99394730D01*
X118256368Y-99408614D01*
X118236377Y-99420596D01*
X118215307Y-99430561D01*
X118193363Y-99438413D01*
X118170754Y-99444077D01*
X118147699Y-99447496D01*
X118124420Y-99448640D01*
X117549420Y-99448640D01*
X117526141Y-99447496D01*
X117503086Y-99444077D01*
X117480477Y-99438413D01*
X117458533Y-99430561D01*
X117437463Y-99420596D01*
X117417472Y-99408614D01*
X117398752Y-99394730D01*
X117381482Y-99379078D01*
X117365830Y-99361808D01*
X117351946Y-99343088D01*
X117339964Y-99323097D01*
X117329999Y-99302027D01*
X117322147Y-99280083D01*
X117316483Y-99257474D01*
X117313064Y-99234419D01*
X117311920Y-99211140D01*
X117311920Y-98736140D01*
X117313064Y-98712861D01*
X117316483Y-98689806D01*
X117322147Y-98667197D01*
X117329999Y-98645253D01*
X117339964Y-98624183D01*
X117351946Y-98604192D01*
X117365830Y-98585472D01*
X117381482Y-98568202D01*
X117398752Y-98552550D01*
X117417472Y-98538666D01*
X117437463Y-98526684D01*
X117458533Y-98516719D01*
X117480477Y-98508867D01*
X117503086Y-98503203D01*
X117526141Y-98499784D01*
X117549420Y-98498640D01*
X118124420Y-98498640D01*
X118147699Y-98499784D01*
X118147699Y-98499784D01*
G37*
D23*
X117836920Y-98973640D03*
D22*
G36*
X116397699Y-98499784D02*
X116420754Y-98503203D01*
X116443363Y-98508867D01*
X116465307Y-98516719D01*
X116486377Y-98526684D01*
X116506368Y-98538666D01*
X116525088Y-98552550D01*
X116542358Y-98568202D01*
X116558010Y-98585472D01*
X116571894Y-98604192D01*
X116583876Y-98624183D01*
X116593841Y-98645253D01*
X116601693Y-98667197D01*
X116607357Y-98689806D01*
X116610776Y-98712861D01*
X116611920Y-98736140D01*
X116611920Y-99211140D01*
X116610776Y-99234419D01*
X116607357Y-99257474D01*
X116601693Y-99280083D01*
X116593841Y-99302027D01*
X116583876Y-99323097D01*
X116571894Y-99343088D01*
X116558010Y-99361808D01*
X116542358Y-99379078D01*
X116525088Y-99394730D01*
X116506368Y-99408614D01*
X116486377Y-99420596D01*
X116465307Y-99430561D01*
X116443363Y-99438413D01*
X116420754Y-99444077D01*
X116397699Y-99447496D01*
X116374420Y-99448640D01*
X115799420Y-99448640D01*
X115776141Y-99447496D01*
X115753086Y-99444077D01*
X115730477Y-99438413D01*
X115708533Y-99430561D01*
X115687463Y-99420596D01*
X115667472Y-99408614D01*
X115648752Y-99394730D01*
X115631482Y-99379078D01*
X115615830Y-99361808D01*
X115601946Y-99343088D01*
X115589964Y-99323097D01*
X115579999Y-99302027D01*
X115572147Y-99280083D01*
X115566483Y-99257474D01*
X115563064Y-99234419D01*
X115561920Y-99211140D01*
X115561920Y-98736140D01*
X115563064Y-98712861D01*
X115566483Y-98689806D01*
X115572147Y-98667197D01*
X115579999Y-98645253D01*
X115589964Y-98624183D01*
X115601946Y-98604192D01*
X115615830Y-98585472D01*
X115631482Y-98568202D01*
X115648752Y-98552550D01*
X115667472Y-98538666D01*
X115687463Y-98526684D01*
X115708533Y-98516719D01*
X115730477Y-98508867D01*
X115753086Y-98503203D01*
X115776141Y-98499784D01*
X115799420Y-98498640D01*
X116374420Y-98498640D01*
X116397699Y-98499784D01*
X116397699Y-98499784D01*
G37*
D23*
X116086920Y-98973640D03*
G04 #@! TD*
D22*
G04 #@! TO.C,C2*
G36*
X125277479Y-95677844D02*
X125300534Y-95681263D01*
X125323143Y-95686927D01*
X125345087Y-95694779D01*
X125366157Y-95704744D01*
X125386148Y-95716726D01*
X125404868Y-95730610D01*
X125422138Y-95746262D01*
X125437790Y-95763532D01*
X125451674Y-95782252D01*
X125463656Y-95802243D01*
X125473621Y-95823313D01*
X125481473Y-95845257D01*
X125487137Y-95867866D01*
X125490556Y-95890921D01*
X125491700Y-95914200D01*
X125491700Y-96389200D01*
X125490556Y-96412479D01*
X125487137Y-96435534D01*
X125481473Y-96458143D01*
X125473621Y-96480087D01*
X125463656Y-96501157D01*
X125451674Y-96521148D01*
X125437790Y-96539868D01*
X125422138Y-96557138D01*
X125404868Y-96572790D01*
X125386148Y-96586674D01*
X125366157Y-96598656D01*
X125345087Y-96608621D01*
X125323143Y-96616473D01*
X125300534Y-96622137D01*
X125277479Y-96625556D01*
X125254200Y-96626700D01*
X124679200Y-96626700D01*
X124655921Y-96625556D01*
X124632866Y-96622137D01*
X124610257Y-96616473D01*
X124588313Y-96608621D01*
X124567243Y-96598656D01*
X124547252Y-96586674D01*
X124528532Y-96572790D01*
X124511262Y-96557138D01*
X124495610Y-96539868D01*
X124481726Y-96521148D01*
X124469744Y-96501157D01*
X124459779Y-96480087D01*
X124451927Y-96458143D01*
X124446263Y-96435534D01*
X124442844Y-96412479D01*
X124441700Y-96389200D01*
X124441700Y-95914200D01*
X124442844Y-95890921D01*
X124446263Y-95867866D01*
X124451927Y-95845257D01*
X124459779Y-95823313D01*
X124469744Y-95802243D01*
X124481726Y-95782252D01*
X124495610Y-95763532D01*
X124511262Y-95746262D01*
X124528532Y-95730610D01*
X124547252Y-95716726D01*
X124567243Y-95704744D01*
X124588313Y-95694779D01*
X124610257Y-95686927D01*
X124632866Y-95681263D01*
X124655921Y-95677844D01*
X124679200Y-95676700D01*
X125254200Y-95676700D01*
X125277479Y-95677844D01*
X125277479Y-95677844D01*
G37*
D23*
X124966700Y-96151700D03*
D22*
G36*
X123527479Y-95677844D02*
X123550534Y-95681263D01*
X123573143Y-95686927D01*
X123595087Y-95694779D01*
X123616157Y-95704744D01*
X123636148Y-95716726D01*
X123654868Y-95730610D01*
X123672138Y-95746262D01*
X123687790Y-95763532D01*
X123701674Y-95782252D01*
X123713656Y-95802243D01*
X123723621Y-95823313D01*
X123731473Y-95845257D01*
X123737137Y-95867866D01*
X123740556Y-95890921D01*
X123741700Y-95914200D01*
X123741700Y-96389200D01*
X123740556Y-96412479D01*
X123737137Y-96435534D01*
X123731473Y-96458143D01*
X123723621Y-96480087D01*
X123713656Y-96501157D01*
X123701674Y-96521148D01*
X123687790Y-96539868D01*
X123672138Y-96557138D01*
X123654868Y-96572790D01*
X123636148Y-96586674D01*
X123616157Y-96598656D01*
X123595087Y-96608621D01*
X123573143Y-96616473D01*
X123550534Y-96622137D01*
X123527479Y-96625556D01*
X123504200Y-96626700D01*
X122929200Y-96626700D01*
X122905921Y-96625556D01*
X122882866Y-96622137D01*
X122860257Y-96616473D01*
X122838313Y-96608621D01*
X122817243Y-96598656D01*
X122797252Y-96586674D01*
X122778532Y-96572790D01*
X122761262Y-96557138D01*
X122745610Y-96539868D01*
X122731726Y-96521148D01*
X122719744Y-96501157D01*
X122709779Y-96480087D01*
X122701927Y-96458143D01*
X122696263Y-96435534D01*
X122692844Y-96412479D01*
X122691700Y-96389200D01*
X122691700Y-95914200D01*
X122692844Y-95890921D01*
X122696263Y-95867866D01*
X122701927Y-95845257D01*
X122709779Y-95823313D01*
X122719744Y-95802243D01*
X122731726Y-95782252D01*
X122745610Y-95763532D01*
X122761262Y-95746262D01*
X122778532Y-95730610D01*
X122797252Y-95716726D01*
X122817243Y-95704744D01*
X122838313Y-95694779D01*
X122860257Y-95686927D01*
X122882866Y-95681263D01*
X122905921Y-95677844D01*
X122929200Y-95676700D01*
X123504200Y-95676700D01*
X123527479Y-95677844D01*
X123527479Y-95677844D01*
G37*
D23*
X123216700Y-96151700D03*
G04 #@! TD*
D22*
G04 #@! TO.C,C3*
G36*
X119765739Y-102721264D02*
X119788794Y-102724683D01*
X119811403Y-102730347D01*
X119833347Y-102738199D01*
X119854417Y-102748164D01*
X119874408Y-102760146D01*
X119893128Y-102774030D01*
X119910398Y-102789682D01*
X119926050Y-102806952D01*
X119939934Y-102825672D01*
X119951916Y-102845663D01*
X119961881Y-102866733D01*
X119969733Y-102888677D01*
X119975397Y-102911286D01*
X119978816Y-102934341D01*
X119979960Y-102957620D01*
X119979960Y-103432620D01*
X119978816Y-103455899D01*
X119975397Y-103478954D01*
X119969733Y-103501563D01*
X119961881Y-103523507D01*
X119951916Y-103544577D01*
X119939934Y-103564568D01*
X119926050Y-103583288D01*
X119910398Y-103600558D01*
X119893128Y-103616210D01*
X119874408Y-103630094D01*
X119854417Y-103642076D01*
X119833347Y-103652041D01*
X119811403Y-103659893D01*
X119788794Y-103665557D01*
X119765739Y-103668976D01*
X119742460Y-103670120D01*
X119167460Y-103670120D01*
X119144181Y-103668976D01*
X119121126Y-103665557D01*
X119098517Y-103659893D01*
X119076573Y-103652041D01*
X119055503Y-103642076D01*
X119035512Y-103630094D01*
X119016792Y-103616210D01*
X118999522Y-103600558D01*
X118983870Y-103583288D01*
X118969986Y-103564568D01*
X118958004Y-103544577D01*
X118948039Y-103523507D01*
X118940187Y-103501563D01*
X118934523Y-103478954D01*
X118931104Y-103455899D01*
X118929960Y-103432620D01*
X118929960Y-102957620D01*
X118931104Y-102934341D01*
X118934523Y-102911286D01*
X118940187Y-102888677D01*
X118948039Y-102866733D01*
X118958004Y-102845663D01*
X118969986Y-102825672D01*
X118983870Y-102806952D01*
X118999522Y-102789682D01*
X119016792Y-102774030D01*
X119035512Y-102760146D01*
X119055503Y-102748164D01*
X119076573Y-102738199D01*
X119098517Y-102730347D01*
X119121126Y-102724683D01*
X119144181Y-102721264D01*
X119167460Y-102720120D01*
X119742460Y-102720120D01*
X119765739Y-102721264D01*
X119765739Y-102721264D01*
G37*
D23*
X119454960Y-103195120D03*
D22*
G36*
X121515739Y-102721264D02*
X121538794Y-102724683D01*
X121561403Y-102730347D01*
X121583347Y-102738199D01*
X121604417Y-102748164D01*
X121624408Y-102760146D01*
X121643128Y-102774030D01*
X121660398Y-102789682D01*
X121676050Y-102806952D01*
X121689934Y-102825672D01*
X121701916Y-102845663D01*
X121711881Y-102866733D01*
X121719733Y-102888677D01*
X121725397Y-102911286D01*
X121728816Y-102934341D01*
X121729960Y-102957620D01*
X121729960Y-103432620D01*
X121728816Y-103455899D01*
X121725397Y-103478954D01*
X121719733Y-103501563D01*
X121711881Y-103523507D01*
X121701916Y-103544577D01*
X121689934Y-103564568D01*
X121676050Y-103583288D01*
X121660398Y-103600558D01*
X121643128Y-103616210D01*
X121624408Y-103630094D01*
X121604417Y-103642076D01*
X121583347Y-103652041D01*
X121561403Y-103659893D01*
X121538794Y-103665557D01*
X121515739Y-103668976D01*
X121492460Y-103670120D01*
X120917460Y-103670120D01*
X120894181Y-103668976D01*
X120871126Y-103665557D01*
X120848517Y-103659893D01*
X120826573Y-103652041D01*
X120805503Y-103642076D01*
X120785512Y-103630094D01*
X120766792Y-103616210D01*
X120749522Y-103600558D01*
X120733870Y-103583288D01*
X120719986Y-103564568D01*
X120708004Y-103544577D01*
X120698039Y-103523507D01*
X120690187Y-103501563D01*
X120684523Y-103478954D01*
X120681104Y-103455899D01*
X120679960Y-103432620D01*
X120679960Y-102957620D01*
X120681104Y-102934341D01*
X120684523Y-102911286D01*
X120690187Y-102888677D01*
X120698039Y-102866733D01*
X120708004Y-102845663D01*
X120719986Y-102825672D01*
X120733870Y-102806952D01*
X120749522Y-102789682D01*
X120766792Y-102774030D01*
X120785512Y-102760146D01*
X120805503Y-102748164D01*
X120826573Y-102738199D01*
X120848517Y-102730347D01*
X120871126Y-102724683D01*
X120894181Y-102721264D01*
X120917460Y-102720120D01*
X121492460Y-102720120D01*
X121515739Y-102721264D01*
X121515739Y-102721264D01*
G37*
D23*
X121204960Y-103195120D03*
G04 #@! TD*
D22*
G04 #@! TO.C,C4*
G36*
X127250619Y-99512744D02*
X127273674Y-99516163D01*
X127296283Y-99521827D01*
X127318227Y-99529679D01*
X127339297Y-99539644D01*
X127359288Y-99551626D01*
X127378008Y-99565510D01*
X127395278Y-99581162D01*
X127410930Y-99598432D01*
X127424814Y-99617152D01*
X127436796Y-99637143D01*
X127446761Y-99658213D01*
X127454613Y-99680157D01*
X127460277Y-99702766D01*
X127463696Y-99725821D01*
X127464840Y-99749100D01*
X127464840Y-100324100D01*
X127463696Y-100347379D01*
X127460277Y-100370434D01*
X127454613Y-100393043D01*
X127446761Y-100414987D01*
X127436796Y-100436057D01*
X127424814Y-100456048D01*
X127410930Y-100474768D01*
X127395278Y-100492038D01*
X127378008Y-100507690D01*
X127359288Y-100521574D01*
X127339297Y-100533556D01*
X127318227Y-100543521D01*
X127296283Y-100551373D01*
X127273674Y-100557037D01*
X127250619Y-100560456D01*
X127227340Y-100561600D01*
X126752340Y-100561600D01*
X126729061Y-100560456D01*
X126706006Y-100557037D01*
X126683397Y-100551373D01*
X126661453Y-100543521D01*
X126640383Y-100533556D01*
X126620392Y-100521574D01*
X126601672Y-100507690D01*
X126584402Y-100492038D01*
X126568750Y-100474768D01*
X126554866Y-100456048D01*
X126542884Y-100436057D01*
X126532919Y-100414987D01*
X126525067Y-100393043D01*
X126519403Y-100370434D01*
X126515984Y-100347379D01*
X126514840Y-100324100D01*
X126514840Y-99749100D01*
X126515984Y-99725821D01*
X126519403Y-99702766D01*
X126525067Y-99680157D01*
X126532919Y-99658213D01*
X126542884Y-99637143D01*
X126554866Y-99617152D01*
X126568750Y-99598432D01*
X126584402Y-99581162D01*
X126601672Y-99565510D01*
X126620392Y-99551626D01*
X126640383Y-99539644D01*
X126661453Y-99529679D01*
X126683397Y-99521827D01*
X126706006Y-99516163D01*
X126729061Y-99512744D01*
X126752340Y-99511600D01*
X127227340Y-99511600D01*
X127250619Y-99512744D01*
X127250619Y-99512744D01*
G37*
D23*
X126989840Y-100036600D03*
D22*
G36*
X127250619Y-97762744D02*
X127273674Y-97766163D01*
X127296283Y-97771827D01*
X127318227Y-97779679D01*
X127339297Y-97789644D01*
X127359288Y-97801626D01*
X127378008Y-97815510D01*
X127395278Y-97831162D01*
X127410930Y-97848432D01*
X127424814Y-97867152D01*
X127436796Y-97887143D01*
X127446761Y-97908213D01*
X127454613Y-97930157D01*
X127460277Y-97952766D01*
X127463696Y-97975821D01*
X127464840Y-97999100D01*
X127464840Y-98574100D01*
X127463696Y-98597379D01*
X127460277Y-98620434D01*
X127454613Y-98643043D01*
X127446761Y-98664987D01*
X127436796Y-98686057D01*
X127424814Y-98706048D01*
X127410930Y-98724768D01*
X127395278Y-98742038D01*
X127378008Y-98757690D01*
X127359288Y-98771574D01*
X127339297Y-98783556D01*
X127318227Y-98793521D01*
X127296283Y-98801373D01*
X127273674Y-98807037D01*
X127250619Y-98810456D01*
X127227340Y-98811600D01*
X126752340Y-98811600D01*
X126729061Y-98810456D01*
X126706006Y-98807037D01*
X126683397Y-98801373D01*
X126661453Y-98793521D01*
X126640383Y-98783556D01*
X126620392Y-98771574D01*
X126601672Y-98757690D01*
X126584402Y-98742038D01*
X126568750Y-98724768D01*
X126554866Y-98706048D01*
X126542884Y-98686057D01*
X126532919Y-98664987D01*
X126525067Y-98643043D01*
X126519403Y-98620434D01*
X126515984Y-98597379D01*
X126514840Y-98574100D01*
X126514840Y-97999100D01*
X126515984Y-97975821D01*
X126519403Y-97952766D01*
X126525067Y-97930157D01*
X126532919Y-97908213D01*
X126542884Y-97887143D01*
X126554866Y-97867152D01*
X126568750Y-97848432D01*
X126584402Y-97831162D01*
X126601672Y-97815510D01*
X126620392Y-97801626D01*
X126640383Y-97789644D01*
X126661453Y-97779679D01*
X126683397Y-97771827D01*
X126706006Y-97766163D01*
X126729061Y-97762744D01*
X126752340Y-97761600D01*
X127227340Y-97761600D01*
X127250619Y-97762744D01*
X127250619Y-97762744D01*
G37*
D23*
X126989840Y-98286600D03*
G04 #@! TD*
D22*
G04 #@! TO.C,C5*
G36*
X123668419Y-115604144D02*
X123691474Y-115607563D01*
X123714083Y-115613227D01*
X123736027Y-115621079D01*
X123757097Y-115631044D01*
X123777088Y-115643026D01*
X123795808Y-115656910D01*
X123813078Y-115672562D01*
X123828730Y-115689832D01*
X123842614Y-115708552D01*
X123854596Y-115728543D01*
X123864561Y-115749613D01*
X123872413Y-115771557D01*
X123878077Y-115794166D01*
X123881496Y-115817221D01*
X123882640Y-115840500D01*
X123882640Y-116315500D01*
X123881496Y-116338779D01*
X123878077Y-116361834D01*
X123872413Y-116384443D01*
X123864561Y-116406387D01*
X123854596Y-116427457D01*
X123842614Y-116447448D01*
X123828730Y-116466168D01*
X123813078Y-116483438D01*
X123795808Y-116499090D01*
X123777088Y-116512974D01*
X123757097Y-116524956D01*
X123736027Y-116534921D01*
X123714083Y-116542773D01*
X123691474Y-116548437D01*
X123668419Y-116551856D01*
X123645140Y-116553000D01*
X123070140Y-116553000D01*
X123046861Y-116551856D01*
X123023806Y-116548437D01*
X123001197Y-116542773D01*
X122979253Y-116534921D01*
X122958183Y-116524956D01*
X122938192Y-116512974D01*
X122919472Y-116499090D01*
X122902202Y-116483438D01*
X122886550Y-116466168D01*
X122872666Y-116447448D01*
X122860684Y-116427457D01*
X122850719Y-116406387D01*
X122842867Y-116384443D01*
X122837203Y-116361834D01*
X122833784Y-116338779D01*
X122832640Y-116315500D01*
X122832640Y-115840500D01*
X122833784Y-115817221D01*
X122837203Y-115794166D01*
X122842867Y-115771557D01*
X122850719Y-115749613D01*
X122860684Y-115728543D01*
X122872666Y-115708552D01*
X122886550Y-115689832D01*
X122902202Y-115672562D01*
X122919472Y-115656910D01*
X122938192Y-115643026D01*
X122958183Y-115631044D01*
X122979253Y-115621079D01*
X123001197Y-115613227D01*
X123023806Y-115607563D01*
X123046861Y-115604144D01*
X123070140Y-115603000D01*
X123645140Y-115603000D01*
X123668419Y-115604144D01*
X123668419Y-115604144D01*
G37*
D23*
X123357640Y-116078000D03*
D22*
G36*
X121918419Y-115604144D02*
X121941474Y-115607563D01*
X121964083Y-115613227D01*
X121986027Y-115621079D01*
X122007097Y-115631044D01*
X122027088Y-115643026D01*
X122045808Y-115656910D01*
X122063078Y-115672562D01*
X122078730Y-115689832D01*
X122092614Y-115708552D01*
X122104596Y-115728543D01*
X122114561Y-115749613D01*
X122122413Y-115771557D01*
X122128077Y-115794166D01*
X122131496Y-115817221D01*
X122132640Y-115840500D01*
X122132640Y-116315500D01*
X122131496Y-116338779D01*
X122128077Y-116361834D01*
X122122413Y-116384443D01*
X122114561Y-116406387D01*
X122104596Y-116427457D01*
X122092614Y-116447448D01*
X122078730Y-116466168D01*
X122063078Y-116483438D01*
X122045808Y-116499090D01*
X122027088Y-116512974D01*
X122007097Y-116524956D01*
X121986027Y-116534921D01*
X121964083Y-116542773D01*
X121941474Y-116548437D01*
X121918419Y-116551856D01*
X121895140Y-116553000D01*
X121320140Y-116553000D01*
X121296861Y-116551856D01*
X121273806Y-116548437D01*
X121251197Y-116542773D01*
X121229253Y-116534921D01*
X121208183Y-116524956D01*
X121188192Y-116512974D01*
X121169472Y-116499090D01*
X121152202Y-116483438D01*
X121136550Y-116466168D01*
X121122666Y-116447448D01*
X121110684Y-116427457D01*
X121100719Y-116406387D01*
X121092867Y-116384443D01*
X121087203Y-116361834D01*
X121083784Y-116338779D01*
X121082640Y-116315500D01*
X121082640Y-115840500D01*
X121083784Y-115817221D01*
X121087203Y-115794166D01*
X121092867Y-115771557D01*
X121100719Y-115749613D01*
X121110684Y-115728543D01*
X121122666Y-115708552D01*
X121136550Y-115689832D01*
X121152202Y-115672562D01*
X121169472Y-115656910D01*
X121188192Y-115643026D01*
X121208183Y-115631044D01*
X121229253Y-115621079D01*
X121251197Y-115613227D01*
X121273806Y-115607563D01*
X121296861Y-115604144D01*
X121320140Y-115603000D01*
X121895140Y-115603000D01*
X121918419Y-115604144D01*
X121918419Y-115604144D01*
G37*
D23*
X121607640Y-116078000D03*
G04 #@! TD*
D22*
G04 #@! TO.C,C6*
G36*
X121914579Y-112149744D02*
X121937634Y-112153163D01*
X121960243Y-112158827D01*
X121982187Y-112166679D01*
X122003257Y-112176644D01*
X122023248Y-112188626D01*
X122041968Y-112202510D01*
X122059238Y-112218162D01*
X122074890Y-112235432D01*
X122088774Y-112254152D01*
X122100756Y-112274143D01*
X122110721Y-112295213D01*
X122118573Y-112317157D01*
X122124237Y-112339766D01*
X122127656Y-112362821D01*
X122128800Y-112386100D01*
X122128800Y-112861100D01*
X122127656Y-112884379D01*
X122124237Y-112907434D01*
X122118573Y-112930043D01*
X122110721Y-112951987D01*
X122100756Y-112973057D01*
X122088774Y-112993048D01*
X122074890Y-113011768D01*
X122059238Y-113029038D01*
X122041968Y-113044690D01*
X122023248Y-113058574D01*
X122003257Y-113070556D01*
X121982187Y-113080521D01*
X121960243Y-113088373D01*
X121937634Y-113094037D01*
X121914579Y-113097456D01*
X121891300Y-113098600D01*
X121316300Y-113098600D01*
X121293021Y-113097456D01*
X121269966Y-113094037D01*
X121247357Y-113088373D01*
X121225413Y-113080521D01*
X121204343Y-113070556D01*
X121184352Y-113058574D01*
X121165632Y-113044690D01*
X121148362Y-113029038D01*
X121132710Y-113011768D01*
X121118826Y-112993048D01*
X121106844Y-112973057D01*
X121096879Y-112951987D01*
X121089027Y-112930043D01*
X121083363Y-112907434D01*
X121079944Y-112884379D01*
X121078800Y-112861100D01*
X121078800Y-112386100D01*
X121079944Y-112362821D01*
X121083363Y-112339766D01*
X121089027Y-112317157D01*
X121096879Y-112295213D01*
X121106844Y-112274143D01*
X121118826Y-112254152D01*
X121132710Y-112235432D01*
X121148362Y-112218162D01*
X121165632Y-112202510D01*
X121184352Y-112188626D01*
X121204343Y-112176644D01*
X121225413Y-112166679D01*
X121247357Y-112158827D01*
X121269966Y-112153163D01*
X121293021Y-112149744D01*
X121316300Y-112148600D01*
X121891300Y-112148600D01*
X121914579Y-112149744D01*
X121914579Y-112149744D01*
G37*
D23*
X121603800Y-112623600D03*
D22*
G36*
X123664579Y-112149744D02*
X123687634Y-112153163D01*
X123710243Y-112158827D01*
X123732187Y-112166679D01*
X123753257Y-112176644D01*
X123773248Y-112188626D01*
X123791968Y-112202510D01*
X123809238Y-112218162D01*
X123824890Y-112235432D01*
X123838774Y-112254152D01*
X123850756Y-112274143D01*
X123860721Y-112295213D01*
X123868573Y-112317157D01*
X123874237Y-112339766D01*
X123877656Y-112362821D01*
X123878800Y-112386100D01*
X123878800Y-112861100D01*
X123877656Y-112884379D01*
X123874237Y-112907434D01*
X123868573Y-112930043D01*
X123860721Y-112951987D01*
X123850756Y-112973057D01*
X123838774Y-112993048D01*
X123824890Y-113011768D01*
X123809238Y-113029038D01*
X123791968Y-113044690D01*
X123773248Y-113058574D01*
X123753257Y-113070556D01*
X123732187Y-113080521D01*
X123710243Y-113088373D01*
X123687634Y-113094037D01*
X123664579Y-113097456D01*
X123641300Y-113098600D01*
X123066300Y-113098600D01*
X123043021Y-113097456D01*
X123019966Y-113094037D01*
X122997357Y-113088373D01*
X122975413Y-113080521D01*
X122954343Y-113070556D01*
X122934352Y-113058574D01*
X122915632Y-113044690D01*
X122898362Y-113029038D01*
X122882710Y-113011768D01*
X122868826Y-112993048D01*
X122856844Y-112973057D01*
X122846879Y-112951987D01*
X122839027Y-112930043D01*
X122833363Y-112907434D01*
X122829944Y-112884379D01*
X122828800Y-112861100D01*
X122828800Y-112386100D01*
X122829944Y-112362821D01*
X122833363Y-112339766D01*
X122839027Y-112317157D01*
X122846879Y-112295213D01*
X122856844Y-112274143D01*
X122868826Y-112254152D01*
X122882710Y-112235432D01*
X122898362Y-112218162D01*
X122915632Y-112202510D01*
X122934352Y-112188626D01*
X122954343Y-112176644D01*
X122975413Y-112166679D01*
X122997357Y-112158827D01*
X123019966Y-112153163D01*
X123043021Y-112149744D01*
X123066300Y-112148600D01*
X123641300Y-112148600D01*
X123664579Y-112149744D01*
X123664579Y-112149744D01*
G37*
D23*
X123353800Y-112623600D03*
G04 #@! TD*
D22*
G04 #@! TO.C,C7*
G36*
X123819579Y-113927744D02*
X123842634Y-113931163D01*
X123865243Y-113936827D01*
X123887187Y-113944679D01*
X123908257Y-113954644D01*
X123928248Y-113966626D01*
X123946968Y-113980510D01*
X123964238Y-113996162D01*
X123979890Y-114013432D01*
X123993774Y-114032152D01*
X124005756Y-114052143D01*
X124015721Y-114073213D01*
X124023573Y-114095157D01*
X124029237Y-114117766D01*
X124032656Y-114140821D01*
X124033800Y-114164100D01*
X124033800Y-114639100D01*
X124032656Y-114662379D01*
X124029237Y-114685434D01*
X124023573Y-114708043D01*
X124015721Y-114729987D01*
X124005756Y-114751057D01*
X123993774Y-114771048D01*
X123979890Y-114789768D01*
X123964238Y-114807038D01*
X123946968Y-114822690D01*
X123928248Y-114836574D01*
X123908257Y-114848556D01*
X123887187Y-114858521D01*
X123865243Y-114866373D01*
X123842634Y-114872037D01*
X123819579Y-114875456D01*
X123796300Y-114876600D01*
X123221300Y-114876600D01*
X123198021Y-114875456D01*
X123174966Y-114872037D01*
X123152357Y-114866373D01*
X123130413Y-114858521D01*
X123109343Y-114848556D01*
X123089352Y-114836574D01*
X123070632Y-114822690D01*
X123053362Y-114807038D01*
X123037710Y-114789768D01*
X123023826Y-114771048D01*
X123011844Y-114751057D01*
X123001879Y-114729987D01*
X122994027Y-114708043D01*
X122988363Y-114685434D01*
X122984944Y-114662379D01*
X122983800Y-114639100D01*
X122983800Y-114164100D01*
X122984944Y-114140821D01*
X122988363Y-114117766D01*
X122994027Y-114095157D01*
X123001879Y-114073213D01*
X123011844Y-114052143D01*
X123023826Y-114032152D01*
X123037710Y-114013432D01*
X123053362Y-113996162D01*
X123070632Y-113980510D01*
X123089352Y-113966626D01*
X123109343Y-113954644D01*
X123130413Y-113944679D01*
X123152357Y-113936827D01*
X123174966Y-113931163D01*
X123198021Y-113927744D01*
X123221300Y-113926600D01*
X123796300Y-113926600D01*
X123819579Y-113927744D01*
X123819579Y-113927744D01*
G37*
D23*
X123508800Y-114401600D03*
D22*
G36*
X125569579Y-113927744D02*
X125592634Y-113931163D01*
X125615243Y-113936827D01*
X125637187Y-113944679D01*
X125658257Y-113954644D01*
X125678248Y-113966626D01*
X125696968Y-113980510D01*
X125714238Y-113996162D01*
X125729890Y-114013432D01*
X125743774Y-114032152D01*
X125755756Y-114052143D01*
X125765721Y-114073213D01*
X125773573Y-114095157D01*
X125779237Y-114117766D01*
X125782656Y-114140821D01*
X125783800Y-114164100D01*
X125783800Y-114639100D01*
X125782656Y-114662379D01*
X125779237Y-114685434D01*
X125773573Y-114708043D01*
X125765721Y-114729987D01*
X125755756Y-114751057D01*
X125743774Y-114771048D01*
X125729890Y-114789768D01*
X125714238Y-114807038D01*
X125696968Y-114822690D01*
X125678248Y-114836574D01*
X125658257Y-114848556D01*
X125637187Y-114858521D01*
X125615243Y-114866373D01*
X125592634Y-114872037D01*
X125569579Y-114875456D01*
X125546300Y-114876600D01*
X124971300Y-114876600D01*
X124948021Y-114875456D01*
X124924966Y-114872037D01*
X124902357Y-114866373D01*
X124880413Y-114858521D01*
X124859343Y-114848556D01*
X124839352Y-114836574D01*
X124820632Y-114822690D01*
X124803362Y-114807038D01*
X124787710Y-114789768D01*
X124773826Y-114771048D01*
X124761844Y-114751057D01*
X124751879Y-114729987D01*
X124744027Y-114708043D01*
X124738363Y-114685434D01*
X124734944Y-114662379D01*
X124733800Y-114639100D01*
X124733800Y-114164100D01*
X124734944Y-114140821D01*
X124738363Y-114117766D01*
X124744027Y-114095157D01*
X124751879Y-114073213D01*
X124761844Y-114052143D01*
X124773826Y-114032152D01*
X124787710Y-114013432D01*
X124803362Y-113996162D01*
X124820632Y-113980510D01*
X124839352Y-113966626D01*
X124859343Y-113954644D01*
X124880413Y-113944679D01*
X124902357Y-113936827D01*
X124924966Y-113931163D01*
X124948021Y-113927744D01*
X124971300Y-113926600D01*
X125546300Y-113926600D01*
X125569579Y-113927744D01*
X125569579Y-113927744D01*
G37*
D23*
X125258800Y-114401600D03*
G04 #@! TD*
D24*
G04 #@! TO.C,D2*
X118320240Y-112887760D03*
X116220240Y-112887760D03*
G04 #@! TD*
G04 #@! TO.C,D3*
X119528880Y-117962680D03*
X121628880Y-117962680D03*
G04 #@! TD*
D25*
G04 #@! TO.C,D4*
X119806720Y-108393520D03*
X119806720Y-110493520D03*
G04 #@! TD*
G04 #@! TO.C,D5*
X119801640Y-105020400D03*
X119801640Y-107120400D03*
G04 #@! TD*
D22*
G04 #@! TO.C,R1*
G36*
X104273779Y-94458144D02*
X104296834Y-94461563D01*
X104319443Y-94467227D01*
X104341387Y-94475079D01*
X104362457Y-94485044D01*
X104382448Y-94497026D01*
X104401168Y-94510910D01*
X104418438Y-94526562D01*
X104434090Y-94543832D01*
X104447974Y-94562552D01*
X104459956Y-94582543D01*
X104469921Y-94603613D01*
X104477773Y-94625557D01*
X104483437Y-94648166D01*
X104486856Y-94671221D01*
X104488000Y-94694500D01*
X104488000Y-95269500D01*
X104486856Y-95292779D01*
X104483437Y-95315834D01*
X104477773Y-95338443D01*
X104469921Y-95360387D01*
X104459956Y-95381457D01*
X104447974Y-95401448D01*
X104434090Y-95420168D01*
X104418438Y-95437438D01*
X104401168Y-95453090D01*
X104382448Y-95466974D01*
X104362457Y-95478956D01*
X104341387Y-95488921D01*
X104319443Y-95496773D01*
X104296834Y-95502437D01*
X104273779Y-95505856D01*
X104250500Y-95507000D01*
X103775500Y-95507000D01*
X103752221Y-95505856D01*
X103729166Y-95502437D01*
X103706557Y-95496773D01*
X103684613Y-95488921D01*
X103663543Y-95478956D01*
X103643552Y-95466974D01*
X103624832Y-95453090D01*
X103607562Y-95437438D01*
X103591910Y-95420168D01*
X103578026Y-95401448D01*
X103566044Y-95381457D01*
X103556079Y-95360387D01*
X103548227Y-95338443D01*
X103542563Y-95315834D01*
X103539144Y-95292779D01*
X103538000Y-95269500D01*
X103538000Y-94694500D01*
X103539144Y-94671221D01*
X103542563Y-94648166D01*
X103548227Y-94625557D01*
X103556079Y-94603613D01*
X103566044Y-94582543D01*
X103578026Y-94562552D01*
X103591910Y-94543832D01*
X103607562Y-94526562D01*
X103624832Y-94510910D01*
X103643552Y-94497026D01*
X103663543Y-94485044D01*
X103684613Y-94475079D01*
X103706557Y-94467227D01*
X103729166Y-94461563D01*
X103752221Y-94458144D01*
X103775500Y-94457000D01*
X104250500Y-94457000D01*
X104273779Y-94458144D01*
X104273779Y-94458144D01*
G37*
D23*
X104013000Y-94982000D03*
D22*
G36*
X104273779Y-92708144D02*
X104296834Y-92711563D01*
X104319443Y-92717227D01*
X104341387Y-92725079D01*
X104362457Y-92735044D01*
X104382448Y-92747026D01*
X104401168Y-92760910D01*
X104418438Y-92776562D01*
X104434090Y-92793832D01*
X104447974Y-92812552D01*
X104459956Y-92832543D01*
X104469921Y-92853613D01*
X104477773Y-92875557D01*
X104483437Y-92898166D01*
X104486856Y-92921221D01*
X104488000Y-92944500D01*
X104488000Y-93519500D01*
X104486856Y-93542779D01*
X104483437Y-93565834D01*
X104477773Y-93588443D01*
X104469921Y-93610387D01*
X104459956Y-93631457D01*
X104447974Y-93651448D01*
X104434090Y-93670168D01*
X104418438Y-93687438D01*
X104401168Y-93703090D01*
X104382448Y-93716974D01*
X104362457Y-93728956D01*
X104341387Y-93738921D01*
X104319443Y-93746773D01*
X104296834Y-93752437D01*
X104273779Y-93755856D01*
X104250500Y-93757000D01*
X103775500Y-93757000D01*
X103752221Y-93755856D01*
X103729166Y-93752437D01*
X103706557Y-93746773D01*
X103684613Y-93738921D01*
X103663543Y-93728956D01*
X103643552Y-93716974D01*
X103624832Y-93703090D01*
X103607562Y-93687438D01*
X103591910Y-93670168D01*
X103578026Y-93651448D01*
X103566044Y-93631457D01*
X103556079Y-93610387D01*
X103548227Y-93588443D01*
X103542563Y-93565834D01*
X103539144Y-93542779D01*
X103538000Y-93519500D01*
X103538000Y-92944500D01*
X103539144Y-92921221D01*
X103542563Y-92898166D01*
X103548227Y-92875557D01*
X103556079Y-92853613D01*
X103566044Y-92832543D01*
X103578026Y-92812552D01*
X103591910Y-92793832D01*
X103607562Y-92776562D01*
X103624832Y-92760910D01*
X103643552Y-92747026D01*
X103663543Y-92735044D01*
X103684613Y-92725079D01*
X103706557Y-92717227D01*
X103729166Y-92711563D01*
X103752221Y-92708144D01*
X103775500Y-92707000D01*
X104250500Y-92707000D01*
X104273779Y-92708144D01*
X104273779Y-92708144D01*
G37*
D23*
X104013000Y-93232000D03*
G04 #@! TD*
D22*
G04 #@! TO.C,R2*
G36*
X106158459Y-96284464D02*
X106181514Y-96287883D01*
X106204123Y-96293547D01*
X106226067Y-96301399D01*
X106247137Y-96311364D01*
X106267128Y-96323346D01*
X106285848Y-96337230D01*
X106303118Y-96352882D01*
X106318770Y-96370152D01*
X106332654Y-96388872D01*
X106344636Y-96408863D01*
X106354601Y-96429933D01*
X106362453Y-96451877D01*
X106368117Y-96474486D01*
X106371536Y-96497541D01*
X106372680Y-96520820D01*
X106372680Y-97095820D01*
X106371536Y-97119099D01*
X106368117Y-97142154D01*
X106362453Y-97164763D01*
X106354601Y-97186707D01*
X106344636Y-97207777D01*
X106332654Y-97227768D01*
X106318770Y-97246488D01*
X106303118Y-97263758D01*
X106285848Y-97279410D01*
X106267128Y-97293294D01*
X106247137Y-97305276D01*
X106226067Y-97315241D01*
X106204123Y-97323093D01*
X106181514Y-97328757D01*
X106158459Y-97332176D01*
X106135180Y-97333320D01*
X105660180Y-97333320D01*
X105636901Y-97332176D01*
X105613846Y-97328757D01*
X105591237Y-97323093D01*
X105569293Y-97315241D01*
X105548223Y-97305276D01*
X105528232Y-97293294D01*
X105509512Y-97279410D01*
X105492242Y-97263758D01*
X105476590Y-97246488D01*
X105462706Y-97227768D01*
X105450724Y-97207777D01*
X105440759Y-97186707D01*
X105432907Y-97164763D01*
X105427243Y-97142154D01*
X105423824Y-97119099D01*
X105422680Y-97095820D01*
X105422680Y-96520820D01*
X105423824Y-96497541D01*
X105427243Y-96474486D01*
X105432907Y-96451877D01*
X105440759Y-96429933D01*
X105450724Y-96408863D01*
X105462706Y-96388872D01*
X105476590Y-96370152D01*
X105492242Y-96352882D01*
X105509512Y-96337230D01*
X105528232Y-96323346D01*
X105548223Y-96311364D01*
X105569293Y-96301399D01*
X105591237Y-96293547D01*
X105613846Y-96287883D01*
X105636901Y-96284464D01*
X105660180Y-96283320D01*
X106135180Y-96283320D01*
X106158459Y-96284464D01*
X106158459Y-96284464D01*
G37*
D23*
X105897680Y-96808320D03*
D22*
G36*
X106158459Y-98034464D02*
X106181514Y-98037883D01*
X106204123Y-98043547D01*
X106226067Y-98051399D01*
X106247137Y-98061364D01*
X106267128Y-98073346D01*
X106285848Y-98087230D01*
X106303118Y-98102882D01*
X106318770Y-98120152D01*
X106332654Y-98138872D01*
X106344636Y-98158863D01*
X106354601Y-98179933D01*
X106362453Y-98201877D01*
X106368117Y-98224486D01*
X106371536Y-98247541D01*
X106372680Y-98270820D01*
X106372680Y-98845820D01*
X106371536Y-98869099D01*
X106368117Y-98892154D01*
X106362453Y-98914763D01*
X106354601Y-98936707D01*
X106344636Y-98957777D01*
X106332654Y-98977768D01*
X106318770Y-98996488D01*
X106303118Y-99013758D01*
X106285848Y-99029410D01*
X106267128Y-99043294D01*
X106247137Y-99055276D01*
X106226067Y-99065241D01*
X106204123Y-99073093D01*
X106181514Y-99078757D01*
X106158459Y-99082176D01*
X106135180Y-99083320D01*
X105660180Y-99083320D01*
X105636901Y-99082176D01*
X105613846Y-99078757D01*
X105591237Y-99073093D01*
X105569293Y-99065241D01*
X105548223Y-99055276D01*
X105528232Y-99043294D01*
X105509512Y-99029410D01*
X105492242Y-99013758D01*
X105476590Y-98996488D01*
X105462706Y-98977768D01*
X105450724Y-98957777D01*
X105440759Y-98936707D01*
X105432907Y-98914763D01*
X105427243Y-98892154D01*
X105423824Y-98869099D01*
X105422680Y-98845820D01*
X105422680Y-98270820D01*
X105423824Y-98247541D01*
X105427243Y-98224486D01*
X105432907Y-98201877D01*
X105440759Y-98179933D01*
X105450724Y-98158863D01*
X105462706Y-98138872D01*
X105476590Y-98120152D01*
X105492242Y-98102882D01*
X105509512Y-98087230D01*
X105528232Y-98073346D01*
X105548223Y-98061364D01*
X105569293Y-98051399D01*
X105591237Y-98043547D01*
X105613846Y-98037883D01*
X105636901Y-98034464D01*
X105660180Y-98033320D01*
X106135180Y-98033320D01*
X106158459Y-98034464D01*
X106158459Y-98034464D01*
G37*
D23*
X105897680Y-98558320D03*
G04 #@! TD*
D22*
G04 #@! TO.C,R3*
G36*
X121494179Y-101090584D02*
X121517234Y-101094003D01*
X121539843Y-101099667D01*
X121561787Y-101107519D01*
X121582857Y-101117484D01*
X121602848Y-101129466D01*
X121621568Y-101143350D01*
X121638838Y-101159002D01*
X121654490Y-101176272D01*
X121668374Y-101194992D01*
X121680356Y-101214983D01*
X121690321Y-101236053D01*
X121698173Y-101257997D01*
X121703837Y-101280606D01*
X121707256Y-101303661D01*
X121708400Y-101326940D01*
X121708400Y-101801940D01*
X121707256Y-101825219D01*
X121703837Y-101848274D01*
X121698173Y-101870883D01*
X121690321Y-101892827D01*
X121680356Y-101913897D01*
X121668374Y-101933888D01*
X121654490Y-101952608D01*
X121638838Y-101969878D01*
X121621568Y-101985530D01*
X121602848Y-101999414D01*
X121582857Y-102011396D01*
X121561787Y-102021361D01*
X121539843Y-102029213D01*
X121517234Y-102034877D01*
X121494179Y-102038296D01*
X121470900Y-102039440D01*
X120895900Y-102039440D01*
X120872621Y-102038296D01*
X120849566Y-102034877D01*
X120826957Y-102029213D01*
X120805013Y-102021361D01*
X120783943Y-102011396D01*
X120763952Y-101999414D01*
X120745232Y-101985530D01*
X120727962Y-101969878D01*
X120712310Y-101952608D01*
X120698426Y-101933888D01*
X120686444Y-101913897D01*
X120676479Y-101892827D01*
X120668627Y-101870883D01*
X120662963Y-101848274D01*
X120659544Y-101825219D01*
X120658400Y-101801940D01*
X120658400Y-101326940D01*
X120659544Y-101303661D01*
X120662963Y-101280606D01*
X120668627Y-101257997D01*
X120676479Y-101236053D01*
X120686444Y-101214983D01*
X120698426Y-101194992D01*
X120712310Y-101176272D01*
X120727962Y-101159002D01*
X120745232Y-101143350D01*
X120763952Y-101129466D01*
X120783943Y-101117484D01*
X120805013Y-101107519D01*
X120826957Y-101099667D01*
X120849566Y-101094003D01*
X120872621Y-101090584D01*
X120895900Y-101089440D01*
X121470900Y-101089440D01*
X121494179Y-101090584D01*
X121494179Y-101090584D01*
G37*
D23*
X121183400Y-101564440D03*
D22*
G36*
X119744179Y-101090584D02*
X119767234Y-101094003D01*
X119789843Y-101099667D01*
X119811787Y-101107519D01*
X119832857Y-101117484D01*
X119852848Y-101129466D01*
X119871568Y-101143350D01*
X119888838Y-101159002D01*
X119904490Y-101176272D01*
X119918374Y-101194992D01*
X119930356Y-101214983D01*
X119940321Y-101236053D01*
X119948173Y-101257997D01*
X119953837Y-101280606D01*
X119957256Y-101303661D01*
X119958400Y-101326940D01*
X119958400Y-101801940D01*
X119957256Y-101825219D01*
X119953837Y-101848274D01*
X119948173Y-101870883D01*
X119940321Y-101892827D01*
X119930356Y-101913897D01*
X119918374Y-101933888D01*
X119904490Y-101952608D01*
X119888838Y-101969878D01*
X119871568Y-101985530D01*
X119852848Y-101999414D01*
X119832857Y-102011396D01*
X119811787Y-102021361D01*
X119789843Y-102029213D01*
X119767234Y-102034877D01*
X119744179Y-102038296D01*
X119720900Y-102039440D01*
X119145900Y-102039440D01*
X119122621Y-102038296D01*
X119099566Y-102034877D01*
X119076957Y-102029213D01*
X119055013Y-102021361D01*
X119033943Y-102011396D01*
X119013952Y-101999414D01*
X118995232Y-101985530D01*
X118977962Y-101969878D01*
X118962310Y-101952608D01*
X118948426Y-101933888D01*
X118936444Y-101913897D01*
X118926479Y-101892827D01*
X118918627Y-101870883D01*
X118912963Y-101848274D01*
X118909544Y-101825219D01*
X118908400Y-101801940D01*
X118908400Y-101326940D01*
X118909544Y-101303661D01*
X118912963Y-101280606D01*
X118918627Y-101257997D01*
X118926479Y-101236053D01*
X118936444Y-101214983D01*
X118948426Y-101194992D01*
X118962310Y-101176272D01*
X118977962Y-101159002D01*
X118995232Y-101143350D01*
X119013952Y-101129466D01*
X119033943Y-101117484D01*
X119055013Y-101107519D01*
X119076957Y-101099667D01*
X119099566Y-101094003D01*
X119122621Y-101090584D01*
X119145900Y-101089440D01*
X119720900Y-101089440D01*
X119744179Y-101090584D01*
X119744179Y-101090584D01*
G37*
D23*
X119433400Y-101564440D03*
G04 #@! TD*
D22*
G04 #@! TO.C,R4*
G36*
X120158939Y-115514744D02*
X120181994Y-115518163D01*
X120204603Y-115523827D01*
X120226547Y-115531679D01*
X120247617Y-115541644D01*
X120267608Y-115553626D01*
X120286328Y-115567510D01*
X120303598Y-115583162D01*
X120319250Y-115600432D01*
X120333134Y-115619152D01*
X120345116Y-115639143D01*
X120355081Y-115660213D01*
X120362933Y-115682157D01*
X120368597Y-115704766D01*
X120372016Y-115727821D01*
X120373160Y-115751100D01*
X120373160Y-116326100D01*
X120372016Y-116349379D01*
X120368597Y-116372434D01*
X120362933Y-116395043D01*
X120355081Y-116416987D01*
X120345116Y-116438057D01*
X120333134Y-116458048D01*
X120319250Y-116476768D01*
X120303598Y-116494038D01*
X120286328Y-116509690D01*
X120267608Y-116523574D01*
X120247617Y-116535556D01*
X120226547Y-116545521D01*
X120204603Y-116553373D01*
X120181994Y-116559037D01*
X120158939Y-116562456D01*
X120135660Y-116563600D01*
X119660660Y-116563600D01*
X119637381Y-116562456D01*
X119614326Y-116559037D01*
X119591717Y-116553373D01*
X119569773Y-116545521D01*
X119548703Y-116535556D01*
X119528712Y-116523574D01*
X119509992Y-116509690D01*
X119492722Y-116494038D01*
X119477070Y-116476768D01*
X119463186Y-116458048D01*
X119451204Y-116438057D01*
X119441239Y-116416987D01*
X119433387Y-116395043D01*
X119427723Y-116372434D01*
X119424304Y-116349379D01*
X119423160Y-116326100D01*
X119423160Y-115751100D01*
X119424304Y-115727821D01*
X119427723Y-115704766D01*
X119433387Y-115682157D01*
X119441239Y-115660213D01*
X119451204Y-115639143D01*
X119463186Y-115619152D01*
X119477070Y-115600432D01*
X119492722Y-115583162D01*
X119509992Y-115567510D01*
X119528712Y-115553626D01*
X119548703Y-115541644D01*
X119569773Y-115531679D01*
X119591717Y-115523827D01*
X119614326Y-115518163D01*
X119637381Y-115514744D01*
X119660660Y-115513600D01*
X120135660Y-115513600D01*
X120158939Y-115514744D01*
X120158939Y-115514744D01*
G37*
D23*
X119898160Y-116038600D03*
D22*
G36*
X120158939Y-113764744D02*
X120181994Y-113768163D01*
X120204603Y-113773827D01*
X120226547Y-113781679D01*
X120247617Y-113791644D01*
X120267608Y-113803626D01*
X120286328Y-113817510D01*
X120303598Y-113833162D01*
X120319250Y-113850432D01*
X120333134Y-113869152D01*
X120345116Y-113889143D01*
X120355081Y-113910213D01*
X120362933Y-113932157D01*
X120368597Y-113954766D01*
X120372016Y-113977821D01*
X120373160Y-114001100D01*
X120373160Y-114576100D01*
X120372016Y-114599379D01*
X120368597Y-114622434D01*
X120362933Y-114645043D01*
X120355081Y-114666987D01*
X120345116Y-114688057D01*
X120333134Y-114708048D01*
X120319250Y-114726768D01*
X120303598Y-114744038D01*
X120286328Y-114759690D01*
X120267608Y-114773574D01*
X120247617Y-114785556D01*
X120226547Y-114795521D01*
X120204603Y-114803373D01*
X120181994Y-114809037D01*
X120158939Y-114812456D01*
X120135660Y-114813600D01*
X119660660Y-114813600D01*
X119637381Y-114812456D01*
X119614326Y-114809037D01*
X119591717Y-114803373D01*
X119569773Y-114795521D01*
X119548703Y-114785556D01*
X119528712Y-114773574D01*
X119509992Y-114759690D01*
X119492722Y-114744038D01*
X119477070Y-114726768D01*
X119463186Y-114708048D01*
X119451204Y-114688057D01*
X119441239Y-114666987D01*
X119433387Y-114645043D01*
X119427723Y-114622434D01*
X119424304Y-114599379D01*
X119423160Y-114576100D01*
X119423160Y-114001100D01*
X119424304Y-113977821D01*
X119427723Y-113954766D01*
X119433387Y-113932157D01*
X119441239Y-113910213D01*
X119451204Y-113889143D01*
X119463186Y-113869152D01*
X119477070Y-113850432D01*
X119492722Y-113833162D01*
X119509992Y-113817510D01*
X119528712Y-113803626D01*
X119548703Y-113791644D01*
X119569773Y-113781679D01*
X119591717Y-113773827D01*
X119614326Y-113768163D01*
X119637381Y-113764744D01*
X119660660Y-113763600D01*
X120135660Y-113763600D01*
X120158939Y-113764744D01*
X120158939Y-113764744D01*
G37*
D23*
X119898160Y-114288600D03*
G04 #@! TD*
D26*
G04 #@! TO.C,J3*
X104345848Y-110396844D03*
D22*
G36*
X103659381Y-110632403D02*
X104761498Y-109801899D01*
X105032315Y-110161285D01*
X103930198Y-110991789D01*
X103659381Y-110632403D01*
X103659381Y-110632403D01*
G37*
D26*
X104737027Y-110915958D03*
D22*
G36*
X104050560Y-111151517D02*
X105152677Y-110321013D01*
X105423494Y-110680399D01*
X104321377Y-111510903D01*
X104050560Y-111151517D01*
X104050560Y-111151517D01*
G37*
D26*
X105128208Y-111435070D03*
D22*
G36*
X104441741Y-111670629D02*
X105543858Y-110840125D01*
X105814675Y-111199511D01*
X104712558Y-112030015D01*
X104441741Y-111670629D01*
X104441741Y-111670629D01*
G37*
D26*
X105519387Y-111954184D03*
D22*
G36*
X104832920Y-112189743D02*
X105935037Y-111359239D01*
X106205854Y-111718625D01*
X105103737Y-112549129D01*
X104832920Y-112189743D01*
X104832920Y-112189743D01*
G37*
D26*
X105910567Y-112473296D03*
D22*
G36*
X105224100Y-112708855D02*
X106326217Y-111878351D01*
X106597034Y-112237737D01*
X105494917Y-113068241D01*
X105224100Y-112708855D01*
X105224100Y-112708855D01*
G37*
D27*
X103358730Y-109685084D03*
D22*
G36*
X102076324Y-109727996D02*
X103753459Y-108464185D01*
X104641136Y-109642172D01*
X102964001Y-110905983D01*
X102076324Y-109727996D01*
X102076324Y-109727996D01*
G37*
D27*
X106322669Y-113618363D03*
D22*
G36*
X105040263Y-113661275D02*
X106717398Y-112397464D01*
X107605075Y-113575451D01*
X105927940Y-114839262D01*
X105040263Y-113661275D01*
X105040263Y-113661275D01*
G37*
D28*
X101252556Y-110711869D03*
D22*
G36*
X99779197Y-110335214D02*
X101296604Y-109191765D01*
X102725915Y-111088524D01*
X101208508Y-112231973D01*
X99779197Y-110335214D01*
X99779197Y-110335214D01*
G37*
D28*
X104755119Y-115359927D03*
D22*
G36*
X103281760Y-114983272D02*
X104799167Y-113839823D01*
X106228478Y-115736582D01*
X104711071Y-116880031D01*
X103281760Y-114983272D01*
X103281760Y-114983272D01*
G37*
D29*
X102498313Y-112365044D03*
D22*
G36*
X101386043Y-112467570D02*
X102903450Y-111324121D01*
X103610583Y-112262518D01*
X102093176Y-113405967D01*
X101386043Y-112467570D01*
X101386043Y-112467570D01*
G37*
D29*
X103509362Y-113706752D03*
D22*
G36*
X102397092Y-113809278D02*
X103914499Y-112665829D01*
X104621632Y-113604226D01*
X103104225Y-114747675D01*
X102397092Y-113809278D01*
X102397092Y-113809278D01*
G37*
G04 #@! TD*
D30*
G04 #@! TO.C,J2*
X123948000Y-102768400D03*
X123948000Y-107848400D03*
X127258000Y-105308400D03*
G04 #@! TD*
D22*
G04 #@! TO.C,C8*
G36*
X109321259Y-98804584D02*
X109344314Y-98808003D01*
X109366923Y-98813667D01*
X109388867Y-98821519D01*
X109409937Y-98831484D01*
X109429928Y-98843466D01*
X109448648Y-98857350D01*
X109465918Y-98873002D01*
X109481570Y-98890272D01*
X109495454Y-98908992D01*
X109507436Y-98928983D01*
X109517401Y-98950053D01*
X109525253Y-98971997D01*
X109530917Y-98994606D01*
X109534336Y-99017661D01*
X109535480Y-99040940D01*
X109535480Y-99515940D01*
X109534336Y-99539219D01*
X109530917Y-99562274D01*
X109525253Y-99584883D01*
X109517401Y-99606827D01*
X109507436Y-99627897D01*
X109495454Y-99647888D01*
X109481570Y-99666608D01*
X109465918Y-99683878D01*
X109448648Y-99699530D01*
X109429928Y-99713414D01*
X109409937Y-99725396D01*
X109388867Y-99735361D01*
X109366923Y-99743213D01*
X109344314Y-99748877D01*
X109321259Y-99752296D01*
X109297980Y-99753440D01*
X108722980Y-99753440D01*
X108699701Y-99752296D01*
X108676646Y-99748877D01*
X108654037Y-99743213D01*
X108632093Y-99735361D01*
X108611023Y-99725396D01*
X108591032Y-99713414D01*
X108572312Y-99699530D01*
X108555042Y-99683878D01*
X108539390Y-99666608D01*
X108525506Y-99647888D01*
X108513524Y-99627897D01*
X108503559Y-99606827D01*
X108495707Y-99584883D01*
X108490043Y-99562274D01*
X108486624Y-99539219D01*
X108485480Y-99515940D01*
X108485480Y-99040940D01*
X108486624Y-99017661D01*
X108490043Y-98994606D01*
X108495707Y-98971997D01*
X108503559Y-98950053D01*
X108513524Y-98928983D01*
X108525506Y-98908992D01*
X108539390Y-98890272D01*
X108555042Y-98873002D01*
X108572312Y-98857350D01*
X108591032Y-98843466D01*
X108611023Y-98831484D01*
X108632093Y-98821519D01*
X108654037Y-98813667D01*
X108676646Y-98808003D01*
X108699701Y-98804584D01*
X108722980Y-98803440D01*
X109297980Y-98803440D01*
X109321259Y-98804584D01*
X109321259Y-98804584D01*
G37*
D23*
X109010480Y-99278440D03*
D22*
G36*
X111071259Y-98804584D02*
X111094314Y-98808003D01*
X111116923Y-98813667D01*
X111138867Y-98821519D01*
X111159937Y-98831484D01*
X111179928Y-98843466D01*
X111198648Y-98857350D01*
X111215918Y-98873002D01*
X111231570Y-98890272D01*
X111245454Y-98908992D01*
X111257436Y-98928983D01*
X111267401Y-98950053D01*
X111275253Y-98971997D01*
X111280917Y-98994606D01*
X111284336Y-99017661D01*
X111285480Y-99040940D01*
X111285480Y-99515940D01*
X111284336Y-99539219D01*
X111280917Y-99562274D01*
X111275253Y-99584883D01*
X111267401Y-99606827D01*
X111257436Y-99627897D01*
X111245454Y-99647888D01*
X111231570Y-99666608D01*
X111215918Y-99683878D01*
X111198648Y-99699530D01*
X111179928Y-99713414D01*
X111159937Y-99725396D01*
X111138867Y-99735361D01*
X111116923Y-99743213D01*
X111094314Y-99748877D01*
X111071259Y-99752296D01*
X111047980Y-99753440D01*
X110472980Y-99753440D01*
X110449701Y-99752296D01*
X110426646Y-99748877D01*
X110404037Y-99743213D01*
X110382093Y-99735361D01*
X110361023Y-99725396D01*
X110341032Y-99713414D01*
X110322312Y-99699530D01*
X110305042Y-99683878D01*
X110289390Y-99666608D01*
X110275506Y-99647888D01*
X110263524Y-99627897D01*
X110253559Y-99606827D01*
X110245707Y-99584883D01*
X110240043Y-99562274D01*
X110236624Y-99539219D01*
X110235480Y-99515940D01*
X110235480Y-99040940D01*
X110236624Y-99017661D01*
X110240043Y-98994606D01*
X110245707Y-98971997D01*
X110253559Y-98950053D01*
X110263524Y-98928983D01*
X110275506Y-98908992D01*
X110289390Y-98890272D01*
X110305042Y-98873002D01*
X110322312Y-98857350D01*
X110341032Y-98843466D01*
X110361023Y-98831484D01*
X110382093Y-98821519D01*
X110404037Y-98813667D01*
X110426646Y-98808003D01*
X110449701Y-98804584D01*
X110472980Y-98803440D01*
X111047980Y-98803440D01*
X111071259Y-98804584D01*
X111071259Y-98804584D01*
G37*
D23*
X110760480Y-99278440D03*
G04 #@! TD*
D22*
G04 #@! TO.C,C9*
G36*
X107570699Y-101026584D02*
X107593754Y-101030003D01*
X107616363Y-101035667D01*
X107638307Y-101043519D01*
X107659377Y-101053484D01*
X107679368Y-101065466D01*
X107698088Y-101079350D01*
X107715358Y-101095002D01*
X107731010Y-101112272D01*
X107744894Y-101130992D01*
X107756876Y-101150983D01*
X107766841Y-101172053D01*
X107774693Y-101193997D01*
X107780357Y-101216606D01*
X107783776Y-101239661D01*
X107784920Y-101262940D01*
X107784920Y-101837940D01*
X107783776Y-101861219D01*
X107780357Y-101884274D01*
X107774693Y-101906883D01*
X107766841Y-101928827D01*
X107756876Y-101949897D01*
X107744894Y-101969888D01*
X107731010Y-101988608D01*
X107715358Y-102005878D01*
X107698088Y-102021530D01*
X107679368Y-102035414D01*
X107659377Y-102047396D01*
X107638307Y-102057361D01*
X107616363Y-102065213D01*
X107593754Y-102070877D01*
X107570699Y-102074296D01*
X107547420Y-102075440D01*
X107072420Y-102075440D01*
X107049141Y-102074296D01*
X107026086Y-102070877D01*
X107003477Y-102065213D01*
X106981533Y-102057361D01*
X106960463Y-102047396D01*
X106940472Y-102035414D01*
X106921752Y-102021530D01*
X106904482Y-102005878D01*
X106888830Y-101988608D01*
X106874946Y-101969888D01*
X106862964Y-101949897D01*
X106852999Y-101928827D01*
X106845147Y-101906883D01*
X106839483Y-101884274D01*
X106836064Y-101861219D01*
X106834920Y-101837940D01*
X106834920Y-101262940D01*
X106836064Y-101239661D01*
X106839483Y-101216606D01*
X106845147Y-101193997D01*
X106852999Y-101172053D01*
X106862964Y-101150983D01*
X106874946Y-101130992D01*
X106888830Y-101112272D01*
X106904482Y-101095002D01*
X106921752Y-101079350D01*
X106940472Y-101065466D01*
X106960463Y-101053484D01*
X106981533Y-101043519D01*
X107003477Y-101035667D01*
X107026086Y-101030003D01*
X107049141Y-101026584D01*
X107072420Y-101025440D01*
X107547420Y-101025440D01*
X107570699Y-101026584D01*
X107570699Y-101026584D01*
G37*
D23*
X107309920Y-101550440D03*
D22*
G36*
X107570699Y-99276584D02*
X107593754Y-99280003D01*
X107616363Y-99285667D01*
X107638307Y-99293519D01*
X107659377Y-99303484D01*
X107679368Y-99315466D01*
X107698088Y-99329350D01*
X107715358Y-99345002D01*
X107731010Y-99362272D01*
X107744894Y-99380992D01*
X107756876Y-99400983D01*
X107766841Y-99422053D01*
X107774693Y-99443997D01*
X107780357Y-99466606D01*
X107783776Y-99489661D01*
X107784920Y-99512940D01*
X107784920Y-100087940D01*
X107783776Y-100111219D01*
X107780357Y-100134274D01*
X107774693Y-100156883D01*
X107766841Y-100178827D01*
X107756876Y-100199897D01*
X107744894Y-100219888D01*
X107731010Y-100238608D01*
X107715358Y-100255878D01*
X107698088Y-100271530D01*
X107679368Y-100285414D01*
X107659377Y-100297396D01*
X107638307Y-100307361D01*
X107616363Y-100315213D01*
X107593754Y-100320877D01*
X107570699Y-100324296D01*
X107547420Y-100325440D01*
X107072420Y-100325440D01*
X107049141Y-100324296D01*
X107026086Y-100320877D01*
X107003477Y-100315213D01*
X106981533Y-100307361D01*
X106960463Y-100297396D01*
X106940472Y-100285414D01*
X106921752Y-100271530D01*
X106904482Y-100255878D01*
X106888830Y-100238608D01*
X106874946Y-100219888D01*
X106862964Y-100199897D01*
X106852999Y-100178827D01*
X106845147Y-100156883D01*
X106839483Y-100134274D01*
X106836064Y-100111219D01*
X106834920Y-100087940D01*
X106834920Y-99512940D01*
X106836064Y-99489661D01*
X106839483Y-99466606D01*
X106845147Y-99443997D01*
X106852999Y-99422053D01*
X106862964Y-99400983D01*
X106874946Y-99380992D01*
X106888830Y-99362272D01*
X106904482Y-99345002D01*
X106921752Y-99329350D01*
X106940472Y-99315466D01*
X106960463Y-99303484D01*
X106981533Y-99293519D01*
X107003477Y-99285667D01*
X107026086Y-99280003D01*
X107049141Y-99276584D01*
X107072420Y-99275440D01*
X107547420Y-99275440D01*
X107570699Y-99276584D01*
X107570699Y-99276584D01*
G37*
D23*
X107309920Y-99800440D03*
G04 #@! TD*
D22*
G04 #@! TO.C,C10*
G36*
X98858499Y-106852104D02*
X98881554Y-106855523D01*
X98904163Y-106861187D01*
X98926107Y-106869039D01*
X98947177Y-106879004D01*
X98967168Y-106890986D01*
X98985888Y-106904870D01*
X99003158Y-106920522D01*
X99018810Y-106937792D01*
X99032694Y-106956512D01*
X99044676Y-106976503D01*
X99054641Y-106997573D01*
X99062493Y-107019517D01*
X99068157Y-107042126D01*
X99071576Y-107065181D01*
X99072720Y-107088460D01*
X99072720Y-107663460D01*
X99071576Y-107686739D01*
X99068157Y-107709794D01*
X99062493Y-107732403D01*
X99054641Y-107754347D01*
X99044676Y-107775417D01*
X99032694Y-107795408D01*
X99018810Y-107814128D01*
X99003158Y-107831398D01*
X98985888Y-107847050D01*
X98967168Y-107860934D01*
X98947177Y-107872916D01*
X98926107Y-107882881D01*
X98904163Y-107890733D01*
X98881554Y-107896397D01*
X98858499Y-107899816D01*
X98835220Y-107900960D01*
X98360220Y-107900960D01*
X98336941Y-107899816D01*
X98313886Y-107896397D01*
X98291277Y-107890733D01*
X98269333Y-107882881D01*
X98248263Y-107872916D01*
X98228272Y-107860934D01*
X98209552Y-107847050D01*
X98192282Y-107831398D01*
X98176630Y-107814128D01*
X98162746Y-107795408D01*
X98150764Y-107775417D01*
X98140799Y-107754347D01*
X98132947Y-107732403D01*
X98127283Y-107709794D01*
X98123864Y-107686739D01*
X98122720Y-107663460D01*
X98122720Y-107088460D01*
X98123864Y-107065181D01*
X98127283Y-107042126D01*
X98132947Y-107019517D01*
X98140799Y-106997573D01*
X98150764Y-106976503D01*
X98162746Y-106956512D01*
X98176630Y-106937792D01*
X98192282Y-106920522D01*
X98209552Y-106904870D01*
X98228272Y-106890986D01*
X98248263Y-106879004D01*
X98269333Y-106869039D01*
X98291277Y-106861187D01*
X98313886Y-106855523D01*
X98336941Y-106852104D01*
X98360220Y-106850960D01*
X98835220Y-106850960D01*
X98858499Y-106852104D01*
X98858499Y-106852104D01*
G37*
D23*
X98597720Y-107375960D03*
D22*
G36*
X98858499Y-108602104D02*
X98881554Y-108605523D01*
X98904163Y-108611187D01*
X98926107Y-108619039D01*
X98947177Y-108629004D01*
X98967168Y-108640986D01*
X98985888Y-108654870D01*
X99003158Y-108670522D01*
X99018810Y-108687792D01*
X99032694Y-108706512D01*
X99044676Y-108726503D01*
X99054641Y-108747573D01*
X99062493Y-108769517D01*
X99068157Y-108792126D01*
X99071576Y-108815181D01*
X99072720Y-108838460D01*
X99072720Y-109413460D01*
X99071576Y-109436739D01*
X99068157Y-109459794D01*
X99062493Y-109482403D01*
X99054641Y-109504347D01*
X99044676Y-109525417D01*
X99032694Y-109545408D01*
X99018810Y-109564128D01*
X99003158Y-109581398D01*
X98985888Y-109597050D01*
X98967168Y-109610934D01*
X98947177Y-109622916D01*
X98926107Y-109632881D01*
X98904163Y-109640733D01*
X98881554Y-109646397D01*
X98858499Y-109649816D01*
X98835220Y-109650960D01*
X98360220Y-109650960D01*
X98336941Y-109649816D01*
X98313886Y-109646397D01*
X98291277Y-109640733D01*
X98269333Y-109632881D01*
X98248263Y-109622916D01*
X98228272Y-109610934D01*
X98209552Y-109597050D01*
X98192282Y-109581398D01*
X98176630Y-109564128D01*
X98162746Y-109545408D01*
X98150764Y-109525417D01*
X98140799Y-109504347D01*
X98132947Y-109482403D01*
X98127283Y-109459794D01*
X98123864Y-109436739D01*
X98122720Y-109413460D01*
X98122720Y-108838460D01*
X98123864Y-108815181D01*
X98127283Y-108792126D01*
X98132947Y-108769517D01*
X98140799Y-108747573D01*
X98150764Y-108726503D01*
X98162746Y-108706512D01*
X98176630Y-108687792D01*
X98192282Y-108670522D01*
X98209552Y-108654870D01*
X98228272Y-108640986D01*
X98248263Y-108629004D01*
X98269333Y-108619039D01*
X98291277Y-108611187D01*
X98313886Y-108605523D01*
X98336941Y-108602104D01*
X98360220Y-108600960D01*
X98835220Y-108600960D01*
X98858499Y-108602104D01*
X98858499Y-108602104D01*
G37*
D23*
X98597720Y-109125960D03*
G04 #@! TD*
D22*
G04 #@! TO.C,C11*
G36*
X98858499Y-103411704D02*
X98881554Y-103415123D01*
X98904163Y-103420787D01*
X98926107Y-103428639D01*
X98947177Y-103438604D01*
X98967168Y-103450586D01*
X98985888Y-103464470D01*
X99003158Y-103480122D01*
X99018810Y-103497392D01*
X99032694Y-103516112D01*
X99044676Y-103536103D01*
X99054641Y-103557173D01*
X99062493Y-103579117D01*
X99068157Y-103601726D01*
X99071576Y-103624781D01*
X99072720Y-103648060D01*
X99072720Y-104223060D01*
X99071576Y-104246339D01*
X99068157Y-104269394D01*
X99062493Y-104292003D01*
X99054641Y-104313947D01*
X99044676Y-104335017D01*
X99032694Y-104355008D01*
X99018810Y-104373728D01*
X99003158Y-104390998D01*
X98985888Y-104406650D01*
X98967168Y-104420534D01*
X98947177Y-104432516D01*
X98926107Y-104442481D01*
X98904163Y-104450333D01*
X98881554Y-104455997D01*
X98858499Y-104459416D01*
X98835220Y-104460560D01*
X98360220Y-104460560D01*
X98336941Y-104459416D01*
X98313886Y-104455997D01*
X98291277Y-104450333D01*
X98269333Y-104442481D01*
X98248263Y-104432516D01*
X98228272Y-104420534D01*
X98209552Y-104406650D01*
X98192282Y-104390998D01*
X98176630Y-104373728D01*
X98162746Y-104355008D01*
X98150764Y-104335017D01*
X98140799Y-104313947D01*
X98132947Y-104292003D01*
X98127283Y-104269394D01*
X98123864Y-104246339D01*
X98122720Y-104223060D01*
X98122720Y-103648060D01*
X98123864Y-103624781D01*
X98127283Y-103601726D01*
X98132947Y-103579117D01*
X98140799Y-103557173D01*
X98150764Y-103536103D01*
X98162746Y-103516112D01*
X98176630Y-103497392D01*
X98192282Y-103480122D01*
X98209552Y-103464470D01*
X98228272Y-103450586D01*
X98248263Y-103438604D01*
X98269333Y-103428639D01*
X98291277Y-103420787D01*
X98313886Y-103415123D01*
X98336941Y-103411704D01*
X98360220Y-103410560D01*
X98835220Y-103410560D01*
X98858499Y-103411704D01*
X98858499Y-103411704D01*
G37*
D23*
X98597720Y-103935560D03*
D22*
G36*
X98858499Y-105161704D02*
X98881554Y-105165123D01*
X98904163Y-105170787D01*
X98926107Y-105178639D01*
X98947177Y-105188604D01*
X98967168Y-105200586D01*
X98985888Y-105214470D01*
X99003158Y-105230122D01*
X99018810Y-105247392D01*
X99032694Y-105266112D01*
X99044676Y-105286103D01*
X99054641Y-105307173D01*
X99062493Y-105329117D01*
X99068157Y-105351726D01*
X99071576Y-105374781D01*
X99072720Y-105398060D01*
X99072720Y-105973060D01*
X99071576Y-105996339D01*
X99068157Y-106019394D01*
X99062493Y-106042003D01*
X99054641Y-106063947D01*
X99044676Y-106085017D01*
X99032694Y-106105008D01*
X99018810Y-106123728D01*
X99003158Y-106140998D01*
X98985888Y-106156650D01*
X98967168Y-106170534D01*
X98947177Y-106182516D01*
X98926107Y-106192481D01*
X98904163Y-106200333D01*
X98881554Y-106205997D01*
X98858499Y-106209416D01*
X98835220Y-106210560D01*
X98360220Y-106210560D01*
X98336941Y-106209416D01*
X98313886Y-106205997D01*
X98291277Y-106200333D01*
X98269333Y-106192481D01*
X98248263Y-106182516D01*
X98228272Y-106170534D01*
X98209552Y-106156650D01*
X98192282Y-106140998D01*
X98176630Y-106123728D01*
X98162746Y-106105008D01*
X98150764Y-106085017D01*
X98140799Y-106063947D01*
X98132947Y-106042003D01*
X98127283Y-106019394D01*
X98123864Y-105996339D01*
X98122720Y-105973060D01*
X98122720Y-105398060D01*
X98123864Y-105374781D01*
X98127283Y-105351726D01*
X98132947Y-105329117D01*
X98140799Y-105307173D01*
X98150764Y-105286103D01*
X98162746Y-105266112D01*
X98176630Y-105247392D01*
X98192282Y-105230122D01*
X98209552Y-105214470D01*
X98228272Y-105200586D01*
X98248263Y-105188604D01*
X98269333Y-105178639D01*
X98291277Y-105170787D01*
X98313886Y-105165123D01*
X98336941Y-105161704D01*
X98360220Y-105160560D01*
X98835220Y-105160560D01*
X98858499Y-105161704D01*
X98858499Y-105161704D01*
G37*
D23*
X98597720Y-105685560D03*
G04 #@! TD*
M02*
