M48
;DRILL file {KiCad (5.0.2)-1} date 2/24/2019 7:11:31 PM
;FORMAT={-:-/ absolute / inch / decimal}
FMAT,2
INCH,TZ
T1C0.0100
T2C0.0374
%
G90
G05
T1
X3.86Y-4.043
X3.9004Y-4.0404
X3.914Y-3.865
X3.914Y-4.1146
X3.9266Y-4.2958
X4.0078Y-3.7198
X4.0362Y-4.2746
X4.0854Y-3.8308
X4.0854Y-3.8982
X4.0946Y-3.7727
X4.111Y-4.2618
X4.1162Y-3.8643
X4.1292Y-4.2892
X4.1686Y-3.9182
X4.1686Y-3.9618
X4.1704Y-4.0602
X4.1716Y-4.093
X4.1766Y-4.0014
X4.2002Y-3.7376
X4.2302Y-4.21
X4.284Y-4.24
X4.4138Y-3.9088
X4.4416Y-4.2551
X4.4596Y-4.3822
X4.462Y-4.6336
X4.5212Y-3.8964
X4.5432Y-4.3428
X4.5668Y-3.98
X4.5702Y-4.0288
X4.598Y-4.1154
X4.598Y-4.181
X4.6044Y-4.374
X4.6134Y-4.4062
X4.6212Y-4.5972
X4.628Y-4.72
X4.646Y-4.3546
X4.6556Y-4.0607
X4.6584Y-4.3928
X4.6636Y-4.513
X4.6736Y-4.5686
X4.7432Y-4.4572
X4.769Y-4.135
X4.7774Y-3.8
X4.7854Y-3.8398
X4.7916Y-3.9432
X4.863Y-3.9928
X4.8982Y-4.537
X4.9008Y-3.7286
X4.9024Y-4.0108
X4.9062Y-4.5698
X4.9276Y-4.0928
X4.9296Y-4.4192
X4.958Y-4.0198
X5.0154Y-4.2446
X5.0292Y-3.951
T2
X4.32Y-3.6728
X4.4184Y-3.6728
X4.5169Y-3.6728
X4.6153Y-3.6728
T0
M30
