G04 #@! TF.GenerationSoftware,KiCad,Pcbnew,(5.1.2)-2*
G04 #@! TF.CreationDate,2019-07-23T13:27:12-04:00*
G04 #@! TF.ProjectId,light_monitor,6c696768-745f-46d6-9f6e-69746f722e6b,R001*
G04 #@! TF.SameCoordinates,Original*
G04 #@! TF.FileFunction,Soldermask,Top*
G04 #@! TF.FilePolarity,Negative*
%FSLAX46Y46*%
G04 Gerber Fmt 4.6, Leading zero omitted, Abs format (unit mm)*
G04 Created by KiCad (PCBNEW (5.1.2)-2) date 2019-07-23 13:27:12*
%MOMM*%
%LPD*%
G04 APERTURE LIST*
%ADD10C,0.100000*%
G04 APERTURE END LIST*
D10*
G36*
X114975000Y-120216400D02*
G01*
X114133000Y-120216400D01*
X114133000Y-117324400D01*
X114975000Y-117324400D01*
X114975000Y-120216400D01*
X114975000Y-120216400D01*
G37*
G36*
X116245000Y-120216400D02*
G01*
X115403000Y-120216400D01*
X115403000Y-117324400D01*
X116245000Y-117324400D01*
X116245000Y-120216400D01*
X116245000Y-120216400D01*
G37*
G36*
X117515000Y-120216400D02*
G01*
X116673000Y-120216400D01*
X116673000Y-117324400D01*
X117515000Y-117324400D01*
X117515000Y-120216400D01*
X117515000Y-120216400D01*
G37*
G36*
X109895000Y-120216400D02*
G01*
X109053000Y-120216400D01*
X109053000Y-117324400D01*
X109895000Y-117324400D01*
X109895000Y-120216400D01*
X109895000Y-120216400D01*
G37*
G36*
X112435000Y-120216400D02*
G01*
X111593000Y-120216400D01*
X111593000Y-117324400D01*
X112435000Y-117324400D01*
X112435000Y-120216400D01*
X112435000Y-120216400D01*
G37*
G36*
X113705000Y-120216400D02*
G01*
X112863000Y-120216400D01*
X112863000Y-117324400D01*
X113705000Y-117324400D01*
X113705000Y-120216400D01*
X113705000Y-120216400D01*
G37*
G36*
X111165000Y-120216400D02*
G01*
X110323000Y-120216400D01*
X110323000Y-117324400D01*
X111165000Y-117324400D01*
X111165000Y-120216400D01*
X111165000Y-120216400D01*
G37*
G36*
X121812499Y-116064445D02*
G01*
X121849995Y-116075820D01*
X121884554Y-116094292D01*
X121914847Y-116119153D01*
X121939708Y-116149446D01*
X121958180Y-116184005D01*
X121969555Y-116221501D01*
X121974000Y-116266638D01*
X121974000Y-116905362D01*
X121969555Y-116950499D01*
X121958180Y-116987995D01*
X121939708Y-117022554D01*
X121914847Y-117052847D01*
X121884554Y-117077708D01*
X121849995Y-117096180D01*
X121812499Y-117107555D01*
X121767362Y-117112000D01*
X121028638Y-117112000D01*
X120983501Y-117107555D01*
X120946005Y-117096180D01*
X120911446Y-117077708D01*
X120881153Y-117052847D01*
X120856292Y-117022554D01*
X120837820Y-116987995D01*
X120826445Y-116950499D01*
X120822000Y-116905362D01*
X120822000Y-116266638D01*
X120826445Y-116221501D01*
X120837820Y-116184005D01*
X120856292Y-116149446D01*
X120881153Y-116119153D01*
X120911446Y-116094292D01*
X120946005Y-116075820D01*
X120983501Y-116064445D01*
X121028638Y-116060000D01*
X121767362Y-116060000D01*
X121812499Y-116064445D01*
X121812499Y-116064445D01*
G37*
G36*
X120062499Y-116064445D02*
G01*
X120099995Y-116075820D01*
X120134554Y-116094292D01*
X120164847Y-116119153D01*
X120189708Y-116149446D01*
X120208180Y-116184005D01*
X120219555Y-116221501D01*
X120224000Y-116266638D01*
X120224000Y-116905362D01*
X120219555Y-116950499D01*
X120208180Y-116987995D01*
X120189708Y-117022554D01*
X120164847Y-117052847D01*
X120134554Y-117077708D01*
X120099995Y-117096180D01*
X120062499Y-117107555D01*
X120017362Y-117112000D01*
X119278638Y-117112000D01*
X119233501Y-117107555D01*
X119196005Y-117096180D01*
X119161446Y-117077708D01*
X119131153Y-117052847D01*
X119106292Y-117022554D01*
X119087820Y-116987995D01*
X119076445Y-116950499D01*
X119072000Y-116905362D01*
X119072000Y-116266638D01*
X119076445Y-116221501D01*
X119087820Y-116184005D01*
X119106292Y-116149446D01*
X119131153Y-116119153D01*
X119161446Y-116094292D01*
X119196005Y-116075820D01*
X119233501Y-116064445D01*
X119278638Y-116060000D01*
X120017362Y-116060000D01*
X120062499Y-116064445D01*
X120062499Y-116064445D01*
G37*
G36*
X113705000Y-116152400D02*
G01*
X112863000Y-116152400D01*
X112863000Y-113260400D01*
X113705000Y-113260400D01*
X113705000Y-116152400D01*
X113705000Y-116152400D01*
G37*
G36*
X112435000Y-116152400D02*
G01*
X111593000Y-116152400D01*
X111593000Y-113260400D01*
X112435000Y-113260400D01*
X112435000Y-116152400D01*
X112435000Y-116152400D01*
G37*
G36*
X114975000Y-116152400D02*
G01*
X114133000Y-116152400D01*
X114133000Y-113260400D01*
X114975000Y-113260400D01*
X114975000Y-116152400D01*
X114975000Y-116152400D01*
G37*
G36*
X111165000Y-116152400D02*
G01*
X110323000Y-116152400D01*
X110323000Y-113260400D01*
X111165000Y-113260400D01*
X111165000Y-116152400D01*
X111165000Y-116152400D01*
G37*
G36*
X116245000Y-116152400D02*
G01*
X115403000Y-116152400D01*
X115403000Y-113260400D01*
X116245000Y-113260400D01*
X116245000Y-116152400D01*
X116245000Y-116152400D01*
G37*
G36*
X109895000Y-116152400D02*
G01*
X109053000Y-116152400D01*
X109053000Y-113260400D01*
X109895000Y-113260400D01*
X109895000Y-116152400D01*
X109895000Y-116152400D01*
G37*
G36*
X117515000Y-116152400D02*
G01*
X116673000Y-116152400D01*
X116673000Y-113260400D01*
X117515000Y-113260400D01*
X117515000Y-116152400D01*
X117515000Y-116152400D01*
G37*
G36*
X121812499Y-114159445D02*
G01*
X121849995Y-114170820D01*
X121884554Y-114189292D01*
X121914847Y-114214153D01*
X121939708Y-114244446D01*
X121958180Y-114279005D01*
X121969555Y-114316501D01*
X121974000Y-114361638D01*
X121974000Y-115000362D01*
X121969555Y-115045499D01*
X121958180Y-115082995D01*
X121939708Y-115117554D01*
X121914847Y-115147847D01*
X121884554Y-115172708D01*
X121849995Y-115191180D01*
X121812499Y-115202555D01*
X121767362Y-115207000D01*
X121028638Y-115207000D01*
X120983501Y-115202555D01*
X120946005Y-115191180D01*
X120911446Y-115172708D01*
X120881153Y-115147847D01*
X120856292Y-115117554D01*
X120837820Y-115082995D01*
X120826445Y-115045499D01*
X120822000Y-115000362D01*
X120822000Y-114361638D01*
X120826445Y-114316501D01*
X120837820Y-114279005D01*
X120856292Y-114244446D01*
X120881153Y-114214153D01*
X120911446Y-114189292D01*
X120946005Y-114170820D01*
X120983501Y-114159445D01*
X121028638Y-114155000D01*
X121767362Y-114155000D01*
X121812499Y-114159445D01*
X121812499Y-114159445D01*
G37*
G36*
X120062499Y-114159445D02*
G01*
X120099995Y-114170820D01*
X120134554Y-114189292D01*
X120164847Y-114214153D01*
X120189708Y-114244446D01*
X120208180Y-114279005D01*
X120219555Y-114316501D01*
X120224000Y-114361638D01*
X120224000Y-115000362D01*
X120219555Y-115045499D01*
X120208180Y-115082995D01*
X120189708Y-115117554D01*
X120164847Y-115147847D01*
X120134554Y-115172708D01*
X120099995Y-115191180D01*
X120062499Y-115202555D01*
X120017362Y-115207000D01*
X119278638Y-115207000D01*
X119233501Y-115202555D01*
X119196005Y-115191180D01*
X119161446Y-115172708D01*
X119131153Y-115147847D01*
X119106292Y-115117554D01*
X119087820Y-115082995D01*
X119076445Y-115045499D01*
X119072000Y-115000362D01*
X119072000Y-114361638D01*
X119076445Y-114316501D01*
X119087820Y-114279005D01*
X119106292Y-114244446D01*
X119131153Y-114214153D01*
X119161446Y-114189292D01*
X119196005Y-114170820D01*
X119233501Y-114159445D01*
X119278638Y-114155000D01*
X120017362Y-114155000D01*
X120062499Y-114159445D01*
X120062499Y-114159445D01*
G37*
G36*
X124926583Y-109492019D02*
G01*
X124992767Y-109498537D01*
X125162606Y-109550057D01*
X125319131Y-109633722D01*
X125354869Y-109663052D01*
X125456326Y-109746314D01*
X125539588Y-109847771D01*
X125568918Y-109883509D01*
X125652583Y-110040034D01*
X125704103Y-110209873D01*
X125721499Y-110386500D01*
X125704103Y-110563127D01*
X125652583Y-110732966D01*
X125568918Y-110889491D01*
X125539588Y-110925229D01*
X125456326Y-111026686D01*
X125354869Y-111109948D01*
X125319131Y-111139278D01*
X125162606Y-111222943D01*
X124992767Y-111274463D01*
X124926583Y-111280981D01*
X124860400Y-111287500D01*
X124521880Y-111287500D01*
X124455697Y-111280981D01*
X124389513Y-111274463D01*
X124219674Y-111222943D01*
X124063149Y-111139278D01*
X124027411Y-111109948D01*
X123925954Y-111026686D01*
X123842692Y-110925229D01*
X123813362Y-110889491D01*
X123729697Y-110732966D01*
X123678177Y-110563127D01*
X123660781Y-110386500D01*
X123678177Y-110209873D01*
X123729697Y-110040034D01*
X123813362Y-109883509D01*
X123842692Y-109847771D01*
X123925954Y-109746314D01*
X124027411Y-109663052D01*
X124063149Y-109633722D01*
X124219674Y-109550057D01*
X124389513Y-109498537D01*
X124455697Y-109492019D01*
X124521880Y-109485500D01*
X124860400Y-109485500D01*
X124926583Y-109492019D01*
X124926583Y-109492019D01*
G37*
G36*
X124926583Y-106992019D02*
G01*
X124992767Y-106998537D01*
X125162606Y-107050057D01*
X125319131Y-107133722D01*
X125354869Y-107163052D01*
X125456326Y-107246314D01*
X125539588Y-107347771D01*
X125568918Y-107383509D01*
X125652583Y-107540034D01*
X125704103Y-107709873D01*
X125721499Y-107886500D01*
X125704103Y-108063127D01*
X125652583Y-108232966D01*
X125568918Y-108389491D01*
X125539588Y-108425229D01*
X125456326Y-108526686D01*
X125354869Y-108609948D01*
X125319131Y-108639278D01*
X125162606Y-108722943D01*
X124992767Y-108774463D01*
X124926583Y-108780981D01*
X124860400Y-108787500D01*
X124521880Y-108787500D01*
X124455697Y-108780981D01*
X124389513Y-108774463D01*
X124219674Y-108722943D01*
X124063149Y-108639278D01*
X124027411Y-108609948D01*
X123925954Y-108526686D01*
X123842692Y-108425229D01*
X123813362Y-108389491D01*
X123729697Y-108232966D01*
X123678177Y-108063127D01*
X123660781Y-107886500D01*
X123678177Y-107709873D01*
X123729697Y-107540034D01*
X123813362Y-107383509D01*
X123842692Y-107347771D01*
X123925954Y-107246314D01*
X124027411Y-107163052D01*
X124063149Y-107133722D01*
X124219674Y-107050057D01*
X124389513Y-106998537D01*
X124455697Y-106992019D01*
X124521880Y-106985500D01*
X124860400Y-106985500D01*
X124926583Y-106992019D01*
X124926583Y-106992019D01*
G37*
G36*
X101060699Y-107504645D02*
G01*
X101098195Y-107516020D01*
X101132754Y-107534492D01*
X101163047Y-107559353D01*
X101187908Y-107589646D01*
X101206380Y-107624205D01*
X101217755Y-107661701D01*
X101222200Y-107706838D01*
X101222200Y-108345562D01*
X101217755Y-108390699D01*
X101206380Y-108428195D01*
X101187908Y-108462754D01*
X101163047Y-108493047D01*
X101132754Y-108517908D01*
X101098195Y-108536380D01*
X101060699Y-108547755D01*
X101015562Y-108552200D01*
X100276838Y-108552200D01*
X100231701Y-108547755D01*
X100194205Y-108536380D01*
X100159646Y-108517908D01*
X100129353Y-108493047D01*
X100104492Y-108462754D01*
X100086020Y-108428195D01*
X100074645Y-108390699D01*
X100070200Y-108345562D01*
X100070200Y-107706838D01*
X100074645Y-107661701D01*
X100086020Y-107624205D01*
X100104492Y-107589646D01*
X100129353Y-107559353D01*
X100159646Y-107534492D01*
X100194205Y-107516020D01*
X100231701Y-107504645D01*
X100276838Y-107500200D01*
X101015562Y-107500200D01*
X101060699Y-107504645D01*
X101060699Y-107504645D01*
G37*
G36*
X99310699Y-107504645D02*
G01*
X99348195Y-107516020D01*
X99382754Y-107534492D01*
X99413047Y-107559353D01*
X99437908Y-107589646D01*
X99456380Y-107624205D01*
X99467755Y-107661701D01*
X99472200Y-107706838D01*
X99472200Y-108345562D01*
X99467755Y-108390699D01*
X99456380Y-108428195D01*
X99437908Y-108462754D01*
X99413047Y-108493047D01*
X99382754Y-108517908D01*
X99348195Y-108536380D01*
X99310699Y-108547755D01*
X99265562Y-108552200D01*
X98526838Y-108552200D01*
X98481701Y-108547755D01*
X98444205Y-108536380D01*
X98409646Y-108517908D01*
X98379353Y-108493047D01*
X98354492Y-108462754D01*
X98336020Y-108428195D01*
X98324645Y-108390699D01*
X98320200Y-108345562D01*
X98320200Y-107706838D01*
X98324645Y-107661701D01*
X98336020Y-107624205D01*
X98354492Y-107589646D01*
X98379353Y-107559353D01*
X98409646Y-107534492D01*
X98444205Y-107516020D01*
X98481701Y-107504645D01*
X98526838Y-107500200D01*
X99265562Y-107500200D01*
X99310699Y-107504645D01*
X99310699Y-107504645D01*
G37*
G36*
X99336099Y-105866345D02*
G01*
X99373595Y-105877720D01*
X99408154Y-105896192D01*
X99438447Y-105921053D01*
X99463308Y-105951346D01*
X99481780Y-105985905D01*
X99493155Y-106023401D01*
X99497600Y-106068538D01*
X99497600Y-106707262D01*
X99493155Y-106752399D01*
X99481780Y-106789895D01*
X99463308Y-106824454D01*
X99438447Y-106854747D01*
X99408154Y-106879608D01*
X99373595Y-106898080D01*
X99336099Y-106909455D01*
X99290962Y-106913900D01*
X98552238Y-106913900D01*
X98507101Y-106909455D01*
X98469605Y-106898080D01*
X98435046Y-106879608D01*
X98404753Y-106854747D01*
X98379892Y-106824454D01*
X98361420Y-106789895D01*
X98350045Y-106752399D01*
X98345600Y-106707262D01*
X98345600Y-106068538D01*
X98350045Y-106023401D01*
X98361420Y-105985905D01*
X98379892Y-105951346D01*
X98404753Y-105921053D01*
X98435046Y-105896192D01*
X98469605Y-105877720D01*
X98507101Y-105866345D01*
X98552238Y-105861900D01*
X99290962Y-105861900D01*
X99336099Y-105866345D01*
X99336099Y-105866345D01*
G37*
G36*
X101086099Y-105866345D02*
G01*
X101123595Y-105877720D01*
X101158154Y-105896192D01*
X101188447Y-105921053D01*
X101213308Y-105951346D01*
X101231780Y-105985905D01*
X101243155Y-106023401D01*
X101247600Y-106068538D01*
X101247600Y-106707262D01*
X101243155Y-106752399D01*
X101231780Y-106789895D01*
X101213308Y-106824454D01*
X101188447Y-106854747D01*
X101158154Y-106879608D01*
X101123595Y-106898080D01*
X101086099Y-106909455D01*
X101040962Y-106913900D01*
X100302238Y-106913900D01*
X100257101Y-106909455D01*
X100219605Y-106898080D01*
X100185046Y-106879608D01*
X100154753Y-106854747D01*
X100129892Y-106824454D01*
X100111420Y-106789895D01*
X100100045Y-106752399D01*
X100095600Y-106707262D01*
X100095600Y-106068538D01*
X100100045Y-106023401D01*
X100111420Y-105985905D01*
X100129892Y-105951346D01*
X100154753Y-105921053D01*
X100185046Y-105896192D01*
X100219605Y-105877720D01*
X100257101Y-105866345D01*
X100302238Y-105861900D01*
X101040962Y-105861900D01*
X101086099Y-105866345D01*
X101086099Y-105866345D01*
G37*
G36*
X125574740Y-104489489D02*
G01*
X125607792Y-104499515D01*
X125638243Y-104515792D01*
X125664939Y-104537701D01*
X125686848Y-104564397D01*
X125703125Y-104594848D01*
X125713151Y-104627900D01*
X125717140Y-104668403D01*
X125717140Y-106104597D01*
X125713151Y-106145100D01*
X125703125Y-106178152D01*
X125686848Y-106208603D01*
X125664939Y-106235299D01*
X125638243Y-106257208D01*
X125607792Y-106273485D01*
X125574740Y-106283511D01*
X125534237Y-106287500D01*
X123848043Y-106287500D01*
X123807540Y-106283511D01*
X123774488Y-106273485D01*
X123744037Y-106257208D01*
X123717341Y-106235299D01*
X123695432Y-106208603D01*
X123679155Y-106178152D01*
X123669129Y-106145100D01*
X123665140Y-106104597D01*
X123665140Y-104668403D01*
X123669129Y-104627900D01*
X123679155Y-104594848D01*
X123695432Y-104564397D01*
X123717341Y-104537701D01*
X123744037Y-104515792D01*
X123774488Y-104499515D01*
X123807540Y-104489489D01*
X123848043Y-104485500D01*
X125534237Y-104485500D01*
X125574740Y-104489489D01*
X125574740Y-104489489D01*
G37*
G36*
X114761200Y-106108200D02*
G01*
X111959200Y-106108200D01*
X111959200Y-104356200D01*
X114761200Y-104356200D01*
X114761200Y-106108200D01*
X114761200Y-106108200D01*
G37*
G36*
X104440400Y-100336401D02*
G01*
X104442802Y-100360787D01*
X104449915Y-100384236D01*
X104461466Y-100405847D01*
X104477011Y-100424789D01*
X104495953Y-100440334D01*
X104517564Y-100451885D01*
X104541013Y-100458998D01*
X104565399Y-100461400D01*
X105315400Y-100461400D01*
X105315400Y-104313400D01*
X104565399Y-104313400D01*
X104541013Y-104315802D01*
X104517564Y-104322915D01*
X104495953Y-104334466D01*
X104477011Y-104350011D01*
X104461466Y-104368953D01*
X104449915Y-104390564D01*
X104442802Y-104414013D01*
X104440400Y-104438399D01*
X104440400Y-105188400D01*
X100588400Y-105188400D01*
X100588400Y-104438399D01*
X100585998Y-104414013D01*
X100578885Y-104390564D01*
X100567334Y-104368953D01*
X100551789Y-104350011D01*
X100532847Y-104334466D01*
X100511236Y-104322915D01*
X100487787Y-104315802D01*
X100463401Y-104313400D01*
X99713400Y-104313400D01*
X99713400Y-100461400D01*
X100463401Y-100461400D01*
X100487787Y-100458998D01*
X100511236Y-100451885D01*
X100532847Y-100440334D01*
X100551789Y-100424789D01*
X100567334Y-100405847D01*
X100578885Y-100384236D01*
X100585998Y-100360787D01*
X100588400Y-100336401D01*
X100588400Y-99586400D01*
X104440400Y-99586400D01*
X104440400Y-100336401D01*
X104440400Y-100336401D01*
G37*
G36*
X122881030Y-103160517D02*
G01*
X122999504Y-103209591D01*
X123106128Y-103280835D01*
X123196805Y-103371512D01*
X123268049Y-103478136D01*
X123317123Y-103596610D01*
X123342140Y-103722382D01*
X123342140Y-103850618D01*
X123317123Y-103976390D01*
X123268049Y-104094864D01*
X123196805Y-104201488D01*
X123106128Y-104292165D01*
X122999504Y-104363409D01*
X122999503Y-104363410D01*
X122999502Y-104363410D01*
X122881030Y-104412483D01*
X122755259Y-104437500D01*
X122627021Y-104437500D01*
X122501250Y-104412483D01*
X122382778Y-104363410D01*
X122382777Y-104363410D01*
X122382776Y-104363409D01*
X122276152Y-104292165D01*
X122185475Y-104201488D01*
X122114231Y-104094864D01*
X122065157Y-103976390D01*
X122040140Y-103850618D01*
X122040140Y-103722382D01*
X122065157Y-103596610D01*
X122114231Y-103478136D01*
X122185475Y-103371512D01*
X122276152Y-103280835D01*
X122382776Y-103209591D01*
X122501250Y-103160517D01*
X122627021Y-103135500D01*
X122755259Y-103135500D01*
X122881030Y-103160517D01*
X122881030Y-103160517D01*
G37*
G36*
X109424979Y-98756885D02*
G01*
X109462475Y-98768260D01*
X109497034Y-98786732D01*
X109527327Y-98811593D01*
X109552188Y-98841886D01*
X109570660Y-98876445D01*
X109582035Y-98913941D01*
X109586480Y-98959078D01*
X109586480Y-99597802D01*
X109582035Y-99642939D01*
X109570660Y-99680435D01*
X109552188Y-99714994D01*
X109527327Y-99745287D01*
X109497034Y-99770148D01*
X109462475Y-99788620D01*
X109424979Y-99799995D01*
X109379842Y-99804440D01*
X108641118Y-99804440D01*
X108595981Y-99799995D01*
X108558485Y-99788620D01*
X108523926Y-99770148D01*
X108493633Y-99745287D01*
X108468772Y-99714994D01*
X108450300Y-99680435D01*
X108438925Y-99642939D01*
X108434480Y-99597802D01*
X108434480Y-98959078D01*
X108438925Y-98913941D01*
X108450300Y-98876445D01*
X108468772Y-98841886D01*
X108493633Y-98811593D01*
X108523926Y-98786732D01*
X108558485Y-98768260D01*
X108595981Y-98756885D01*
X108641118Y-98752440D01*
X109379842Y-98752440D01*
X109424979Y-98756885D01*
X109424979Y-98756885D01*
G37*
G36*
X111174979Y-98756885D02*
G01*
X111212475Y-98768260D01*
X111247034Y-98786732D01*
X111277327Y-98811593D01*
X111302188Y-98841886D01*
X111320660Y-98876445D01*
X111332035Y-98913941D01*
X111336480Y-98959078D01*
X111336480Y-99597802D01*
X111332035Y-99642939D01*
X111320660Y-99680435D01*
X111302188Y-99714994D01*
X111277327Y-99745287D01*
X111247034Y-99770148D01*
X111212475Y-99788620D01*
X111174979Y-99799995D01*
X111129842Y-99804440D01*
X110391118Y-99804440D01*
X110345981Y-99799995D01*
X110308485Y-99788620D01*
X110273926Y-99770148D01*
X110243633Y-99745287D01*
X110218772Y-99714994D01*
X110200300Y-99680435D01*
X110188925Y-99642939D01*
X110184480Y-99597802D01*
X110184480Y-98959078D01*
X110188925Y-98913941D01*
X110200300Y-98876445D01*
X110218772Y-98841886D01*
X110243633Y-98811593D01*
X110273926Y-98786732D01*
X110308485Y-98768260D01*
X110345981Y-98756885D01*
X110391118Y-98752440D01*
X111129842Y-98752440D01*
X111174979Y-98756885D01*
X111174979Y-98756885D01*
G37*
G36*
X116630899Y-98627345D02*
G01*
X116668395Y-98638720D01*
X116702954Y-98657192D01*
X116733247Y-98682053D01*
X116758108Y-98712346D01*
X116776580Y-98746905D01*
X116787955Y-98784401D01*
X116792400Y-98829538D01*
X116792400Y-99468262D01*
X116787955Y-99513399D01*
X116776580Y-99550895D01*
X116758108Y-99585454D01*
X116733247Y-99615747D01*
X116702954Y-99640608D01*
X116668395Y-99659080D01*
X116630899Y-99670455D01*
X116585762Y-99674900D01*
X115847038Y-99674900D01*
X115801901Y-99670455D01*
X115764405Y-99659080D01*
X115729846Y-99640608D01*
X115699553Y-99615747D01*
X115674692Y-99585454D01*
X115656220Y-99550895D01*
X115644845Y-99513399D01*
X115640400Y-99468262D01*
X115640400Y-98829538D01*
X115644845Y-98784401D01*
X115656220Y-98746905D01*
X115674692Y-98712346D01*
X115699553Y-98682053D01*
X115729846Y-98657192D01*
X115764405Y-98638720D01*
X115801901Y-98627345D01*
X115847038Y-98622900D01*
X116585762Y-98622900D01*
X116630899Y-98627345D01*
X116630899Y-98627345D01*
G37*
G36*
X114880899Y-98627345D02*
G01*
X114918395Y-98638720D01*
X114952954Y-98657192D01*
X114983247Y-98682053D01*
X115008108Y-98712346D01*
X115026580Y-98746905D01*
X115037955Y-98784401D01*
X115042400Y-98829538D01*
X115042400Y-99468262D01*
X115037955Y-99513399D01*
X115026580Y-99550895D01*
X115008108Y-99585454D01*
X114983247Y-99615747D01*
X114952954Y-99640608D01*
X114918395Y-99659080D01*
X114880899Y-99670455D01*
X114835762Y-99674900D01*
X114097038Y-99674900D01*
X114051901Y-99670455D01*
X114014405Y-99659080D01*
X113979846Y-99640608D01*
X113949553Y-99615747D01*
X113924692Y-99585454D01*
X113906220Y-99550895D01*
X113894845Y-99513399D01*
X113890400Y-99468262D01*
X113890400Y-98829538D01*
X113894845Y-98784401D01*
X113906220Y-98746905D01*
X113924692Y-98712346D01*
X113949553Y-98682053D01*
X113979846Y-98657192D01*
X114014405Y-98638720D01*
X114051901Y-98627345D01*
X114097038Y-98622900D01*
X114835762Y-98622900D01*
X114880899Y-98627345D01*
X114880899Y-98627345D01*
G37*
G36*
X106262179Y-97986765D02*
G01*
X106299675Y-97998140D01*
X106334234Y-98016612D01*
X106364527Y-98041473D01*
X106389388Y-98071766D01*
X106407860Y-98106325D01*
X106419235Y-98143821D01*
X106423680Y-98188958D01*
X106423680Y-98927682D01*
X106419235Y-98972819D01*
X106407860Y-99010315D01*
X106389388Y-99044874D01*
X106364527Y-99075167D01*
X106334234Y-99100028D01*
X106299675Y-99118500D01*
X106262179Y-99129875D01*
X106217042Y-99134320D01*
X105578318Y-99134320D01*
X105533181Y-99129875D01*
X105495685Y-99118500D01*
X105461126Y-99100028D01*
X105430833Y-99075167D01*
X105405972Y-99044874D01*
X105387500Y-99010315D01*
X105376125Y-98972819D01*
X105371680Y-98927682D01*
X105371680Y-98188958D01*
X105376125Y-98143821D01*
X105387500Y-98106325D01*
X105405972Y-98071766D01*
X105430833Y-98041473D01*
X105461126Y-98016612D01*
X105495685Y-97998140D01*
X105533181Y-97986765D01*
X105578318Y-97982320D01*
X106217042Y-97982320D01*
X106262179Y-97986765D01*
X106262179Y-97986765D01*
G37*
G36*
X101684680Y-98465640D02*
G01*
X100782680Y-98465640D01*
X100782680Y-97863640D01*
X101684680Y-97863640D01*
X101684680Y-98465640D01*
X101684680Y-98465640D01*
G37*
G36*
X102884680Y-98465640D02*
G01*
X101982680Y-98465640D01*
X101982680Y-97863640D01*
X102884680Y-97863640D01*
X102884680Y-98465640D01*
X102884680Y-98465640D01*
G37*
G36*
X109470699Y-97141445D02*
G01*
X109508195Y-97152820D01*
X109542754Y-97171292D01*
X109573047Y-97196153D01*
X109597908Y-97226446D01*
X109616380Y-97261005D01*
X109627755Y-97298501D01*
X109632200Y-97343638D01*
X109632200Y-97982362D01*
X109627755Y-98027499D01*
X109616380Y-98064995D01*
X109597908Y-98099554D01*
X109573047Y-98129847D01*
X109542754Y-98154708D01*
X109508195Y-98173180D01*
X109470699Y-98184555D01*
X109425562Y-98189000D01*
X108686838Y-98189000D01*
X108641701Y-98184555D01*
X108604205Y-98173180D01*
X108569646Y-98154708D01*
X108539353Y-98129847D01*
X108514492Y-98099554D01*
X108496020Y-98064995D01*
X108484645Y-98027499D01*
X108480200Y-97982362D01*
X108480200Y-97343638D01*
X108484645Y-97298501D01*
X108496020Y-97261005D01*
X108514492Y-97226446D01*
X108539353Y-97196153D01*
X108569646Y-97171292D01*
X108604205Y-97152820D01*
X108641701Y-97141445D01*
X108686838Y-97137000D01*
X109425562Y-97137000D01*
X109470699Y-97141445D01*
X109470699Y-97141445D01*
G37*
G36*
X111220699Y-97141445D02*
G01*
X111258195Y-97152820D01*
X111292754Y-97171292D01*
X111323047Y-97196153D01*
X111347908Y-97226446D01*
X111366380Y-97261005D01*
X111377755Y-97298501D01*
X111382200Y-97343638D01*
X111382200Y-97982362D01*
X111377755Y-98027499D01*
X111366380Y-98064995D01*
X111347908Y-98099554D01*
X111323047Y-98129847D01*
X111292754Y-98154708D01*
X111258195Y-98173180D01*
X111220699Y-98184555D01*
X111175562Y-98189000D01*
X110436838Y-98189000D01*
X110391701Y-98184555D01*
X110354205Y-98173180D01*
X110319646Y-98154708D01*
X110289353Y-98129847D01*
X110264492Y-98099554D01*
X110246020Y-98064995D01*
X110234645Y-98027499D01*
X110230200Y-97982362D01*
X110230200Y-97343638D01*
X110234645Y-97298501D01*
X110246020Y-97261005D01*
X110264492Y-97226446D01*
X110289353Y-97196153D01*
X110319646Y-97171292D01*
X110354205Y-97152820D01*
X110391701Y-97141445D01*
X110436838Y-97137000D01*
X111175562Y-97137000D01*
X111220699Y-97141445D01*
X111220699Y-97141445D01*
G37*
G36*
X101684680Y-97565640D02*
G01*
X100782680Y-97565640D01*
X100782680Y-96963640D01*
X101684680Y-96963640D01*
X101684680Y-97565640D01*
X101684680Y-97565640D01*
G37*
G36*
X102884680Y-97565640D02*
G01*
X101982680Y-97565640D01*
X101982680Y-96963640D01*
X102884680Y-96963640D01*
X102884680Y-97565640D01*
X102884680Y-97565640D01*
G37*
G36*
X106262179Y-96236765D02*
G01*
X106299675Y-96248140D01*
X106334234Y-96266612D01*
X106364527Y-96291473D01*
X106389388Y-96321766D01*
X106407860Y-96356325D01*
X106419235Y-96393821D01*
X106423680Y-96438958D01*
X106423680Y-97177682D01*
X106419235Y-97222819D01*
X106407860Y-97260315D01*
X106389388Y-97294874D01*
X106364527Y-97325167D01*
X106334234Y-97350028D01*
X106299675Y-97368500D01*
X106262179Y-97379875D01*
X106217042Y-97384320D01*
X105578318Y-97384320D01*
X105533181Y-97379875D01*
X105495685Y-97368500D01*
X105461126Y-97350028D01*
X105430833Y-97325167D01*
X105405972Y-97294874D01*
X105387500Y-97260315D01*
X105376125Y-97222819D01*
X105371680Y-97177682D01*
X105371680Y-96438958D01*
X105376125Y-96393821D01*
X105387500Y-96356325D01*
X105405972Y-96321766D01*
X105430833Y-96291473D01*
X105461126Y-96266612D01*
X105495685Y-96248140D01*
X105533181Y-96236765D01*
X105578318Y-96232320D01*
X106217042Y-96232320D01*
X106262179Y-96236765D01*
X106262179Y-96236765D01*
G37*
G36*
X102884680Y-96665640D02*
G01*
X101982680Y-96665640D01*
X101982680Y-96063640D01*
X102884680Y-96063640D01*
X102884680Y-96665640D01*
X102884680Y-96665640D01*
G37*
G36*
X101684680Y-96665640D02*
G01*
X100782680Y-96665640D01*
X100782680Y-96063640D01*
X101684680Y-96063640D01*
X101684680Y-96665640D01*
X101684680Y-96665640D01*
G37*
G36*
X102884680Y-95765640D02*
G01*
X101982680Y-95765640D01*
X101982680Y-95163640D01*
X102884680Y-95163640D01*
X102884680Y-95765640D01*
X102884680Y-95765640D01*
G37*
G36*
X101684680Y-95765640D02*
G01*
X100782680Y-95765640D01*
X100782680Y-95163640D01*
X101684680Y-95163640D01*
X101684680Y-95765640D01*
X101684680Y-95765640D01*
G37*
G36*
X106124360Y-95586400D02*
G01*
X105122360Y-95586400D01*
X105122360Y-94284400D01*
X106124360Y-94284400D01*
X106124360Y-95586400D01*
X106124360Y-95586400D01*
G37*
G36*
X104377499Y-94410445D02*
G01*
X104414995Y-94421820D01*
X104449554Y-94440292D01*
X104479847Y-94465153D01*
X104504708Y-94495446D01*
X104523180Y-94530005D01*
X104534555Y-94567501D01*
X104539000Y-94612638D01*
X104539000Y-95351362D01*
X104534555Y-95396499D01*
X104523180Y-95433995D01*
X104504708Y-95468554D01*
X104479847Y-95498847D01*
X104449554Y-95523708D01*
X104414995Y-95542180D01*
X104377499Y-95553555D01*
X104332362Y-95558000D01*
X103693638Y-95558000D01*
X103648501Y-95553555D01*
X103611005Y-95542180D01*
X103576446Y-95523708D01*
X103546153Y-95498847D01*
X103521292Y-95468554D01*
X103502820Y-95433995D01*
X103491445Y-95396499D01*
X103487000Y-95351362D01*
X103487000Y-94612638D01*
X103491445Y-94567501D01*
X103502820Y-94530005D01*
X103521292Y-94495446D01*
X103546153Y-94465153D01*
X103576446Y-94440292D01*
X103611005Y-94421820D01*
X103648501Y-94410445D01*
X103693638Y-94406000D01*
X104332362Y-94406000D01*
X104377499Y-94410445D01*
X104377499Y-94410445D01*
G37*
G36*
X104377499Y-92660445D02*
G01*
X104414995Y-92671820D01*
X104449554Y-92690292D01*
X104479847Y-92715153D01*
X104504708Y-92745446D01*
X104523180Y-92780005D01*
X104534555Y-92817501D01*
X104539000Y-92862638D01*
X104539000Y-93601362D01*
X104534555Y-93646499D01*
X104523180Y-93683995D01*
X104504708Y-93718554D01*
X104479847Y-93748847D01*
X104449554Y-93773708D01*
X104414995Y-93792180D01*
X104377499Y-93803555D01*
X104332362Y-93808000D01*
X103693638Y-93808000D01*
X103648501Y-93803555D01*
X103611005Y-93792180D01*
X103576446Y-93773708D01*
X103546153Y-93748847D01*
X103521292Y-93718554D01*
X103502820Y-93683995D01*
X103491445Y-93646499D01*
X103487000Y-93601362D01*
X103487000Y-92862638D01*
X103491445Y-92817501D01*
X103502820Y-92780005D01*
X103521292Y-92745446D01*
X103546153Y-92715153D01*
X103576446Y-92690292D01*
X103611005Y-92671820D01*
X103648501Y-92660445D01*
X103693638Y-92656000D01*
X104332362Y-92656000D01*
X104377499Y-92660445D01*
X104377499Y-92660445D01*
G37*
G36*
X113709899Y-92582145D02*
G01*
X113747395Y-92593520D01*
X113781954Y-92611992D01*
X113812247Y-92636853D01*
X113837108Y-92667146D01*
X113855580Y-92701705D01*
X113866955Y-92739201D01*
X113871400Y-92784338D01*
X113871400Y-93423062D01*
X113866955Y-93468199D01*
X113855580Y-93505695D01*
X113837108Y-93540254D01*
X113812247Y-93570547D01*
X113781954Y-93595408D01*
X113747395Y-93613880D01*
X113709899Y-93625255D01*
X113664762Y-93629700D01*
X112926038Y-93629700D01*
X112880901Y-93625255D01*
X112843405Y-93613880D01*
X112808846Y-93595408D01*
X112778553Y-93570547D01*
X112753692Y-93540254D01*
X112735220Y-93505695D01*
X112723845Y-93468199D01*
X112719400Y-93423062D01*
X112719400Y-92784338D01*
X112723845Y-92739201D01*
X112735220Y-92701705D01*
X112753692Y-92667146D01*
X112778553Y-92636853D01*
X112808846Y-92611992D01*
X112843405Y-92593520D01*
X112880901Y-92582145D01*
X112926038Y-92577700D01*
X113664762Y-92577700D01*
X113709899Y-92582145D01*
X113709899Y-92582145D01*
G37*
G36*
X111959899Y-92582145D02*
G01*
X111997395Y-92593520D01*
X112031954Y-92611992D01*
X112062247Y-92636853D01*
X112087108Y-92667146D01*
X112105580Y-92701705D01*
X112116955Y-92739201D01*
X112121400Y-92784338D01*
X112121400Y-93423062D01*
X112116955Y-93468199D01*
X112105580Y-93505695D01*
X112087108Y-93540254D01*
X112062247Y-93570547D01*
X112031954Y-93595408D01*
X111997395Y-93613880D01*
X111959899Y-93625255D01*
X111914762Y-93629700D01*
X111176038Y-93629700D01*
X111130901Y-93625255D01*
X111093405Y-93613880D01*
X111058846Y-93595408D01*
X111028553Y-93570547D01*
X111003692Y-93540254D01*
X110985220Y-93505695D01*
X110973845Y-93468199D01*
X110969400Y-93423062D01*
X110969400Y-92784338D01*
X110973845Y-92739201D01*
X110985220Y-92701705D01*
X111003692Y-92667146D01*
X111028553Y-92636853D01*
X111058846Y-92611992D01*
X111093405Y-92593520D01*
X111130901Y-92582145D01*
X111176038Y-92577700D01*
X111914762Y-92577700D01*
X111959899Y-92582145D01*
X111959899Y-92582145D01*
G37*
G36*
X106124360Y-93386400D02*
G01*
X105122360Y-93386400D01*
X105122360Y-92084400D01*
X106124360Y-92084400D01*
X106124360Y-93386400D01*
X106124360Y-93386400D01*
G37*
M02*
