G04 #@! TF.GenerationSoftware,KiCad,Pcbnew,(5.1.2)-2*
G04 #@! TF.CreationDate,2019-07-23T13:27:12-04:00*
G04 #@! TF.ProjectId,light_monitor,6c696768-745f-46d6-9f6e-69746f722e6b,R001*
G04 #@! TF.SameCoordinates,Original*
G04 #@! TF.FileFunction,Copper,L1,Top*
G04 #@! TF.FilePolarity,Positive*
%FSLAX46Y46*%
G04 Gerber Fmt 4.6, Leading zero omitted, Abs format (unit mm)*
G04 Created by KiCad (PCBNEW (5.1.2)-2) date 2019-07-23 13:27:12*
%MOMM*%
%LPD*%
G04 APERTURE LIST*
%ADD10R,0.740000X2.790000*%
%ADD11R,1.200000X0.350000*%
%ADD12C,0.100000*%
%ADD13C,0.950000*%
%ADD14R,0.900000X1.200000*%
%ADD15R,1.725000X1.725000*%
%ADD16R,0.700000X0.250000*%
%ADD17R,0.250000X0.700000*%
%ADD18R,0.800000X0.500000*%
%ADD19C,1.700000*%
%ADD20O,1.950000X1.700000*%
%ADD21C,0.508000*%
%ADD22C,0.152400*%
%ADD23C,0.254000*%
G04 APERTURE END LIST*
D10*
X117094000Y-114706400D03*
X117094000Y-118770400D03*
X115824000Y-114706400D03*
X115824000Y-118770400D03*
X114554000Y-114706400D03*
X114554000Y-118770400D03*
X113284000Y-114706400D03*
X113284000Y-118770400D03*
X112014000Y-114706400D03*
X112014000Y-118770400D03*
X110744000Y-114706400D03*
X110744000Y-118770400D03*
X109474000Y-114706400D03*
X109474000Y-118770400D03*
D11*
X114110200Y-104582200D03*
X114110200Y-105232200D03*
X114110200Y-105882200D03*
X112610200Y-105882200D03*
X112610200Y-105232200D03*
X112610200Y-104582200D03*
D12*
G36*
X111856179Y-92629844D02*
G01*
X111879234Y-92633263D01*
X111901843Y-92638927D01*
X111923787Y-92646779D01*
X111944857Y-92656744D01*
X111964848Y-92668726D01*
X111983568Y-92682610D01*
X112000838Y-92698262D01*
X112016490Y-92715532D01*
X112030374Y-92734252D01*
X112042356Y-92754243D01*
X112052321Y-92775313D01*
X112060173Y-92797257D01*
X112065837Y-92819866D01*
X112069256Y-92842921D01*
X112070400Y-92866200D01*
X112070400Y-93341200D01*
X112069256Y-93364479D01*
X112065837Y-93387534D01*
X112060173Y-93410143D01*
X112052321Y-93432087D01*
X112042356Y-93453157D01*
X112030374Y-93473148D01*
X112016490Y-93491868D01*
X112000838Y-93509138D01*
X111983568Y-93524790D01*
X111964848Y-93538674D01*
X111944857Y-93550656D01*
X111923787Y-93560621D01*
X111901843Y-93568473D01*
X111879234Y-93574137D01*
X111856179Y-93577556D01*
X111832900Y-93578700D01*
X111257900Y-93578700D01*
X111234621Y-93577556D01*
X111211566Y-93574137D01*
X111188957Y-93568473D01*
X111167013Y-93560621D01*
X111145943Y-93550656D01*
X111125952Y-93538674D01*
X111107232Y-93524790D01*
X111089962Y-93509138D01*
X111074310Y-93491868D01*
X111060426Y-93473148D01*
X111048444Y-93453157D01*
X111038479Y-93432087D01*
X111030627Y-93410143D01*
X111024963Y-93387534D01*
X111021544Y-93364479D01*
X111020400Y-93341200D01*
X111020400Y-92866200D01*
X111021544Y-92842921D01*
X111024963Y-92819866D01*
X111030627Y-92797257D01*
X111038479Y-92775313D01*
X111048444Y-92754243D01*
X111060426Y-92734252D01*
X111074310Y-92715532D01*
X111089962Y-92698262D01*
X111107232Y-92682610D01*
X111125952Y-92668726D01*
X111145943Y-92656744D01*
X111167013Y-92646779D01*
X111188957Y-92638927D01*
X111211566Y-92633263D01*
X111234621Y-92629844D01*
X111257900Y-92628700D01*
X111832900Y-92628700D01*
X111856179Y-92629844D01*
X111856179Y-92629844D01*
G37*
D13*
X111545400Y-93103700D03*
D12*
G36*
X113606179Y-92629844D02*
G01*
X113629234Y-92633263D01*
X113651843Y-92638927D01*
X113673787Y-92646779D01*
X113694857Y-92656744D01*
X113714848Y-92668726D01*
X113733568Y-92682610D01*
X113750838Y-92698262D01*
X113766490Y-92715532D01*
X113780374Y-92734252D01*
X113792356Y-92754243D01*
X113802321Y-92775313D01*
X113810173Y-92797257D01*
X113815837Y-92819866D01*
X113819256Y-92842921D01*
X113820400Y-92866200D01*
X113820400Y-93341200D01*
X113819256Y-93364479D01*
X113815837Y-93387534D01*
X113810173Y-93410143D01*
X113802321Y-93432087D01*
X113792356Y-93453157D01*
X113780374Y-93473148D01*
X113766490Y-93491868D01*
X113750838Y-93509138D01*
X113733568Y-93524790D01*
X113714848Y-93538674D01*
X113694857Y-93550656D01*
X113673787Y-93560621D01*
X113651843Y-93568473D01*
X113629234Y-93574137D01*
X113606179Y-93577556D01*
X113582900Y-93578700D01*
X113007900Y-93578700D01*
X112984621Y-93577556D01*
X112961566Y-93574137D01*
X112938957Y-93568473D01*
X112917013Y-93560621D01*
X112895943Y-93550656D01*
X112875952Y-93538674D01*
X112857232Y-93524790D01*
X112839962Y-93509138D01*
X112824310Y-93491868D01*
X112810426Y-93473148D01*
X112798444Y-93453157D01*
X112788479Y-93432087D01*
X112780627Y-93410143D01*
X112774963Y-93387534D01*
X112771544Y-93364479D01*
X112770400Y-93341200D01*
X112770400Y-92866200D01*
X112771544Y-92842921D01*
X112774963Y-92819866D01*
X112780627Y-92797257D01*
X112788479Y-92775313D01*
X112798444Y-92754243D01*
X112810426Y-92734252D01*
X112824310Y-92715532D01*
X112839962Y-92698262D01*
X112857232Y-92682610D01*
X112875952Y-92668726D01*
X112895943Y-92656744D01*
X112917013Y-92646779D01*
X112938957Y-92638927D01*
X112961566Y-92633263D01*
X112984621Y-92629844D01*
X113007900Y-92628700D01*
X113582900Y-92628700D01*
X113606179Y-92629844D01*
X113606179Y-92629844D01*
G37*
D13*
X113295400Y-93103700D03*
D12*
G36*
X104273779Y-92708144D02*
G01*
X104296834Y-92711563D01*
X104319443Y-92717227D01*
X104341387Y-92725079D01*
X104362457Y-92735044D01*
X104382448Y-92747026D01*
X104401168Y-92760910D01*
X104418438Y-92776562D01*
X104434090Y-92793832D01*
X104447974Y-92812552D01*
X104459956Y-92832543D01*
X104469921Y-92853613D01*
X104477773Y-92875557D01*
X104483437Y-92898166D01*
X104486856Y-92921221D01*
X104488000Y-92944500D01*
X104488000Y-93519500D01*
X104486856Y-93542779D01*
X104483437Y-93565834D01*
X104477773Y-93588443D01*
X104469921Y-93610387D01*
X104459956Y-93631457D01*
X104447974Y-93651448D01*
X104434090Y-93670168D01*
X104418438Y-93687438D01*
X104401168Y-93703090D01*
X104382448Y-93716974D01*
X104362457Y-93728956D01*
X104341387Y-93738921D01*
X104319443Y-93746773D01*
X104296834Y-93752437D01*
X104273779Y-93755856D01*
X104250500Y-93757000D01*
X103775500Y-93757000D01*
X103752221Y-93755856D01*
X103729166Y-93752437D01*
X103706557Y-93746773D01*
X103684613Y-93738921D01*
X103663543Y-93728956D01*
X103643552Y-93716974D01*
X103624832Y-93703090D01*
X103607562Y-93687438D01*
X103591910Y-93670168D01*
X103578026Y-93651448D01*
X103566044Y-93631457D01*
X103556079Y-93610387D01*
X103548227Y-93588443D01*
X103542563Y-93565834D01*
X103539144Y-93542779D01*
X103538000Y-93519500D01*
X103538000Y-92944500D01*
X103539144Y-92921221D01*
X103542563Y-92898166D01*
X103548227Y-92875557D01*
X103556079Y-92853613D01*
X103566044Y-92832543D01*
X103578026Y-92812552D01*
X103591910Y-92793832D01*
X103607562Y-92776562D01*
X103624832Y-92760910D01*
X103643552Y-92747026D01*
X103663543Y-92735044D01*
X103684613Y-92725079D01*
X103706557Y-92717227D01*
X103729166Y-92711563D01*
X103752221Y-92708144D01*
X103775500Y-92707000D01*
X104250500Y-92707000D01*
X104273779Y-92708144D01*
X104273779Y-92708144D01*
G37*
D13*
X104013000Y-93232000D03*
D12*
G36*
X104273779Y-94458144D02*
G01*
X104296834Y-94461563D01*
X104319443Y-94467227D01*
X104341387Y-94475079D01*
X104362457Y-94485044D01*
X104382448Y-94497026D01*
X104401168Y-94510910D01*
X104418438Y-94526562D01*
X104434090Y-94543832D01*
X104447974Y-94562552D01*
X104459956Y-94582543D01*
X104469921Y-94603613D01*
X104477773Y-94625557D01*
X104483437Y-94648166D01*
X104486856Y-94671221D01*
X104488000Y-94694500D01*
X104488000Y-95269500D01*
X104486856Y-95292779D01*
X104483437Y-95315834D01*
X104477773Y-95338443D01*
X104469921Y-95360387D01*
X104459956Y-95381457D01*
X104447974Y-95401448D01*
X104434090Y-95420168D01*
X104418438Y-95437438D01*
X104401168Y-95453090D01*
X104382448Y-95466974D01*
X104362457Y-95478956D01*
X104341387Y-95488921D01*
X104319443Y-95496773D01*
X104296834Y-95502437D01*
X104273779Y-95505856D01*
X104250500Y-95507000D01*
X103775500Y-95507000D01*
X103752221Y-95505856D01*
X103729166Y-95502437D01*
X103706557Y-95496773D01*
X103684613Y-95488921D01*
X103663543Y-95478956D01*
X103643552Y-95466974D01*
X103624832Y-95453090D01*
X103607562Y-95437438D01*
X103591910Y-95420168D01*
X103578026Y-95401448D01*
X103566044Y-95381457D01*
X103556079Y-95360387D01*
X103548227Y-95338443D01*
X103542563Y-95315834D01*
X103539144Y-95292779D01*
X103538000Y-95269500D01*
X103538000Y-94694500D01*
X103539144Y-94671221D01*
X103542563Y-94648166D01*
X103548227Y-94625557D01*
X103556079Y-94603613D01*
X103566044Y-94582543D01*
X103578026Y-94562552D01*
X103591910Y-94543832D01*
X103607562Y-94526562D01*
X103624832Y-94510910D01*
X103643552Y-94497026D01*
X103663543Y-94485044D01*
X103684613Y-94475079D01*
X103706557Y-94467227D01*
X103729166Y-94461563D01*
X103752221Y-94458144D01*
X103775500Y-94457000D01*
X104250500Y-94457000D01*
X104273779Y-94458144D01*
X104273779Y-94458144D01*
G37*
D13*
X104013000Y-94982000D03*
D12*
G36*
X106158459Y-98034464D02*
G01*
X106181514Y-98037883D01*
X106204123Y-98043547D01*
X106226067Y-98051399D01*
X106247137Y-98061364D01*
X106267128Y-98073346D01*
X106285848Y-98087230D01*
X106303118Y-98102882D01*
X106318770Y-98120152D01*
X106332654Y-98138872D01*
X106344636Y-98158863D01*
X106354601Y-98179933D01*
X106362453Y-98201877D01*
X106368117Y-98224486D01*
X106371536Y-98247541D01*
X106372680Y-98270820D01*
X106372680Y-98845820D01*
X106371536Y-98869099D01*
X106368117Y-98892154D01*
X106362453Y-98914763D01*
X106354601Y-98936707D01*
X106344636Y-98957777D01*
X106332654Y-98977768D01*
X106318770Y-98996488D01*
X106303118Y-99013758D01*
X106285848Y-99029410D01*
X106267128Y-99043294D01*
X106247137Y-99055276D01*
X106226067Y-99065241D01*
X106204123Y-99073093D01*
X106181514Y-99078757D01*
X106158459Y-99082176D01*
X106135180Y-99083320D01*
X105660180Y-99083320D01*
X105636901Y-99082176D01*
X105613846Y-99078757D01*
X105591237Y-99073093D01*
X105569293Y-99065241D01*
X105548223Y-99055276D01*
X105528232Y-99043294D01*
X105509512Y-99029410D01*
X105492242Y-99013758D01*
X105476590Y-98996488D01*
X105462706Y-98977768D01*
X105450724Y-98957777D01*
X105440759Y-98936707D01*
X105432907Y-98914763D01*
X105427243Y-98892154D01*
X105423824Y-98869099D01*
X105422680Y-98845820D01*
X105422680Y-98270820D01*
X105423824Y-98247541D01*
X105427243Y-98224486D01*
X105432907Y-98201877D01*
X105440759Y-98179933D01*
X105450724Y-98158863D01*
X105462706Y-98138872D01*
X105476590Y-98120152D01*
X105492242Y-98102882D01*
X105509512Y-98087230D01*
X105528232Y-98073346D01*
X105548223Y-98061364D01*
X105569293Y-98051399D01*
X105591237Y-98043547D01*
X105613846Y-98037883D01*
X105636901Y-98034464D01*
X105660180Y-98033320D01*
X106135180Y-98033320D01*
X106158459Y-98034464D01*
X106158459Y-98034464D01*
G37*
D13*
X105897680Y-98558320D03*
D12*
G36*
X106158459Y-96284464D02*
G01*
X106181514Y-96287883D01*
X106204123Y-96293547D01*
X106226067Y-96301399D01*
X106247137Y-96311364D01*
X106267128Y-96323346D01*
X106285848Y-96337230D01*
X106303118Y-96352882D01*
X106318770Y-96370152D01*
X106332654Y-96388872D01*
X106344636Y-96408863D01*
X106354601Y-96429933D01*
X106362453Y-96451877D01*
X106368117Y-96474486D01*
X106371536Y-96497541D01*
X106372680Y-96520820D01*
X106372680Y-97095820D01*
X106371536Y-97119099D01*
X106368117Y-97142154D01*
X106362453Y-97164763D01*
X106354601Y-97186707D01*
X106344636Y-97207777D01*
X106332654Y-97227768D01*
X106318770Y-97246488D01*
X106303118Y-97263758D01*
X106285848Y-97279410D01*
X106267128Y-97293294D01*
X106247137Y-97305276D01*
X106226067Y-97315241D01*
X106204123Y-97323093D01*
X106181514Y-97328757D01*
X106158459Y-97332176D01*
X106135180Y-97333320D01*
X105660180Y-97333320D01*
X105636901Y-97332176D01*
X105613846Y-97328757D01*
X105591237Y-97323093D01*
X105569293Y-97315241D01*
X105548223Y-97305276D01*
X105528232Y-97293294D01*
X105509512Y-97279410D01*
X105492242Y-97263758D01*
X105476590Y-97246488D01*
X105462706Y-97227768D01*
X105450724Y-97207777D01*
X105440759Y-97186707D01*
X105432907Y-97164763D01*
X105427243Y-97142154D01*
X105423824Y-97119099D01*
X105422680Y-97095820D01*
X105422680Y-96520820D01*
X105423824Y-96497541D01*
X105427243Y-96474486D01*
X105432907Y-96451877D01*
X105440759Y-96429933D01*
X105450724Y-96408863D01*
X105462706Y-96388872D01*
X105476590Y-96370152D01*
X105492242Y-96352882D01*
X105509512Y-96337230D01*
X105528232Y-96323346D01*
X105548223Y-96311364D01*
X105569293Y-96301399D01*
X105591237Y-96293547D01*
X105613846Y-96287883D01*
X105636901Y-96284464D01*
X105660180Y-96283320D01*
X106135180Y-96283320D01*
X106158459Y-96284464D01*
X106158459Y-96284464D01*
G37*
D13*
X105897680Y-96808320D03*
D12*
G36*
X111071259Y-98804584D02*
G01*
X111094314Y-98808003D01*
X111116923Y-98813667D01*
X111138867Y-98821519D01*
X111159937Y-98831484D01*
X111179928Y-98843466D01*
X111198648Y-98857350D01*
X111215918Y-98873002D01*
X111231570Y-98890272D01*
X111245454Y-98908992D01*
X111257436Y-98928983D01*
X111267401Y-98950053D01*
X111275253Y-98971997D01*
X111280917Y-98994606D01*
X111284336Y-99017661D01*
X111285480Y-99040940D01*
X111285480Y-99515940D01*
X111284336Y-99539219D01*
X111280917Y-99562274D01*
X111275253Y-99584883D01*
X111267401Y-99606827D01*
X111257436Y-99627897D01*
X111245454Y-99647888D01*
X111231570Y-99666608D01*
X111215918Y-99683878D01*
X111198648Y-99699530D01*
X111179928Y-99713414D01*
X111159937Y-99725396D01*
X111138867Y-99735361D01*
X111116923Y-99743213D01*
X111094314Y-99748877D01*
X111071259Y-99752296D01*
X111047980Y-99753440D01*
X110472980Y-99753440D01*
X110449701Y-99752296D01*
X110426646Y-99748877D01*
X110404037Y-99743213D01*
X110382093Y-99735361D01*
X110361023Y-99725396D01*
X110341032Y-99713414D01*
X110322312Y-99699530D01*
X110305042Y-99683878D01*
X110289390Y-99666608D01*
X110275506Y-99647888D01*
X110263524Y-99627897D01*
X110253559Y-99606827D01*
X110245707Y-99584883D01*
X110240043Y-99562274D01*
X110236624Y-99539219D01*
X110235480Y-99515940D01*
X110235480Y-99040940D01*
X110236624Y-99017661D01*
X110240043Y-98994606D01*
X110245707Y-98971997D01*
X110253559Y-98950053D01*
X110263524Y-98928983D01*
X110275506Y-98908992D01*
X110289390Y-98890272D01*
X110305042Y-98873002D01*
X110322312Y-98857350D01*
X110341032Y-98843466D01*
X110361023Y-98831484D01*
X110382093Y-98821519D01*
X110404037Y-98813667D01*
X110426646Y-98808003D01*
X110449701Y-98804584D01*
X110472980Y-98803440D01*
X111047980Y-98803440D01*
X111071259Y-98804584D01*
X111071259Y-98804584D01*
G37*
D13*
X110760480Y-99278440D03*
D12*
G36*
X109321259Y-98804584D02*
G01*
X109344314Y-98808003D01*
X109366923Y-98813667D01*
X109388867Y-98821519D01*
X109409937Y-98831484D01*
X109429928Y-98843466D01*
X109448648Y-98857350D01*
X109465918Y-98873002D01*
X109481570Y-98890272D01*
X109495454Y-98908992D01*
X109507436Y-98928983D01*
X109517401Y-98950053D01*
X109525253Y-98971997D01*
X109530917Y-98994606D01*
X109534336Y-99017661D01*
X109535480Y-99040940D01*
X109535480Y-99515940D01*
X109534336Y-99539219D01*
X109530917Y-99562274D01*
X109525253Y-99584883D01*
X109517401Y-99606827D01*
X109507436Y-99627897D01*
X109495454Y-99647888D01*
X109481570Y-99666608D01*
X109465918Y-99683878D01*
X109448648Y-99699530D01*
X109429928Y-99713414D01*
X109409937Y-99725396D01*
X109388867Y-99735361D01*
X109366923Y-99743213D01*
X109344314Y-99748877D01*
X109321259Y-99752296D01*
X109297980Y-99753440D01*
X108722980Y-99753440D01*
X108699701Y-99752296D01*
X108676646Y-99748877D01*
X108654037Y-99743213D01*
X108632093Y-99735361D01*
X108611023Y-99725396D01*
X108591032Y-99713414D01*
X108572312Y-99699530D01*
X108555042Y-99683878D01*
X108539390Y-99666608D01*
X108525506Y-99647888D01*
X108513524Y-99627897D01*
X108503559Y-99606827D01*
X108495707Y-99584883D01*
X108490043Y-99562274D01*
X108486624Y-99539219D01*
X108485480Y-99515940D01*
X108485480Y-99040940D01*
X108486624Y-99017661D01*
X108490043Y-98994606D01*
X108495707Y-98971997D01*
X108503559Y-98950053D01*
X108513524Y-98928983D01*
X108525506Y-98908992D01*
X108539390Y-98890272D01*
X108555042Y-98873002D01*
X108572312Y-98857350D01*
X108591032Y-98843466D01*
X108611023Y-98831484D01*
X108632093Y-98821519D01*
X108654037Y-98813667D01*
X108676646Y-98808003D01*
X108699701Y-98804584D01*
X108722980Y-98803440D01*
X109297980Y-98803440D01*
X109321259Y-98804584D01*
X109321259Y-98804584D01*
G37*
D13*
X109010480Y-99278440D03*
D12*
G36*
X111116979Y-97189144D02*
G01*
X111140034Y-97192563D01*
X111162643Y-97198227D01*
X111184587Y-97206079D01*
X111205657Y-97216044D01*
X111225648Y-97228026D01*
X111244368Y-97241910D01*
X111261638Y-97257562D01*
X111277290Y-97274832D01*
X111291174Y-97293552D01*
X111303156Y-97313543D01*
X111313121Y-97334613D01*
X111320973Y-97356557D01*
X111326637Y-97379166D01*
X111330056Y-97402221D01*
X111331200Y-97425500D01*
X111331200Y-97900500D01*
X111330056Y-97923779D01*
X111326637Y-97946834D01*
X111320973Y-97969443D01*
X111313121Y-97991387D01*
X111303156Y-98012457D01*
X111291174Y-98032448D01*
X111277290Y-98051168D01*
X111261638Y-98068438D01*
X111244368Y-98084090D01*
X111225648Y-98097974D01*
X111205657Y-98109956D01*
X111184587Y-98119921D01*
X111162643Y-98127773D01*
X111140034Y-98133437D01*
X111116979Y-98136856D01*
X111093700Y-98138000D01*
X110518700Y-98138000D01*
X110495421Y-98136856D01*
X110472366Y-98133437D01*
X110449757Y-98127773D01*
X110427813Y-98119921D01*
X110406743Y-98109956D01*
X110386752Y-98097974D01*
X110368032Y-98084090D01*
X110350762Y-98068438D01*
X110335110Y-98051168D01*
X110321226Y-98032448D01*
X110309244Y-98012457D01*
X110299279Y-97991387D01*
X110291427Y-97969443D01*
X110285763Y-97946834D01*
X110282344Y-97923779D01*
X110281200Y-97900500D01*
X110281200Y-97425500D01*
X110282344Y-97402221D01*
X110285763Y-97379166D01*
X110291427Y-97356557D01*
X110299279Y-97334613D01*
X110309244Y-97313543D01*
X110321226Y-97293552D01*
X110335110Y-97274832D01*
X110350762Y-97257562D01*
X110368032Y-97241910D01*
X110386752Y-97228026D01*
X110406743Y-97216044D01*
X110427813Y-97206079D01*
X110449757Y-97198227D01*
X110472366Y-97192563D01*
X110495421Y-97189144D01*
X110518700Y-97188000D01*
X111093700Y-97188000D01*
X111116979Y-97189144D01*
X111116979Y-97189144D01*
G37*
D13*
X110806200Y-97663000D03*
D12*
G36*
X109366979Y-97189144D02*
G01*
X109390034Y-97192563D01*
X109412643Y-97198227D01*
X109434587Y-97206079D01*
X109455657Y-97216044D01*
X109475648Y-97228026D01*
X109494368Y-97241910D01*
X109511638Y-97257562D01*
X109527290Y-97274832D01*
X109541174Y-97293552D01*
X109553156Y-97313543D01*
X109563121Y-97334613D01*
X109570973Y-97356557D01*
X109576637Y-97379166D01*
X109580056Y-97402221D01*
X109581200Y-97425500D01*
X109581200Y-97900500D01*
X109580056Y-97923779D01*
X109576637Y-97946834D01*
X109570973Y-97969443D01*
X109563121Y-97991387D01*
X109553156Y-98012457D01*
X109541174Y-98032448D01*
X109527290Y-98051168D01*
X109511638Y-98068438D01*
X109494368Y-98084090D01*
X109475648Y-98097974D01*
X109455657Y-98109956D01*
X109434587Y-98119921D01*
X109412643Y-98127773D01*
X109390034Y-98133437D01*
X109366979Y-98136856D01*
X109343700Y-98138000D01*
X108768700Y-98138000D01*
X108745421Y-98136856D01*
X108722366Y-98133437D01*
X108699757Y-98127773D01*
X108677813Y-98119921D01*
X108656743Y-98109956D01*
X108636752Y-98097974D01*
X108618032Y-98084090D01*
X108600762Y-98068438D01*
X108585110Y-98051168D01*
X108571226Y-98032448D01*
X108559244Y-98012457D01*
X108549279Y-97991387D01*
X108541427Y-97969443D01*
X108535763Y-97946834D01*
X108532344Y-97923779D01*
X108531200Y-97900500D01*
X108531200Y-97425500D01*
X108532344Y-97402221D01*
X108535763Y-97379166D01*
X108541427Y-97356557D01*
X108549279Y-97334613D01*
X108559244Y-97313543D01*
X108571226Y-97293552D01*
X108585110Y-97274832D01*
X108600762Y-97257562D01*
X108618032Y-97241910D01*
X108636752Y-97228026D01*
X108656743Y-97216044D01*
X108677813Y-97206079D01*
X108699757Y-97198227D01*
X108722366Y-97192563D01*
X108745421Y-97189144D01*
X108768700Y-97188000D01*
X109343700Y-97188000D01*
X109366979Y-97189144D01*
X109366979Y-97189144D01*
G37*
D13*
X109056200Y-97663000D03*
D12*
G36*
X100956979Y-107552344D02*
G01*
X100980034Y-107555763D01*
X101002643Y-107561427D01*
X101024587Y-107569279D01*
X101045657Y-107579244D01*
X101065648Y-107591226D01*
X101084368Y-107605110D01*
X101101638Y-107620762D01*
X101117290Y-107638032D01*
X101131174Y-107656752D01*
X101143156Y-107676743D01*
X101153121Y-107697813D01*
X101160973Y-107719757D01*
X101166637Y-107742366D01*
X101170056Y-107765421D01*
X101171200Y-107788700D01*
X101171200Y-108263700D01*
X101170056Y-108286979D01*
X101166637Y-108310034D01*
X101160973Y-108332643D01*
X101153121Y-108354587D01*
X101143156Y-108375657D01*
X101131174Y-108395648D01*
X101117290Y-108414368D01*
X101101638Y-108431638D01*
X101084368Y-108447290D01*
X101065648Y-108461174D01*
X101045657Y-108473156D01*
X101024587Y-108483121D01*
X101002643Y-108490973D01*
X100980034Y-108496637D01*
X100956979Y-108500056D01*
X100933700Y-108501200D01*
X100358700Y-108501200D01*
X100335421Y-108500056D01*
X100312366Y-108496637D01*
X100289757Y-108490973D01*
X100267813Y-108483121D01*
X100246743Y-108473156D01*
X100226752Y-108461174D01*
X100208032Y-108447290D01*
X100190762Y-108431638D01*
X100175110Y-108414368D01*
X100161226Y-108395648D01*
X100149244Y-108375657D01*
X100139279Y-108354587D01*
X100131427Y-108332643D01*
X100125763Y-108310034D01*
X100122344Y-108286979D01*
X100121200Y-108263700D01*
X100121200Y-107788700D01*
X100122344Y-107765421D01*
X100125763Y-107742366D01*
X100131427Y-107719757D01*
X100139279Y-107697813D01*
X100149244Y-107676743D01*
X100161226Y-107656752D01*
X100175110Y-107638032D01*
X100190762Y-107620762D01*
X100208032Y-107605110D01*
X100226752Y-107591226D01*
X100246743Y-107579244D01*
X100267813Y-107569279D01*
X100289757Y-107561427D01*
X100312366Y-107555763D01*
X100335421Y-107552344D01*
X100358700Y-107551200D01*
X100933700Y-107551200D01*
X100956979Y-107552344D01*
X100956979Y-107552344D01*
G37*
D13*
X100646200Y-108026200D03*
D12*
G36*
X99206979Y-107552344D02*
G01*
X99230034Y-107555763D01*
X99252643Y-107561427D01*
X99274587Y-107569279D01*
X99295657Y-107579244D01*
X99315648Y-107591226D01*
X99334368Y-107605110D01*
X99351638Y-107620762D01*
X99367290Y-107638032D01*
X99381174Y-107656752D01*
X99393156Y-107676743D01*
X99403121Y-107697813D01*
X99410973Y-107719757D01*
X99416637Y-107742366D01*
X99420056Y-107765421D01*
X99421200Y-107788700D01*
X99421200Y-108263700D01*
X99420056Y-108286979D01*
X99416637Y-108310034D01*
X99410973Y-108332643D01*
X99403121Y-108354587D01*
X99393156Y-108375657D01*
X99381174Y-108395648D01*
X99367290Y-108414368D01*
X99351638Y-108431638D01*
X99334368Y-108447290D01*
X99315648Y-108461174D01*
X99295657Y-108473156D01*
X99274587Y-108483121D01*
X99252643Y-108490973D01*
X99230034Y-108496637D01*
X99206979Y-108500056D01*
X99183700Y-108501200D01*
X98608700Y-108501200D01*
X98585421Y-108500056D01*
X98562366Y-108496637D01*
X98539757Y-108490973D01*
X98517813Y-108483121D01*
X98496743Y-108473156D01*
X98476752Y-108461174D01*
X98458032Y-108447290D01*
X98440762Y-108431638D01*
X98425110Y-108414368D01*
X98411226Y-108395648D01*
X98399244Y-108375657D01*
X98389279Y-108354587D01*
X98381427Y-108332643D01*
X98375763Y-108310034D01*
X98372344Y-108286979D01*
X98371200Y-108263700D01*
X98371200Y-107788700D01*
X98372344Y-107765421D01*
X98375763Y-107742366D01*
X98381427Y-107719757D01*
X98389279Y-107697813D01*
X98399244Y-107676743D01*
X98411226Y-107656752D01*
X98425110Y-107638032D01*
X98440762Y-107620762D01*
X98458032Y-107605110D01*
X98476752Y-107591226D01*
X98496743Y-107579244D01*
X98517813Y-107569279D01*
X98539757Y-107561427D01*
X98562366Y-107555763D01*
X98585421Y-107552344D01*
X98608700Y-107551200D01*
X99183700Y-107551200D01*
X99206979Y-107552344D01*
X99206979Y-107552344D01*
G37*
D13*
X98896200Y-108026200D03*
D12*
G36*
X100982379Y-105914044D02*
G01*
X101005434Y-105917463D01*
X101028043Y-105923127D01*
X101049987Y-105930979D01*
X101071057Y-105940944D01*
X101091048Y-105952926D01*
X101109768Y-105966810D01*
X101127038Y-105982462D01*
X101142690Y-105999732D01*
X101156574Y-106018452D01*
X101168556Y-106038443D01*
X101178521Y-106059513D01*
X101186373Y-106081457D01*
X101192037Y-106104066D01*
X101195456Y-106127121D01*
X101196600Y-106150400D01*
X101196600Y-106625400D01*
X101195456Y-106648679D01*
X101192037Y-106671734D01*
X101186373Y-106694343D01*
X101178521Y-106716287D01*
X101168556Y-106737357D01*
X101156574Y-106757348D01*
X101142690Y-106776068D01*
X101127038Y-106793338D01*
X101109768Y-106808990D01*
X101091048Y-106822874D01*
X101071057Y-106834856D01*
X101049987Y-106844821D01*
X101028043Y-106852673D01*
X101005434Y-106858337D01*
X100982379Y-106861756D01*
X100959100Y-106862900D01*
X100384100Y-106862900D01*
X100360821Y-106861756D01*
X100337766Y-106858337D01*
X100315157Y-106852673D01*
X100293213Y-106844821D01*
X100272143Y-106834856D01*
X100252152Y-106822874D01*
X100233432Y-106808990D01*
X100216162Y-106793338D01*
X100200510Y-106776068D01*
X100186626Y-106757348D01*
X100174644Y-106737357D01*
X100164679Y-106716287D01*
X100156827Y-106694343D01*
X100151163Y-106671734D01*
X100147744Y-106648679D01*
X100146600Y-106625400D01*
X100146600Y-106150400D01*
X100147744Y-106127121D01*
X100151163Y-106104066D01*
X100156827Y-106081457D01*
X100164679Y-106059513D01*
X100174644Y-106038443D01*
X100186626Y-106018452D01*
X100200510Y-105999732D01*
X100216162Y-105982462D01*
X100233432Y-105966810D01*
X100252152Y-105952926D01*
X100272143Y-105940944D01*
X100293213Y-105930979D01*
X100315157Y-105923127D01*
X100337766Y-105917463D01*
X100360821Y-105914044D01*
X100384100Y-105912900D01*
X100959100Y-105912900D01*
X100982379Y-105914044D01*
X100982379Y-105914044D01*
G37*
D13*
X100671600Y-106387900D03*
D12*
G36*
X99232379Y-105914044D02*
G01*
X99255434Y-105917463D01*
X99278043Y-105923127D01*
X99299987Y-105930979D01*
X99321057Y-105940944D01*
X99341048Y-105952926D01*
X99359768Y-105966810D01*
X99377038Y-105982462D01*
X99392690Y-105999732D01*
X99406574Y-106018452D01*
X99418556Y-106038443D01*
X99428521Y-106059513D01*
X99436373Y-106081457D01*
X99442037Y-106104066D01*
X99445456Y-106127121D01*
X99446600Y-106150400D01*
X99446600Y-106625400D01*
X99445456Y-106648679D01*
X99442037Y-106671734D01*
X99436373Y-106694343D01*
X99428521Y-106716287D01*
X99418556Y-106737357D01*
X99406574Y-106757348D01*
X99392690Y-106776068D01*
X99377038Y-106793338D01*
X99359768Y-106808990D01*
X99341048Y-106822874D01*
X99321057Y-106834856D01*
X99299987Y-106844821D01*
X99278043Y-106852673D01*
X99255434Y-106858337D01*
X99232379Y-106861756D01*
X99209100Y-106862900D01*
X98634100Y-106862900D01*
X98610821Y-106861756D01*
X98587766Y-106858337D01*
X98565157Y-106852673D01*
X98543213Y-106844821D01*
X98522143Y-106834856D01*
X98502152Y-106822874D01*
X98483432Y-106808990D01*
X98466162Y-106793338D01*
X98450510Y-106776068D01*
X98436626Y-106757348D01*
X98424644Y-106737357D01*
X98414679Y-106716287D01*
X98406827Y-106694343D01*
X98401163Y-106671734D01*
X98397744Y-106648679D01*
X98396600Y-106625400D01*
X98396600Y-106150400D01*
X98397744Y-106127121D01*
X98401163Y-106104066D01*
X98406827Y-106081457D01*
X98414679Y-106059513D01*
X98424644Y-106038443D01*
X98436626Y-106018452D01*
X98450510Y-105999732D01*
X98466162Y-105982462D01*
X98483432Y-105966810D01*
X98502152Y-105952926D01*
X98522143Y-105940944D01*
X98543213Y-105930979D01*
X98565157Y-105923127D01*
X98587766Y-105917463D01*
X98610821Y-105914044D01*
X98634100Y-105912900D01*
X99209100Y-105912900D01*
X99232379Y-105914044D01*
X99232379Y-105914044D01*
G37*
D13*
X98921600Y-106387900D03*
D14*
X105623360Y-92735400D03*
X105623360Y-94935400D03*
D15*
X103376900Y-101524900D03*
X101651900Y-101524900D03*
X103376900Y-103249900D03*
X101651900Y-103249900D03*
D16*
X104914400Y-100637400D03*
X104914400Y-101137400D03*
X104914400Y-101637400D03*
X104914400Y-102137400D03*
X104914400Y-102637400D03*
X104914400Y-103137400D03*
X104914400Y-103637400D03*
X104914400Y-104137400D03*
D17*
X104264400Y-104787400D03*
X103764400Y-104787400D03*
X103264400Y-104787400D03*
X102764400Y-104787400D03*
X102264400Y-104787400D03*
X101764400Y-104787400D03*
X101264400Y-104787400D03*
X100764400Y-104787400D03*
D16*
X100114400Y-104137400D03*
X100114400Y-103637400D03*
X100114400Y-103137400D03*
X100114400Y-102637400D03*
X100114400Y-102137400D03*
X100114400Y-101637400D03*
X100114400Y-101137400D03*
X100114400Y-100637400D03*
D17*
X100764400Y-99987400D03*
X101264400Y-99987400D03*
X101764400Y-99987400D03*
X102264400Y-99987400D03*
X102764400Y-99987400D03*
X103264400Y-99987400D03*
X103764400Y-99987400D03*
X104264400Y-99987400D03*
D18*
X101233680Y-98164640D03*
X101233680Y-97264640D03*
X101233680Y-96364640D03*
X101233680Y-95464640D03*
X102433680Y-95464640D03*
X102433680Y-96364640D03*
X102433680Y-97264640D03*
X102433680Y-98164640D03*
D12*
G36*
X116527179Y-98675044D02*
G01*
X116550234Y-98678463D01*
X116572843Y-98684127D01*
X116594787Y-98691979D01*
X116615857Y-98701944D01*
X116635848Y-98713926D01*
X116654568Y-98727810D01*
X116671838Y-98743462D01*
X116687490Y-98760732D01*
X116701374Y-98779452D01*
X116713356Y-98799443D01*
X116723321Y-98820513D01*
X116731173Y-98842457D01*
X116736837Y-98865066D01*
X116740256Y-98888121D01*
X116741400Y-98911400D01*
X116741400Y-99386400D01*
X116740256Y-99409679D01*
X116736837Y-99432734D01*
X116731173Y-99455343D01*
X116723321Y-99477287D01*
X116713356Y-99498357D01*
X116701374Y-99518348D01*
X116687490Y-99537068D01*
X116671838Y-99554338D01*
X116654568Y-99569990D01*
X116635848Y-99583874D01*
X116615857Y-99595856D01*
X116594787Y-99605821D01*
X116572843Y-99613673D01*
X116550234Y-99619337D01*
X116527179Y-99622756D01*
X116503900Y-99623900D01*
X115928900Y-99623900D01*
X115905621Y-99622756D01*
X115882566Y-99619337D01*
X115859957Y-99613673D01*
X115838013Y-99605821D01*
X115816943Y-99595856D01*
X115796952Y-99583874D01*
X115778232Y-99569990D01*
X115760962Y-99554338D01*
X115745310Y-99537068D01*
X115731426Y-99518348D01*
X115719444Y-99498357D01*
X115709479Y-99477287D01*
X115701627Y-99455343D01*
X115695963Y-99432734D01*
X115692544Y-99409679D01*
X115691400Y-99386400D01*
X115691400Y-98911400D01*
X115692544Y-98888121D01*
X115695963Y-98865066D01*
X115701627Y-98842457D01*
X115709479Y-98820513D01*
X115719444Y-98799443D01*
X115731426Y-98779452D01*
X115745310Y-98760732D01*
X115760962Y-98743462D01*
X115778232Y-98727810D01*
X115796952Y-98713926D01*
X115816943Y-98701944D01*
X115838013Y-98691979D01*
X115859957Y-98684127D01*
X115882566Y-98678463D01*
X115905621Y-98675044D01*
X115928900Y-98673900D01*
X116503900Y-98673900D01*
X116527179Y-98675044D01*
X116527179Y-98675044D01*
G37*
D13*
X116216400Y-99148900D03*
D12*
G36*
X114777179Y-98675044D02*
G01*
X114800234Y-98678463D01*
X114822843Y-98684127D01*
X114844787Y-98691979D01*
X114865857Y-98701944D01*
X114885848Y-98713926D01*
X114904568Y-98727810D01*
X114921838Y-98743462D01*
X114937490Y-98760732D01*
X114951374Y-98779452D01*
X114963356Y-98799443D01*
X114973321Y-98820513D01*
X114981173Y-98842457D01*
X114986837Y-98865066D01*
X114990256Y-98888121D01*
X114991400Y-98911400D01*
X114991400Y-99386400D01*
X114990256Y-99409679D01*
X114986837Y-99432734D01*
X114981173Y-99455343D01*
X114973321Y-99477287D01*
X114963356Y-99498357D01*
X114951374Y-99518348D01*
X114937490Y-99537068D01*
X114921838Y-99554338D01*
X114904568Y-99569990D01*
X114885848Y-99583874D01*
X114865857Y-99595856D01*
X114844787Y-99605821D01*
X114822843Y-99613673D01*
X114800234Y-99619337D01*
X114777179Y-99622756D01*
X114753900Y-99623900D01*
X114178900Y-99623900D01*
X114155621Y-99622756D01*
X114132566Y-99619337D01*
X114109957Y-99613673D01*
X114088013Y-99605821D01*
X114066943Y-99595856D01*
X114046952Y-99583874D01*
X114028232Y-99569990D01*
X114010962Y-99554338D01*
X113995310Y-99537068D01*
X113981426Y-99518348D01*
X113969444Y-99498357D01*
X113959479Y-99477287D01*
X113951627Y-99455343D01*
X113945963Y-99432734D01*
X113942544Y-99409679D01*
X113941400Y-99386400D01*
X113941400Y-98911400D01*
X113942544Y-98888121D01*
X113945963Y-98865066D01*
X113951627Y-98842457D01*
X113959479Y-98820513D01*
X113969444Y-98799443D01*
X113981426Y-98779452D01*
X113995310Y-98760732D01*
X114010962Y-98743462D01*
X114028232Y-98727810D01*
X114046952Y-98713926D01*
X114066943Y-98701944D01*
X114088013Y-98691979D01*
X114109957Y-98684127D01*
X114132566Y-98678463D01*
X114155621Y-98675044D01*
X114178900Y-98673900D01*
X114753900Y-98673900D01*
X114777179Y-98675044D01*
X114777179Y-98675044D01*
G37*
D13*
X114466400Y-99148900D03*
D12*
G36*
X125440644Y-104537704D02*
G01*
X125464913Y-104541304D01*
X125488711Y-104547265D01*
X125511811Y-104555530D01*
X125533989Y-104566020D01*
X125555033Y-104578633D01*
X125574738Y-104593247D01*
X125592917Y-104609723D01*
X125609393Y-104627902D01*
X125624007Y-104647607D01*
X125636620Y-104668651D01*
X125647110Y-104690829D01*
X125655375Y-104713929D01*
X125661336Y-104737727D01*
X125664936Y-104761996D01*
X125666140Y-104786500D01*
X125666140Y-105986500D01*
X125664936Y-106011004D01*
X125661336Y-106035273D01*
X125655375Y-106059071D01*
X125647110Y-106082171D01*
X125636620Y-106104349D01*
X125624007Y-106125393D01*
X125609393Y-106145098D01*
X125592917Y-106163277D01*
X125574738Y-106179753D01*
X125555033Y-106194367D01*
X125533989Y-106206980D01*
X125511811Y-106217470D01*
X125488711Y-106225735D01*
X125464913Y-106231696D01*
X125440644Y-106235296D01*
X125416140Y-106236500D01*
X123966140Y-106236500D01*
X123941636Y-106235296D01*
X123917367Y-106231696D01*
X123893569Y-106225735D01*
X123870469Y-106217470D01*
X123848291Y-106206980D01*
X123827247Y-106194367D01*
X123807542Y-106179753D01*
X123789363Y-106163277D01*
X123772887Y-106145098D01*
X123758273Y-106125393D01*
X123745660Y-106104349D01*
X123735170Y-106082171D01*
X123726905Y-106059071D01*
X123720944Y-106035273D01*
X123717344Y-106011004D01*
X123716140Y-105986500D01*
X123716140Y-104786500D01*
X123717344Y-104761996D01*
X123720944Y-104737727D01*
X123726905Y-104713929D01*
X123735170Y-104690829D01*
X123745660Y-104668651D01*
X123758273Y-104647607D01*
X123772887Y-104627902D01*
X123789363Y-104609723D01*
X123807542Y-104593247D01*
X123827247Y-104578633D01*
X123848291Y-104566020D01*
X123870469Y-104555530D01*
X123893569Y-104547265D01*
X123917367Y-104541304D01*
X123941636Y-104537704D01*
X123966140Y-104536500D01*
X125416140Y-104536500D01*
X125440644Y-104537704D01*
X125440644Y-104537704D01*
G37*
D19*
X124691140Y-105386500D03*
D20*
X124691140Y-107886500D03*
X124691140Y-110386500D03*
D12*
G36*
X121708779Y-114207144D02*
G01*
X121731834Y-114210563D01*
X121754443Y-114216227D01*
X121776387Y-114224079D01*
X121797457Y-114234044D01*
X121817448Y-114246026D01*
X121836168Y-114259910D01*
X121853438Y-114275562D01*
X121869090Y-114292832D01*
X121882974Y-114311552D01*
X121894956Y-114331543D01*
X121904921Y-114352613D01*
X121912773Y-114374557D01*
X121918437Y-114397166D01*
X121921856Y-114420221D01*
X121923000Y-114443500D01*
X121923000Y-114918500D01*
X121921856Y-114941779D01*
X121918437Y-114964834D01*
X121912773Y-114987443D01*
X121904921Y-115009387D01*
X121894956Y-115030457D01*
X121882974Y-115050448D01*
X121869090Y-115069168D01*
X121853438Y-115086438D01*
X121836168Y-115102090D01*
X121817448Y-115115974D01*
X121797457Y-115127956D01*
X121776387Y-115137921D01*
X121754443Y-115145773D01*
X121731834Y-115151437D01*
X121708779Y-115154856D01*
X121685500Y-115156000D01*
X121110500Y-115156000D01*
X121087221Y-115154856D01*
X121064166Y-115151437D01*
X121041557Y-115145773D01*
X121019613Y-115137921D01*
X120998543Y-115127956D01*
X120978552Y-115115974D01*
X120959832Y-115102090D01*
X120942562Y-115086438D01*
X120926910Y-115069168D01*
X120913026Y-115050448D01*
X120901044Y-115030457D01*
X120891079Y-115009387D01*
X120883227Y-114987443D01*
X120877563Y-114964834D01*
X120874144Y-114941779D01*
X120873000Y-114918500D01*
X120873000Y-114443500D01*
X120874144Y-114420221D01*
X120877563Y-114397166D01*
X120883227Y-114374557D01*
X120891079Y-114352613D01*
X120901044Y-114331543D01*
X120913026Y-114311552D01*
X120926910Y-114292832D01*
X120942562Y-114275562D01*
X120959832Y-114259910D01*
X120978552Y-114246026D01*
X120998543Y-114234044D01*
X121019613Y-114224079D01*
X121041557Y-114216227D01*
X121064166Y-114210563D01*
X121087221Y-114207144D01*
X121110500Y-114206000D01*
X121685500Y-114206000D01*
X121708779Y-114207144D01*
X121708779Y-114207144D01*
G37*
D13*
X121398000Y-114681000D03*
D12*
G36*
X119958779Y-114207144D02*
G01*
X119981834Y-114210563D01*
X120004443Y-114216227D01*
X120026387Y-114224079D01*
X120047457Y-114234044D01*
X120067448Y-114246026D01*
X120086168Y-114259910D01*
X120103438Y-114275562D01*
X120119090Y-114292832D01*
X120132974Y-114311552D01*
X120144956Y-114331543D01*
X120154921Y-114352613D01*
X120162773Y-114374557D01*
X120168437Y-114397166D01*
X120171856Y-114420221D01*
X120173000Y-114443500D01*
X120173000Y-114918500D01*
X120171856Y-114941779D01*
X120168437Y-114964834D01*
X120162773Y-114987443D01*
X120154921Y-115009387D01*
X120144956Y-115030457D01*
X120132974Y-115050448D01*
X120119090Y-115069168D01*
X120103438Y-115086438D01*
X120086168Y-115102090D01*
X120067448Y-115115974D01*
X120047457Y-115127956D01*
X120026387Y-115137921D01*
X120004443Y-115145773D01*
X119981834Y-115151437D01*
X119958779Y-115154856D01*
X119935500Y-115156000D01*
X119360500Y-115156000D01*
X119337221Y-115154856D01*
X119314166Y-115151437D01*
X119291557Y-115145773D01*
X119269613Y-115137921D01*
X119248543Y-115127956D01*
X119228552Y-115115974D01*
X119209832Y-115102090D01*
X119192562Y-115086438D01*
X119176910Y-115069168D01*
X119163026Y-115050448D01*
X119151044Y-115030457D01*
X119141079Y-115009387D01*
X119133227Y-114987443D01*
X119127563Y-114964834D01*
X119124144Y-114941779D01*
X119123000Y-114918500D01*
X119123000Y-114443500D01*
X119124144Y-114420221D01*
X119127563Y-114397166D01*
X119133227Y-114374557D01*
X119141079Y-114352613D01*
X119151044Y-114331543D01*
X119163026Y-114311552D01*
X119176910Y-114292832D01*
X119192562Y-114275562D01*
X119209832Y-114259910D01*
X119228552Y-114246026D01*
X119248543Y-114234044D01*
X119269613Y-114224079D01*
X119291557Y-114216227D01*
X119314166Y-114210563D01*
X119337221Y-114207144D01*
X119360500Y-114206000D01*
X119935500Y-114206000D01*
X119958779Y-114207144D01*
X119958779Y-114207144D01*
G37*
D13*
X119648000Y-114681000D03*
D12*
G36*
X119958779Y-116112144D02*
G01*
X119981834Y-116115563D01*
X120004443Y-116121227D01*
X120026387Y-116129079D01*
X120047457Y-116139044D01*
X120067448Y-116151026D01*
X120086168Y-116164910D01*
X120103438Y-116180562D01*
X120119090Y-116197832D01*
X120132974Y-116216552D01*
X120144956Y-116236543D01*
X120154921Y-116257613D01*
X120162773Y-116279557D01*
X120168437Y-116302166D01*
X120171856Y-116325221D01*
X120173000Y-116348500D01*
X120173000Y-116823500D01*
X120171856Y-116846779D01*
X120168437Y-116869834D01*
X120162773Y-116892443D01*
X120154921Y-116914387D01*
X120144956Y-116935457D01*
X120132974Y-116955448D01*
X120119090Y-116974168D01*
X120103438Y-116991438D01*
X120086168Y-117007090D01*
X120067448Y-117020974D01*
X120047457Y-117032956D01*
X120026387Y-117042921D01*
X120004443Y-117050773D01*
X119981834Y-117056437D01*
X119958779Y-117059856D01*
X119935500Y-117061000D01*
X119360500Y-117061000D01*
X119337221Y-117059856D01*
X119314166Y-117056437D01*
X119291557Y-117050773D01*
X119269613Y-117042921D01*
X119248543Y-117032956D01*
X119228552Y-117020974D01*
X119209832Y-117007090D01*
X119192562Y-116991438D01*
X119176910Y-116974168D01*
X119163026Y-116955448D01*
X119151044Y-116935457D01*
X119141079Y-116914387D01*
X119133227Y-116892443D01*
X119127563Y-116869834D01*
X119124144Y-116846779D01*
X119123000Y-116823500D01*
X119123000Y-116348500D01*
X119124144Y-116325221D01*
X119127563Y-116302166D01*
X119133227Y-116279557D01*
X119141079Y-116257613D01*
X119151044Y-116236543D01*
X119163026Y-116216552D01*
X119176910Y-116197832D01*
X119192562Y-116180562D01*
X119209832Y-116164910D01*
X119228552Y-116151026D01*
X119248543Y-116139044D01*
X119269613Y-116129079D01*
X119291557Y-116121227D01*
X119314166Y-116115563D01*
X119337221Y-116112144D01*
X119360500Y-116111000D01*
X119935500Y-116111000D01*
X119958779Y-116112144D01*
X119958779Y-116112144D01*
G37*
D13*
X119648000Y-116586000D03*
D12*
G36*
X121708779Y-116112144D02*
G01*
X121731834Y-116115563D01*
X121754443Y-116121227D01*
X121776387Y-116129079D01*
X121797457Y-116139044D01*
X121817448Y-116151026D01*
X121836168Y-116164910D01*
X121853438Y-116180562D01*
X121869090Y-116197832D01*
X121882974Y-116216552D01*
X121894956Y-116236543D01*
X121904921Y-116257613D01*
X121912773Y-116279557D01*
X121918437Y-116302166D01*
X121921856Y-116325221D01*
X121923000Y-116348500D01*
X121923000Y-116823500D01*
X121921856Y-116846779D01*
X121918437Y-116869834D01*
X121912773Y-116892443D01*
X121904921Y-116914387D01*
X121894956Y-116935457D01*
X121882974Y-116955448D01*
X121869090Y-116974168D01*
X121853438Y-116991438D01*
X121836168Y-117007090D01*
X121817448Y-117020974D01*
X121797457Y-117032956D01*
X121776387Y-117042921D01*
X121754443Y-117050773D01*
X121731834Y-117056437D01*
X121708779Y-117059856D01*
X121685500Y-117061000D01*
X121110500Y-117061000D01*
X121087221Y-117059856D01*
X121064166Y-117056437D01*
X121041557Y-117050773D01*
X121019613Y-117042921D01*
X120998543Y-117032956D01*
X120978552Y-117020974D01*
X120959832Y-117007090D01*
X120942562Y-116991438D01*
X120926910Y-116974168D01*
X120913026Y-116955448D01*
X120901044Y-116935457D01*
X120891079Y-116914387D01*
X120883227Y-116892443D01*
X120877563Y-116869834D01*
X120874144Y-116846779D01*
X120873000Y-116823500D01*
X120873000Y-116348500D01*
X120874144Y-116325221D01*
X120877563Y-116302166D01*
X120883227Y-116279557D01*
X120891079Y-116257613D01*
X120901044Y-116236543D01*
X120913026Y-116216552D01*
X120926910Y-116197832D01*
X120942562Y-116180562D01*
X120959832Y-116164910D01*
X120978552Y-116151026D01*
X120998543Y-116139044D01*
X121019613Y-116129079D01*
X121041557Y-116121227D01*
X121064166Y-116115563D01*
X121087221Y-116112144D01*
X121110500Y-116111000D01*
X121685500Y-116111000D01*
X121708779Y-116112144D01*
X121708779Y-116112144D01*
G37*
D13*
X121398000Y-116586000D03*
D21*
X98933000Y-109105700D03*
X114388900Y-93103700D03*
X109080300Y-96532700D03*
X106895900Y-96799400D03*
X102425500Y-94615000D03*
X104267000Y-97459800D03*
X102006400Y-98933000D03*
X115930000Y-96230000D03*
X107170000Y-116820000D03*
X110388400Y-93103700D03*
X110782100Y-96481900D03*
X101298418Y-94768198D03*
X106730800Y-94919800D03*
X99053189Y-104127300D03*
X113118900Y-98704400D03*
X112610900Y-107950000D03*
X100660200Y-110794800D03*
X110629700Y-103301800D03*
X99593400Y-105537000D03*
X110950000Y-116720000D03*
X104247010Y-110782100D03*
X111404400Y-110909100D03*
X103974900Y-111467900D03*
X110769400Y-111467900D03*
X100055317Y-100245798D03*
X120486900Y-100241100D03*
X100740266Y-99560834D03*
X119350000Y-99170000D03*
X98120200Y-109766100D03*
X107988100Y-110032800D03*
X108204000Y-94195900D03*
X102616000Y-93802200D03*
X107403900Y-112077500D03*
X113302500Y-112077500D03*
X107188000Y-97929700D03*
X103425549Y-98196366D03*
X115925600Y-106235500D03*
X102264400Y-106391900D03*
X101752400Y-107111800D03*
X110642400Y-107099100D03*
X98877745Y-100119069D03*
X98639320Y-102654790D03*
X102872916Y-99097382D03*
X104747010Y-98526600D03*
X106400600Y-100939600D03*
X116399199Y-102010801D03*
X111404400Y-105257600D03*
X101264400Y-105518900D03*
X115189000Y-105029000D03*
X115189000Y-103733600D03*
X109110000Y-107690000D03*
X102760000Y-108000000D03*
D22*
X100487000Y-104787400D02*
X100474000Y-104800400D01*
X100764400Y-104787400D02*
X100487000Y-104787400D01*
X100487000Y-104787400D02*
X99657200Y-104787400D01*
X98921600Y-105523000D02*
X98921600Y-106387900D01*
X99657200Y-104787400D02*
X98921600Y-105523000D01*
X98921600Y-108000800D02*
X98896200Y-108026200D01*
X98921600Y-106387900D02*
X98921600Y-108000800D01*
X98896200Y-108026200D02*
X98896200Y-109068900D01*
X98896200Y-109068900D02*
X98933000Y-109105700D01*
X113295400Y-93103700D02*
X114388900Y-93103700D01*
X109056200Y-99232720D02*
X109010480Y-99278440D01*
X109056200Y-97663000D02*
X109056200Y-99232720D01*
X109056200Y-97663000D02*
X109056200Y-96556800D01*
X109056200Y-96556800D02*
X109080300Y-96532700D01*
X105897680Y-96808320D02*
X106886980Y-96808320D01*
X106886980Y-96808320D02*
X106895900Y-96799400D01*
X102433680Y-96364640D02*
X102433680Y-95464640D01*
X102433680Y-95464640D02*
X102433680Y-94623180D01*
X102433680Y-94623180D02*
X102425500Y-94615000D01*
X104264400Y-97462400D02*
X104267000Y-97459800D01*
X104264400Y-99987400D02*
X104264400Y-97462400D01*
X102264400Y-99987400D02*
X102264400Y-99191000D01*
X102264400Y-99191000D02*
X102006400Y-98933000D01*
X109700082Y-116820000D02*
X107170000Y-116820000D01*
X109818600Y-116820000D02*
X109700082Y-116820000D01*
X110744000Y-118770400D02*
X110744000Y-117745400D01*
X110744000Y-117745400D02*
X109818600Y-116820000D01*
X100646200Y-106413300D02*
X100671600Y-106387900D01*
X100646200Y-108026200D02*
X100646200Y-106413300D01*
X111545400Y-93103700D02*
X110388400Y-93103700D01*
X110806200Y-99232720D02*
X110760480Y-99278440D01*
X110806200Y-97663000D02*
X110806200Y-99232720D01*
X110806200Y-97663000D02*
X110806200Y-96506000D01*
X110806200Y-96506000D02*
X110782100Y-96481900D01*
X101233680Y-95464640D02*
X101233680Y-94832936D01*
X101233680Y-94832936D02*
X101298418Y-94768198D01*
X101504300Y-103249900D02*
X101651900Y-103249900D01*
X100616800Y-104137400D02*
X101504300Y-103249900D01*
X100114400Y-104137400D02*
X100616800Y-104137400D01*
X101651900Y-103249900D02*
X101651900Y-101524900D01*
X101651900Y-101524900D02*
X103376900Y-101524900D01*
X103376900Y-101524900D02*
X103376900Y-103249900D01*
X103764400Y-101137400D02*
X104914400Y-101137400D01*
X103376900Y-101524900D02*
X103764400Y-101137400D01*
X104914400Y-101137400D02*
X104914400Y-100637400D01*
X105623360Y-94935400D02*
X106715200Y-94935400D01*
X106715200Y-94935400D02*
X106730800Y-94919800D01*
X100114400Y-104137400D02*
X99063289Y-104137400D01*
X99063289Y-104137400D02*
X99053189Y-104127300D01*
X110760480Y-99278440D02*
X112544860Y-99278440D01*
X112544860Y-99278440D02*
X113118900Y-98704400D01*
X112610200Y-105882200D02*
X112610200Y-107949300D01*
X112610200Y-107949300D02*
X112610900Y-107950000D01*
X100646200Y-108026200D02*
X100646200Y-110780800D01*
X100646200Y-110780800D02*
X100660200Y-110794800D01*
X110760480Y-99278440D02*
X110760480Y-103171020D01*
X110760480Y-103171020D02*
X110629700Y-103301800D01*
X100671600Y-106387900D02*
X100444300Y-106387900D01*
X100444300Y-106387900D02*
X99593400Y-105537000D01*
X113563400Y-99148900D02*
X113118900Y-98704400D01*
X114466400Y-99148900D02*
X113563400Y-99148900D01*
X112014000Y-118770400D02*
X113284000Y-118770400D01*
X112258600Y-116720000D02*
X110950000Y-116720000D01*
X113284000Y-118770400D02*
X113284000Y-117745400D01*
X113284000Y-117745400D02*
X112258600Y-116720000D01*
X113284000Y-117223000D02*
X113717000Y-116790000D01*
X113284000Y-118770400D02*
X113284000Y-117223000D01*
X115824000Y-117745400D02*
X115824000Y-118770400D01*
X114868600Y-116790000D02*
X115824000Y-117745400D01*
X113717000Y-116790000D02*
X114868600Y-116790000D01*
X105126760Y-93232000D02*
X105623360Y-92735400D01*
X104013000Y-93232000D02*
X105126760Y-93232000D01*
X104254300Y-110774810D02*
X104247010Y-110782100D01*
X104264400Y-110764710D02*
X104254300Y-110774810D01*
X104264400Y-104787400D02*
X104264400Y-110764710D01*
X112014000Y-114706400D02*
X112014000Y-111518700D01*
X112014000Y-111518700D02*
X111404400Y-110909100D01*
X103764400Y-111257400D02*
X103974900Y-111467900D01*
X103764400Y-104787400D02*
X103764400Y-111257400D01*
X110744000Y-114706400D02*
X110744000Y-111493300D01*
X110744000Y-111493300D02*
X110769400Y-111467900D01*
X100114400Y-100637400D02*
X100114400Y-100304881D01*
X100114400Y-100304881D02*
X100055317Y-100245798D01*
X117094000Y-118770400D02*
X117094000Y-117223000D01*
X119023000Y-116586000D02*
X119648000Y-116586000D01*
X118253400Y-116586000D02*
X119023000Y-116586000D01*
X117094000Y-117745400D02*
X118253400Y-116586000D01*
X117094000Y-118770400D02*
X117094000Y-117745400D01*
X120486900Y-115747100D02*
X120486900Y-100241100D01*
X119648000Y-116586000D02*
X120486900Y-115747100D01*
X100740266Y-99963266D02*
X100740266Y-99920044D01*
X100764400Y-99987400D02*
X100740266Y-99963266D01*
X100740266Y-99920044D02*
X100740266Y-99560834D01*
X119350000Y-106090070D02*
X119350000Y-99170000D01*
X119350000Y-110903000D02*
X119350000Y-106090070D01*
X117094000Y-114706400D02*
X117094000Y-113159000D01*
X117094000Y-113159000D02*
X119350000Y-110903000D01*
X119622600Y-114706400D02*
X119648000Y-114681000D01*
X117094000Y-114706400D02*
X119622600Y-114706400D01*
X99328839Y-103137400D02*
X98120200Y-104346039D01*
X98120200Y-104346039D02*
X98120200Y-109766100D01*
X100114400Y-103137400D02*
X99328839Y-103137400D01*
X107988100Y-110032800D02*
X107988100Y-94411800D01*
X107988100Y-94411800D02*
X108204000Y-94195900D01*
X103795800Y-94982000D02*
X104013000Y-94982000D01*
X102616000Y-93802200D02*
X103795800Y-94982000D01*
X105416800Y-103637400D02*
X105485700Y-103568500D01*
X104914400Y-103637400D02*
X105416800Y-103637400D01*
X105485700Y-103568500D02*
X107403900Y-105486700D01*
X107403900Y-105486700D02*
X107403900Y-112077500D01*
X113284000Y-112096000D02*
X113302500Y-112077500D01*
X113284000Y-114706400D02*
X113284000Y-112096000D01*
X107188000Y-97929700D02*
X107188000Y-102235000D01*
X106285600Y-103137400D02*
X104914400Y-103137400D01*
X107188000Y-102235000D02*
X106285600Y-103137400D01*
X102433680Y-98164640D02*
X103393823Y-98164640D01*
X103393823Y-98164640D02*
X103425549Y-98196366D01*
X102264400Y-104787400D02*
X102264400Y-106391900D01*
X115925600Y-106235500D02*
X115925600Y-104990900D01*
X114161000Y-104531400D02*
X114110200Y-104582200D01*
X114862600Y-104582200D02*
X115124800Y-104320000D01*
X114110200Y-104582200D02*
X114862600Y-104582200D01*
X115124800Y-104320000D02*
X115560000Y-104320000D01*
X115925600Y-104685600D02*
X115925600Y-104990900D01*
X115560000Y-104320000D02*
X115925600Y-104685600D01*
X101764400Y-105289800D02*
X101752400Y-105301800D01*
X101764400Y-104787400D02*
X101764400Y-105289800D01*
X101752400Y-105301800D02*
X101752400Y-107111800D01*
X110896399Y-106845101D02*
X110896399Y-104965501D01*
X110642400Y-107099100D02*
X110896399Y-106845101D01*
X111279700Y-104582200D02*
X112610200Y-104582200D01*
X110896399Y-104965501D02*
X111279700Y-104582200D01*
X101083680Y-98164640D02*
X99129251Y-100119069D01*
X101233680Y-98164640D02*
X101083680Y-98164640D01*
X99129251Y-100119069D02*
X98877745Y-100119069D01*
X98656710Y-102637400D02*
X98639320Y-102654790D01*
X100114400Y-102637400D02*
X98656710Y-102637400D01*
X102764400Y-99987400D02*
X102764400Y-99205898D01*
X102764400Y-99205898D02*
X102872916Y-99097382D01*
X105897680Y-98558320D02*
X104778730Y-98558320D01*
X104778730Y-98558320D02*
X104747010Y-98526600D01*
X105897680Y-98558320D02*
X105897680Y-100436680D01*
X105897680Y-100436680D02*
X106400600Y-100939600D01*
X115824000Y-114706400D02*
X115824000Y-108546000D01*
X116408201Y-102019803D02*
X116399199Y-102010801D01*
X116408201Y-107961799D02*
X116408201Y-102019803D01*
X115824000Y-108546000D02*
X116408201Y-107961799D01*
X103208073Y-97264640D02*
X103908150Y-97964717D01*
X103908150Y-99341250D02*
X103764400Y-99485000D01*
X103764400Y-99485000D02*
X103764400Y-99987400D01*
X103908150Y-97964717D02*
X103908150Y-99341250D01*
X102433680Y-97264640D02*
X103208073Y-97264640D01*
X101264400Y-104787400D02*
X101264400Y-105518900D01*
X101264400Y-105518900D02*
X101269800Y-105524300D01*
X112635600Y-105067100D02*
X112661000Y-105041700D01*
X111404400Y-105257600D02*
X112584800Y-105257600D01*
X98069387Y-100594787D02*
X98069387Y-100047519D01*
X98377553Y-99213404D02*
X98473175Y-98980631D01*
X100681280Y-96772526D02*
X100681280Y-96767040D01*
X98473175Y-98980631D02*
X100681280Y-96772526D01*
X98197169Y-99683497D02*
X98285500Y-99447822D01*
X100114400Y-102137400D02*
X99612000Y-102137400D01*
X101083680Y-96364640D02*
X101233680Y-96364640D01*
X98285500Y-99447822D02*
X98377553Y-99213404D01*
X100681280Y-96767040D02*
X101083680Y-96364640D01*
X98112473Y-99920660D02*
X98197169Y-99683497D01*
X98069387Y-100047519D02*
X98112473Y-99920660D01*
X99612000Y-102137400D02*
X98069387Y-100594787D01*
X98483430Y-99788235D02*
X100604625Y-97667040D01*
X99612000Y-101637400D02*
X98374198Y-100399598D01*
X100604625Y-97667040D02*
X100681280Y-97667040D01*
X100114400Y-101637400D02*
X99612000Y-101637400D01*
X98374198Y-100097866D02*
X98400316Y-100020967D01*
X98400316Y-100020967D02*
X98483430Y-99788235D01*
X100681280Y-97667040D02*
X101083680Y-97264640D01*
X98374198Y-100399598D02*
X98374198Y-100097866D01*
X101083680Y-97264640D02*
X101233680Y-97264640D01*
X115176300Y-105041700D02*
X115189000Y-105029000D01*
X114161000Y-105181400D02*
X114110200Y-105232200D01*
X114985800Y-105232200D02*
X115189000Y-105029000D01*
X114110200Y-105232200D02*
X114985800Y-105232200D01*
X109110000Y-106320834D02*
X109110000Y-107690000D01*
X115189000Y-103733600D02*
X111697234Y-103733600D01*
X111697234Y-103733600D02*
X109110000Y-106320834D01*
X102760000Y-104791800D02*
X102764400Y-104787400D01*
X102760000Y-108000000D02*
X102760000Y-104791800D01*
X115189000Y-100176300D02*
X116216400Y-99148900D01*
X115189000Y-103733600D02*
X115189000Y-100176300D01*
X124970000Y-104989000D02*
X125095000Y-104989000D01*
X121398000Y-108679640D02*
X124691140Y-105386500D01*
X121398000Y-114681000D02*
X121398000Y-108679640D01*
X124566140Y-107886500D02*
X124691140Y-107886500D01*
X123126500Y-109326140D02*
X124566140Y-107886500D01*
X123126500Y-114282500D02*
X123126500Y-109326140D01*
X121398000Y-116011000D02*
X123126500Y-114282500D01*
X121398000Y-116586000D02*
X121398000Y-116011000D01*
D23*
G36*
X115474408Y-89173197D02*
G01*
X117003862Y-89449768D01*
X118499766Y-89871656D01*
X119948347Y-90434979D01*
X121336268Y-91134548D01*
X122650747Y-91963923D01*
X123879683Y-92915467D01*
X125011760Y-93980419D01*
X126036554Y-95148972D01*
X126944629Y-96410368D01*
X127727624Y-97752992D01*
X128378330Y-99164482D01*
X128890755Y-100631840D01*
X129260180Y-102141557D01*
X129483205Y-103679731D01*
X129557775Y-105232200D01*
X129542358Y-105938728D01*
X129400141Y-107486467D01*
X129110235Y-109013449D01*
X128675308Y-110505615D01*
X128099366Y-111949225D01*
X127387711Y-113330987D01*
X126546897Y-114638180D01*
X125584665Y-115858765D01*
X124509875Y-116981506D01*
X123332423Y-117996063D01*
X122063151Y-118893096D01*
X120713745Y-119664345D01*
X119296631Y-120302708D01*
X117824857Y-120802308D01*
X116311974Y-121158545D01*
X114771912Y-121368138D01*
X113218851Y-121429158D01*
X111667092Y-121341043D01*
X110130923Y-121104604D01*
X108624487Y-120722018D01*
X107161656Y-120196808D01*
X105755899Y-119533810D01*
X104420159Y-118739128D01*
X103166736Y-117820080D01*
X102007170Y-116785128D01*
X100952138Y-115643801D01*
X100011354Y-114406608D01*
X99193482Y-113084940D01*
X98506051Y-111690968D01*
X98113596Y-110655100D01*
X98207759Y-110655100D01*
X98379512Y-110620936D01*
X98541299Y-110553921D01*
X98686904Y-110456631D01*
X98810731Y-110332804D01*
X98908021Y-110187199D01*
X98975036Y-110025412D01*
X99009200Y-109853659D01*
X99009200Y-109678541D01*
X98975036Y-109506788D01*
X98908021Y-109345001D01*
X98831400Y-109230329D01*
X98831400Y-106240900D01*
X99046704Y-106240900D01*
X99048600Y-106242167D01*
X99048600Y-106260900D01*
X99068600Y-106260900D01*
X99068600Y-106514900D01*
X99048600Y-106514900D01*
X99048600Y-107049550D01*
X99023200Y-107074950D01*
X99023200Y-107899200D01*
X99043200Y-107899200D01*
X99043200Y-108153200D01*
X99023200Y-108153200D01*
X99023200Y-108977450D01*
X99181950Y-109136200D01*
X99421200Y-109139272D01*
X99545682Y-109127012D01*
X99665380Y-109090702D01*
X99775694Y-109031737D01*
X99848361Y-108972101D01*
X99872258Y-108991712D01*
X99935000Y-109025248D01*
X99935001Y-110279981D01*
X99872379Y-110373701D01*
X99805364Y-110535488D01*
X99771200Y-110707241D01*
X99771200Y-110882359D01*
X99805364Y-111054112D01*
X99872379Y-111215899D01*
X99969669Y-111361504D01*
X100093496Y-111485331D01*
X100239101Y-111582621D01*
X100400888Y-111649636D01*
X100572641Y-111683800D01*
X100747759Y-111683800D01*
X100919512Y-111649636D01*
X101081299Y-111582621D01*
X101226904Y-111485331D01*
X101350731Y-111361504D01*
X101448021Y-111215899D01*
X101515036Y-111054112D01*
X101549200Y-110882359D01*
X101549200Y-110707241D01*
X101515036Y-110535488D01*
X101448021Y-110373701D01*
X101357400Y-110238077D01*
X101357400Y-109025248D01*
X101420142Y-108991712D01*
X101552823Y-108882823D01*
X101661712Y-108750142D01*
X101742623Y-108598767D01*
X101792448Y-108434516D01*
X101809272Y-108263700D01*
X101809272Y-108000800D01*
X101839959Y-108000800D01*
X101871000Y-107994626D01*
X101871000Y-108087559D01*
X101905164Y-108259312D01*
X101972179Y-108421099D01*
X102069469Y-108566704D01*
X102193296Y-108690531D01*
X102338901Y-108787821D01*
X102500688Y-108854836D01*
X102672441Y-108889000D01*
X102847559Y-108889000D01*
X103019312Y-108854836D01*
X103053201Y-108840799D01*
X103053201Y-111222464D01*
X103049760Y-111257400D01*
X103053201Y-111292336D01*
X103063492Y-111396820D01*
X103085900Y-111470689D01*
X103085900Y-111555459D01*
X103120064Y-111727212D01*
X103187079Y-111888999D01*
X103284369Y-112034604D01*
X103408196Y-112158431D01*
X103553801Y-112255721D01*
X103715588Y-112322736D01*
X103887341Y-112356900D01*
X104062459Y-112356900D01*
X104234212Y-112322736D01*
X104395999Y-112255721D01*
X104541604Y-112158431D01*
X104665431Y-112034604D01*
X104762721Y-111888999D01*
X104829736Y-111727212D01*
X104863900Y-111555459D01*
X104863900Y-111422445D01*
X104937541Y-111348804D01*
X105034831Y-111203199D01*
X105101846Y-111041412D01*
X105136010Y-110869659D01*
X105136010Y-110694541D01*
X105101846Y-110522788D01*
X105034831Y-110361001D01*
X104975600Y-110272355D01*
X104975600Y-105387758D01*
X104978902Y-105381580D01*
X105015212Y-105261882D01*
X105027472Y-105137400D01*
X105027472Y-104900472D01*
X105264400Y-104900472D01*
X105388882Y-104888212D01*
X105508580Y-104851902D01*
X105618894Y-104792937D01*
X105665830Y-104754418D01*
X106692700Y-105781289D01*
X106692701Y-111541728D01*
X106616079Y-111656401D01*
X106549064Y-111818188D01*
X106514900Y-111989941D01*
X106514900Y-112165059D01*
X106549064Y-112336812D01*
X106616079Y-112498599D01*
X106713369Y-112644204D01*
X106837196Y-112768031D01*
X106982801Y-112865321D01*
X107144588Y-112932336D01*
X107316341Y-112966500D01*
X107491459Y-112966500D01*
X107663212Y-112932336D01*
X107824999Y-112865321D01*
X107970604Y-112768031D01*
X108094431Y-112644204D01*
X108191721Y-112498599D01*
X108258736Y-112336812D01*
X108292900Y-112165059D01*
X108292900Y-111989941D01*
X108258736Y-111818188D01*
X108191721Y-111656401D01*
X108115100Y-111541729D01*
X108115100Y-110913955D01*
X108247412Y-110887636D01*
X108409199Y-110820621D01*
X108554804Y-110723331D01*
X108678631Y-110599504D01*
X108775921Y-110453899D01*
X108842936Y-110292112D01*
X108877100Y-110120359D01*
X108877100Y-109945241D01*
X108842936Y-109773488D01*
X108775921Y-109611701D01*
X108699300Y-109497029D01*
X108699300Y-108482128D01*
X108850688Y-108544836D01*
X109022441Y-108579000D01*
X109197559Y-108579000D01*
X109369312Y-108544836D01*
X109531099Y-108477821D01*
X109676704Y-108380531D01*
X109800531Y-108256704D01*
X109897821Y-108111099D01*
X109964836Y-107949312D01*
X109999000Y-107777559D01*
X109999000Y-107712935D01*
X110075696Y-107789631D01*
X110221301Y-107886921D01*
X110383088Y-107953936D01*
X110554841Y-107988100D01*
X110729959Y-107988100D01*
X110901712Y-107953936D01*
X111063499Y-107886921D01*
X111209104Y-107789631D01*
X111332931Y-107665804D01*
X111430221Y-107520199D01*
X111497236Y-107358412D01*
X111531400Y-107186659D01*
X111531400Y-107165805D01*
X111556641Y-107118582D01*
X111597308Y-106984521D01*
X111607599Y-106880037D01*
X111607599Y-106880030D01*
X111611039Y-106845101D01*
X111607599Y-106810173D01*
X111607599Y-106548257D01*
X111655706Y-106587737D01*
X111766020Y-106646702D01*
X111885718Y-106683012D01*
X111899000Y-106684320D01*
X111899001Y-107415276D01*
X111823079Y-107528901D01*
X111756064Y-107690688D01*
X111721900Y-107862441D01*
X111721900Y-108037559D01*
X111756064Y-108209312D01*
X111823079Y-108371099D01*
X111920369Y-108516704D01*
X112044196Y-108640531D01*
X112189801Y-108737821D01*
X112351588Y-108804836D01*
X112523341Y-108839000D01*
X112698459Y-108839000D01*
X112870212Y-108804836D01*
X113031999Y-108737821D01*
X113177604Y-108640531D01*
X113301431Y-108516704D01*
X113398721Y-108371099D01*
X113465736Y-108209312D01*
X113499900Y-108037559D01*
X113499900Y-107862441D01*
X113465736Y-107690688D01*
X113398721Y-107528901D01*
X113321400Y-107413182D01*
X113321400Y-106684320D01*
X113334682Y-106683012D01*
X113360200Y-106675271D01*
X113385718Y-106683012D01*
X113510200Y-106695272D01*
X114710200Y-106695272D01*
X114834682Y-106683012D01*
X114954380Y-106646702D01*
X115064694Y-106587737D01*
X115097950Y-106560444D01*
X115137779Y-106656599D01*
X115235069Y-106802204D01*
X115358896Y-106926031D01*
X115504501Y-107023321D01*
X115666288Y-107090336D01*
X115697001Y-107096445D01*
X115697001Y-107667211D01*
X115345810Y-108018403D01*
X115318674Y-108040673D01*
X115296404Y-108067809D01*
X115296403Y-108067810D01*
X115229798Y-108148968D01*
X115189970Y-108223481D01*
X115163759Y-108272519D01*
X115123092Y-108406580D01*
X115119801Y-108439990D01*
X115109360Y-108546000D01*
X115112801Y-108580936D01*
X115112800Y-112705099D01*
X115048482Y-112685588D01*
X114924000Y-112673328D01*
X114184000Y-112673328D01*
X114059518Y-112685588D01*
X113995200Y-112705099D01*
X113995200Y-112640958D01*
X114090321Y-112498599D01*
X114157336Y-112336812D01*
X114191500Y-112165059D01*
X114191500Y-111989941D01*
X114157336Y-111818188D01*
X114090321Y-111656401D01*
X113993031Y-111510796D01*
X113869204Y-111386969D01*
X113723599Y-111289679D01*
X113561812Y-111222664D01*
X113390059Y-111188500D01*
X113214941Y-111188500D01*
X113043188Y-111222664D01*
X112881401Y-111289679D01*
X112735796Y-111386969D01*
X112717471Y-111405294D01*
X112714909Y-111379280D01*
X112705664Y-111348804D01*
X112674242Y-111245218D01*
X112608202Y-111121667D01*
X112541598Y-111040509D01*
X112541593Y-111040504D01*
X112519327Y-111013373D01*
X112492196Y-110991107D01*
X112286142Y-110785054D01*
X112259236Y-110649788D01*
X112192221Y-110488001D01*
X112094931Y-110342396D01*
X111971104Y-110218569D01*
X111825499Y-110121279D01*
X111663712Y-110054264D01*
X111491959Y-110020100D01*
X111316841Y-110020100D01*
X111145088Y-110054264D01*
X110983301Y-110121279D01*
X110837696Y-110218569D01*
X110713869Y-110342396D01*
X110616579Y-110488001D01*
X110569686Y-110601209D01*
X110510088Y-110613064D01*
X110348301Y-110680079D01*
X110202696Y-110777369D01*
X110078869Y-110901196D01*
X109981579Y-111046801D01*
X109914564Y-111208588D01*
X109880400Y-111380341D01*
X109880400Y-111555459D01*
X109914564Y-111727212D01*
X109981579Y-111888999D01*
X110032801Y-111965658D01*
X110032801Y-112705099D01*
X109968482Y-112685588D01*
X109844000Y-112673328D01*
X109104000Y-112673328D01*
X108979518Y-112685588D01*
X108859820Y-112721898D01*
X108749506Y-112780863D01*
X108652815Y-112860215D01*
X108573463Y-112956906D01*
X108514498Y-113067220D01*
X108478188Y-113186918D01*
X108465928Y-113311400D01*
X108465928Y-116101400D01*
X108478188Y-116225882D01*
X108514498Y-116345580D01*
X108573463Y-116455894D01*
X108652815Y-116552585D01*
X108749506Y-116631937D01*
X108859820Y-116690902D01*
X108979518Y-116727212D01*
X109093115Y-116738400D01*
X108979518Y-116749588D01*
X108859820Y-116785898D01*
X108749506Y-116844863D01*
X108652815Y-116924215D01*
X108573463Y-117020906D01*
X108514498Y-117131220D01*
X108478188Y-117250918D01*
X108465928Y-117375400D01*
X108465928Y-120165400D01*
X108478188Y-120289882D01*
X108514498Y-120409580D01*
X108573463Y-120519894D01*
X108652815Y-120616585D01*
X108749506Y-120695937D01*
X108859820Y-120754902D01*
X108979518Y-120791212D01*
X109104000Y-120803472D01*
X109844000Y-120803472D01*
X109968482Y-120791212D01*
X110088180Y-120754902D01*
X110109000Y-120743773D01*
X110129820Y-120754902D01*
X110249518Y-120791212D01*
X110374000Y-120803472D01*
X110458250Y-120800400D01*
X110617000Y-120641650D01*
X110617000Y-118897400D01*
X110597000Y-118897400D01*
X110597000Y-118643400D01*
X110617000Y-118643400D01*
X110617000Y-118623400D01*
X110871000Y-118623400D01*
X110871000Y-118643400D01*
X110891000Y-118643400D01*
X110891000Y-118897400D01*
X110871000Y-118897400D01*
X110871000Y-120641650D01*
X111029750Y-120800400D01*
X111114000Y-120803472D01*
X111238482Y-120791212D01*
X111358180Y-120754902D01*
X111379000Y-120743773D01*
X111399820Y-120754902D01*
X111519518Y-120791212D01*
X111644000Y-120803472D01*
X112384000Y-120803472D01*
X112508482Y-120791212D01*
X112628180Y-120754902D01*
X112649000Y-120743773D01*
X112669820Y-120754902D01*
X112789518Y-120791212D01*
X112914000Y-120803472D01*
X113654000Y-120803472D01*
X113778482Y-120791212D01*
X113898180Y-120754902D01*
X113919000Y-120743773D01*
X113939820Y-120754902D01*
X114059518Y-120791212D01*
X114184000Y-120803472D01*
X114924000Y-120803472D01*
X115048482Y-120791212D01*
X115168180Y-120754902D01*
X115189000Y-120743773D01*
X115209820Y-120754902D01*
X115329518Y-120791212D01*
X115454000Y-120803472D01*
X116194000Y-120803472D01*
X116318482Y-120791212D01*
X116438180Y-120754902D01*
X116459000Y-120743773D01*
X116479820Y-120754902D01*
X116599518Y-120791212D01*
X116724000Y-120803472D01*
X117464000Y-120803472D01*
X117588482Y-120791212D01*
X117708180Y-120754902D01*
X117818494Y-120695937D01*
X117915185Y-120616585D01*
X117994537Y-120519894D01*
X118053502Y-120409580D01*
X118089812Y-120289882D01*
X118102072Y-120165400D01*
X118102072Y-117743116D01*
X118547989Y-117297200D01*
X118625677Y-117297200D01*
X118632488Y-117309942D01*
X118741377Y-117442623D01*
X118874058Y-117551512D01*
X119025433Y-117632423D01*
X119189684Y-117682248D01*
X119360500Y-117699072D01*
X119935500Y-117699072D01*
X120106316Y-117682248D01*
X120270567Y-117632423D01*
X120421942Y-117551512D01*
X120523000Y-117468575D01*
X120624058Y-117551512D01*
X120775433Y-117632423D01*
X120939684Y-117682248D01*
X121110500Y-117699072D01*
X121685500Y-117699072D01*
X121856316Y-117682248D01*
X122020567Y-117632423D01*
X122171942Y-117551512D01*
X122304623Y-117442623D01*
X122413512Y-117309942D01*
X122494423Y-117158567D01*
X122544248Y-116994316D01*
X122561072Y-116823500D01*
X122561072Y-116348500D01*
X122544248Y-116177684D01*
X122494423Y-116013433D01*
X122462005Y-115952782D01*
X123604695Y-114810093D01*
X123631826Y-114787827D01*
X123654093Y-114760695D01*
X123654097Y-114760691D01*
X123720702Y-114679533D01*
X123780862Y-114566981D01*
X123786742Y-114555981D01*
X123827409Y-114421920D01*
X123837700Y-114317436D01*
X123837700Y-114317427D01*
X123841140Y-114282501D01*
X123837700Y-114247575D01*
X123837700Y-111680964D01*
X123995106Y-111765099D01*
X124275029Y-111850013D01*
X124493190Y-111871500D01*
X124889090Y-111871500D01*
X125107251Y-111850013D01*
X125387174Y-111765099D01*
X125645154Y-111627206D01*
X125871274Y-111441634D01*
X126056846Y-111215514D01*
X126194739Y-110957534D01*
X126279653Y-110677611D01*
X126308325Y-110386500D01*
X126279653Y-110095389D01*
X126194739Y-109815466D01*
X126056846Y-109557486D01*
X125871274Y-109331366D01*
X125645154Y-109145794D01*
X125627766Y-109136500D01*
X125645154Y-109127206D01*
X125871274Y-108941634D01*
X126056846Y-108715514D01*
X126194739Y-108457534D01*
X126279653Y-108177611D01*
X126308325Y-107886500D01*
X126279653Y-107595389D01*
X126194739Y-107315466D01*
X126056846Y-107057486D01*
X125871274Y-106831366D01*
X125807803Y-106779277D01*
X125909526Y-106724905D01*
X126044102Y-106614462D01*
X126154545Y-106479886D01*
X126236612Y-106326350D01*
X126287148Y-106159754D01*
X126304212Y-105986500D01*
X126304212Y-104786500D01*
X126287148Y-104613246D01*
X126236612Y-104446650D01*
X126154545Y-104293114D01*
X126044102Y-104158538D01*
X125909526Y-104048095D01*
X125755990Y-103966028D01*
X125589394Y-103915492D01*
X125416140Y-103898428D01*
X123966140Y-103898428D01*
X123926140Y-103902368D01*
X123926140Y-103664863D01*
X123878680Y-103426264D01*
X123785583Y-103201508D01*
X123650427Y-102999233D01*
X123478407Y-102827213D01*
X123276132Y-102692057D01*
X123051376Y-102598960D01*
X122812777Y-102551500D01*
X122569503Y-102551500D01*
X122330904Y-102598960D01*
X122106148Y-102692057D01*
X121903873Y-102827213D01*
X121731853Y-102999233D01*
X121596697Y-103201508D01*
X121503600Y-103426264D01*
X121456140Y-103664863D01*
X121456140Y-103908137D01*
X121503600Y-104146736D01*
X121596697Y-104371492D01*
X121731853Y-104573767D01*
X121903873Y-104745787D01*
X122106148Y-104880943D01*
X122330904Y-104974040D01*
X122569503Y-105021500D01*
X122812777Y-105021500D01*
X123051376Y-104974040D01*
X123078068Y-104962984D01*
X123078068Y-105986500D01*
X123078721Y-105993131D01*
X121198100Y-107873753D01*
X121198100Y-100776871D01*
X121274721Y-100662199D01*
X121341736Y-100500412D01*
X121375900Y-100328659D01*
X121375900Y-100153541D01*
X121341736Y-99981788D01*
X121274721Y-99820001D01*
X121177431Y-99674396D01*
X121053604Y-99550569D01*
X120907999Y-99453279D01*
X120746212Y-99386264D01*
X120574459Y-99352100D01*
X120399341Y-99352100D01*
X120227588Y-99386264D01*
X120212125Y-99392669D01*
X120239000Y-99257559D01*
X120239000Y-99082441D01*
X120204836Y-98910688D01*
X120137821Y-98748901D01*
X120040531Y-98603296D01*
X119916704Y-98479469D01*
X119771099Y-98382179D01*
X119609312Y-98315164D01*
X119437559Y-98281000D01*
X119262441Y-98281000D01*
X119090688Y-98315164D01*
X118928901Y-98382179D01*
X118783296Y-98479469D01*
X118659469Y-98603296D01*
X118562179Y-98748901D01*
X118495164Y-98910688D01*
X118461000Y-99082441D01*
X118461000Y-99257559D01*
X118495164Y-99429312D01*
X118562179Y-99591099D01*
X118638801Y-99705772D01*
X118638800Y-106125005D01*
X118638801Y-106125015D01*
X118638800Y-110608412D01*
X116615810Y-112631403D01*
X116588674Y-112653673D01*
X116566404Y-112680809D01*
X116566403Y-112680810D01*
X116550205Y-112700547D01*
X116535200Y-112705099D01*
X116535200Y-108840587D01*
X116886396Y-108489392D01*
X116913527Y-108467126D01*
X116935794Y-108439994D01*
X116935798Y-108439990D01*
X117002403Y-108358832D01*
X117034020Y-108299680D01*
X117068443Y-108235280D01*
X117109110Y-108101219D01*
X117119401Y-107996735D01*
X117119401Y-107996728D01*
X117122841Y-107961799D01*
X117119401Y-107926871D01*
X117119401Y-102533099D01*
X117187020Y-102431900D01*
X117254035Y-102270113D01*
X117288199Y-102098360D01*
X117288199Y-101923242D01*
X117254035Y-101751489D01*
X117187020Y-101589702D01*
X117089730Y-101444097D01*
X116965903Y-101320270D01*
X116820298Y-101222980D01*
X116658511Y-101155965D01*
X116486758Y-101121801D01*
X116311640Y-101121801D01*
X116139887Y-101155965D01*
X115978100Y-101222980D01*
X115900200Y-101275031D01*
X115900200Y-100470887D01*
X116109115Y-100261972D01*
X116503900Y-100261972D01*
X116674716Y-100245148D01*
X116838967Y-100195323D01*
X116990342Y-100114412D01*
X117123023Y-100005523D01*
X117231912Y-99872842D01*
X117312823Y-99721467D01*
X117362648Y-99557216D01*
X117379472Y-99386400D01*
X117379472Y-98911400D01*
X117362648Y-98740584D01*
X117312823Y-98576333D01*
X117231912Y-98424958D01*
X117123023Y-98292277D01*
X116990342Y-98183388D01*
X116838967Y-98102477D01*
X116674716Y-98052652D01*
X116503900Y-98035828D01*
X115928900Y-98035828D01*
X115758084Y-98052652D01*
X115593833Y-98102477D01*
X115442458Y-98183388D01*
X115341400Y-98266325D01*
X115240342Y-98183388D01*
X115088967Y-98102477D01*
X114924716Y-98052652D01*
X114753900Y-98035828D01*
X114178900Y-98035828D01*
X114008084Y-98052652D01*
X113843833Y-98102477D01*
X113798463Y-98126728D01*
X113685604Y-98013869D01*
X113539999Y-97916579D01*
X113378212Y-97849564D01*
X113206459Y-97815400D01*
X113031341Y-97815400D01*
X112859588Y-97849564D01*
X112697801Y-97916579D01*
X112552196Y-98013869D01*
X112428369Y-98137696D01*
X112331079Y-98283301D01*
X112264064Y-98445088D01*
X112239766Y-98567240D01*
X111782803Y-98567240D01*
X111775992Y-98554498D01*
X111730097Y-98498575D01*
X111821712Y-98386942D01*
X111902623Y-98235567D01*
X111952448Y-98071316D01*
X111969272Y-97900500D01*
X111969272Y-97425500D01*
X111952448Y-97254684D01*
X111902623Y-97090433D01*
X111821712Y-96939058D01*
X111712823Y-96806377D01*
X111636044Y-96743366D01*
X111636936Y-96741212D01*
X111671100Y-96569459D01*
X111671100Y-96394341D01*
X111636936Y-96222588D01*
X111569921Y-96060801D01*
X111472631Y-95915196D01*
X111348804Y-95791369D01*
X111203199Y-95694079D01*
X111041412Y-95627064D01*
X110869659Y-95592900D01*
X110694541Y-95592900D01*
X110522788Y-95627064D01*
X110361001Y-95694079D01*
X110215396Y-95791369D01*
X110091569Y-95915196D01*
X109994279Y-96060801D01*
X109927264Y-96222588D01*
X109893100Y-96394341D01*
X109893100Y-96569459D01*
X109907620Y-96642457D01*
X109825380Y-96598498D01*
X109705682Y-96562188D01*
X109581200Y-96549928D01*
X109341950Y-96553000D01*
X109183200Y-96711750D01*
X109183200Y-97536000D01*
X109203200Y-97536000D01*
X109203200Y-97790000D01*
X109183200Y-97790000D01*
X109183200Y-98281470D01*
X109137480Y-98327190D01*
X109137480Y-99151440D01*
X109157480Y-99151440D01*
X109157480Y-99405440D01*
X109137480Y-99405440D01*
X109137480Y-100229690D01*
X109296230Y-100388440D01*
X109535480Y-100391512D01*
X109659962Y-100379252D01*
X109779660Y-100342942D01*
X109889974Y-100283977D01*
X109962641Y-100224341D01*
X109986538Y-100243952D01*
X110049280Y-100277488D01*
X110049281Y-102624984D01*
X109939169Y-102735096D01*
X109841879Y-102880701D01*
X109774864Y-103042488D01*
X109740700Y-103214241D01*
X109740700Y-103389359D01*
X109774864Y-103561112D01*
X109841879Y-103722899D01*
X109939169Y-103868504D01*
X110062996Y-103992331D01*
X110208601Y-104089621D01*
X110298279Y-104126767D01*
X108699300Y-105725747D01*
X108699300Y-100388767D01*
X108724730Y-100388440D01*
X108883480Y-100229690D01*
X108883480Y-99405440D01*
X108863480Y-99405440D01*
X108863480Y-99151440D01*
X108883480Y-99151440D01*
X108883480Y-98659970D01*
X108929200Y-98614250D01*
X108929200Y-97790000D01*
X108909200Y-97790000D01*
X108909200Y-97536000D01*
X108929200Y-97536000D01*
X108929200Y-96711750D01*
X108770450Y-96553000D01*
X108699300Y-96552086D01*
X108699300Y-94934142D01*
X108770704Y-94886431D01*
X108894531Y-94762604D01*
X108991821Y-94616999D01*
X109058836Y-94455212D01*
X109093000Y-94283459D01*
X109093000Y-94108341D01*
X109058836Y-93936588D01*
X108991821Y-93774801D01*
X108894531Y-93629196D01*
X108770704Y-93505369D01*
X108625099Y-93408079D01*
X108463312Y-93341064D01*
X108291559Y-93306900D01*
X108116441Y-93306900D01*
X107944688Y-93341064D01*
X107782901Y-93408079D01*
X107637296Y-93505369D01*
X107513469Y-93629196D01*
X107416179Y-93774801D01*
X107349164Y-93936588D01*
X107315000Y-94108341D01*
X107315000Y-94180709D01*
X107299626Y-94231391D01*
X107297504Y-94229269D01*
X107151899Y-94131979D01*
X106990112Y-94064964D01*
X106818359Y-94030800D01*
X106643241Y-94030800D01*
X106631784Y-94033079D01*
X106603897Y-93980906D01*
X106524545Y-93884215D01*
X106465064Y-93835400D01*
X106524545Y-93786585D01*
X106603897Y-93689894D01*
X106662862Y-93579580D01*
X106699172Y-93459882D01*
X106711432Y-93335400D01*
X106711432Y-93016141D01*
X109499400Y-93016141D01*
X109499400Y-93191259D01*
X109533564Y-93363012D01*
X109600579Y-93524799D01*
X109697869Y-93670404D01*
X109821696Y-93794231D01*
X109967301Y-93891521D01*
X110129088Y-93958536D01*
X110300841Y-93992700D01*
X110475959Y-93992700D01*
X110638770Y-93960315D01*
X110638777Y-93960323D01*
X110771458Y-94069212D01*
X110922833Y-94150123D01*
X111087084Y-94199948D01*
X111257900Y-94216772D01*
X111832900Y-94216772D01*
X112003716Y-94199948D01*
X112167967Y-94150123D01*
X112319342Y-94069212D01*
X112343239Y-94049601D01*
X112415906Y-94109237D01*
X112526220Y-94168202D01*
X112645918Y-94204512D01*
X112770400Y-94216772D01*
X113009650Y-94213700D01*
X113168400Y-94054950D01*
X113168400Y-93230700D01*
X113422400Y-93230700D01*
X113422400Y-94054950D01*
X113581150Y-94213700D01*
X113820400Y-94216772D01*
X113944882Y-94204512D01*
X114064580Y-94168202D01*
X114174894Y-94109237D01*
X114271585Y-94029885D01*
X114350937Y-93933194D01*
X114409902Y-93822880D01*
X114446212Y-93703182D01*
X114458472Y-93578700D01*
X114455400Y-93389450D01*
X114296650Y-93230700D01*
X113422400Y-93230700D01*
X113168400Y-93230700D01*
X113148400Y-93230700D01*
X113148400Y-92976700D01*
X113168400Y-92976700D01*
X113168400Y-92152450D01*
X113422400Y-92152450D01*
X113422400Y-92976700D01*
X114296650Y-92976700D01*
X114455400Y-92817950D01*
X114458472Y-92628700D01*
X114446212Y-92504218D01*
X114409902Y-92384520D01*
X114350937Y-92274206D01*
X114271585Y-92177515D01*
X114174894Y-92098163D01*
X114064580Y-92039198D01*
X113944882Y-92002888D01*
X113820400Y-91990628D01*
X113581150Y-91993700D01*
X113422400Y-92152450D01*
X113168400Y-92152450D01*
X113009650Y-91993700D01*
X112770400Y-91990628D01*
X112645918Y-92002888D01*
X112526220Y-92039198D01*
X112415906Y-92098163D01*
X112343239Y-92157799D01*
X112319342Y-92138188D01*
X112167967Y-92057277D01*
X112003716Y-92007452D01*
X111832900Y-91990628D01*
X111257900Y-91990628D01*
X111087084Y-92007452D01*
X110922833Y-92057277D01*
X110771458Y-92138188D01*
X110638777Y-92247077D01*
X110638770Y-92247085D01*
X110475959Y-92214700D01*
X110300841Y-92214700D01*
X110129088Y-92248864D01*
X109967301Y-92315879D01*
X109821696Y-92413169D01*
X109697869Y-92536996D01*
X109600579Y-92682601D01*
X109533564Y-92844388D01*
X109499400Y-93016141D01*
X106711432Y-93016141D01*
X106711432Y-92135400D01*
X106699172Y-92010918D01*
X106662862Y-91891220D01*
X106603897Y-91780906D01*
X106524545Y-91684215D01*
X106427854Y-91604863D01*
X106317540Y-91545898D01*
X106197842Y-91509588D01*
X106073360Y-91497328D01*
X105173360Y-91497328D01*
X105048878Y-91509588D01*
X104929180Y-91545898D01*
X104818866Y-91604863D01*
X104722175Y-91684215D01*
X104642823Y-91780906D01*
X104583858Y-91891220D01*
X104547548Y-92010918D01*
X104536730Y-92120762D01*
X104421316Y-92085752D01*
X104250500Y-92068928D01*
X103939138Y-92068928D01*
X105017832Y-91348168D01*
X106386964Y-90612507D01*
X107820303Y-90011458D01*
X109304651Y-89550556D01*
X110826341Y-89234044D01*
X112371362Y-89064837D01*
X113925487Y-89044492D01*
X115474408Y-89173197D01*
X115474408Y-89173197D01*
G37*
X115474408Y-89173197D02*
X117003862Y-89449768D01*
X118499766Y-89871656D01*
X119948347Y-90434979D01*
X121336268Y-91134548D01*
X122650747Y-91963923D01*
X123879683Y-92915467D01*
X125011760Y-93980419D01*
X126036554Y-95148972D01*
X126944629Y-96410368D01*
X127727624Y-97752992D01*
X128378330Y-99164482D01*
X128890755Y-100631840D01*
X129260180Y-102141557D01*
X129483205Y-103679731D01*
X129557775Y-105232200D01*
X129542358Y-105938728D01*
X129400141Y-107486467D01*
X129110235Y-109013449D01*
X128675308Y-110505615D01*
X128099366Y-111949225D01*
X127387711Y-113330987D01*
X126546897Y-114638180D01*
X125584665Y-115858765D01*
X124509875Y-116981506D01*
X123332423Y-117996063D01*
X122063151Y-118893096D01*
X120713745Y-119664345D01*
X119296631Y-120302708D01*
X117824857Y-120802308D01*
X116311974Y-121158545D01*
X114771912Y-121368138D01*
X113218851Y-121429158D01*
X111667092Y-121341043D01*
X110130923Y-121104604D01*
X108624487Y-120722018D01*
X107161656Y-120196808D01*
X105755899Y-119533810D01*
X104420159Y-118739128D01*
X103166736Y-117820080D01*
X102007170Y-116785128D01*
X100952138Y-115643801D01*
X100011354Y-114406608D01*
X99193482Y-113084940D01*
X98506051Y-111690968D01*
X98113596Y-110655100D01*
X98207759Y-110655100D01*
X98379512Y-110620936D01*
X98541299Y-110553921D01*
X98686904Y-110456631D01*
X98810731Y-110332804D01*
X98908021Y-110187199D01*
X98975036Y-110025412D01*
X99009200Y-109853659D01*
X99009200Y-109678541D01*
X98975036Y-109506788D01*
X98908021Y-109345001D01*
X98831400Y-109230329D01*
X98831400Y-106240900D01*
X99046704Y-106240900D01*
X99048600Y-106242167D01*
X99048600Y-106260900D01*
X99068600Y-106260900D01*
X99068600Y-106514900D01*
X99048600Y-106514900D01*
X99048600Y-107049550D01*
X99023200Y-107074950D01*
X99023200Y-107899200D01*
X99043200Y-107899200D01*
X99043200Y-108153200D01*
X99023200Y-108153200D01*
X99023200Y-108977450D01*
X99181950Y-109136200D01*
X99421200Y-109139272D01*
X99545682Y-109127012D01*
X99665380Y-109090702D01*
X99775694Y-109031737D01*
X99848361Y-108972101D01*
X99872258Y-108991712D01*
X99935000Y-109025248D01*
X99935001Y-110279981D01*
X99872379Y-110373701D01*
X99805364Y-110535488D01*
X99771200Y-110707241D01*
X99771200Y-110882359D01*
X99805364Y-111054112D01*
X99872379Y-111215899D01*
X99969669Y-111361504D01*
X100093496Y-111485331D01*
X100239101Y-111582621D01*
X100400888Y-111649636D01*
X100572641Y-111683800D01*
X100747759Y-111683800D01*
X100919512Y-111649636D01*
X101081299Y-111582621D01*
X101226904Y-111485331D01*
X101350731Y-111361504D01*
X101448021Y-111215899D01*
X101515036Y-111054112D01*
X101549200Y-110882359D01*
X101549200Y-110707241D01*
X101515036Y-110535488D01*
X101448021Y-110373701D01*
X101357400Y-110238077D01*
X101357400Y-109025248D01*
X101420142Y-108991712D01*
X101552823Y-108882823D01*
X101661712Y-108750142D01*
X101742623Y-108598767D01*
X101792448Y-108434516D01*
X101809272Y-108263700D01*
X101809272Y-108000800D01*
X101839959Y-108000800D01*
X101871000Y-107994626D01*
X101871000Y-108087559D01*
X101905164Y-108259312D01*
X101972179Y-108421099D01*
X102069469Y-108566704D01*
X102193296Y-108690531D01*
X102338901Y-108787821D01*
X102500688Y-108854836D01*
X102672441Y-108889000D01*
X102847559Y-108889000D01*
X103019312Y-108854836D01*
X103053201Y-108840799D01*
X103053201Y-111222464D01*
X103049760Y-111257400D01*
X103053201Y-111292336D01*
X103063492Y-111396820D01*
X103085900Y-111470689D01*
X103085900Y-111555459D01*
X103120064Y-111727212D01*
X103187079Y-111888999D01*
X103284369Y-112034604D01*
X103408196Y-112158431D01*
X103553801Y-112255721D01*
X103715588Y-112322736D01*
X103887341Y-112356900D01*
X104062459Y-112356900D01*
X104234212Y-112322736D01*
X104395999Y-112255721D01*
X104541604Y-112158431D01*
X104665431Y-112034604D01*
X104762721Y-111888999D01*
X104829736Y-111727212D01*
X104863900Y-111555459D01*
X104863900Y-111422445D01*
X104937541Y-111348804D01*
X105034831Y-111203199D01*
X105101846Y-111041412D01*
X105136010Y-110869659D01*
X105136010Y-110694541D01*
X105101846Y-110522788D01*
X105034831Y-110361001D01*
X104975600Y-110272355D01*
X104975600Y-105387758D01*
X104978902Y-105381580D01*
X105015212Y-105261882D01*
X105027472Y-105137400D01*
X105027472Y-104900472D01*
X105264400Y-104900472D01*
X105388882Y-104888212D01*
X105508580Y-104851902D01*
X105618894Y-104792937D01*
X105665830Y-104754418D01*
X106692700Y-105781289D01*
X106692701Y-111541728D01*
X106616079Y-111656401D01*
X106549064Y-111818188D01*
X106514900Y-111989941D01*
X106514900Y-112165059D01*
X106549064Y-112336812D01*
X106616079Y-112498599D01*
X106713369Y-112644204D01*
X106837196Y-112768031D01*
X106982801Y-112865321D01*
X107144588Y-112932336D01*
X107316341Y-112966500D01*
X107491459Y-112966500D01*
X107663212Y-112932336D01*
X107824999Y-112865321D01*
X107970604Y-112768031D01*
X108094431Y-112644204D01*
X108191721Y-112498599D01*
X108258736Y-112336812D01*
X108292900Y-112165059D01*
X108292900Y-111989941D01*
X108258736Y-111818188D01*
X108191721Y-111656401D01*
X108115100Y-111541729D01*
X108115100Y-110913955D01*
X108247412Y-110887636D01*
X108409199Y-110820621D01*
X108554804Y-110723331D01*
X108678631Y-110599504D01*
X108775921Y-110453899D01*
X108842936Y-110292112D01*
X108877100Y-110120359D01*
X108877100Y-109945241D01*
X108842936Y-109773488D01*
X108775921Y-109611701D01*
X108699300Y-109497029D01*
X108699300Y-108482128D01*
X108850688Y-108544836D01*
X109022441Y-108579000D01*
X109197559Y-108579000D01*
X109369312Y-108544836D01*
X109531099Y-108477821D01*
X109676704Y-108380531D01*
X109800531Y-108256704D01*
X109897821Y-108111099D01*
X109964836Y-107949312D01*
X109999000Y-107777559D01*
X109999000Y-107712935D01*
X110075696Y-107789631D01*
X110221301Y-107886921D01*
X110383088Y-107953936D01*
X110554841Y-107988100D01*
X110729959Y-107988100D01*
X110901712Y-107953936D01*
X111063499Y-107886921D01*
X111209104Y-107789631D01*
X111332931Y-107665804D01*
X111430221Y-107520199D01*
X111497236Y-107358412D01*
X111531400Y-107186659D01*
X111531400Y-107165805D01*
X111556641Y-107118582D01*
X111597308Y-106984521D01*
X111607599Y-106880037D01*
X111607599Y-106880030D01*
X111611039Y-106845101D01*
X111607599Y-106810173D01*
X111607599Y-106548257D01*
X111655706Y-106587737D01*
X111766020Y-106646702D01*
X111885718Y-106683012D01*
X111899000Y-106684320D01*
X111899001Y-107415276D01*
X111823079Y-107528901D01*
X111756064Y-107690688D01*
X111721900Y-107862441D01*
X111721900Y-108037559D01*
X111756064Y-108209312D01*
X111823079Y-108371099D01*
X111920369Y-108516704D01*
X112044196Y-108640531D01*
X112189801Y-108737821D01*
X112351588Y-108804836D01*
X112523341Y-108839000D01*
X112698459Y-108839000D01*
X112870212Y-108804836D01*
X113031999Y-108737821D01*
X113177604Y-108640531D01*
X113301431Y-108516704D01*
X113398721Y-108371099D01*
X113465736Y-108209312D01*
X113499900Y-108037559D01*
X113499900Y-107862441D01*
X113465736Y-107690688D01*
X113398721Y-107528901D01*
X113321400Y-107413182D01*
X113321400Y-106684320D01*
X113334682Y-106683012D01*
X113360200Y-106675271D01*
X113385718Y-106683012D01*
X113510200Y-106695272D01*
X114710200Y-106695272D01*
X114834682Y-106683012D01*
X114954380Y-106646702D01*
X115064694Y-106587737D01*
X115097950Y-106560444D01*
X115137779Y-106656599D01*
X115235069Y-106802204D01*
X115358896Y-106926031D01*
X115504501Y-107023321D01*
X115666288Y-107090336D01*
X115697001Y-107096445D01*
X115697001Y-107667211D01*
X115345810Y-108018403D01*
X115318674Y-108040673D01*
X115296404Y-108067809D01*
X115296403Y-108067810D01*
X115229798Y-108148968D01*
X115189970Y-108223481D01*
X115163759Y-108272519D01*
X115123092Y-108406580D01*
X115119801Y-108439990D01*
X115109360Y-108546000D01*
X115112801Y-108580936D01*
X115112800Y-112705099D01*
X115048482Y-112685588D01*
X114924000Y-112673328D01*
X114184000Y-112673328D01*
X114059518Y-112685588D01*
X113995200Y-112705099D01*
X113995200Y-112640958D01*
X114090321Y-112498599D01*
X114157336Y-112336812D01*
X114191500Y-112165059D01*
X114191500Y-111989941D01*
X114157336Y-111818188D01*
X114090321Y-111656401D01*
X113993031Y-111510796D01*
X113869204Y-111386969D01*
X113723599Y-111289679D01*
X113561812Y-111222664D01*
X113390059Y-111188500D01*
X113214941Y-111188500D01*
X113043188Y-111222664D01*
X112881401Y-111289679D01*
X112735796Y-111386969D01*
X112717471Y-111405294D01*
X112714909Y-111379280D01*
X112705664Y-111348804D01*
X112674242Y-111245218D01*
X112608202Y-111121667D01*
X112541598Y-111040509D01*
X112541593Y-111040504D01*
X112519327Y-111013373D01*
X112492196Y-110991107D01*
X112286142Y-110785054D01*
X112259236Y-110649788D01*
X112192221Y-110488001D01*
X112094931Y-110342396D01*
X111971104Y-110218569D01*
X111825499Y-110121279D01*
X111663712Y-110054264D01*
X111491959Y-110020100D01*
X111316841Y-110020100D01*
X111145088Y-110054264D01*
X110983301Y-110121279D01*
X110837696Y-110218569D01*
X110713869Y-110342396D01*
X110616579Y-110488001D01*
X110569686Y-110601209D01*
X110510088Y-110613064D01*
X110348301Y-110680079D01*
X110202696Y-110777369D01*
X110078869Y-110901196D01*
X109981579Y-111046801D01*
X109914564Y-111208588D01*
X109880400Y-111380341D01*
X109880400Y-111555459D01*
X109914564Y-111727212D01*
X109981579Y-111888999D01*
X110032801Y-111965658D01*
X110032801Y-112705099D01*
X109968482Y-112685588D01*
X109844000Y-112673328D01*
X109104000Y-112673328D01*
X108979518Y-112685588D01*
X108859820Y-112721898D01*
X108749506Y-112780863D01*
X108652815Y-112860215D01*
X108573463Y-112956906D01*
X108514498Y-113067220D01*
X108478188Y-113186918D01*
X108465928Y-113311400D01*
X108465928Y-116101400D01*
X108478188Y-116225882D01*
X108514498Y-116345580D01*
X108573463Y-116455894D01*
X108652815Y-116552585D01*
X108749506Y-116631937D01*
X108859820Y-116690902D01*
X108979518Y-116727212D01*
X109093115Y-116738400D01*
X108979518Y-116749588D01*
X108859820Y-116785898D01*
X108749506Y-116844863D01*
X108652815Y-116924215D01*
X108573463Y-117020906D01*
X108514498Y-117131220D01*
X108478188Y-117250918D01*
X108465928Y-117375400D01*
X108465928Y-120165400D01*
X108478188Y-120289882D01*
X108514498Y-120409580D01*
X108573463Y-120519894D01*
X108652815Y-120616585D01*
X108749506Y-120695937D01*
X108859820Y-120754902D01*
X108979518Y-120791212D01*
X109104000Y-120803472D01*
X109844000Y-120803472D01*
X109968482Y-120791212D01*
X110088180Y-120754902D01*
X110109000Y-120743773D01*
X110129820Y-120754902D01*
X110249518Y-120791212D01*
X110374000Y-120803472D01*
X110458250Y-120800400D01*
X110617000Y-120641650D01*
X110617000Y-118897400D01*
X110597000Y-118897400D01*
X110597000Y-118643400D01*
X110617000Y-118643400D01*
X110617000Y-118623400D01*
X110871000Y-118623400D01*
X110871000Y-118643400D01*
X110891000Y-118643400D01*
X110891000Y-118897400D01*
X110871000Y-118897400D01*
X110871000Y-120641650D01*
X111029750Y-120800400D01*
X111114000Y-120803472D01*
X111238482Y-120791212D01*
X111358180Y-120754902D01*
X111379000Y-120743773D01*
X111399820Y-120754902D01*
X111519518Y-120791212D01*
X111644000Y-120803472D01*
X112384000Y-120803472D01*
X112508482Y-120791212D01*
X112628180Y-120754902D01*
X112649000Y-120743773D01*
X112669820Y-120754902D01*
X112789518Y-120791212D01*
X112914000Y-120803472D01*
X113654000Y-120803472D01*
X113778482Y-120791212D01*
X113898180Y-120754902D01*
X113919000Y-120743773D01*
X113939820Y-120754902D01*
X114059518Y-120791212D01*
X114184000Y-120803472D01*
X114924000Y-120803472D01*
X115048482Y-120791212D01*
X115168180Y-120754902D01*
X115189000Y-120743773D01*
X115209820Y-120754902D01*
X115329518Y-120791212D01*
X115454000Y-120803472D01*
X116194000Y-120803472D01*
X116318482Y-120791212D01*
X116438180Y-120754902D01*
X116459000Y-120743773D01*
X116479820Y-120754902D01*
X116599518Y-120791212D01*
X116724000Y-120803472D01*
X117464000Y-120803472D01*
X117588482Y-120791212D01*
X117708180Y-120754902D01*
X117818494Y-120695937D01*
X117915185Y-120616585D01*
X117994537Y-120519894D01*
X118053502Y-120409580D01*
X118089812Y-120289882D01*
X118102072Y-120165400D01*
X118102072Y-117743116D01*
X118547989Y-117297200D01*
X118625677Y-117297200D01*
X118632488Y-117309942D01*
X118741377Y-117442623D01*
X118874058Y-117551512D01*
X119025433Y-117632423D01*
X119189684Y-117682248D01*
X119360500Y-117699072D01*
X119935500Y-117699072D01*
X120106316Y-117682248D01*
X120270567Y-117632423D01*
X120421942Y-117551512D01*
X120523000Y-117468575D01*
X120624058Y-117551512D01*
X120775433Y-117632423D01*
X120939684Y-117682248D01*
X121110500Y-117699072D01*
X121685500Y-117699072D01*
X121856316Y-117682248D01*
X122020567Y-117632423D01*
X122171942Y-117551512D01*
X122304623Y-117442623D01*
X122413512Y-117309942D01*
X122494423Y-117158567D01*
X122544248Y-116994316D01*
X122561072Y-116823500D01*
X122561072Y-116348500D01*
X122544248Y-116177684D01*
X122494423Y-116013433D01*
X122462005Y-115952782D01*
X123604695Y-114810093D01*
X123631826Y-114787827D01*
X123654093Y-114760695D01*
X123654097Y-114760691D01*
X123720702Y-114679533D01*
X123780862Y-114566981D01*
X123786742Y-114555981D01*
X123827409Y-114421920D01*
X123837700Y-114317436D01*
X123837700Y-114317427D01*
X123841140Y-114282501D01*
X123837700Y-114247575D01*
X123837700Y-111680964D01*
X123995106Y-111765099D01*
X124275029Y-111850013D01*
X124493190Y-111871500D01*
X124889090Y-111871500D01*
X125107251Y-111850013D01*
X125387174Y-111765099D01*
X125645154Y-111627206D01*
X125871274Y-111441634D01*
X126056846Y-111215514D01*
X126194739Y-110957534D01*
X126279653Y-110677611D01*
X126308325Y-110386500D01*
X126279653Y-110095389D01*
X126194739Y-109815466D01*
X126056846Y-109557486D01*
X125871274Y-109331366D01*
X125645154Y-109145794D01*
X125627766Y-109136500D01*
X125645154Y-109127206D01*
X125871274Y-108941634D01*
X126056846Y-108715514D01*
X126194739Y-108457534D01*
X126279653Y-108177611D01*
X126308325Y-107886500D01*
X126279653Y-107595389D01*
X126194739Y-107315466D01*
X126056846Y-107057486D01*
X125871274Y-106831366D01*
X125807803Y-106779277D01*
X125909526Y-106724905D01*
X126044102Y-106614462D01*
X126154545Y-106479886D01*
X126236612Y-106326350D01*
X126287148Y-106159754D01*
X126304212Y-105986500D01*
X126304212Y-104786500D01*
X126287148Y-104613246D01*
X126236612Y-104446650D01*
X126154545Y-104293114D01*
X126044102Y-104158538D01*
X125909526Y-104048095D01*
X125755990Y-103966028D01*
X125589394Y-103915492D01*
X125416140Y-103898428D01*
X123966140Y-103898428D01*
X123926140Y-103902368D01*
X123926140Y-103664863D01*
X123878680Y-103426264D01*
X123785583Y-103201508D01*
X123650427Y-102999233D01*
X123478407Y-102827213D01*
X123276132Y-102692057D01*
X123051376Y-102598960D01*
X122812777Y-102551500D01*
X122569503Y-102551500D01*
X122330904Y-102598960D01*
X122106148Y-102692057D01*
X121903873Y-102827213D01*
X121731853Y-102999233D01*
X121596697Y-103201508D01*
X121503600Y-103426264D01*
X121456140Y-103664863D01*
X121456140Y-103908137D01*
X121503600Y-104146736D01*
X121596697Y-104371492D01*
X121731853Y-104573767D01*
X121903873Y-104745787D01*
X122106148Y-104880943D01*
X122330904Y-104974040D01*
X122569503Y-105021500D01*
X122812777Y-105021500D01*
X123051376Y-104974040D01*
X123078068Y-104962984D01*
X123078068Y-105986500D01*
X123078721Y-105993131D01*
X121198100Y-107873753D01*
X121198100Y-100776871D01*
X121274721Y-100662199D01*
X121341736Y-100500412D01*
X121375900Y-100328659D01*
X121375900Y-100153541D01*
X121341736Y-99981788D01*
X121274721Y-99820001D01*
X121177431Y-99674396D01*
X121053604Y-99550569D01*
X120907999Y-99453279D01*
X120746212Y-99386264D01*
X120574459Y-99352100D01*
X120399341Y-99352100D01*
X120227588Y-99386264D01*
X120212125Y-99392669D01*
X120239000Y-99257559D01*
X120239000Y-99082441D01*
X120204836Y-98910688D01*
X120137821Y-98748901D01*
X120040531Y-98603296D01*
X119916704Y-98479469D01*
X119771099Y-98382179D01*
X119609312Y-98315164D01*
X119437559Y-98281000D01*
X119262441Y-98281000D01*
X119090688Y-98315164D01*
X118928901Y-98382179D01*
X118783296Y-98479469D01*
X118659469Y-98603296D01*
X118562179Y-98748901D01*
X118495164Y-98910688D01*
X118461000Y-99082441D01*
X118461000Y-99257559D01*
X118495164Y-99429312D01*
X118562179Y-99591099D01*
X118638801Y-99705772D01*
X118638800Y-106125005D01*
X118638801Y-106125015D01*
X118638800Y-110608412D01*
X116615810Y-112631403D01*
X116588674Y-112653673D01*
X116566404Y-112680809D01*
X116566403Y-112680810D01*
X116550205Y-112700547D01*
X116535200Y-112705099D01*
X116535200Y-108840587D01*
X116886396Y-108489392D01*
X116913527Y-108467126D01*
X116935794Y-108439994D01*
X116935798Y-108439990D01*
X117002403Y-108358832D01*
X117034020Y-108299680D01*
X117068443Y-108235280D01*
X117109110Y-108101219D01*
X117119401Y-107996735D01*
X117119401Y-107996728D01*
X117122841Y-107961799D01*
X117119401Y-107926871D01*
X117119401Y-102533099D01*
X117187020Y-102431900D01*
X117254035Y-102270113D01*
X117288199Y-102098360D01*
X117288199Y-101923242D01*
X117254035Y-101751489D01*
X117187020Y-101589702D01*
X117089730Y-101444097D01*
X116965903Y-101320270D01*
X116820298Y-101222980D01*
X116658511Y-101155965D01*
X116486758Y-101121801D01*
X116311640Y-101121801D01*
X116139887Y-101155965D01*
X115978100Y-101222980D01*
X115900200Y-101275031D01*
X115900200Y-100470887D01*
X116109115Y-100261972D01*
X116503900Y-100261972D01*
X116674716Y-100245148D01*
X116838967Y-100195323D01*
X116990342Y-100114412D01*
X117123023Y-100005523D01*
X117231912Y-99872842D01*
X117312823Y-99721467D01*
X117362648Y-99557216D01*
X117379472Y-99386400D01*
X117379472Y-98911400D01*
X117362648Y-98740584D01*
X117312823Y-98576333D01*
X117231912Y-98424958D01*
X117123023Y-98292277D01*
X116990342Y-98183388D01*
X116838967Y-98102477D01*
X116674716Y-98052652D01*
X116503900Y-98035828D01*
X115928900Y-98035828D01*
X115758084Y-98052652D01*
X115593833Y-98102477D01*
X115442458Y-98183388D01*
X115341400Y-98266325D01*
X115240342Y-98183388D01*
X115088967Y-98102477D01*
X114924716Y-98052652D01*
X114753900Y-98035828D01*
X114178900Y-98035828D01*
X114008084Y-98052652D01*
X113843833Y-98102477D01*
X113798463Y-98126728D01*
X113685604Y-98013869D01*
X113539999Y-97916579D01*
X113378212Y-97849564D01*
X113206459Y-97815400D01*
X113031341Y-97815400D01*
X112859588Y-97849564D01*
X112697801Y-97916579D01*
X112552196Y-98013869D01*
X112428369Y-98137696D01*
X112331079Y-98283301D01*
X112264064Y-98445088D01*
X112239766Y-98567240D01*
X111782803Y-98567240D01*
X111775992Y-98554498D01*
X111730097Y-98498575D01*
X111821712Y-98386942D01*
X111902623Y-98235567D01*
X111952448Y-98071316D01*
X111969272Y-97900500D01*
X111969272Y-97425500D01*
X111952448Y-97254684D01*
X111902623Y-97090433D01*
X111821712Y-96939058D01*
X111712823Y-96806377D01*
X111636044Y-96743366D01*
X111636936Y-96741212D01*
X111671100Y-96569459D01*
X111671100Y-96394341D01*
X111636936Y-96222588D01*
X111569921Y-96060801D01*
X111472631Y-95915196D01*
X111348804Y-95791369D01*
X111203199Y-95694079D01*
X111041412Y-95627064D01*
X110869659Y-95592900D01*
X110694541Y-95592900D01*
X110522788Y-95627064D01*
X110361001Y-95694079D01*
X110215396Y-95791369D01*
X110091569Y-95915196D01*
X109994279Y-96060801D01*
X109927264Y-96222588D01*
X109893100Y-96394341D01*
X109893100Y-96569459D01*
X109907620Y-96642457D01*
X109825380Y-96598498D01*
X109705682Y-96562188D01*
X109581200Y-96549928D01*
X109341950Y-96553000D01*
X109183200Y-96711750D01*
X109183200Y-97536000D01*
X109203200Y-97536000D01*
X109203200Y-97790000D01*
X109183200Y-97790000D01*
X109183200Y-98281470D01*
X109137480Y-98327190D01*
X109137480Y-99151440D01*
X109157480Y-99151440D01*
X109157480Y-99405440D01*
X109137480Y-99405440D01*
X109137480Y-100229690D01*
X109296230Y-100388440D01*
X109535480Y-100391512D01*
X109659962Y-100379252D01*
X109779660Y-100342942D01*
X109889974Y-100283977D01*
X109962641Y-100224341D01*
X109986538Y-100243952D01*
X110049280Y-100277488D01*
X110049281Y-102624984D01*
X109939169Y-102735096D01*
X109841879Y-102880701D01*
X109774864Y-103042488D01*
X109740700Y-103214241D01*
X109740700Y-103389359D01*
X109774864Y-103561112D01*
X109841879Y-103722899D01*
X109939169Y-103868504D01*
X110062996Y-103992331D01*
X110208601Y-104089621D01*
X110298279Y-104126767D01*
X108699300Y-105725747D01*
X108699300Y-100388767D01*
X108724730Y-100388440D01*
X108883480Y-100229690D01*
X108883480Y-99405440D01*
X108863480Y-99405440D01*
X108863480Y-99151440D01*
X108883480Y-99151440D01*
X108883480Y-98659970D01*
X108929200Y-98614250D01*
X108929200Y-97790000D01*
X108909200Y-97790000D01*
X108909200Y-97536000D01*
X108929200Y-97536000D01*
X108929200Y-96711750D01*
X108770450Y-96553000D01*
X108699300Y-96552086D01*
X108699300Y-94934142D01*
X108770704Y-94886431D01*
X108894531Y-94762604D01*
X108991821Y-94616999D01*
X109058836Y-94455212D01*
X109093000Y-94283459D01*
X109093000Y-94108341D01*
X109058836Y-93936588D01*
X108991821Y-93774801D01*
X108894531Y-93629196D01*
X108770704Y-93505369D01*
X108625099Y-93408079D01*
X108463312Y-93341064D01*
X108291559Y-93306900D01*
X108116441Y-93306900D01*
X107944688Y-93341064D01*
X107782901Y-93408079D01*
X107637296Y-93505369D01*
X107513469Y-93629196D01*
X107416179Y-93774801D01*
X107349164Y-93936588D01*
X107315000Y-94108341D01*
X107315000Y-94180709D01*
X107299626Y-94231391D01*
X107297504Y-94229269D01*
X107151899Y-94131979D01*
X106990112Y-94064964D01*
X106818359Y-94030800D01*
X106643241Y-94030800D01*
X106631784Y-94033079D01*
X106603897Y-93980906D01*
X106524545Y-93884215D01*
X106465064Y-93835400D01*
X106524545Y-93786585D01*
X106603897Y-93689894D01*
X106662862Y-93579580D01*
X106699172Y-93459882D01*
X106711432Y-93335400D01*
X106711432Y-93016141D01*
X109499400Y-93016141D01*
X109499400Y-93191259D01*
X109533564Y-93363012D01*
X109600579Y-93524799D01*
X109697869Y-93670404D01*
X109821696Y-93794231D01*
X109967301Y-93891521D01*
X110129088Y-93958536D01*
X110300841Y-93992700D01*
X110475959Y-93992700D01*
X110638770Y-93960315D01*
X110638777Y-93960323D01*
X110771458Y-94069212D01*
X110922833Y-94150123D01*
X111087084Y-94199948D01*
X111257900Y-94216772D01*
X111832900Y-94216772D01*
X112003716Y-94199948D01*
X112167967Y-94150123D01*
X112319342Y-94069212D01*
X112343239Y-94049601D01*
X112415906Y-94109237D01*
X112526220Y-94168202D01*
X112645918Y-94204512D01*
X112770400Y-94216772D01*
X113009650Y-94213700D01*
X113168400Y-94054950D01*
X113168400Y-93230700D01*
X113422400Y-93230700D01*
X113422400Y-94054950D01*
X113581150Y-94213700D01*
X113820400Y-94216772D01*
X113944882Y-94204512D01*
X114064580Y-94168202D01*
X114174894Y-94109237D01*
X114271585Y-94029885D01*
X114350937Y-93933194D01*
X114409902Y-93822880D01*
X114446212Y-93703182D01*
X114458472Y-93578700D01*
X114455400Y-93389450D01*
X114296650Y-93230700D01*
X113422400Y-93230700D01*
X113168400Y-93230700D01*
X113148400Y-93230700D01*
X113148400Y-92976700D01*
X113168400Y-92976700D01*
X113168400Y-92152450D01*
X113422400Y-92152450D01*
X113422400Y-92976700D01*
X114296650Y-92976700D01*
X114455400Y-92817950D01*
X114458472Y-92628700D01*
X114446212Y-92504218D01*
X114409902Y-92384520D01*
X114350937Y-92274206D01*
X114271585Y-92177515D01*
X114174894Y-92098163D01*
X114064580Y-92039198D01*
X113944882Y-92002888D01*
X113820400Y-91990628D01*
X113581150Y-91993700D01*
X113422400Y-92152450D01*
X113168400Y-92152450D01*
X113009650Y-91993700D01*
X112770400Y-91990628D01*
X112645918Y-92002888D01*
X112526220Y-92039198D01*
X112415906Y-92098163D01*
X112343239Y-92157799D01*
X112319342Y-92138188D01*
X112167967Y-92057277D01*
X112003716Y-92007452D01*
X111832900Y-91990628D01*
X111257900Y-91990628D01*
X111087084Y-92007452D01*
X110922833Y-92057277D01*
X110771458Y-92138188D01*
X110638777Y-92247077D01*
X110638770Y-92247085D01*
X110475959Y-92214700D01*
X110300841Y-92214700D01*
X110129088Y-92248864D01*
X109967301Y-92315879D01*
X109821696Y-92413169D01*
X109697869Y-92536996D01*
X109600579Y-92682601D01*
X109533564Y-92844388D01*
X109499400Y-93016141D01*
X106711432Y-93016141D01*
X106711432Y-92135400D01*
X106699172Y-92010918D01*
X106662862Y-91891220D01*
X106603897Y-91780906D01*
X106524545Y-91684215D01*
X106427854Y-91604863D01*
X106317540Y-91545898D01*
X106197842Y-91509588D01*
X106073360Y-91497328D01*
X105173360Y-91497328D01*
X105048878Y-91509588D01*
X104929180Y-91545898D01*
X104818866Y-91604863D01*
X104722175Y-91684215D01*
X104642823Y-91780906D01*
X104583858Y-91891220D01*
X104547548Y-92010918D01*
X104536730Y-92120762D01*
X104421316Y-92085752D01*
X104250500Y-92068928D01*
X103939138Y-92068928D01*
X105017832Y-91348168D01*
X106386964Y-90612507D01*
X107820303Y-90011458D01*
X109304651Y-89550556D01*
X110826341Y-89234044D01*
X112371362Y-89064837D01*
X113925487Y-89044492D01*
X115474408Y-89173197D01*
G36*
X110061000Y-116777653D02*
G01*
X109968482Y-116749588D01*
X109854885Y-116738400D01*
X109968482Y-116727212D01*
X110061000Y-116699147D01*
X110061000Y-116777653D01*
X110061000Y-116777653D01*
G37*
X110061000Y-116777653D02*
X109968482Y-116749588D01*
X109854885Y-116738400D01*
X109968482Y-116727212D01*
X110061000Y-116699147D01*
X110061000Y-116777653D01*
G36*
X102560680Y-95341640D02*
G01*
X102580680Y-95341640D01*
X102580680Y-95587640D01*
X102560680Y-95587640D01*
X102560680Y-96241640D01*
X102611430Y-96241640D01*
X102719430Y-96349640D01*
X102819566Y-96352556D01*
X102944288Y-96343052D01*
X103064760Y-96309399D01*
X103176352Y-96252889D01*
X103190694Y-96241640D01*
X103309930Y-96241640D01*
X103465533Y-96086037D01*
X103604684Y-96128248D01*
X103775500Y-96145072D01*
X104250500Y-96145072D01*
X104421316Y-96128248D01*
X104585567Y-96078423D01*
X104736062Y-95997982D01*
X104818866Y-96065937D01*
X104824187Y-96068781D01*
X104796868Y-96158838D01*
X104784608Y-96283320D01*
X104787680Y-96522570D01*
X104946430Y-96681320D01*
X105770680Y-96681320D01*
X105770680Y-96661320D01*
X106024680Y-96661320D01*
X106024680Y-96681320D01*
X106848930Y-96681320D01*
X107007680Y-96522570D01*
X107010752Y-96283320D01*
X106998492Y-96158838D01*
X106962182Y-96039140D01*
X106903217Y-95928826D01*
X106823865Y-95832135D01*
X106795431Y-95808800D01*
X106818359Y-95808800D01*
X106990112Y-95774636D01*
X107151899Y-95707621D01*
X107276901Y-95624098D01*
X107276901Y-97040967D01*
X107275559Y-97040700D01*
X107100441Y-97040700D01*
X106978555Y-97064945D01*
X106848930Y-96935320D01*
X106024680Y-96935320D01*
X106024680Y-96955320D01*
X105770680Y-96955320D01*
X105770680Y-96935320D01*
X104946430Y-96935320D01*
X104787680Y-97094070D01*
X104784608Y-97333320D01*
X104796868Y-97457802D01*
X104833178Y-97577500D01*
X104868959Y-97644441D01*
X104834569Y-97637600D01*
X104659451Y-97637600D01*
X104551229Y-97659127D01*
X104502352Y-97567684D01*
X104496166Y-97560146D01*
X104435747Y-97486525D01*
X104435738Y-97486516D01*
X104413476Y-97459390D01*
X104386350Y-97437128D01*
X103735674Y-96786454D01*
X103713400Y-96759313D01*
X103605106Y-96670438D01*
X103481554Y-96604398D01*
X103402797Y-96580507D01*
X103309930Y-96487640D01*
X103192484Y-96487640D01*
X103188174Y-96484103D01*
X103077860Y-96425138D01*
X102958162Y-96388828D01*
X102833680Y-96376568D01*
X102286680Y-96376568D01*
X102286680Y-96241640D01*
X102306680Y-96241640D01*
X102306680Y-95587640D01*
X102286680Y-95587640D01*
X102286680Y-95341640D01*
X102306680Y-95341640D01*
X102306680Y-95317640D01*
X102560680Y-95317640D01*
X102560680Y-95341640D01*
X102560680Y-95341640D01*
G37*
X102560680Y-95341640D02*
X102580680Y-95341640D01*
X102580680Y-95587640D01*
X102560680Y-95587640D01*
X102560680Y-96241640D01*
X102611430Y-96241640D01*
X102719430Y-96349640D01*
X102819566Y-96352556D01*
X102944288Y-96343052D01*
X103064760Y-96309399D01*
X103176352Y-96252889D01*
X103190694Y-96241640D01*
X103309930Y-96241640D01*
X103465533Y-96086037D01*
X103604684Y-96128248D01*
X103775500Y-96145072D01*
X104250500Y-96145072D01*
X104421316Y-96128248D01*
X104585567Y-96078423D01*
X104736062Y-95997982D01*
X104818866Y-96065937D01*
X104824187Y-96068781D01*
X104796868Y-96158838D01*
X104784608Y-96283320D01*
X104787680Y-96522570D01*
X104946430Y-96681320D01*
X105770680Y-96681320D01*
X105770680Y-96661320D01*
X106024680Y-96661320D01*
X106024680Y-96681320D01*
X106848930Y-96681320D01*
X107007680Y-96522570D01*
X107010752Y-96283320D01*
X106998492Y-96158838D01*
X106962182Y-96039140D01*
X106903217Y-95928826D01*
X106823865Y-95832135D01*
X106795431Y-95808800D01*
X106818359Y-95808800D01*
X106990112Y-95774636D01*
X107151899Y-95707621D01*
X107276901Y-95624098D01*
X107276901Y-97040967D01*
X107275559Y-97040700D01*
X107100441Y-97040700D01*
X106978555Y-97064945D01*
X106848930Y-96935320D01*
X106024680Y-96935320D01*
X106024680Y-96955320D01*
X105770680Y-96955320D01*
X105770680Y-96935320D01*
X104946430Y-96935320D01*
X104787680Y-97094070D01*
X104784608Y-97333320D01*
X104796868Y-97457802D01*
X104833178Y-97577500D01*
X104868959Y-97644441D01*
X104834569Y-97637600D01*
X104659451Y-97637600D01*
X104551229Y-97659127D01*
X104502352Y-97567684D01*
X104496166Y-97560146D01*
X104435747Y-97486525D01*
X104435738Y-97486516D01*
X104413476Y-97459390D01*
X104386350Y-97437128D01*
X103735674Y-96786454D01*
X103713400Y-96759313D01*
X103605106Y-96670438D01*
X103481554Y-96604398D01*
X103402797Y-96580507D01*
X103309930Y-96487640D01*
X103192484Y-96487640D01*
X103188174Y-96484103D01*
X103077860Y-96425138D01*
X102958162Y-96388828D01*
X102833680Y-96376568D01*
X102286680Y-96376568D01*
X102286680Y-96241640D01*
X102306680Y-96241640D01*
X102306680Y-95587640D01*
X102286680Y-95587640D01*
X102286680Y-95341640D01*
X102306680Y-95341640D01*
X102306680Y-95317640D01*
X102560680Y-95317640D01*
X102560680Y-95341640D01*
G36*
X102194901Y-94590021D02*
G01*
X102306678Y-94636321D01*
X102306678Y-94738388D01*
X102172145Y-94603855D01*
X102165483Y-94570364D01*
X102194901Y-94590021D01*
X102194901Y-94590021D01*
G37*
X102194901Y-94590021D02*
X102306678Y-94636321D01*
X102306678Y-94738388D01*
X102172145Y-94603855D01*
X102165483Y-94570364D01*
X102194901Y-94590021D01*
M02*
